<?xml version="1.0" encoding="UTF-8" standalone="no"?>
<svg
   width="1677.9166"
   height="666.13593"
   version="1.1"
   id="svg4"
   xmlns="http://www.w3.org/2000/svg"
   xmlns:svg="http://www.w3.org/2000/svg">
  <defs
     id="defs8" />
  <g
     id="g31590"
     transform="matrix(1.4517922,0,0,1.4520502,-36.275391,-16.358217)"
     style="stroke-width:1.00005428;stroke-miterlimit:4;stroke-dasharray:none">
    <path
       style="fill:#282878;fill-opacity:1;stroke:none;stroke-width:1.00005428;stroke-miterlimit:4;stroke-dasharray:none"
       d="m 868.92997,187.99997 c 4.254,-0.4363 15.73891,-3.39561 19.78652,-0.79606 1.90798,1.22539 1.702,4.79712 1.6652,7.39546 l -0.86798,61.28458 c -0.16103,11.36961 -17.62407,15.58563 -21.6151,16.63741 v 6.3886 h 64.47488 v -6.3886 c -2.98335,-0.97961 -21.18922,-5.85674 -21.35352,-16.85457 l -0.09,-90.66682 -2.19695,-0.0662 -39.843,18.74984 V 188 m -158.06895,66 c 5.3724,16.33321 13.5718,24.78518 31.54555,24.77456 15.82816,-0.009 25.31073,-12.88663 28.85635,-23.77456 11.41673,-35.05859 3.08299,-88.69502 -29.59183,-88.45876 -31.3436,0.22663 -42.50585,51.9012 -30.81007,87.45876 z m 114.1089,-18 c -3.2591,17.31337 -18.95684,31.22307 -39.96077,39.1116 L 785,279 c 29.977,-0.451 59.61296,-19.305 67.46196,-49 6.071,-22.9674 -1.67193,-63.35352 -34.11631,-63.40977 -24.83042,-0.043 -33.66269,15.33687 -33.39569,38.40977 1.2592,26.50021 13.2198,35.85431 39.98,31 m -196,19 h 37.97855 v 23.83202 h 23.52145 V 255 h 9.5 v -19.21333 h -9.5 v -69.26201 h -13.59412 l -47.88913,69.26201 V 255 m 187.18325,-81.43 c 5.959,-1.6661 9.926,4.6528 11.29,9.4372 3.002,10.5292 3.139,22.1244 2.357,32.9919 -0.335,4.6514 -1.591,10.6116 -6.96,11.7353 -16.966,3.5508 -14.541,-32.506 -13.499,-41.7343 0.511,-4.5193 1.657,-10.9885 6.812,-12.4301 m -73.9758,0.0421 c 7.54562,-0.0429 8.52686,14.13629 8.7988,19.38786 1.02603,19.81429 0.458,40.1985 -0.052,60 -0.17,6.617 1.20832,18.69853 -8.87074,18.8565 -9.40508,0.14741 -9.69926,-13.0005 -10.00026,-18.8565 -1.036,-20.1487 -0.54162,-39.8296 -0.065,-60 0.14038,-5.9411 0.51616,-18.32766 9.27118,-19.37273 m -74.32763,18.37273 v 43.78667 h -29.60547 l 29.62692,-43.78667"
       id="path2-7" />
    <g
       id="g910"
       transform="matrix(0.11297871,0,0,0.12177724,272.25044,149.86095)"
       style="stroke-width:8.52593863;stroke-miterlimit:4;stroke-dasharray:none">
      <path
         style="fill:#282878;fill-opacity:1;stroke:none;stroke-width:8.52593863;stroke-miterlimit:4;stroke-dasharray:none"
         d="m 303,124.457 c -19.961,1.746 -40.966,2.278 -60,9.213 -72.556,26.435 -115.648,94.155 -114.978,170.33 0.7,79.591 63.42,146.473 137.978,164.39 18.85,4.53 68.25098,2.43253 76.41912,-2.91876 V 386.17113 C 340.15775,373.72218 304.21331,391.1776 272,379.249 200.52087,355.4036 202.16227,251.69544 255,223.827 c 16.904,-9.255 39.363,-17.646 59,-13.135 22.16371,4.10735 21.81222,12.32822 28.41912,2.6232 V 135.70766 C 335.88312,123.61466 315,123.407 303,124.457 M 2189,245 h -1 c -23.23,-33.847 -89.92,-26.487 -118,-3.513 -36.07,29.512 -43.15,96.253 -19.85,135.513 34.4831,51.77784 107.5578,58.80295 139.2,17.18595 v 24.82868 h 62.2142 V 138.49988 l -62.2647,-0.47024 V 243.18555 M 899.50606,212.52527 c 11.61,1.87352 12.27283,-46.41983 2.72886,-51.04174 C 889.25485,152.39873 869.872,151.82 856,150.882 c -45.247,-3.06 -92.382,2.337 -127.991,32.716 -48.505,41.381 -56.421,124.94 -19.948,176.402 41.91979,53.35127 110.56005,66.27052 170.939,53.443 20.43416,-5.68077 22.29655,-2.07269 24.26255,-17.48869 0.923,-7.234 4.93781,-38.46393 -2.69044,-37.69738 C 853.9983,369.26977 813.45126,368.95018 781.011,346.557 743.99633,316.09638 742.84016,264.39627 769.366,235.004 801.209,187.9 853.97206,197.66627 899.50606,212.52527 M 1014,212.456 C 893.48061,214.43459 885.28054,362.3899 945.056,398 c 34.57802,28.15213 106.0692,29.27007 142.944,5.648 92.6924,-76.13768 36.6586,-200.60699 -74,-191.192 m 888,2.155 c -20.53,3.186 -39.48,9.787 -57,20.832 -45.4,28.631 -56.74,102.706 -22.51,144.557 39.0716,52.51757 128.7723,60.28332 176.05,14.543 61.9478,-82.88915 14.9877,-191.96502 -96.54,-179.932 m 461,0.897 c -89.2067,10.46696 -127.9698,105.53127 -78.19,167.436 24.7172,40.9944 108.5477,52.99226 153.99,27.198 50.38,-29.498 63.46,-105.792 31.4,-153.142 -22.6,-33.359 -68.7,-46.21 -107.2,-41.492 m 321.3617,121.31691 h 134.4439 c 3.3514,-25.1144 -4.427,-75.17127 -19.2956,-92.62291 -27.4,-31.1 -82.51,-37.985 -119.51,-20.638 -49.81,23.35 -66.27,105.895 -38.67,151.436 29.2428,50.328 103.8998,60.02722 161.7099,33.44044 v -37.4924 l -3.1374,-3.09234 c -14.1661,6.21133 -7.6455,5.52401 -33.8263,10.79644 -35.199,5.24319 -81.1325,0.8242 -81.7145,-41.4505 m -1485.577,-99.72438 v -16.96261 h -54.5528 v 197.3587 h 57.7271 V 289.90848 c 0.2741,-32.22913 69.1173,-30.45443 69.3149,0 v 127.96487 h 57.7353 V 289.90848 c -0.026,-32.54569 67.4079,-28.62795 68.2172,0 v 127.96487 h 56.5871 V 289.90848 c 0,-32.00564 -4.6963,-47.83309 -23.4067,-58.7099 -32.1848,-18.70971 -83.7237,-17.53949 -111.1427,11.89029 C 1298.7138,216.36262 1267.0977,210.5412 1238,219.53 c -14.9433,4.212 -26.7803,10.65213 -39.0004,17.94726 m 333.0857,4.24636 v -21.20897 h -54.4856 v 197.3587 h 59.5553 V 289.90848 c 0.087,-30.45303 65.1681,-31.2399 65.4091,0 v 127.96487 h 62.9675 V 289.90848 c 0.4697,-20.59834 65.536,-28.52107 65.7242,0 v 127.96487 h 56.8492 V 289.90848 c 0,-13.7901 -1.2512,-36.14395 -11.468,-48.73516 -25.7643,-31.75192 -87.1205,-33.45253 -122.637,1.91555 -41.8017,-37.93331 -81.6766,-37.4725 -122.3214,-1.36525 M 2550.7123,248 v -30.42515 h -50.203 v 200.96668 h 57.3224 V 300.00004 c -0.6658,-10.5628 23.0683,-28.017 39.1683,-30.35 4.1815,-1.066 17.1151,-2.8028 27.0914,-1.97501 l 1.8755,-43.77486 C 2602.161,205.06097 2560.1373,231.84024 2551,248 M 433.4985,289.964 498,221.52789 H 344.536 V 290 M 1020,250.624 c 68.7067,-0.50234 75.5899,123.38556 7,127.252 -83.25649,-1.64149 -70.52373,-125.27423 -7,-127.252 m 1747,51.30085 -81.4849,0.0376 c 0.4872,-59.85237 80.7427,-59.98364 81.4849,0 M 1914,253.381 c 77.5814,4.00331 67.3232,121.91168 7,126.355 -70.48,4.884 -71.76,-121.409 -7,-126.355 m 461,1.03 c 23.84,-2.308 40.9765,17.13396 48.6965,37.79602 11.1206,27.0527 -2.4928,86.99811 -44.6965,89.28798 -86.5402,-4.40435 -57.2695,-123.60973 -4,-127.084 m -240,9.033 c 71.8958,-0.20671 74.188,108.11515 19,118.451 -75.345,7.62736 -74.6336,-119.93041 -19,-118.451"
         id="path2-77" />
      <path
         style="fill:#dc1e32;fill-opacity:1;stroke:none;stroke-width:8.52593863;stroke-miterlimit:4;stroke-dasharray:none"
         d="m 498.00312,373.99899 -64.5015,-66.65126 h -88.9625 v 66.65126 z"
         id="path2-3" />
    </g>
    <g
       id="g40296"
       transform="translate(283.54347,206.04501)"
       style="stroke-width:1.00005428;stroke-miterlimit:4;stroke-dasharray:none">
      <path
         style="fill:#dc1e32;fill-opacity:1;stroke:none;stroke-width:1.00005428;stroke-miterlimit:4;stroke-dasharray:none"
         d="m 253.0901,74.709251 h 24.0833 v -4.351584 c -0.0316,-0.776924 -10.95763,-0.129957 -8.34395,-4.256145 l 9.47234,-14.953876 h 13.39429 v 14.953876 c -0.28835,3.581108 -7.39776,3.538536 -7.34215,4.256145 l -0.0395,4.351584 h 31.13402 l 0.17203,-4.351584 c -0.0565,-1.351688 -7.20408,0.351403 -8.06927,-3.577804 L 304.32427,9.9910097 h -9.60055 L 259.3679,66.779863 c -1.06293,2.539207 -6.46368,2.982099 -6.2778,3.577804 m 6.02178,-27.553495 h -26.7325 v 4.979911 c 0.94122,0.993524 3.89795,0.56873 4.79711,1.876351 2.05002,1.686598 -2.53407,17.970286 -5.44593,18.774963 -13.1821,2.341328 -16.42327,-8.4189 -16.55416,-11.274324 -1.68538,-24.657453 12.0218,-40.948369 37.6857,-41.340509 2.93389,0.115615 -0.42739,8.915705 5.29771,9.053738 3.13585,0.07561 3.25007,-6.041174 3.70677,-12.600934 -0.0664,-2.26094 -7.66823,-2.3814293 -11.5116,-2.4347435 C 230.54692,9.5638522 211.36844,18.094448 201.732,36 c -13.049,26.0983 10.13211,44.738476 44.77813,36.553316 2.20275,-0.463464 3.84573,-14.354945 5.76859,-21.532417 0.90206,-2.610332 5.43937,-1.931329 6.47201,-3.029231 M 95,16 c 2.443476,0.01348 4.848244,-0.155119 5,2 L 84.576543,61.342021 c -2.02081,9.459082 -8.324445,6.581933 -8.311575,8.136119 v 5.007566 H 98.981606 V 69.47814 c -1.989933,-1.275296 -8.820982,-0.696983 -6.615657,-7.524633 l 10.565651,-31.719123 2.36201,43.704489 h 8.84458 l 25.82103,-42.610851 -7.90119,34.917436 c -1.03095,2.738432 -6.67353,1.765594 -7.18314,3.232682 v 5.007566 h 29.9899 V 69.47814 c -0.92166,-1.734113 -5.63763,-0.673307 -5.99387,-3.998052 l 8.20987,-44.568711 c 0.93447,-3.608194 2.08467,-4.063287 4.77924,-4.002392 l 0.0892,-6.9742122 H 144.07502 L 120,48 117.76997,9.9347728 H 94.910501 m 79.586409,5.9604622 c 0.45676,1.544039 8.46598,-0.810588 8.01977,2.794645 l -13.81655,46.939029 c -1.52903,3.026224 -9.82438,2.07323 -9.54216,3.818087 v 5.122099 h 32.40415 v -5.169039 c -1.37618,-1.453514 -11.92491,-0.53377 -10.69933,-3.810346 l 13.7476,-46.939029 c 1.6364,-3.686673 7.71823,-1.231478 8.39472,-2.755446 V 9.8417417 l -28.5082,0.1594453 M 291.69608,28 v 17.061743 h -10.47984 z"
         id="path10564" />
      <path
         style="fill:#dc1e32;fill-opacity:1;stroke:none;stroke-width:1.00005428;stroke-miterlimit:4;stroke-dasharray:none"
         d="M 9.2961985,74.4705 H 33.379499 v -4.35158 c -0.0316,-0.77692 -10.95763,-0.12996 -8.34395,-4.25615 l 9.47234,-14.95387 h 13.39429 v 14.95387 c -0.28835,3.58111 -7.39776,3.53854 -7.34215,4.25615 l -0.0395,4.35158 h 31.13402 l 0.17203,-4.35158 c -0.0565,-1.35169 -7.20408,0.3514 -8.06927,-3.5778 L 60.530369,9.752257 h -9.60055 L 15.573999,66.54112 c -1.06293,2.5392 -6.4636805,2.9821 -6.2778005,3.5778 M 47.902179,27.761247 V 44.823 h -10.47984 z"
         id="path10564-6" />
    </g>
    <g
       id="g53604"
       transform="translate(0.11552023,0.40884073)"
       style="stroke-width:1.00005428;stroke-miterlimit:4;stroke-dasharray:none">
      <g
         aria-label="SCSI Host Adapter"
         transform="scale(0.99248245,1.0075745)"
         id="text3731-8"
         style="font-size:19.7721px;line-height:1.25;font-family:'Nimbus Roman';-inkscape-font-specification:'Nimbus Roman, Normal';letter-spacing:0px;word-spacing:0px">
        <path
           d="m 302.94952,295.14932 h -0.41522 c -0.0791,0.43499 -0.29658,0.67225 -0.6327,0.67225 -0.19772,0 -0.53385,-0.0791 -0.86998,-0.23726 -0.73156,-0.27681 -1.46313,-0.43499 -2.11561,-0.43499 -0.83043,0 -1.7004,0.33612 -2.35288,0.90952 -0.69202,0.61293 -1.04792,1.44336 -1.04792,2.47151 0,1.58177 0.86997,2.689 3.08445,3.85556 1.42359,0.77111 2.45174,1.56199 2.94604,2.31333 0.17795,0.25704 0.27681,0.67225 0.27681,1.16656 0,1.30496 -0.98861,2.21447 -2.43197,2.21447 -1.77949,0 -3.00536,-1.08746 -3.99396,-3.49966 h -0.45476 l 0.59316,4.19169 h 0.43499 c 0.0198,-0.37567 0.25703,-0.65248 0.55362,-0.65248 0.21749,0 0.55361,0.0791 0.92928,0.21749 0.75134,0.29658 1.562,0.45476 2.33311,0.45476 2.29357,0 4.03351,-1.562 4.03351,-3.6183 0,-1.62131 -1.08747,-2.88672 -3.69738,-4.31031 -2.07607,-1.12701 -2.9065,-1.99699 -2.9065,-3.08445 0,-1.08747 0.83043,-1.81903 2.0563,-1.81903 0.88974,0 1.72017,0.37566 2.41219,1.08746 0.61294,0.63271 0.88975,1.14678 1.2061,2.31334 h 0.4943 z"
           id="path847" />
        <path
           d="m 317.06677,299.59804 -0.17795,-4.44872 h -0.41522 c -0.11863,0.41521 -0.43498,0.65248 -0.83042,0.65248 -0.17795,0 -0.47453,-0.0593 -0.77112,-0.15818 -0.96883,-0.33612 -1.95743,-0.4943 -2.88672,-0.4943 -1.62131,0 -3.2624,0.61293 -4.48827,1.7004 -1.38405,1.22587 -2.13539,3.0449 -2.13539,5.21983 0,4.03351 2.62969,6.72252 6.56434,6.72252 2.23425,0 4.21146,-0.90952 5.39778,-2.51106 l -0.35589,-0.3559 c -1.44337,1.40382 -2.7681,1.99699 -4.40918,1.99699 -1.24564,0 -2.35288,-0.39545 -3.20308,-1.14679 -1.08747,-0.96883 -1.7004,-2.74832 -1.7004,-4.96279 0,-3.57875 1.8388,-5.87232 4.70576,-5.87232 1.12701,0 2.15516,0.41522 2.94604,1.18633 0.63271,0.63271 0.92929,1.18632 1.30496,2.47151 z"
           id="path849" />
        <path
           d="m 326.63646,295.14932 h -0.41522 c -0.0791,0.43499 -0.29658,0.67225 -0.6327,0.67225 -0.19773,0 -0.53385,-0.0791 -0.86998,-0.23726 -0.73156,-0.27681 -1.46313,-0.43499 -2.11561,-0.43499 -0.83043,0 -1.7004,0.33612 -2.35288,0.90952 -0.69202,0.61293 -1.04792,1.44336 -1.04792,2.47151 0,1.58177 0.86997,2.689 3.08445,3.85556 1.42359,0.77111 2.45174,1.56199 2.94604,2.31333 0.17795,0.25704 0.27681,0.67225 0.27681,1.16656 0,1.30496 -0.98861,2.21447 -2.43197,2.21447 -1.77949,0 -3.00536,-1.08746 -3.99397,-3.49966 h -0.45475 l 0.59316,4.19169 h 0.43499 c 0.0198,-0.37567 0.25703,-0.65248 0.55361,-0.65248 0.2175,0 0.55362,0.0791 0.92929,0.21749 0.75134,0.29658 1.562,0.45476 2.33311,0.45476 2.29356,0 4.03351,-1.562 4.03351,-3.6183 0,-1.62131 -1.08747,-2.88672 -3.69738,-4.31031 -2.07607,-1.12701 -2.9065,-1.99699 -2.9065,-3.08445 0,-1.08747 0.83043,-1.81903 2.0563,-1.81903 0.88974,0 1.72017,0.37566 2.41219,1.08746 0.61294,0.63271 0.88975,1.14678 1.2061,2.31334 h 0.4943 z"
           id="path851" />
        <path
           d="m 329.14751,308.51526 h 5.87231 v -0.37567 c -1.62131,-0.0396 -1.89812,-0.31635 -1.93766,-1.77949 v -8.77881 c 0.0395,-1.48291 0.29658,-1.72018 1.93766,-1.77949 v -0.37567 h -5.87231 v 0.37567 c 1.68063,0.0989 1.89812,0.29658 1.91789,1.77949 v 8.77881 c -0.0198,1.50268 -0.25704,1.72017 -1.91789,1.77949 z"
           id="path853" />
        <path
           d="m 340.69434,308.51526 h 5.49665 v -0.37567 c -1.48291,-0.11863 -1.72018,-0.3559 -1.73995,-1.77949 v -4.07305 h 5.99095 v 3.85556 c -0.0198,1.68063 -0.19772,1.89812 -1.73995,1.99698 v 0.37567 h 5.49665 v -0.37567 c -1.48291,-0.11863 -1.72018,-0.3559 -1.73995,-1.77949 v -8.77881 c 0.0198,-1.44337 0.21749,-1.64109 1.73995,-1.77949 v -0.37567 h -5.49665 v 0.37567 c 1.52245,0.11863 1.72018,0.31635 1.73995,1.77949 v 3.83578 h -5.99095 v -3.83578 c 0.0198,-1.44337 0.21749,-1.64109 1.73995,-1.77949 v -0.37567 h -5.49665 v 0.37567 c 1.52245,0.11863 1.72017,0.31635 1.73995,1.77949 v 8.56132 c -0.0198,1.68063 -0.19772,1.89812 -1.73995,1.99698 z"
           id="path855" />
        <path
           d="m 359.53712,299.42009 c -2.59015,0 -4.36964,1.89812 -4.36964,4.62667 0,2.68901 1.83881,4.66622 4.33009,4.66622 2.49129,0 4.38941,-2.07607 4.38941,-4.82439 0,-2.60992 -1.81903,-4.4685 -4.34986,-4.4685 z m -0.25704,0.55362 c 1.66086,0 2.82741,1.89812 2.82741,4.6069 0,2.25402 -0.88974,3.57875 -2.37265,3.57875 -0.77111,0 -1.50268,-0.47453 -1.91789,-1.26541 -0.55362,-1.02815 -0.86998,-2.4122 -0.86998,-3.81602 0,-1.87835 0.90952,-3.10422 2.33311,-3.10422 z"
           id="path857" />
        <path
           d="m 370.70832,302.30682 -0.0791,-2.70878 h -0.21749 c -0.0989,0.15818 -0.19772,0.21749 -0.31635,0.21749 -0.11864,0 -0.31636,-0.0395 -0.53385,-0.1384 -0.45476,-0.15818 -0.90952,-0.25704 -1.38405,-0.25704 -1.56199,0 -2.689,1.02815 -2.689,2.45174 0,1.10724 0.6327,1.89812 2.31333,2.84719 l 1.14678,0.65247 c 0.69203,0.39545 1.02815,0.86998 1.02815,1.48291 0,0.86997 -0.6327,1.42359 -1.64108,1.42359 -1.36428,0 -2.0563,-0.75134 -2.51106,-2.76809 h -0.31635 v 3.08445 h 0.25704 c 0.1384,-0.19772 0.21749,-0.23727 0.45476,-0.23727 0.21749,0 0.45475,0.0396 0.90951,0.15818 0.53385,0.11863 1.04792,0.19772 1.44336,0.19772 1.54223,0 2.78787,-1.14678 2.78787,-2.53083 0,-0.9886 -0.47453,-1.64108 -1.66086,-2.35288 l -2.13538,-1.26541 c -0.55362,-0.33613 -0.8502,-0.81066 -0.8502,-1.34451 0,-0.81065 0.61293,-1.3445 1.52245,-1.3445 1.12701,0 1.72017,0.65248 2.17493,2.43197 z"
           id="path859" />
        <path
           d="m 376.95629,299.61781 h -1.99698 v -2.29356 c 0,-0.19772 -0.0395,-0.25704 -0.13841,-0.25704 -1.14678,1.66086 -1.73994,2.33311 -2.31333,2.66924 -0.21749,0.1384 -0.33613,0.25703 -0.33613,0.37567 0,0.0593 0.0198,0.0989 0.0791,0.1384 h 1.04792 v 5.9514 c 0,1.66086 0.59317,2.51106 1.75972,2.51106 0.96883,0 1.72017,-0.47453 2.37265,-1.50268 l -0.25704,-0.21749 c -0.43498,0.51407 -0.75134,0.69202 -1.18632,0.69202 -0.73157,0 -1.02815,-0.53385 -1.02815,-1.77949 v -5.65482 h 1.99698 z"
           id="path861" />
        <path
           d="m 396.31314,308.13959 c -0.88975,-0.0593 -1.08747,-0.25704 -1.77949,-1.72017 l -4.92325,-11.23056 h -0.39545 l -4.11259,9.7081 c -1.26542,2.88673 -1.50268,3.20308 -2.45174,3.24263 v 0.37567 h 3.91487 v -0.37567 c -0.94906,0 -1.3445,-0.23727 -1.3445,-0.81066 0,-0.23726 0.0593,-0.51407 0.15818,-0.77111 l 0.90951,-2.31333 h 5.18029 l 0.81066,1.89812 c 0.23726,0.53384 0.37567,1.04792 0.37567,1.32473 0,0.4943 -0.33613,0.65248 -1.38405,0.67225 v 0.37567 h 5.04189 z m -9.68833,-4.70576 2.27379,-5.43733 2.29356,5.43733 z"
           id="path863" />
        <path
           d="m 405.80371,307.36848 c -0.25704,0.0198 -0.37567,0.0198 -0.45476,0.0198 -0.69203,0 -0.86998,-0.21749 -0.86998,-1.12701 v -11.21078 l -0.0989,-0.0395 c -0.92928,0.31636 -1.60154,0.53385 -2.90649,0.86998 v 0.31635 c 0.15817,-0.0198 0.25703,-0.0198 0.43498,-0.0198 0.73157,0 0.90952,0.19772 0.90952,1.00838 v 3.08444 c -0.75134,-0.6327 -1.28519,-0.8502 -2.07607,-0.8502 -2.27379,0 -4.1126,2.23425 -4.1126,5.04189 0,2.53083 1.46314,4.251 3.65784,4.251 1.10724,0 1.85858,-0.39544 2.53083,-1.32473 v 1.26541 l 0.0791,0.0593 2.9065,-1.02815 z m -2.98559,-0.86998 c 0,0.13841 -0.13841,0.37567 -0.33613,0.59317 -0.33612,0.39544 -0.8502,0.59316 -1.42359,0.59316 -1.66086,0 -2.72855,-1.58177 -2.72855,-4.03351 0,-2.21447 0.96883,-3.67761 2.47151,-3.67761 1.0677,0 2.01676,0.92929 2.01676,1.97721 z"
           id="path865" />
        <path
           d="m 414.78016,307.2103 c -0.33612,0.27681 -0.57339,0.37567 -0.86997,0.37567 -0.45476,0 -0.59316,-0.27681 -0.59316,-1.14678 v -3.85556 c 0,-1.02815 -0.0989,-1.60154 -0.39545,-2.07607 -0.43498,-0.7118 -1.28518,-1.08747 -2.45174,-1.08747 -1.85857,0 -3.32171,0.96884 -3.32171,2.21448 0,0.45476 0.37567,0.8502 0.8502,0.8502 0.47453,0 0.88975,-0.39544 0.88975,-0.83043 0,-0.0791 -0.0198,-0.17795 -0.0396,-0.31635 -0.0395,-0.17795 -0.0593,-0.33613 -0.0593,-0.47453 0,-0.53385 0.6327,-0.96884 1.42359,-0.96884 0.96883,0 1.50268,0.57339 1.50268,1.64109 v 1.2061 c -3.02513,1.20609 -3.38103,1.38404 -4.23123,2.13538 -0.43499,0.39544 -0.7118,1.0677 -0.7118,1.72018 0,1.24564 0.86997,2.11561 2.07607,2.11561 0.86997,0 1.68063,-0.41521 2.88673,-1.44336 0.0989,1.04792 0.45476,1.44336 1.26541,1.44336 0.67225,0 1.08747,-0.23727 1.77949,-0.98861 z m -3.06467,-1.12701 c 0,0.59316 -0.0989,0.81066 -0.51408,1.04792 -0.4943,0.27681 -1.02815,0.43499 -1.44336,0.43499 -0.69203,0 -1.24564,-0.67225 -1.24564,-1.52245 v -0.0791 c 0.0198,-1.18633 0.88974,-1.93767 3.20308,-2.74832 z"
           id="path867" />
        <path
           d="m 414.91854,312.8058 h 4.78485 v -0.35589 c -1.48291,-0.0198 -1.72017,-0.2175 -1.73995,-1.48291 v -3.10422 c 0.7118,0.65248 1.16656,0.8502 1.99699,0.8502 2.35288,0 4.15214,-2.21448 4.15214,-5.08143 0,-2.45174 -1.38405,-4.21146 -3.30194,-4.21146 -1.10724,0 -1.97721,0.47453 -2.84719,1.562 v -1.52245 l -0.11863,-0.0395 c -1.06769,0.41522 -1.75972,0.67225 -2.84718,1.00838 v 0.31635 c 0.17795,-0.0198 0.29658,-0.0198 0.4943,-0.0198 0.67225,0 0.81066,0.19772 0.81066,1.12701 v 9.25334 c 0,1.04793 -0.2175,1.24565 -1.38405,1.36428 z m 3.0449,-10.89442 c 0,-0.59317 1.10724,-1.30496 2.01676,-1.30496 1.46313,0 2.43197,1.50268 2.43197,3.81601 0,2.17494 -0.96884,3.65784 -2.39243,3.65784 -0.92929,0 -2.0563,-0.71179 -2.0563,-1.30496 z"
           id="path869" />
        <path
           d="m 429.6487,299.61781 h -1.99699 v -2.29356 c 0,-0.19772 -0.0395,-0.25704 -0.1384,-0.25704 -1.14678,1.66086 -1.73994,2.33311 -2.31334,2.66924 -0.21749,0.1384 -0.33612,0.25703 -0.33612,0.37567 0,0.0593 0.0198,0.0989 0.0791,0.1384 h 1.04792 v 5.9514 c 0,1.66086 0.59316,2.51106 1.75972,2.51106 0.96883,0 1.72017,-0.47453 2.37265,-1.50268 l -0.25704,-0.21749 c -0.43499,0.51407 -0.75134,0.69202 -1.18633,0.69202 -0.73156,0 -1.02815,-0.53385 -1.02815,-1.77949 v -5.65482 h 1.99699 z"
           id="path871" />
        <path
           d="m 438.17047,305.27263 c -0.94906,1.50268 -1.79926,2.07607 -3.06467,2.07607 -1.12701,0 -1.97721,-0.57339 -2.5506,-1.7004 -0.3559,-0.75134 -0.49431,-1.38404 -0.53385,-2.60991 h 6.08981 c -0.15818,-1.28519 -0.3559,-1.85858 -0.85021,-2.49129 -0.59316,-0.71179 -1.50267,-1.12701 -2.53082,-1.12701 -0.98861,0 -1.9179,0.3559 -2.66924,1.02815 -0.92929,0.81066 -1.46313,2.21448 -1.46313,3.83579 0,2.72855 1.42359,4.42895 3.69738,4.42895 1.87835,0 3.36126,-1.16655 4.19169,-3.30194 z m -6.10958,-2.86695 c 0.2175,-1.54222 0.88975,-2.27379 2.09585,-2.27379 1.20609,0 1.68062,0.55362 1.93766,2.27379 z"
           id="path873" />
        <path
           d="m 438.98109,308.51526 h 4.74531 v -0.29658 c -1.32473,-0.0396 -1.64109,-0.31636 -1.68063,-1.48291 v -4.44872 c 0,-0.63271 0.83043,-1.62132 1.38405,-1.62132 0.11863,0 0.29658,0.0989 0.51407,0.29659 0.29658,0.29658 0.53385,0.39544 0.79088,0.39544 0.47453,0 0.77112,-0.33613 0.77112,-0.88975 0,-0.65248 -0.41522,-1.04792 -1.08747,-1.04792 -0.83043,0 -1.38405,0.43499 -2.37265,1.85858 v -1.81903 l -0.0989,-0.0395 c -1.10724,0.43499 -1.81904,0.7118 -2.92627,1.0677 v 0.31635 c 0.27681,-0.0593 0.45476,-0.0791 0.69202,-0.0791 0.4943,0 0.67225,0.31635 0.67225,1.18633 v 4.94302 c -0.0395,1.02815 -0.15817,1.14678 -1.40382,1.36428 z"
           id="path875" />
      </g>
      <g
         aria-label="SCSI-Host-Adapter"
         transform="scale(0.99248245,1.0075745)"
         id="text3731-8-9"
         style="font-size:19.7721px;line-height:1.25;font-family:'Nimbus Roman';-inkscape-font-specification:'Nimbus Roman, Normal';letter-spacing:0px;word-spacing:0px">
        <path
           d="m 471.57354,295.14932 h -0.41521 c -0.0791,0.43499 -0.29658,0.67225 -0.63271,0.67225 -0.19772,0 -0.53385,-0.0791 -0.86997,-0.23726 -0.73157,-0.27681 -1.46314,-0.43499 -2.11562,-0.43499 -0.83043,0 -1.7004,0.33612 -2.35288,0.90952 -0.69202,0.61293 -1.04792,1.44336 -1.04792,2.47151 0,1.58177 0.86997,2.689 3.08445,3.85556 1.42359,0.77111 2.45174,1.56199 2.94604,2.31333 0.17795,0.25704 0.27681,0.67225 0.27681,1.16656 0,1.30496 -0.9886,2.21447 -2.43197,2.21447 -1.77949,0 -3.00536,-1.08746 -3.99396,-3.49966 h -0.45476 l 0.59316,4.19169 h 0.43499 c 0.0198,-0.37567 0.25704,-0.65248 0.55362,-0.65248 0.21749,0 0.55362,0.0791 0.92929,0.21749 0.75134,0.29658 1.56199,0.45476 2.33311,0.45476 2.29356,0 4.0335,-1.562 4.0335,-3.6183 0,-1.62131 -1.08746,-2.88672 -3.69738,-4.31031 -2.07607,-1.12701 -2.9065,-1.99699 -2.9065,-3.08445 0,-1.08747 0.83043,-1.81903 2.0563,-1.81903 0.88975,0 1.72017,0.37566 2.4122,1.08746 0.61293,0.63271 0.88974,1.14678 1.2061,2.31334 h 0.4943 z"
           id="path878" />
        <path
           d="m 485.69079,299.59804 -0.17795,-4.44872 h -0.41521 c -0.11863,0.41521 -0.43499,0.65248 -0.83043,0.65248 -0.17795,0 -0.47453,-0.0593 -0.77111,-0.15818 -0.96883,-0.33612 -1.95744,-0.4943 -2.88673,-0.4943 -1.62131,0 -3.2624,0.61293 -4.48827,1.7004 -1.38404,1.22587 -2.13538,3.0449 -2.13538,5.21983 0,4.03351 2.62969,6.72252 6.56434,6.72252 2.23424,0 4.21145,-0.90952 5.39778,-2.51106 l -0.3559,-0.3559 c -1.44336,1.40382 -2.76809,1.99699 -4.40918,1.99699 -1.24564,0 -2.35288,-0.39545 -3.20308,-1.14679 -1.08746,-0.96883 -1.7004,-2.74832 -1.7004,-4.96279 0,-3.57875 1.83881,-5.87232 4.70576,-5.87232 1.12701,0 2.15516,0.41522 2.94604,1.18633 0.63271,0.63271 0.92929,1.18632 1.30496,2.47151 z"
           id="path880" />
        <path
           d="m 495.26048,295.14932 h -0.41521 c -0.0791,0.43499 -0.29658,0.67225 -0.63271,0.67225 -0.19772,0 -0.53385,-0.0791 -0.86997,-0.23726 -0.73157,-0.27681 -1.46314,-0.43499 -2.11562,-0.43499 -0.83043,0 -1.7004,0.33612 -2.35288,0.90952 -0.69202,0.61293 -1.04792,1.44336 -1.04792,2.47151 0,1.58177 0.86997,2.689 3.08445,3.85556 1.42359,0.77111 2.45174,1.56199 2.94604,2.31333 0.17795,0.25704 0.27681,0.67225 0.27681,1.16656 0,1.30496 -0.9886,2.21447 -2.43197,2.21447 -1.77949,0 -3.00536,-1.08746 -3.99396,-3.49966 h -0.45476 l 0.59316,4.19169 h 0.43499 c 0.0198,-0.37567 0.25704,-0.65248 0.55362,-0.65248 0.21749,0 0.55362,0.0791 0.92929,0.21749 0.75134,0.29658 1.56199,0.45476 2.3331,0.45476 2.29357,0 4.03351,-1.562 4.03351,-3.6183 0,-1.62131 -1.08746,-2.88672 -3.69738,-4.31031 -2.07607,-1.12701 -2.9065,-1.99699 -2.9065,-3.08445 0,-1.08747 0.83043,-1.81903 2.0563,-1.81903 0.88974,0 1.72017,0.37566 2.4122,1.08746 0.61293,0.63271 0.88974,1.14678 1.20609,2.31334 h 0.49431 z"
           id="path882" />
        <path
           d="m 497.77153,308.51526 h 5.87232 v -0.37567 c -1.62132,-0.0396 -1.89813,-0.31635 -1.93767,-1.77949 v -8.77881 c 0.0395,-1.48291 0.29658,-1.72018 1.93767,-1.77949 v -0.37567 h -5.87232 v 0.37567 c 1.68063,0.0989 1.89812,0.29658 1.9179,1.77949 v 8.77881 c -0.0198,1.50268 -0.25704,1.72017 -1.9179,1.77949 z"
           id="path884" />
        <path
           d="m 504.77082,303.43383 v 1.24564 h 4.86394 v -1.24564 z"
           id="path886" />
        <path
           d="m 510.95946,308.51526 h 5.49664 v -0.37567 c -1.48291,-0.11863 -1.72017,-0.3559 -1.73994,-1.77949 v -4.07305 h 5.99094 v 3.85556 c -0.0198,1.68063 -0.19772,1.89812 -1.73994,1.99698 v 0.37567 h 5.49664 v -0.37567 c -1.48291,-0.11863 -1.72017,-0.3559 -1.73994,-1.77949 v -8.77881 c 0.0198,-1.44337 0.21749,-1.64109 1.73994,-1.77949 v -0.37567 h -5.49664 v 0.37567 c 1.52245,0.11863 1.72017,0.31635 1.73994,1.77949 v 3.83578 h -5.99094 v -3.83578 c 0.0198,-1.44337 0.21749,-1.64109 1.73994,-1.77949 v -0.37567 h -5.49664 v 0.37567 c 1.52245,0.11863 1.72017,0.31635 1.73994,1.77949 v 8.56132 c -0.0198,1.68063 -0.19772,1.89812 -1.73994,1.99698 z"
           id="path888" />
        <path
           d="m 529.80223,299.42009 c -2.59014,0 -4.36963,1.89812 -4.36963,4.62667 0,2.68901 1.8388,4.66622 4.33009,4.66622 2.49128,0 4.3894,-2.07607 4.3894,-4.82439 0,-2.60992 -1.81903,-4.4685 -4.34986,-4.4685 z m -0.25704,0.55362 c 1.66086,0 2.82742,1.89812 2.82742,4.6069 0,2.25402 -0.88975,3.57875 -2.37266,3.57875 -0.77111,0 -1.50268,-0.47453 -1.91789,-1.26541 -0.55362,-1.02815 -0.86997,-2.4122 -0.86997,-3.81602 0,-1.87835 0.90951,-3.10422 2.3331,-3.10422 z"
           id="path890" />
        <path
           d="m 540.97343,302.30682 -0.0791,-2.70878 h -0.21749 c -0.0989,0.15818 -0.19772,0.21749 -0.31636,0.21749 -0.11863,0 -0.31635,-0.0395 -0.53384,-0.1384 -0.45476,-0.15818 -0.90952,-0.25704 -1.38405,-0.25704 -1.562,0 -2.68901,1.02815 -2.68901,2.45174 0,1.10724 0.63271,1.89812 2.31334,2.84719 l 1.14678,0.65247 c 0.69202,0.39545 1.02815,0.86998 1.02815,1.48291 0,0.86997 -0.63271,1.42359 -1.64108,1.42359 -1.36428,0 -2.0563,-0.75134 -2.51106,-2.76809 h -0.31635 v 3.08445 h 0.25703 c 0.13841,-0.19772 0.2175,-0.23727 0.45476,-0.23727 0.21749,0 0.45476,0.0396 0.90952,0.15818 0.53384,0.11863 1.04792,0.19772 1.44336,0.19772 1.54222,0 2.78787,-1.14678 2.78787,-2.53083 0,-0.9886 -0.47453,-1.64108 -1.66086,-2.35288 l -2.13539,-1.26541 c -0.55361,-0.33613 -0.8502,-0.81066 -0.8502,-1.34451 0,-0.81065 0.61294,-1.3445 1.52246,-1.3445 1.12701,0 1.72017,0.65248 2.17493,2.43197 z"
           id="path892" />
        <path
           d="m 547.22141,299.61781 h -1.99699 v -2.29356 c 0,-0.19772 -0.0395,-0.25704 -0.1384,-0.25704 -1.14678,1.66086 -1.73995,2.33311 -2.31334,2.66924 -0.21749,0.1384 -0.33612,0.25703 -0.33612,0.37567 0,0.0593 0.0198,0.0989 0.0791,0.1384 h 1.04792 v 5.9514 c 0,1.66086 0.59316,2.51106 1.75971,2.51106 0.96884,0 1.72018,-0.47453 2.37266,-1.50268 l -0.25704,-0.21749 c -0.43499,0.51407 -0.75134,0.69202 -1.18633,0.69202 -0.73157,0 -1.02815,-0.53385 -1.02815,-1.77949 v -5.65482 h 1.99699 z"
           id="path894" />
        <path
           d="m 547.9925,303.43383 v 1.24564 h 4.86394 v -1.24564 z"
           id="path896" />
        <path
           d="m 567.17139,308.13959 c -0.88974,-0.0593 -1.08746,-0.25704 -1.77949,-1.72017 l -4.92325,-11.23056 h -0.39544 l -4.1126,9.7081 c -1.26541,2.88673 -1.50268,3.20308 -2.45174,3.24263 v 0.37567 h 3.91488 v -0.37567 c -0.94907,0 -1.34451,-0.23727 -1.34451,-0.81066 0,-0.23726 0.0593,-0.51407 0.15818,-0.77111 l 0.90952,-2.31333 h 5.18029 l 0.81065,1.89812 c 0.23727,0.53384 0.37567,1.04792 0.37567,1.32473 0,0.4943 -0.33612,0.65248 -1.38404,0.67225 v 0.37567 h 5.04188 z m -9.68833,-4.70576 2.27379,-5.43733 2.29357,5.43733 z"
           id="path898" />
        <path
           d="m 576.66195,307.36848 c -0.25704,0.0198 -0.37567,0.0198 -0.45476,0.0198 -0.69202,0 -0.86997,-0.21749 -0.86997,-1.12701 v -11.21078 l -0.0989,-0.0395 c -0.92929,0.31636 -1.60154,0.53385 -2.9065,0.86998 v 0.31635 c 0.15818,-0.0198 0.25704,-0.0198 0.43499,-0.0198 0.73157,0 0.90951,0.19772 0.90951,1.00838 v 3.08444 c -0.75134,-0.6327 -1.28518,-0.8502 -2.07607,-0.8502 -2.27379,0 -4.11259,2.23425 -4.11259,5.04189 0,2.53083 1.46313,4.251 3.65784,4.251 1.10723,0 1.85857,-0.39544 2.53082,-1.32473 v 1.26541 l 0.0791,0.0593 2.9065,-1.02815 z m -2.98559,-0.86998 c 0,0.13841 -0.1384,0.37567 -0.33612,0.59317 -0.33613,0.39544 -0.8502,0.59316 -1.42359,0.59316 -1.66086,0 -2.72855,-1.58177 -2.72855,-4.03351 0,-2.21447 0.96883,-3.67761 2.47151,-3.67761 1.06769,0 2.01675,0.92929 2.01675,1.97721 z"
           id="path900" />
        <path
           d="m 585.63842,307.2103 c -0.33613,0.27681 -0.5734,0.37567 -0.86998,0.37567 -0.45476,0 -0.59316,-0.27681 -0.59316,-1.14678 v -3.85556 c 0,-1.02815 -0.0989,-1.60154 -0.39544,-2.07607 -0.43499,-0.7118 -1.28519,-1.08747 -2.45174,-1.08747 -1.85858,0 -3.32172,0.96884 -3.32172,2.21448 0,0.45476 0.37567,0.8502 0.8502,0.8502 0.47454,0 0.88975,-0.39544 0.88975,-0.83043 0,-0.0791 -0.0198,-0.17795 -0.0395,-0.31635 -0.0395,-0.17795 -0.0593,-0.33613 -0.0593,-0.47453 0,-0.53385 0.63271,-0.96884 1.42359,-0.96884 0.96883,0 1.50268,0.57339 1.50268,1.64109 v 1.2061 c -3.02513,1.20609 -3.38103,1.38404 -4.23123,2.13538 -0.43499,0.39544 -0.7118,1.0677 -0.7118,1.72018 0,1.24564 0.86998,2.11561 2.07608,2.11561 0.86997,0 1.68062,-0.41521 2.88672,-1.44336 0.0989,1.04792 0.45476,1.44336 1.26542,1.44336 0.67225,0 1.08746,-0.23727 1.77949,-0.98861 z m -3.06468,-1.12701 c 0,0.59316 -0.0989,0.81066 -0.51407,1.04792 -0.49431,0.27681 -1.02815,0.43499 -1.44337,0.43499 -0.69202,0 -1.24564,-0.67225 -1.24564,-1.52245 v -0.0791 c 0.0198,-1.18633 0.88974,-1.93767 3.20308,-2.74832 z"
           id="path902" />
        <path
           d="m 585.77679,312.8058 h 4.78484 v -0.35589 c -1.4829,-0.0198 -1.72017,-0.2175 -1.73994,-1.48291 v -3.10422 c 0.71179,0.65248 1.16655,0.8502 1.99698,0.8502 2.35288,0 4.15214,-2.21448 4.15214,-5.08143 0,-2.45174 -1.38404,-4.21146 -3.30194,-4.21146 -1.10724,0 -1.97721,0.47453 -2.84718,1.562 v -1.52245 l -0.11863,-0.0395 c -1.0677,0.41522 -1.75972,0.67225 -2.84719,1.00838 v 0.31635 c 0.17795,-0.0198 0.29659,-0.0198 0.49431,-0.0198 0.67225,0 0.81065,0.19772 0.81065,1.12701 v 9.25334 c 0,1.04793 -0.21749,1.24565 -1.38404,1.36428 z m 3.0449,-10.89442 c 0,-0.59317 1.10724,-1.30496 2.01675,-1.30496 1.46314,0 2.43197,1.50268 2.43197,3.81601 0,2.17494 -0.96883,3.65784 -2.39242,3.65784 -0.92929,0 -2.0563,-0.71179 -2.0563,-1.30496 z"
           id="path904" />
        <path
           d="m 600.50694,299.61781 h -1.99698 v -2.29356 c 0,-0.19772 -0.0395,-0.25704 -0.1384,-0.25704 -1.14679,1.66086 -1.73995,2.33311 -2.31334,2.66924 -0.21749,0.1384 -0.33613,0.25703 -0.33613,0.37567 0,0.0593 0.0198,0.0989 0.0791,0.1384 h 1.04792 v 5.9514 c 0,1.66086 0.59317,2.51106 1.75972,2.51106 0.96883,0 1.72017,-0.47453 2.37265,-1.50268 l -0.25703,-0.21749 c -0.43499,0.51407 -0.75134,0.69202 -1.18633,0.69202 -0.73157,0 -1.02815,-0.53385 -1.02815,-1.77949 v -5.65482 h 1.99698 z"
           id="path906" />
        <path
           d="m 609.02872,305.27263 c -0.94906,1.50268 -1.79926,2.07607 -3.06468,2.07607 -1.12701,0 -1.97721,-0.57339 -2.5506,-1.7004 -0.3559,-0.75134 -0.4943,-1.38404 -0.53385,-2.60991 h 6.08981 c -0.15818,-1.28519 -0.3559,-1.85858 -0.8502,-2.49129 -0.59316,-0.71179 -1.50268,-1.12701 -2.53083,-1.12701 -0.9886,0 -1.91789,0.3559 -2.66923,1.02815 -0.92929,0.81066 -1.46314,2.21448 -1.46314,3.83579 0,2.72855 1.42359,4.42895 3.69739,4.42895 1.87835,0 3.36125,-1.16655 4.19168,-3.30194 z m -6.10958,-2.86695 c 0.21749,-1.54222 0.88974,-2.27379 2.09584,-2.27379 1.2061,0 1.68063,0.55362 1.93767,2.27379 z"
           id="path908" />
        <path
           d="m 609.83934,308.51526 h 4.7453 v -0.29658 c -1.32473,-0.0396 -1.64108,-0.31636 -1.68063,-1.48291 v -4.44872 c 0,-0.63271 0.83043,-1.62132 1.38405,-1.62132 0.11863,0 0.29658,0.0989 0.51408,0.29659 0.29658,0.29658 0.53384,0.39544 0.79088,0.39544 0.47453,0 0.77111,-0.33613 0.77111,-0.88975 0,-0.65248 -0.41521,-1.04792 -1.08746,-1.04792 -0.83043,0 -1.38405,0.43499 -2.37266,1.85858 v -1.81903 l -0.0989,-0.0395 c -1.10723,0.43499 -1.81903,0.7118 -2.92627,1.0677 v 0.31635 c 0.27681,-0.0593 0.45476,-0.0791 0.69203,-0.0791 0.4943,0 0.67225,0.31635 0.67225,1.18633 v 4.94302 c -0.0395,1.02815 -0.15818,1.14678 -1.40382,1.36428 z"
           id="path910" />
      </g>
      <g
         aria-label="Contrôleur SCSI"
         transform="scale(0.99248245,1.0075745)"
         id="text3731-8-9-4"
         style="font-size:19.7721px;line-height:1.25;font-family:'Nimbus Roman';-inkscape-font-specification:'Nimbus Roman, Normal';letter-spacing:0px;word-spacing:0px">
        <path
           d="m 646.77463,299.59804 -0.17795,-4.44872 h -0.41521 c -0.11863,0.41521 -0.43499,0.65248 -0.83043,0.65248 -0.17795,0 -0.47453,-0.0593 -0.77111,-0.15818 -0.96883,-0.33612 -1.95744,-0.4943 -2.88673,-0.4943 -1.62131,0 -3.26239,0.61293 -4.48826,1.7004 -1.38405,1.22587 -2.13539,3.0449 -2.13539,5.21983 0,4.03351 2.62969,6.72252 6.56434,6.72252 2.23424,0 4.21145,-0.90952 5.39778,-2.51106 l -0.3559,-0.3559 c -1.44336,1.40382 -2.76809,1.99699 -4.40918,1.99699 -1.24564,0 -2.35288,-0.39545 -3.20308,-1.14679 -1.08746,-0.96883 -1.7004,-2.74832 -1.7004,-4.96279 0,-3.57875 1.83881,-5.87232 4.70576,-5.87232 1.12701,0 2.15516,0.41522 2.94605,1.18633 0.6327,0.63271 0.92928,1.18632 1.30495,2.47151 z"
           id="path913" />
        <path
           d="m 652.44922,299.42009 c -2.59015,0 -4.36964,1.89812 -4.36964,4.62667 0,2.68901 1.83881,4.66622 4.33009,4.66622 2.49129,0 4.38941,-2.07607 4.38941,-4.82439 0,-2.60992 -1.81903,-4.4685 -4.34986,-4.4685 z m -0.25704,0.55362 c 1.66086,0 2.82741,1.89812 2.82741,4.6069 0,2.25402 -0.88974,3.57875 -2.37265,3.57875 -0.77111,0 -1.50268,-0.47453 -1.9179,-1.26541 -0.55361,-1.02815 -0.86997,-2.4122 -0.86997,-3.81602 0,-1.87835 0.90952,-3.10422 2.33311,-3.10422 z"
           id="path915" />
        <path
           d="m 657.7481,308.51526 h 4.19169 v -0.29658 c -0.98861,-0.0593 -1.30496,-0.31636 -1.30496,-1.02815 v -5.55596 c 0.94906,-0.88975 1.38405,-1.12701 2.03653,-1.12701 0.96883,0 1.44336,0.61293 1.44336,1.91789 v 4.13237 c -0.0396,1.28519 -0.27681,1.60154 -1.24564,1.66086 v 0.29658 h 4.11259 v -0.29658 c -0.96883,-0.0989 -1.18632,-0.33613 -1.2061,-1.30496 v -4.52781 c 0,-1.85858 -0.86997,-2.96582 -2.3331,-2.96582 -0.90952,0 -1.52245,0.33613 -2.86696,1.60154 v -1.56199 l -0.1384,-0.0395 c -1.02815,0.37567 -1.7004,0.59317 -2.72855,0.88975 v 0.33612 c 0.1384,-0.0593 0.31635,-0.0791 0.53384,-0.0791 0.55362,0 0.73157,0.29659 0.73157,1.26542 v 4.90348 c -0.0198,1.16655 -0.23726,1.42359 -1.22587,1.48291 z"
           id="path917" />
        <path
           d="m 672.3201,299.61781 h -1.99698 v -2.29356 c 0,-0.19772 -0.0395,-0.25704 -0.1384,-0.25704 -1.14679,1.66086 -1.73995,2.33311 -2.31334,2.66924 -0.21749,0.1384 -0.33613,0.25703 -0.33613,0.37567 0,0.0593 0.0198,0.0989 0.0791,0.1384 h 1.04792 v 5.9514 c 0,1.66086 0.59317,2.51106 1.75972,2.51106 0.96883,0 1.72017,-0.47453 2.37265,-1.50268 l -0.25703,-0.21749 c -0.43499,0.51407 -0.75134,0.69202 -1.18633,0.69202 -0.73157,0 -1.02815,-0.53385 -1.02815,-1.77949 v -5.65482 h 1.99698 z"
           id="path919" />
        <path
           d="m 673.0912,308.51526 h 4.74531 v -0.29658 c -1.32473,-0.0396 -1.64109,-0.31636 -1.68063,-1.48291 v -4.44872 c 0,-0.63271 0.83043,-1.62132 1.38405,-1.62132 0.11863,0 0.29658,0.0989 0.51407,0.29659 0.29658,0.29658 0.53385,0.39544 0.79089,0.39544 0.47453,0 0.77111,-0.33613 0.77111,-0.88975 0,-0.65248 -0.41522,-1.04792 -1.08747,-1.04792 -0.83043,0 -1.38405,0.43499 -2.37265,1.85858 v -1.81903 l -0.0989,-0.0395 c -1.10724,0.43499 -1.81903,0.7118 -2.92627,1.0677 v 0.31635 c 0.27681,-0.0593 0.45476,-0.0791 0.69202,-0.0791 0.4943,0 0.67225,0.31635 0.67225,1.18633 v 4.94302 c -0.0395,1.02815 -0.15817,1.14678 -1.40382,1.36428 z"
           id="path921" />
        <path
           d="m 684.36124,299.42009 c -2.59014,0 -4.36963,1.89812 -4.36963,4.62667 0,2.68901 1.8388,4.66622 4.33009,4.66622 2.49128,0 4.3894,-2.07607 4.3894,-4.82439 0,-2.60992 -1.81903,-4.4685 -4.34986,-4.4685 z m -0.25704,0.55362 c 1.66086,0 2.82741,1.89812 2.82741,4.6069 0,2.25402 -0.88974,3.57875 -2.37265,3.57875 -0.77111,0 -1.50268,-0.47453 -1.91789,-1.26541 -0.55362,-1.02815 -0.86997,-2.4122 -0.86997,-3.81602 0,-1.87835 0.90951,-3.10422 2.3331,-3.10422 z m 3.34149,-1.48291 -2.47151,-3.30194 h -1.22587 l -2.45174,3.30194 h 0.67225 l 2.39242,-2.03652 2.4122,2.03652 z"
           id="path923" />
        <path
           d="m 689.71944,308.51526 h 4.66622 v -0.29658 c -1.24564,-0.0593 -1.46314,-0.25704 -1.48291,-1.36428 v -11.80394 l -0.0791,-0.0395 c -1.00837,0.31636 -1.73994,0.53385 -3.14376,0.86998 v 0.31635 h 0.11863 c 0.2175,-0.0198 0.45476,-0.0395 0.61294,-0.0395 0.6327,0 0.83043,0.27681 0.83043,1.20609 v 9.4313 c -0.0198,1.06769 -0.29659,1.3445 -1.52246,1.42359 z"
           id="path925" />
        <path
           d="m 702.86789,305.27263 c -0.94906,1.50268 -1.79926,2.07607 -3.06468,2.07607 -1.12701,0 -1.97721,-0.57339 -2.5506,-1.7004 -0.35589,-0.75134 -0.4943,-1.38404 -0.53384,-2.60991 h 6.0898 c -0.15817,-1.28519 -0.35589,-1.85858 -0.8502,-2.49129 -0.59316,-0.71179 -1.50268,-1.12701 -2.53083,-1.12701 -0.9886,0 -1.91789,0.3559 -2.66923,1.02815 -0.92929,0.81066 -1.46313,2.21448 -1.46313,3.83579 0,2.72855 1.42359,4.42895 3.69738,4.42895 1.87835,0 3.36126,-1.16655 4.19168,-3.30194 z m -6.10958,-2.86695 c 0.21749,-1.54222 0.88975,-2.27379 2.09584,-2.27379 1.2061,0 1.68063,0.55362 1.93767,2.27379 z"
           id="path927" />
        <path
           d="m 713.05049,307.52665 h -0.0989 c -0.96884,-0.0395 -1.10724,-0.19772 -1.12701,-1.12701 v -6.78183 h -3.124 v 0.33613 c 1.22588,0.0593 1.46314,0.25704 1.46314,1.24564 v 4.64645 c 0,0.55361 -0.0989,0.83042 -0.37567,1.04792 -0.53385,0.43498 -1.14678,0.67225 -1.73994,0.67225 -0.77112,0 -1.40382,-0.67225 -1.40382,-1.50268 v -6.44571 h -2.88673 v 0.27681 c 0.92929,0.0396 1.2061,0.31636 1.22587,1.26542 v 4.98257 c 0,1.56199 0.94906,2.57037 2.39242,2.57037 0.73157,0 1.50268,-0.31635 2.03653,-0.8502 l 0.8502,-0.8502 v 1.64108 l 0.0791,0.0396 c 0.9886,-0.39544 1.7004,-0.61294 2.70878,-0.88975 z"
           id="path929" />
        <path
           d="m 713.56452,308.51526 h 4.7453 v -0.29658 c -1.32473,-0.0396 -1.64108,-0.31636 -1.68062,-1.48291 v -4.44872 c 0,-0.63271 0.83042,-1.62132 1.38404,-1.62132 0.11864,0 0.29658,0.0989 0.51408,0.29659 0.29658,0.29658 0.53384,0.39544 0.79088,0.39544 0.47453,0 0.77111,-0.33613 0.77111,-0.88975 0,-0.65248 -0.41521,-1.04792 -1.08746,-1.04792 -0.83043,0 -1.38405,0.43499 -2.37265,1.85858 v -1.81903 l -0.0989,-0.0395 c -1.10724,0.43499 -1.81904,0.7118 -2.92628,1.0677 v 0.31635 c 0.27681,-0.0593 0.45476,-0.0791 0.69203,-0.0791 0.4943,0 0.67225,0.31635 0.67225,1.18633 v 4.94302 c -0.0395,1.02815 -0.15818,1.14678 -1.40382,1.36428 z"
           id="path931" />
        <path
           d="m 733.83086,295.14932 h -0.41522 c -0.0791,0.43499 -0.29658,0.67225 -0.6327,0.67225 -0.19772,0 -0.53385,-0.0791 -0.86998,-0.23726 -0.73156,-0.27681 -1.46313,-0.43499 -2.11561,-0.43499 -0.83043,0 -1.7004,0.33612 -2.35288,0.90952 -0.69202,0.61293 -1.04792,1.44336 -1.04792,2.47151 0,1.58177 0.86997,2.689 3.08445,3.85556 1.42359,0.77111 2.45174,1.56199 2.94604,2.31333 0.17795,0.25704 0.27681,0.67225 0.27681,1.16656 0,1.30496 -0.98861,2.21447 -2.43197,2.21447 -1.77949,0 -3.00536,-1.08746 -3.99396,-3.49966 h -0.45476 l 0.59316,4.19169 h 0.43499 c 0.0198,-0.37567 0.25703,-0.65248 0.55362,-0.65248 0.21749,0 0.55361,0.0791 0.92928,0.21749 0.75134,0.29658 1.562,0.45476 2.33311,0.45476 2.29357,0 4.03351,-1.562 4.03351,-3.6183 0,-1.62131 -1.08747,-2.88672 -3.69738,-4.31031 -2.07607,-1.12701 -2.9065,-1.99699 -2.9065,-3.08445 0,-1.08747 0.83043,-1.81903 2.0563,-1.81903 0.88974,0 1.72017,0.37566 2.41219,1.08746 0.61294,0.63271 0.88975,1.14678 1.2061,2.31334 h 0.4943 z"
           id="path933" />
        <path
           d="m 747.9481,299.59804 -0.17795,-4.44872 h -0.41521 c -0.11863,0.41521 -0.43499,0.65248 -0.83043,0.65248 -0.17795,0 -0.47453,-0.0593 -0.77111,-0.15818 -0.96883,-0.33612 -1.95744,-0.4943 -2.88673,-0.4943 -1.62131,0 -3.26239,0.61293 -4.48826,1.7004 -1.38405,1.22587 -2.13539,3.0449 -2.13539,5.21983 0,4.03351 2.62969,6.72252 6.56434,6.72252 2.23424,0 4.21145,-0.90952 5.39778,-2.51106 l -0.3559,-0.3559 c -1.44336,1.40382 -2.76809,1.99699 -4.40918,1.99699 -1.24564,0 -2.35288,-0.39545 -3.20308,-1.14679 -1.08746,-0.96883 -1.7004,-2.74832 -1.7004,-4.96279 0,-3.57875 1.83881,-5.87232 4.70576,-5.87232 1.12701,0 2.15516,0.41522 2.94605,1.18633 0.6327,0.63271 0.92928,1.18632 1.30495,2.47151 z"
           id="path935" />
        <path
           d="m 757.51779,295.14932 h -0.41521 c -0.0791,0.43499 -0.29658,0.67225 -0.63271,0.67225 -0.19772,0 -0.53384,-0.0791 -0.86997,-0.23726 -0.73157,-0.27681 -1.46314,-0.43499 -2.11561,-0.43499 -0.83043,0 -1.70041,0.33612 -2.35288,0.90952 -0.69203,0.61293 -1.04793,1.44336 -1.04793,2.47151 0,1.58177 0.86998,2.689 3.08445,3.85556 1.42359,0.77111 2.45174,1.56199 2.94604,2.31333 0.17795,0.25704 0.27681,0.67225 0.27681,1.16656 0,1.30496 -0.9886,2.21447 -2.43196,2.21447 -1.77949,0 -3.00536,-1.08746 -3.99397,-3.49966 h -0.45476 l 0.59317,4.19169 h 0.43498 c 0.0198,-0.37567 0.25704,-0.65248 0.55362,-0.65248 0.21749,0 0.55362,0.0791 0.92929,0.21749 0.75134,0.29658 1.562,0.45476 2.33311,0.45476 2.29356,0 4.03351,-1.562 4.03351,-3.6183 0,-1.62131 -1.08747,-2.88672 -3.69739,-4.31031 -2.07607,-1.12701 -2.9065,-1.99699 -2.9065,-3.08445 0,-1.08747 0.83043,-1.81903 2.0563,-1.81903 0.88975,0 1.72018,0.37566 2.4122,1.08746 0.61293,0.63271 0.88974,1.14678 1.2061,2.31334 h 0.4943 z"
           id="path937" />
        <path
           d="m 760.02885,308.51526 h 5.87231 v -0.37567 c -1.62131,-0.0396 -1.89812,-0.31635 -1.93766,-1.77949 v -8.77881 c 0.0395,-1.48291 0.29658,-1.72018 1.93766,-1.77949 v -0.37567 h -5.87231 v 0.37567 c 1.68063,0.0989 1.89812,0.29658 1.91789,1.77949 v 8.77881 c -0.0198,1.50268 -0.25704,1.72017 -1.91789,1.77949 z"
           id="path939" />
      </g>
      <g
         aria-label="Host Adapter SCSI"
         transform="scale(0.99248245,1.0075745)"
         id="text3731-8-9-4-4"
         style="font-size:19.7721px;line-height:1.25;font-family:'Nimbus Roman';-inkscape-font-specification:'Nimbus Roman, Normal';letter-spacing:0px;word-spacing:0px">
        <path
           d="m 785.15185,308.51526 h 5.49665 v -0.37567 c -1.48291,-0.11863 -1.72017,-0.3559 -1.73995,-1.77949 v -4.07305 h 5.99095 v 3.85556 c -0.0198,1.68063 -0.19772,1.89812 -1.73995,1.99698 v 0.37567 h 5.49665 v -0.37567 c -1.48291,-0.11863 -1.72017,-0.3559 -1.73995,-1.77949 v -8.77881 c 0.0198,-1.44337 0.2175,-1.64109 1.73995,-1.77949 v -0.37567 h -5.49665 v 0.37567 c 1.52246,0.11863 1.72018,0.31635 1.73995,1.77949 v 3.83578 h -5.99095 v -3.83578 c 0.0198,-1.44337 0.2175,-1.64109 1.73995,-1.77949 v -0.37567 h -5.49665 v 0.37567 c 1.52246,0.11863 1.72018,0.31635 1.73995,1.77949 v 8.56132 c -0.0198,1.68063 -0.19772,1.89812 -1.73995,1.99698 z"
           id="path942" />
        <path
           d="m 803.99463,299.42009 c -2.59014,0 -4.36963,1.89812 -4.36963,4.62667 0,2.68901 1.8388,4.66622 4.33009,4.66622 2.49128,0 4.3894,-2.07607 4.3894,-4.82439 0,-2.60992 -1.81903,-4.4685 -4.34986,-4.4685 z m -0.25704,0.55362 c 1.66086,0 2.82741,1.89812 2.82741,4.6069 0,2.25402 -0.88974,3.57875 -2.37265,3.57875 -0.77111,0 -1.50268,-0.47453 -1.91789,-1.26541 -0.55362,-1.02815 -0.86997,-2.4122 -0.86997,-3.81602 0,-1.87835 0.90951,-3.10422 2.3331,-3.10422 z"
           id="path944" />
        <path
           d="m 815.16583,302.30682 -0.0791,-2.70878 h -0.21749 c -0.0989,0.15818 -0.19772,0.21749 -0.31636,0.21749 -0.11863,0 -0.31635,-0.0395 -0.53384,-0.1384 -0.45476,-0.15818 -0.90952,-0.25704 -1.38405,-0.25704 -1.56199,0 -2.689,1.02815 -2.689,2.45174 0,1.10724 0.6327,1.89812 2.31333,2.84719 l 1.14678,0.65247 c 0.69203,0.39545 1.02815,0.86998 1.02815,1.48291 0,0.86997 -0.63271,1.42359 -1.64108,1.42359 -1.36428,0 -2.0563,-0.75134 -2.51106,-2.76809 h -0.31635 v 3.08445 h 0.25703 c 0.13841,-0.19772 0.2175,-0.23727 0.45476,-0.23727 0.2175,0 0.45476,0.0396 0.90952,0.15818 0.53385,0.11863 1.04792,0.19772 1.44336,0.19772 1.54223,0 2.78787,-1.14678 2.78787,-2.53083 0,-0.9886 -0.47453,-1.64108 -1.66086,-2.35288 l -2.13538,-1.26541 c -0.55362,-0.33613 -0.8502,-0.81066 -0.8502,-1.34451 0,-0.81065 0.61293,-1.3445 1.52245,-1.3445 1.12701,0 1.72017,0.65248 2.17493,2.43197 z"
           id="path946" />
        <path
           d="m 821.4138,299.61781 h -1.99698 v -2.29356 c 0,-0.19772 -0.0395,-0.25704 -0.13841,-0.25704 -1.14678,1.66086 -1.73994,2.33311 -2.31333,2.66924 -0.21749,0.1384 -0.33613,0.25703 -0.33613,0.37567 0,0.0593 0.0198,0.0989 0.0791,0.1384 h 1.04792 v 5.9514 c 0,1.66086 0.59317,2.51106 1.75972,2.51106 0.96883,0 1.72017,-0.47453 2.37265,-1.50268 l -0.25704,-0.21749 c -0.43498,0.51407 -0.75134,0.69202 -1.18632,0.69202 -0.73157,0 -1.02815,-0.53385 -1.02815,-1.77949 v -5.65482 h 1.99698 z"
           id="path948" />
        <path
           d="m 840.77065,308.13959 c -0.88975,-0.0593 -1.08747,-0.25704 -1.77949,-1.72017 l -4.92325,-11.23056 h -0.39544 l -4.1126,9.7081 c -1.26542,2.88673 -1.50268,3.20308 -2.45174,3.24263 v 0.37567 h 3.91487 v -0.37567 c -0.94906,0 -1.3445,-0.23727 -1.3445,-0.81066 0,-0.23726 0.0593,-0.51407 0.15818,-0.77111 l 0.90951,-2.31333 h 5.18029 l 0.81066,1.89812 c 0.23727,0.53384 0.37567,1.04792 0.37567,1.32473 0,0.4943 -0.33613,0.65248 -1.38405,0.67225 v 0.37567 h 5.04189 z m -9.68833,-4.70576 2.27379,-5.43733 2.29357,5.43733 z"
           id="path950" />
        <path
           d="m 850.26121,307.36848 c -0.25703,0.0198 -0.37567,0.0198 -0.45475,0.0198 -0.69203,0 -0.86998,-0.21749 -0.86998,-1.12701 v -11.21078 l -0.0989,-0.0395 c -0.92929,0.31636 -1.60154,0.53385 -2.9065,0.86998 v 0.31635 c 0.15818,-0.0198 0.25704,-0.0198 0.43499,-0.0198 0.73157,0 0.90952,0.19772 0.90952,1.00838 v 3.08444 c -0.75134,-0.6327 -1.28519,-0.8502 -2.07607,-0.8502 -2.2738,0 -4.1126,2.23425 -4.1126,5.04189 0,2.53083 1.46313,4.251 3.65784,4.251 1.10723,0 1.85857,-0.39544 2.53083,-1.32473 v 1.26541 l 0.0791,0.0593 2.9065,-1.02815 z m -2.98558,-0.86998 c 0,0.13841 -0.13841,0.37567 -0.33613,0.59317 -0.33613,0.39544 -0.8502,0.59316 -1.42359,0.59316 -1.66086,0 -2.72855,-1.58177 -2.72855,-4.03351 0,-2.21447 0.96883,-3.67761 2.47151,-3.67761 1.0677,0 2.01676,0.92929 2.01676,1.97721 z"
           id="path952" />
        <path
           d="m 859.23767,307.2103 c -0.33612,0.27681 -0.57339,0.37567 -0.86997,0.37567 -0.45476,0 -0.59316,-0.27681 -0.59316,-1.14678 v -3.85556 c 0,-1.02815 -0.0989,-1.60154 -0.39544,-2.07607 -0.43499,-0.7118 -1.28519,-1.08747 -2.45174,-1.08747 -1.85858,0 -3.32172,0.96884 -3.32172,2.21448 0,0.45476 0.37567,0.8502 0.8502,0.8502 0.47453,0 0.88975,-0.39544 0.88975,-0.83043 0,-0.0791 -0.0198,-0.17795 -0.0395,-0.31635 -0.0395,-0.17795 -0.0593,-0.33613 -0.0593,-0.47453 0,-0.53385 0.6327,-0.96884 1.42359,-0.96884 0.96883,0 1.50268,0.57339 1.50268,1.64109 v 1.2061 c -3.02513,1.20609 -3.38103,1.38404 -4.23123,2.13538 -0.43499,0.39544 -0.7118,1.0677 -0.7118,1.72018 0,1.24564 0.86998,2.11561 2.07607,2.11561 0.86998,0 1.68063,-0.41521 2.88673,-1.44336 0.0989,1.04792 0.45476,1.44336 1.26541,1.44336 0.67226,0 1.08747,-0.23727 1.77949,-0.98861 z m -3.06467,-1.12701 c 0,0.59316 -0.0989,0.81066 -0.51408,1.04792 -0.4943,0.27681 -1.02815,0.43499 -1.44336,0.43499 -0.69202,0 -1.24564,-0.67225 -1.24564,-1.52245 v -0.0791 c 0.0198,-1.18633 0.88974,-1.93767 3.20308,-2.74832 z"
           id="path954" />
        <path
           d="m 859.37605,312.8058 h 4.78485 v -0.35589 c -1.48291,-0.0198 -1.72017,-0.2175 -1.73994,-1.48291 v -3.10422 c 0.71179,0.65248 1.16655,0.8502 1.99698,0.8502 2.35288,0 4.15214,-2.21448 4.15214,-5.08143 0,-2.45174 -1.38405,-4.21146 -3.30194,-4.21146 -1.10724,0 -1.97721,0.47453 -2.84718,1.562 v -1.52245 l -0.11864,-0.0395 c -1.06769,0.41522 -1.75971,0.67225 -2.84718,1.00838 v 0.31635 c 0.17795,-0.0198 0.29658,-0.0198 0.4943,-0.0198 0.67225,0 0.81066,0.19772 0.81066,1.12701 v 9.25334 c 0,1.04793 -0.21749,1.24565 -1.38405,1.36428 z m 3.04491,-10.89442 c 0,-0.59317 1.10723,-1.30496 2.01675,-1.30496 1.46313,0 2.43197,1.50268 2.43197,3.81601 0,2.17494 -0.96884,3.65784 -2.39243,3.65784 -0.92929,0 -2.05629,-0.71179 -2.05629,-1.30496 z"
           id="path956" />
        <path
           d="m 874.1062,299.61781 h -1.99698 v -2.29356 c 0,-0.19772 -0.0395,-0.25704 -0.13841,-0.25704 -1.14678,1.66086 -1.73994,2.33311 -2.31333,2.66924 -0.21749,0.1384 -0.33613,0.25703 -0.33613,0.37567 0,0.0593 0.0198,0.0989 0.0791,0.1384 h 1.04792 v 5.9514 c 0,1.66086 0.59317,2.51106 1.75972,2.51106 0.96883,0 1.72017,-0.47453 2.37265,-1.50268 l -0.25704,-0.21749 c -0.43498,0.51407 -0.75134,0.69202 -1.18632,0.69202 -0.73157,0 -1.02815,-0.53385 -1.02815,-1.77949 v -5.65482 h 1.99698 z"
           id="path958" />
        <path
           d="m 882.62798,305.27263 c -0.94906,1.50268 -1.79927,2.07607 -3.06468,2.07607 -1.12701,0 -1.97721,-0.57339 -2.5506,-1.7004 -0.3559,-0.75134 -0.4943,-1.38404 -0.53385,-2.60991 h 6.08981 c -0.15818,-1.28519 -0.3559,-1.85858 -0.8502,-2.49129 -0.59316,-0.71179 -1.50268,-1.12701 -2.53083,-1.12701 -0.9886,0 -1.91789,0.3559 -2.66923,1.02815 -0.92929,0.81066 -1.46314,2.21448 -1.46314,3.83579 0,2.72855 1.42359,4.42895 3.69738,4.42895 1.87835,0 3.36126,-1.16655 4.19169,-3.30194 z m -6.10958,-2.86695 c 0.21749,-1.54222 0.88974,-2.27379 2.09584,-2.27379 1.2061,0 1.68063,0.55362 1.93767,2.27379 z"
           id="path960" />
        <path
           d="m 883.4386,308.51526 h 4.7453 v -0.29658 c -1.32473,-0.0396 -1.64108,-0.31636 -1.68063,-1.48291 v -4.44872 c 0,-0.63271 0.83043,-1.62132 1.38405,-1.62132 0.11863,0 0.29658,0.0989 0.51407,0.29659 0.29659,0.29658 0.53385,0.39544 0.79089,0.39544 0.47453,0 0.77111,-0.33613 0.77111,-0.88975 0,-0.65248 -0.41521,-1.04792 -1.08746,-1.04792 -0.83043,0 -1.38405,0.43499 -2.37266,1.85858 v -1.81903 l -0.0989,-0.0395 c -1.10724,0.43499 -1.81903,0.7118 -2.92627,1.0677 v 0.31635 c 0.27681,-0.0593 0.45476,-0.0791 0.69203,-0.0791 0.4943,0 0.67225,0.31635 0.67225,1.18633 v 4.94302 c -0.0395,1.02815 -0.15818,1.14678 -1.40382,1.36428 z"
           id="path962" />
        <path
           d="m 903.70493,295.14932 h -0.41521 c -0.0791,0.43499 -0.29658,0.67225 -0.63271,0.67225 -0.19772,0 -0.53384,-0.0791 -0.86997,-0.23726 -0.73157,-0.27681 -1.46313,-0.43499 -2.11561,-0.43499 -0.83043,0 -1.7004,0.33612 -2.35288,0.90952 -0.69203,0.61293 -1.04792,1.44336 -1.04792,2.47151 0,1.58177 0.86997,2.689 3.08444,3.85556 1.42359,0.77111 2.45174,1.56199 2.94605,2.31333 0.17794,0.25704 0.27681,0.67225 0.27681,1.16656 0,1.30496 -0.98861,2.21447 -2.43197,2.21447 -1.77949,0 -3.00536,-1.08746 -3.99397,-3.49966 h -0.45476 l 0.59317,4.19169 h 0.43498 c 0.0198,-0.37567 0.25704,-0.65248 0.55362,-0.65248 0.2175,0 0.55362,0.0791 0.92929,0.21749 0.75134,0.29658 1.562,0.45476 2.33311,0.45476 2.29356,0 4.03351,-1.562 4.03351,-3.6183 0,-1.62131 -1.08747,-2.88672 -3.69739,-4.31031 -2.07607,-1.12701 -2.90649,-1.99699 -2.90649,-3.08445 0,-1.08747 0.83042,-1.81903 2.05629,-1.81903 0.88975,0 1.72018,0.37566 2.4122,1.08746 0.61294,0.63271 0.88975,1.14678 1.2061,2.31334 h 0.4943 z"
           id="path964" />
        <path
           d="m 917.82218,299.59804 -0.17795,-4.44872 h -0.41521 c -0.11864,0.41521 -0.43499,0.65248 -0.83043,0.65248 -0.17795,0 -0.47453,-0.0593 -0.77111,-0.15818 -0.96884,-0.33612 -1.95744,-0.4943 -2.88673,-0.4943 -1.62131,0 -3.2624,0.61293 -4.48827,1.7004 -1.38404,1.22587 -2.13538,3.0449 -2.13538,5.21983 0,4.03351 2.62968,6.72252 6.56433,6.72252 2.23425,0 4.21146,-0.90952 5.39779,-2.51106 l -0.3559,-0.3559 c -1.44336,1.40382 -2.7681,1.99699 -4.40918,1.99699 -1.24564,0 -2.35288,-0.39545 -3.20308,-1.14679 -1.08747,-0.96883 -1.7004,-2.74832 -1.7004,-4.96279 0,-3.57875 1.8388,-5.87232 4.70576,-5.87232 1.12701,0 2.15516,0.41522 2.94604,1.18633 0.63271,0.63271 0.92929,1.18632 1.30496,2.47151 z"
           id="path966" />
        <path
           d="m 927.39187,295.14932 h -0.41521 c -0.0791,0.43499 -0.29659,0.67225 -0.63271,0.67225 -0.19772,0 -0.53385,-0.0791 -0.86997,-0.23726 -0.73157,-0.27681 -1.46314,-0.43499 -2.11562,-0.43499 -0.83043,0 -1.7004,0.33612 -2.35288,0.90952 -0.69202,0.61293 -1.04792,1.44336 -1.04792,2.47151 0,1.58177 0.86997,2.689 3.08445,3.85556 1.42359,0.77111 2.45174,1.56199 2.94604,2.31333 0.17795,0.25704 0.27681,0.67225 0.27681,1.16656 0,1.30496 -0.9886,2.21447 -2.43197,2.21447 -1.77949,0 -3.00536,-1.08746 -3.99396,-3.49966 h -0.45476 l 0.59316,4.19169 h 0.43499 c 0.0198,-0.37567 0.25704,-0.65248 0.55362,-0.65248 0.21749,0 0.55362,0.0791 0.92929,0.21749 0.75134,0.29658 1.56199,0.45476 2.3331,0.45476 2.29357,0 4.03351,-1.562 4.03351,-3.6183 0,-1.62131 -1.08746,-2.88672 -3.69738,-4.31031 -2.07607,-1.12701 -2.9065,-1.99699 -2.9065,-3.08445 0,-1.08747 0.83043,-1.81903 2.0563,-1.81903 0.88974,0 1.72017,0.37566 2.4122,1.08746 0.61293,0.63271 0.88974,1.14678 1.20609,2.31334 h 0.49431 z"
           id="path968" />
        <path
           d="m 929.90293,308.51526 h 5.87231 v -0.37567 c -1.62131,-0.0396 -1.89812,-0.31635 -1.93767,-1.77949 v -8.77881 c 0.0395,-1.48291 0.29658,-1.72018 1.93767,-1.77949 v -0.37567 h -5.87231 v 0.37567 c 1.68062,0.0989 1.89812,0.29658 1.91789,1.77949 v 8.77881 c -0.0198,1.50268 -0.25704,1.72017 -1.91789,1.77949 z"
           id="path970" />
      </g>
      <path
         id="rect51496"
         style="fill:#282878"
         d="m 449.0358,302.20859 h 3.97866 v 4.53623 h -3.97866 z" />
      <path
         id="rect51496-1"
         style="fill:#282878"
         d="m 767.6474,302.20859 h 3.97866 v 4.53623 h -3.97866 z" />
      <path
         id="rect51496-9"
         style="fill:#282878"
         d="m 619.15088,302.20859 h 3.97866 v 4.53623 h -3.97866 z" />
    </g>
    <g
       aria-label="®"
       id="text2245"
       style="font-style:italic;font-size:40px;line-height:1.25;-inkscape-font-specification:'sans-serif, Italic';letter-spacing:0px;word-spacing:0px">
      <path
         d="m 598.55824,162.64625 q 1.23697,0 2.41535,0.63802 1.17839,0.63151 1.83594,1.8164 0.65755,1.17838 0.65755,2.46093 0,1.26953 -0.65104,2.4414 -0.64453,1.17187 -1.8164,1.82291 -1.16537,0.64453 -2.4414,0.64453 -1.27604,0 -2.44792,-0.64453 -1.16536,-0.65104 -1.8164,-1.82291 -0.65104,-1.17187 -0.65104,-2.4414 0,-1.28255 0.65755,-2.46093 0.66406,-1.18489 1.84245,-1.8164 1.17838,-0.63802 2.41536,-0.63802 z m 0,0.8138 q -1.03516,0 -2.01823,0.53385 -0.97656,0.52734 -1.52994,1.51693 -0.55339,0.98307 -0.55339,2.05077 0,1.0612 0.54037,2.03776 0.54687,0.97005 1.52343,1.51692 0.97656,0.54036 2.03776,0.54036 1.06119,0 2.03775,-0.54036 0.97656,-0.54687 1.51692,-1.51692 0.54037,-0.97656 0.54037,-2.03776 0,-1.0677 -0.55339,-2.05077 -0.54687,-0.98959 -1.52994,-1.51693 -0.98307,-0.53385 -2.01171,-0.53385 z m -2.15495,6.81639 v -5.28645 h 1.8164 q 0.93099,0 1.34766,0.14974 0.41666,0.14323 0.66406,0.50781 0.24739,0.36459 0.24739,0.77474 0,0.57943 -0.41666,1.00911 -0.41016,0.42969 -1.09375,0.48177 0.27995,0.11719 0.44922,0.27995 0.31901,0.3125 0.78125,1.04817 l 0.64453,1.03516 h -1.04167 l -0.46875,-0.83333 q -0.55338,-0.98307 -0.89192,-1.23047 -0.23438,-0.18229 -0.68359,-0.18229 h -0.5013 v 2.24609 z m 0.85287,-2.97525 h 1.03515 q 0.74218,0 1.00911,-0.22136 0.27344,-0.22135 0.27344,-0.58593 0,-0.23438 -0.13021,-0.41667 -0.13021,-0.1888 -0.36458,-0.27995 -0.22787,-0.0911 -0.85286,-0.0911 h -0.97005 z"
         style="font-style:normal;font-size:13.3333px;font-family:Arial;-inkscape-font-specification:'Arial, Normal'"
         id="path976" />
    </g>
    <g
       aria-label="®"
       id="text2245-5"
       style="font-style:italic;font-size:40px;line-height:1.25;-inkscape-font-specification:'sans-serif, Italic';letter-spacing:0px;word-spacing:0px">
      <path
         d="m 323.36576,161.31152 q 1.23698,0 2.41536,0.63802 1.17838,0.63151 1.83593,1.8164 0.65755,1.17838 0.65755,2.46093 0,1.26953 -0.65104,2.4414 -0.64453,1.17187 -1.8164,1.82291 -1.16536,0.64453 -2.4414,0.64453 -1.27604,0 -2.44791,-0.64453 -1.16536,-0.65104 -1.8164,-1.82291 -0.65104,-1.17187 -0.65104,-2.4414 0,-1.28255 0.65755,-2.46093 0.66406,-1.18489 1.84244,-1.8164 1.17839,-0.63802 2.41536,-0.63802 z m 0,0.8138 q -1.03515,0 -2.01822,0.53385 -0.97656,0.52734 -1.52995,1.51692 -0.55338,0.98307 -0.55338,2.05078 0,1.06119 0.54036,2.03775 0.54688,0.97005 1.52344,1.51693 0.97656,0.54036 2.03775,0.54036 1.0612,0 2.03776,-0.54036 0.97656,-0.54688 1.51692,-1.51693 0.54036,-0.97656 0.54036,-2.03775 0,-1.06771 -0.55338,-2.05078 -0.54687,-0.98958 -1.52995,-1.51692 -0.98307,-0.53385 -2.01171,-0.53385 z m -2.15494,6.81639 v -5.28645 h 1.8164 q 0.93099,0 1.34765,0.14974 0.41667,0.14323 0.66406,0.50781 0.2474,0.36458 0.2474,0.77474 0,0.57943 -0.41667,1.00911 -0.41015,0.42969 -1.09374,0.48177 0.27994,0.11719 0.44921,0.27995 0.31901,0.3125 0.78125,1.04817 l 0.64453,1.03516 h -1.04166 l -0.46875,-0.83333 q -0.55339,-0.98308 -0.89193,-1.23047 -0.23437,-0.18229 -0.68359,-0.18229 h -0.5013 v 2.24609 z m 0.85286,-2.97526 h 1.03515 q 0.74219,0 1.00912,-0.22135 0.27343,-0.22135 0.27343,-0.58594 0,-0.23437 -0.1302,-0.41666 -0.13021,-0.1888 -0.36459,-0.27995 -0.22786,-0.0911 -0.85286,-0.0911 h -0.97005 z"
         style="font-style:normal;font-size:13.3333px;font-family:Arial;-inkscape-font-specification:'Arial, Normal'"
         id="path979" />
    </g>
    <g
       aria-label="®"
       id="text2245-1"
       style="font-style:italic;font-size:40px;line-height:1.25;-inkscape-font-specification:'sans-serif, Italic';letter-spacing:0px;word-spacing:0px">
      <path
         d="m 599.03175,215.36326 q 1.23697,0 2.41535,0.63802 1.17839,0.63151 1.83594,1.8164 0.65755,1.17838 0.65755,2.46093 0,1.26953 -0.65104,2.4414 -0.64453,1.17187 -1.8164,1.82291 -1.16537,0.64453 -2.4414,0.64453 -1.27604,0 -2.44791,-0.64453 -1.16537,-0.65104 -1.81641,-1.82291 -0.65104,-1.17187 -0.65104,-2.4414 0,-1.28255 0.65755,-2.46093 0.66407,-1.18489 1.84245,-1.8164 1.17838,-0.63802 2.41536,-0.63802 z m 0,0.8138 q -1.03516,0 -2.01823,0.53385 -0.97656,0.52735 -1.52994,1.51693 -0.55339,0.98307 -0.55339,2.05077 0,1.0612 0.54037,2.03776 0.54687,0.97005 1.52343,1.51692 0.97656,0.54036 2.03776,0.54036 1.06119,0 2.03775,-0.54036 0.97656,-0.54687 1.51692,-1.51692 0.54037,-0.97656 0.54037,-2.03776 0,-1.0677 -0.55339,-2.05077 -0.54687,-0.98958 -1.52994,-1.51693 -0.98307,-0.53385 -2.01171,-0.53385 z m -2.15495,6.81639 V 217.707 h 1.81641 q 0.93098,0 1.34765,0.14974 0.41666,0.14323 0.66406,0.50781 0.24739,0.36459 0.24739,0.77474 0,0.57943 -0.41666,1.00911 -0.41016,0.42969 -1.09375,0.48177 0.27995,0.11719 0.44922,0.27995 0.31901,0.3125 0.78125,1.04818 l 0.64453,1.03515 h -1.04167 l -0.46875,-0.83333 q -0.55338,-0.98307 -0.89192,-1.23047 -0.23438,-0.18229 -0.68359,-0.18229 h -0.5013 v 2.24609 z m 0.85287,-2.97525 h 1.03515 q 0.74219,0 1.00911,-0.22136 0.27344,-0.22135 0.27344,-0.58593 0,-0.23438 -0.13021,-0.41667 -0.13021,-0.1888 -0.36458,-0.27995 -0.22787,-0.0911 -0.85286,-0.0911 h -0.97005 z"
         style="font-style:normal;font-size:13.3333px;font-family:Arial;-inkscape-font-specification:'Arial, Normal'"
         id="path982" />
    </g>
    <path
       id="rect22527"
       style="fill:none;stroke:#ffffff"
       d="M 26.876392,13.155365 H 1178.8522 V 468.13129 H 26.876392 Z" />
  </g>
</svg>
