<?xml version="1.0" encoding="UTF-8" standalone="no"?>
<svg
   width="333"
   height="133"
   version="1.1"
   id="svg4"
   sodipodi:docname="4091.svg"
   inkscape:version="1.1.1 (3bf5ae0d25, 2021-09-20)"
   xmlns:inkscape="http://www.inkscape.org/namespaces/inkscape"
   xmlns:sodipodi="http://sodipodi.sourceforge.net/DTD/sodipodi-0.dtd"
   xmlns="http://www.w3.org/2000/svg"
   xmlns:svg="http://www.w3.org/2000/svg">
  <defs
     id="defs8" />
  <sodipodi:namedview
     id="namedview6"
     pagecolor="#ffffff"
     bordercolor="#666666"
     borderopacity="1.0"
     inkscape:pageshadow="2"
     inkscape:pageopacity="0.0"
     inkscape:pagecheckerboard="0"
     showgrid="false"
     inkscape:zoom="9.0713521"
     inkscape:cx="57.764266"
     inkscape:cy="70.441539"
     inkscape:window-width="1912"
     inkscape:window-height="1169"
     inkscape:window-x="1277"
     inkscape:window-y="681"
     inkscape:window-maximized="0"
     inkscape:current-layer="svg4" />
  <path
     style="fill:#282878;fill-opacity:1;stroke:none"
     d="m 252,33 c 4.254,-0.4363 15.73891,-3.395609 19.78652,-0.796057 1.90798,1.225388 1.702,4.797124 1.6652,7.395463 l -0.86798,61.284574 c -0.16103,11.36961 -17.62407,15.58563 -21.6151,16.63741 v 6.3886 h 64.47488 v -6.3886 C 312.46017,116.54178 294.2543,111.66465 294.09,100.66682 L 294,10 291.80305,9.9337773 251.96005,28.683615 V 33 M 93.8911,99 c 5.372402,16.33321 13.5718,24.78518 31.54555,24.77456 C 141.26481,123.76521 150.74738,110.88793 154.293,100 165.70973,64.941412 157.37599,11.304986 124.70117,11.541241 93.357573,11.767871 82.195327,63.442441 93.8911,99 Z M 208,81 c -3.2591,17.313375 -18.95684,31.22307 -39.96077,39.1116 L 168.07004,124 C 198.04704,123.549 227.683,104.695 235.532,75 241.603,52.0326 233.86007,11.646484 201.41569,11.590235 176.58527,11.547187 167.753,26.9271 168.02,50 169.2792,76.500214 181.2398,85.854318 208,81 M 12,100 h 37.978553 v 23.83202 H 73.5 V 100 H 83 V 80.786674 H 73.5 V 11.52466 H 59.905887 L 12.016751,80.786674 V 100 M 199.2,18.57 c 5.959,-1.6661 9.926,4.6528 11.29,9.4372 3.002,10.5292 3.139,22.1244 2.357,32.9919 -0.335,4.6514 -1.591,10.6116 -6.96,11.7353 -16.966,3.5508 -14.541,-32.506 -13.499,-41.7343 0.511,-4.5193 1.657,-10.9885 6.812,-12.4301 m -73.9758,0.04214 c 7.54562,-0.04289 8.52686,14.136292 8.7988,19.387859 1.02603,19.814298 0.458,40.1985 -0.052,60 -0.17,6.617001 1.20832,18.698531 -8.87074,18.856501 -9.40508,0.14741 -9.69926,-13.0005 -10.00026,-18.856501 -1.036,-20.1487 -0.54162,-39.829591 -0.065,-60 0.14038,-5.941091 0.51616,-18.327659 9.27118,-19.372729 M 49.978553,37 V 80.786674 H 20.373084 L 50,37"
     id="path2"
     sodipodi:nodetypes="cssscccccccccsssssccccscccccccccccccccccccccscscsccccc" />
</svg>
