<?xml version="1.0" encoding="UTF-8" standalone="no"?>
<svg
   width="330"
   height="79"
   version="1.1"
   id="svg4"
   sodipodi:docname="amiga.svg"
   inkscape:version="1.1.1 (3bf5ae0d25, 2021-09-20)"
   xmlns:inkscape="http://www.inkscape.org/namespaces/inkscape"
   xmlns:sodipodi="http://sodipodi.sourceforge.net/DTD/sodipodi-0.dtd"
   xmlns="http://www.w3.org/2000/svg"
   xmlns:svg="http://www.w3.org/2000/svg">
  <defs
     id="defs8" />
  <sodipodi:namedview
     id="namedview6"
     pagecolor="#ffffff"
     bordercolor="#666666"
     borderopacity="1.0"
     inkscape:pageshadow="2"
     inkscape:pageopacity="0.0"
     inkscape:pagecheckerboard="0"
     showgrid="false"
     inkscape:zoom="12.945455"
     inkscape:cx="165.38624"
     inkscape:cy="53.725421"
     inkscape:window-width="1920"
     inkscape:window-height="1200"
     inkscape:window-x="1200"
     inkscape:window-y="679"
     inkscape:window-maximized="0"
     inkscape:current-layer="g40296"
     inkscape:snap-bbox="true" />
  <g
     id="g40296">
    <path
       style="fill:#dc1e32;fill-opacity:1;stroke:none"
       d="m 253.0901,74.709251 h 24.0833 v -4.351584 c -0.0316,-0.776924 -10.95763,-0.129957 -8.34395,-4.256145 l 9.47234,-14.953876 h 13.39429 v 14.953876 c -0.28835,3.581108 -7.39776,3.538536 -7.34215,4.256145 l -0.0395,4.351584 h 31.13402 l 0.17203,-4.351584 c -0.0565,-1.351688 -7.20408,0.351403 -8.06927,-3.577804 L 304.32427,9.9910097 h -9.60055 L 259.3679,66.779863 c -1.06293,2.539207 -6.46368,2.982099 -6.2778,3.577804 m 6.02178,-27.553495 h -26.7325 v 4.979911 c 0.94122,0.993524 3.89795,0.56873 4.79711,1.876351 2.05002,1.686598 -2.53407,17.970286 -5.44593,18.774963 -13.1821,2.341328 -16.42327,-8.4189 -16.55416,-11.274324 -1.68538,-24.657453 12.0218,-40.948369 37.6857,-41.340509 2.93389,0.115615 -0.42739,8.915705 5.29771,9.053738 3.13585,0.07561 3.25007,-6.041174 3.70677,-12.600934 -0.0664,-2.26094 -7.66823,-2.3814293 -11.5116,-2.4347435 C 230.54692,9.5638522 211.36844,18.094448 201.732,36 c -13.049,26.0983 10.13211,44.738476 44.77813,36.553316 2.20275,-0.463464 3.84573,-14.354945 5.76859,-21.532417 0.90206,-2.610332 5.43937,-1.931329 6.47201,-3.029231 M 95,16 c 2.443476,0.01348 4.848244,-0.155119 5,2 L 84.576543,61.342021 c -2.02081,9.459082 -8.324445,6.581933 -8.311575,8.136119 v 5.007566 H 98.981606 V 69.47814 c -1.989933,-1.275296 -8.820982,-0.696983 -6.615657,-7.524633 l 10.565651,-31.719123 2.36201,43.704489 h 8.84458 l 25.82103,-42.610851 -7.90119,34.917436 c -1.03095,2.738432 -6.67353,1.765594 -7.18314,3.232682 v 5.007566 h 29.9899 V 69.47814 c -0.92166,-1.734113 -5.63763,-0.673307 -5.99387,-3.998052 l 8.20987,-44.568711 c 0.93447,-3.608194 2.08467,-4.063287 4.77924,-4.002392 l 0.0892,-6.9742122 H 144.07502 L 120,48 117.76997,9.9347728 H 94.910501 m 79.586409,5.9604622 c 0.45676,1.544039 8.46598,-0.810588 8.01977,2.794645 l -13.81655,46.939029 c -1.52903,3.026224 -9.82438,2.07323 -9.54216,3.818087 v 5.122099 h 32.40415 v -5.169039 c -1.37618,-1.453514 -11.92491,-0.53377 -10.69933,-3.810346 l 13.7476,-46.939029 c 1.6364,-3.686673 7.71823,-1.231478 8.39472,-2.755446 V 9.8417417 l -28.5082,0.1594453 M 291.69608,28 v 17.061743 h -10.47984 z"
       id="path10564"
       sodipodi:nodetypes="cccscccccccccccccccccccscsccccccccccccccccccccccccccccccccccccccccccccc" />
    <path
       style="fill:#dc1e32;fill-opacity:1;stroke:none"
       d="M 9.2961985,74.4705 H 33.379499 v -4.35158 c -0.0316,-0.77692 -10.95763,-0.12996 -8.34395,-4.25615 l 9.47234,-14.95387 h 13.39429 v 14.95387 c -0.28835,3.58111 -7.39776,3.53854 -7.34215,4.25615 l -0.0395,4.35158 h 31.13402 l 0.17203,-4.35158 c -0.0565,-1.35169 -7.20408,0.3514 -8.06927,-3.5778 L 60.530369,9.752257 h -9.60055 L 15.573999,66.54112 c -1.06293,2.5392 -6.4636805,2.9821 -6.2778005,3.5778 M 47.902179,27.761247 V 44.823 h -10.47984 z"
       id="path10564-6"
       sodipodi:nodetypes="cccscccccccccccccccc" />
  </g>
</svg>
