<?xml version="1.0" encoding="UTF-8" standalone="no"?>
<svg
   width="5.5in"
   height="7.75in"
   version="1.1"
   id="svg4"
   sodipodi:docname="back_cover.svg"
   inkscape:version="1.1.1 (3bf5ae0d25, 2021-09-20)"
   xmlns:inkscape="http://www.inkscape.org/namespaces/inkscape"
   xmlns:sodipodi="http://sodipodi.sourceforge.net/DTD/sodipodi-0.dtd"
   xmlns="http://www.w3.org/2000/svg"
   xmlns:svg="http://www.w3.org/2000/svg">
  <defs
     id="defs8">
    <filter
       inkscape:collect="always"
       style="color-interpolation-filters:sRGB"
       id="filter2669"
       x="-0.00012175115"
       y="-0.00011829851"
       width="1.0002435"
       height="1.0002366">
      <feGaussianBlur
         inkscape:collect="always"
         stdDeviation="0.089724453"
         id="feGaussianBlur2671" />
    </filter>
    <filter
       inkscape:collect="always"
       style="color-interpolation-filters:sRGB"
       id="filter2673"
       x="-0.00012175114"
       y="-0.00011829851"
       width="1.0002435"
       height="1.0002366">
      <feGaussianBlur
         inkscape:collect="always"
         stdDeviation="0.089724452"
         id="feGaussianBlur2675" />
    </filter>
    <filter
       inkscape:collect="always"
       style="color-interpolation-filters:sRGB"
       id="filter2677"
       x="-0.00012175114"
       y="-0.00011829852"
       width="1.0002435"
       height="1.0002366">
      <feGaussianBlur
         inkscape:collect="always"
         stdDeviation="0.089724452"
         id="feGaussianBlur2679" />
    </filter>
    <filter
       inkscape:collect="always"
       style="color-interpolation-filters:sRGB"
       id="filter2681"
       x="-0.00012175114"
       y="-0.00011829852"
       width="1.0002435"
       height="1.0002366">
      <feGaussianBlur
         inkscape:collect="always"
         stdDeviation="0.089724453"
         id="feGaussianBlur2683" />
    </filter>
    <filter
       inkscape:collect="always"
       style="color-interpolation-filters:sRGB"
       id="filter2685"
       x="-0.00012175114"
       y="-0.00011829852"
       width="1.0002435"
       height="1.0002366">
      <feGaussianBlur
         inkscape:collect="always"
         stdDeviation="0.089724457"
         id="feGaussianBlur2687" />
    </filter>
    <filter
       inkscape:collect="always"
       style="color-interpolation-filters:sRGB"
       id="filter2689"
       x="-0.00012093915"
       y="-0.00011907531"
       width="1.0002419"
       height="1.0002382">
      <feGaussianBlur
         inkscape:collect="always"
         stdDeviation="0.13395973"
         id="feGaussianBlur2691" />
    </filter>
    <filter
       inkscape:collect="always"
       style="color-interpolation-filters:sRGB"
       id="filter1008"
       x="-6.563286e-05"
       y="-0.0006991071"
       width="1.0001313"
       height="1.0013982">
      <feGaussianBlur
         inkscape:collect="always"
         stdDeviation="0.032625"
         id="feGaussianBlur1010" />
    </filter>
    <filter
       inkscape:collect="always"
       style="color-interpolation-filters:sRGB"
       id="filter1012"
       x="-6.0994146e-05"
       y="-0.003681207"
       width="1.000122"
       height="1.0073624">
      <feGaussianBlur
         inkscape:collect="always"
         stdDeviation="0.177925"
         id="feGaussianBlur1014" />
    </filter>
    <filter
       inkscape:collect="always"
       style="color-interpolation-filters:sRGB"
       id="filter1000"
       x="-6.0141176e-05"
       y="-0.02556"
       width="1.0001203"
       height="1.05112">
      <feGaussianBlur
         inkscape:collect="always"
         stdDeviation="0.15975"
         id="feGaussianBlur1002" />
    </filter>
  </defs>
  <sodipodi:namedview
     id="namedview6"
     pagecolor="#ffffff"
     bordercolor="#666666"
     borderopacity="1.0"
     inkscape:pageshadow="2"
     inkscape:pageopacity="0.0"
     inkscape:pagecheckerboard="0"
     showgrid="false"
     inkscape:snap-nodes="false"
     inkscape:zoom="2.0905663"
     inkscape:cx="166.2229"
     inkscape:cy="213.33932"
     inkscape:window-width="1891"
     inkscape:window-height="1169"
     inkscape:window-x="1258"
     inkscape:window-y="838"
     inkscape:window-maximized="0"
     inkscape:current-layer="g1830"
     units="in"
     width="73.48959in"
     fit-margin-top="0"
     fit-margin-left="0"
     fit-margin-right="0"
     fit-margin-bottom="0"
     inkscape:document-units="in" />
  <g
     id="g935"
     transform="matrix(0.03527437,0,0,0.03470887,301.97605,53.547404)">
    <path
       style="fill:#142878;fill-opacity:1;stroke:none;stroke-width:0.991347;filter:url(#filter2689)"
       d="M 238.2457,291.01178 V 2991.0118 H 2896.6349 V 291.01178 Z"
       id="path2-5"
       sodipodi:nodetypes="ccccc" />
    <path
       style="fill:#008228;fill-opacity:1;stroke:none;stroke-width:1.01314;filter:url(#filter2685)"
       d="m 1816.7273,157.34575 -2.0263,-12.15769 c -27.132,0 -52.4809,16.54664 -75.9859,26.34177 -43.5753,18.1556 -81.3151,46.84177 -122.5905,70.92022 -15.3795,8.96834 -30.0499,19.30443 -45.5916,28.36806 -7.0415,4.10832 -15.9672,8.00181 -22.2893,13.1709 -6.4233,5.2521 -11.9956,18.09577 -16.2103,25.32865 -1.3779,2.36973 -2.695,7.46178 -5.0656,9.1183 -3.5766,2.50346 -10.8916,1.9635 -15.1972,3.03942 -6.6057,1.65247 -12.5328,5.31901 -18.2368,9.11827 -14.3967,9.59655 -28.4895,20.38552 -41.5389,33.43386 -5.8155,5.81443 -10.1922,13.97634 -17.2235,19.24976 -20.3541,15.2671 -44.2137,25.87776 -65.8543,38.49953 -32.0348,18.68646 -63.3034,41.39814 -93.2096,63.82817 -14.9944,11.24592 -30.9536,28.10061 -42.552,43.56527 -4.1924,5.58952 -9.1507,15.21845 -15.1973,19.24976 -15.9639,10.64208 -33.5968,18.35922 -49.6441,30.39437 -49.1933,36.89471 -88.6289,87.74752 -137.7877,124.61691 -13.9004,10.42527 -24.7249,24.92643 -37.48639,33.43381 -2.999,1.99893 -9.6958,9.1183 -13.1709,9.1183 -4.3292,0 -5.1832,-6.43144 -6.0789,-9.1183 -2.8215,-8.46584 -6.2774,-16.80709 -9.11826,-25.32864 -16.08478,8.04234 -26.65271,26.32151 -41.53894,37.48639 -29.64976,22.23754 -52.41506,54.76152 -82.0648,76.99907 -7.1862,5.38992 -12.06353,13.85983 -19.24974,19.24975 -33.58981,25.19187 -60.23963,63.05207 -91.1831,91.183 -21.20717,19.28026 -51.0281,44.73557 -69.90704,69.90724 -11.18008,14.9073 -27.50591,25.8676 -38.49955,40.5257 -10.78594,14.3766 -26.78251,26.7775 -39.51267,39.5127 -24.71062,24.7106 -48.26524,49.2794 -72.94648,73.9597 -11.39385,11.3978 -27.56162,23.1097 -36.47325,36.4731 -12.06048,18.0949 -18.82931,40.3234 -27.35494,60.7888 -8.41011,20.1819 -19.43193,40.0598 -26.34178,60.7888 -0.89765,2.6949 1.38709,8.5914 2.02629,11.1446 2.1341,8.5408 1.01315,20.7898 1.01315,29.3812 2.65717,0.4458 6.30785,0.5674 8.10517,3.0393 2.39812,3.303 1.03138,9.1895 2.02629,13.1709 2.12355,8.4902 5.43552,19.1689 2.02629,27.355 -2.39305,5.7446 -9.04536,10.871 -12.15775,16.2104 -2.37887,4.083 -2.02326,9.1082 -4.05258,13.171 -9.00241,18.0035 -22.48474,33.8288 -31.40751,51.6703 l -9.11832,18.2367 c -0.9866,1.9756 -4.43221,5.8255 -4.05258,8.1051 0.32907,1.9757 2.92171,3.3737 4.05258,5.0656 3.37469,5.0659 7.18461,12.4313 9.11832,18.2367 l 4.05257,-1.0131 c 0.84931,5.0962 -1.72113,12.1576 6.07887,12.1576 l 1.01315,12.1579 7.09202,-3.0395 c 3.55635,7.1124 10.27006,1.611 12.15774,-4.0526 6.62102,2.2088 8.05006,0.3343 9.11831,-6.0789 5.47404,3.6474 9.21052,-0.547 10.13146,-6.0788 4.77395,2.391 7.60974,-0.5368 9.11831,-5.0657 9.53268,4.7617 27.5758,-5.7243 30.39437,-14.1842 1.22186,-3.6675 -1.19245,-17.2234 6.07888,-17.2234 3.14177,0 2.73245,6.0992 4.05258,7.0921 7.17712,5.3798 19.42809,-11.2053 20.26291,-16.2103 1.68385,0.5572 6.17411,1.2056 7.09202,3.0395 1.60584,3.2116 -4.66453,15.8049 -7.09202,18.2365 -6.33216,6.3321 -13.40999,15.2783 -20.26291,20.2629 -1.76794,1.2868 -5.48517,0.7801 -7.09202,2.0263 -4.6017,3.5764 -11.40902,11.935 -13.17089,17.2235 -5.45781,-1.8237 -14.09284,-2.857 -18.23661,4.0526 -2.87532,4.7922 -1.11042,11.8333 -9.11831,13.171 -4.72533,0.79 -6.16906,-7.5482 -8.10517,-10.1316 -2.8034,-3.7384 -16.17265,-2.5025 -19.24979,1.0131 -1.11798,1.2766 -0.25642,4.5693 -1.01313,6.0789 -1.69013,3.384 -5.19703,2.158 -7.09202,4.0528 -5.72133,5.7241 -6.6974,14.0116 -9.11832,21.2759 -1.31282,3.9411 -7.53952,9.6148 -1.01314,13.1709 7.94256,4.3362 16.01551,-3.8499 23.30236,-5.0657 -3.7064,5.5622 -9.73026,15.2781 -15.19719,19.2497 -1.49278,1.084 -4.78721,0.7396 -6.07888,2.0263 -2.82839,2.8266 -2.4749,9.716 -5.06572,13.171 -3.40872,4.5489 -8.48196,6.8285 -11.1446,12.1578 -3.91237,7.8213 -2.70712,18.2465 -6.07887,26.3415 -1.9019,4.5694 -5.88102,8.3281 -7.09203,13.1709 -0.97982,3.921 -3.30681,13.3837 -2.02629,17.2236 2.30248,6.9095 7.12667,8.9766 5.06573,17.2235 -3.80446,15.2174 -17.94656,26.4939 -13.17089,45.5916 1.67776,6.7069 1.788,15.4909 4.05258,22.2892 2.33894,7.0211 8.46635,12.4414 9.11831,20.2628 0.147,1.7629 -1.61384,4.4274 -2.0263,6.0789 -1.26116,5.0454 1.48092,15.5923 3.03944,20.2629 2.57269,7.7202 11.93516,13.8599 13.17089,21.2762 0.62816,3.7687 -3.13516,10.5163 -4.05257,14.184 -1.47039,5.8863 1.01313,12.249 1.01313,18.2366 15.06195,-2.5127 28.20843,-15.481 42.55213,-20.263 5.94006,-1.9756 11.5995,-1.9047 16.21034,-7.0921 7.37873,-8.2976 4.78711,-23.2617 10.13143,-32.4206 4.855,-8.3178 15.11209,-10.5062 20.26293,-18.2366 4.18024,-6.2713 4.69187,-15.1871 9.1183,-21.2759 4.49939,-6.1905 13.19926,-8.4802 18.23662,-15.1972 38.89264,-51.8529 97.0158,-86.1277 135.76152,-137.7879 18.6662,-24.893 43.01006,-45.8651 61.80188,-70.9202 7.67458,-10.2328 16.00973,-27.2335 28.36807,-34.4471 21.38549,-12.4716 43.235,-22.9983 65.85452,-32.4206 10.71801,-4.4679 26.84833,-2.705 36.4732,-9.1182 10.49519,-7.0009 17.27311,-18.7837 27.35491,-26.3418 24.43098,-18.3277 43.20657,-44.3049 67.88069,-62.8151 38.45092,-28.8341 68.9394,-69.4308 107.39329,-98.275 9.8368,-7.3757 16.5204,-17.9632 26.3419,-25.3287 18.8698,-14.1536 35.4458,-32.1572 54.7098,-46.6048 9.7242,-7.2945 22.3064,-16.2305 30.3944,-25.3286 11.5885,-13.0391 25.4695,-27.2028 40.5259,-38.4994 28.5372,-21.4078 53.266,-48.3069 82.0647,-69.907 76.377,-57.2833 145.4067,-125.01529 221.8789,-182.36633 62.1159,-46.58646 125.3262,-91.20641 187.432,-137.7878 20.7898,-15.5913 45.1964,-30.33459 67.8807,-43.56528 7.0413,-4.10931 15.6938,-7.35847 22.2892,-12.15772 7.4163,-5.39704 13.7382,-12.19626 21.2762,-17.22349 v -1.01315 c -6.4438,1.07292 -12.3301,4.63008 -18.2369,7.09203 -13.5051,5.62701 -27.375,9.635 -40.5256,16.21033 -5.0557,2.52781 -10.1922,4.59156 -15.1972,7.092 -1.3373,0.66768 -4.5085,3.56224 -6.0789,3.03945 -7.1732,-2.39002 -3.0901,-13.13543 1.0131,-16.21034 11.0839,-8.3108 25.2679,-13.91453 38.4995,-17.22347 16.9803,-4.24507 34.7409,-5.89852 51.6705,-10.13145 12.2286,-3.05565 25.3287,-1.01214 37.4863,-4.05259 9.858,-2.46497 19.5235,-6.65333 29.3814,-9.1183 10.5366,-2.63317 22.1675,-1.6494 32.4204,-5.06573 8.4701,-2.82161 21.3876,-8.59552 28.3683,-14.18403 1.6412,-1.309 1.246,-3.98979 3.0394,-5.06573 2.8468,-1.70715 7.9836,-0.18136 11.1446,-2.0263 6.2309,-3.63517 7.1326,-12.24183 10.1315,-18.23662 3.1204,-6.24807 10.2327,-10.27938 14.184,-16.21033 2.7355,-4.10932 2.9988,-10.33915 6.0789,-14.18404 4.5185,-5.64423 16.2812,-7.64823 22.2891,-12.15775 3.1408,-2.35556 10.253,-6.25617 12.1578,-9.11831 1.2056,-1.81556 -0.1925,-4.30385 2.0262,-6.07887 1.9656,-1.57544 5.2887,-0.78822 7.0921,-3.03944 4.853,-6.0657 7.2136,-15.55888 11.1446,-22.2892 1.935,-3.31805 6.7779,-8.39289 7.0921,-12.15776 0.7091,-8.53878 -13.3533,-11.14459 -19.2498,-11.14459 l -2.0264,-8.10515 5.0658,-25.32865 -14.1841,-4.05259 -11.1445,-1.01314 -5.0658,-6.07888 c 2.5532,-5.10624 2.5633,-12.51842 8.1052,-16.21033 7.0008,-4.66553 21.185,-6.05659 29.3811,-8.10516 4.2046,-1.05164 10.1315,0.01 10.1315,-5.06573 l 9.1184,1.01315 8.1051,-5.06574 8.1053,4.05259 59.7755,-14.18405 c -2.1985,-6.58644 -1.9046,-23.78763 0,-31.40751 0.6078,-2.42242 2.5532,-9.33108 1.0132,-12.15775 -2.4822,-4.55813 -9.3514,-2.98168 -13.1709,-2.02628 -11.2662,2.81756 -23.9407,9.85588 -34.447,8.10515 3.6271,-10.88319 11.6409,-14.56091 22.2893,-17.22347 12.6947,-3.17417 22.1775,4.97049 30.3943,-9.11832 6.626,-11.35633 -1.2158,-30.61323 2.0263,-43.56527 0.8612,-3.4305 2.9077,-13.44445 1.0131,-17.22348 -3.617,-7.23791 -13.1505,-5.53176 -16.2103,-11.14459 -0.8712,-1.60583 0,-6.22678 0,-8.10512 0,-7.71918 0.1823,-17.9621 2.0263,-25.32866 2.5531,-10.20243 -2.8571,-22.58406 -5.0658,-31.40754 -2.2087,-8.83362 0.8004,-18.8759 -2.0262,-27.35489 l -25.3286,3.03941 c 0,-13.9287 4.1741,-21.47566 11.1445,-33.43378 3.0395,-5.20963 11.7424,-16.87494 10.1315,-23.30235 -0.8712,-3.50548 -5.0455,-7.06676 -7.092,-10.1315 -2.462,-3.68685 -7.4974,-17.62772 -13.1709,-16.2103 -10.395,2.59869 -19.1485,7.79312 -28.3681,13.1709 -5.9977,3.49938 -9.7465,8.10519 -17.2234,8.10519 v -33.43386 c 0,-3.35095 -1.1753,-9.84847 -5.0659,-11.14459 -1.8033,-0.60255 -6.3727,2.46115 -8.1052,3.03941 -6.1598,2.05264 -13.0796,1.9966 -19.2495,4.05259 3.9715,-5.96136 2.0161,-15.21295 0,-21.27607 -2.2494,-6.76188 -6.1297,-16.043283 -12.1579,-20.262888 -9.2096,-6.449871 -30.8604,-6.975082 -42.5522,-4.052585 -16.6864,4.17187 -30.0498,10.747479 -45.5916,17.223473 -6.1192,2.54922 -17.5779,4.40707 -22.2891,9.1183 -1.8034,1.804268 -1.4082,6.64998 -2.0263,9.11835 -1.7527,7.02251 -2.7861,16.37281 -7.092,22.28919 -2.9685,4.08503 -9.2299,4.79321 -13.1709,7.09201 -12.5021,7.29361 -23.8393,17.74016 -37.4864,22.28917 m -764.9249,505.55971 c 9.4475,-4.72329 16.7382,-14.88715 22.2892,-22.28921 -8.9977,-2.99891 -20.9154,14.04828 -22.2892,22.28921 m -60.78879,59.77559 2.0264,-5.06574 c 5.3616,2.6808 9.88819,-4.88334 14.18409,-8.10515 12.7087,-9.53167 31.4124,-24.33171 36.4731,-39.51269 -11.1962,-3.73242 -23.2739,3.28564 -34.4469,6.07887 -4.2876,1.07191 -11.02099,1.9027 -14.18399,5.06574 -1.8582,1.85811 -2.851,6.71512 -4.0527,9.11831 -4.2784,8.55703 -11.9682,26.43702 0,32.42066 m 678.80769,17.22348 -1.0131,11.14459 -8.1053,4.05259 -27.3549,9.1183 -1.0132,-1.01314 c 4.9847,-14.96822 23.8393,-18.7523 37.4865,-23.30234 m -73.9597,35.46009 c 0,6.91776 1.3372,10.92171 -6.0789,12.15774 -1.2562,-7.5145 1.0943,-6.24603 4.0526,-12.15774 z"
       id="path837" />
    <path
       style="fill:#e62828;fill-opacity:1;stroke:none;stroke-width:1.01314;filter:url(#filter2681)"
       d="m 2030.909,399.32809 -2.0263,-12.15769 c -27.132,0 -52.4809,16.54664 -75.9859,26.34177 -43.5753,18.1556 -81.3151,46.84177 -122.5905,70.92022 -15.3795,8.96834 -30.0499,19.30443 -45.5916,28.36806 -7.0415,4.10832 -15.9672,8.00181 -22.2893,13.1709 -6.4233,5.2521 -11.9956,18.09577 -16.2103,25.32865 -1.3779,2.36973 -2.695,7.46178 -5.0656,9.1183 -3.5766,2.50346 -10.8916,1.9635 -15.1972,3.03942 -6.6057,1.65247 -12.5328,5.31901 -18.2368,9.11827 -14.3967,9.59655 -28.4895,20.38552 -41.5389,33.43386 -5.8155,5.81443 -10.1922,13.97634 -17.2235,19.24976 -20.3541,15.2671 -44.2137,25.87776 -65.8543,38.49953 -32.0348,18.68646 -63.3034,41.39814 -93.2096,63.82817 -14.9944,11.24592 -30.9536,28.10061 -42.552,43.56527 -4.1924,5.58952 -9.1507,15.21845 -15.1973,19.24976 -15.9639,10.64208 -33.5968,18.35922 -49.6441,30.39437 -49.1933,36.89471 -88.6289,87.74752 -137.7877,124.61691 -13.9004,10.42523 -24.7249,24.92643 -37.4864,33.43387 -2.999,1.9989 -9.6958,9.1183 -13.1709,9.1183 -4.3292,0 -5.1832,-6.4315 -6.0789,-9.1183 -2.8215,-8.46584 -6.2774,-16.80714 -9.1183,-25.3287 -16.0847,8.04236 -26.6527,26.3215 -41.5389,37.4864 -29.6498,22.23761 -52.4151,54.76161 -82.0648,76.99911 -7.1862,5.3899 -12.0635,13.8598 -19.2497,19.2498 -33.5898,25.1918 -60.23958,63.052 -91.18297,91.1829 -21.20721,19.2803 -51.02814,44.7356 -69.90708,69.9072 -11.18008,14.9073 -27.50591,25.8676 -38.49955,40.5257 -10.78594,14.3766 -26.78251,26.7775 -39.51267,39.5127 -24.71062,24.7106 -48.26524,49.2794 -72.94648,73.9597 -11.39385,11.3978 -27.56162,23.1097 -36.47325,36.4731 -12.06048,18.0949 -18.82931,40.3234 -27.35494,60.7888 -8.41011,20.1819 -19.43193,40.0598 -26.34178,60.7888 -0.89765,2.6949 1.38709,8.5914 2.02629,11.1446 2.1341,8.5408 1.01315,20.7898 1.01315,29.3812 2.65717,0.4458 6.30785,0.5674 8.10517,3.0393 2.39812,3.303 1.03138,9.1895 2.02629,13.1709 2.12355,8.4902 5.43552,19.1689 2.02629,27.355 -2.39305,5.7446 -9.04536,10.871 -12.15775,16.2104 -2.37887,4.083 -2.02326,9.1082 -4.05258,13.171 -9.00241,18.0035 -22.48474,33.8288 -31.40751,51.6703 l -9.11832,18.2367 c -0.9866,1.9756 -4.43221,5.8255 -4.05258,8.1051 0.32907,1.9757 2.92171,3.3737 4.05258,5.0656 3.37469,5.0659 7.18461,12.4313 9.11832,18.2367 l 4.05257,-1.0131 c 0.84931,5.0962 -1.72113,12.1576 6.07887,12.1576 l 1.01315,12.1579 7.09202,-3.0395 c 3.55635,7.1124 10.27006,1.611 12.15774,-4.0526 6.62102,2.2088 8.05006,0.3343 9.11831,-6.0789 5.47404,3.6474 9.21052,-0.547 10.13146,-6.0788 4.77395,2.391 7.60974,-0.5368 9.11831,-5.0657 9.53268,4.7617 27.5758,-5.7243 30.39437,-14.1842 1.22186,-3.6675 -1.19245,-17.2234 6.07888,-17.2234 3.14177,0 2.73245,6.0992 4.05258,7.0921 7.17712,5.3798 19.42809,-11.2053 20.26291,-16.2103 1.68385,0.5572 6.17411,1.2056 7.09202,3.0395 1.60584,3.2116 -4.66453,15.8049 -7.09202,18.2365 -6.33216,6.3321 -13.40999,15.2783 -20.26291,20.2629 -1.76794,1.2868 -5.48517,0.7801 -7.09202,2.0263 -4.6017,3.5764 -11.40902,11.935 -13.17089,17.2235 -5.45781,-1.8237 -14.09284,-2.857 -18.23661,4.0526 -2.87532,4.7922 -1.11042,11.8333 -9.11831,13.171 -4.72533,0.79 -6.16906,-7.5482 -8.10517,-10.1316 -2.8034,-3.7384 -16.17265,-2.5025 -19.24979,1.0131 -1.11798,1.2766 -0.25642,4.5693 -1.01313,6.0789 -1.69013,3.384 -5.19703,2.158 -7.09202,4.0528 -5.72133,5.7241 -6.6974,14.0116 -9.11832,21.2759 -1.31282,3.9411 -7.53952,9.6148 -1.01314,13.1709 7.94256,4.3362 16.01551,-3.8499 23.30236,-5.0657 -3.7064,5.5622 -9.73026,15.2781 -15.19719,19.2497 -1.49278,1.084 -4.78721,0.7396 -6.07888,2.0263 -2.82839,2.8266 -2.4749,9.716 -5.06572,13.171 -3.40872,4.5489 -8.48196,6.8285 -11.1446,12.1578 -3.91237,7.8213 -2.70712,18.2465 -6.07887,26.3415 -1.9019,4.5694 -5.88102,8.3281 -7.09203,13.1709 -0.97982,3.921 -3.30681,13.3837 -2.02629,17.2236 2.30248,6.9095 7.12667,8.9766 5.06573,17.2235 -3.80446,15.2174 -17.94656,26.4939 -13.17089,45.5916 1.67776,6.7069 1.788,15.4909 4.05258,22.2892 2.33894,7.0211 8.46635,12.4414 9.11831,20.2628 0.147,1.7629 -1.61384,4.4274 -2.0263,6.0789 -1.26116,5.0454 1.48092,15.5923 3.03944,20.2629 2.57269,7.7202 11.93516,13.8599 13.17089,21.2762 0.62816,3.7687 -3.13516,10.5163 -4.05257,14.184 -1.47039,5.8863 1.01313,12.249 1.01313,18.2366 15.06195,-2.5127 28.20843,-15.481 42.55213,-20.263 5.94006,-1.9756 11.5995,-1.9047 16.21034,-7.0921 7.37873,-8.2976 4.78711,-23.2617 10.13143,-32.4206 4.855,-8.3178 15.11209,-10.5062 20.26293,-18.2366 4.18024,-6.2713 4.69187,-15.1871 9.1183,-21.2759 4.49939,-6.1905 13.19926,-8.4802 18.23662,-15.1972 38.89264,-51.8529 97.0158,-86.1277 135.76152,-137.7879 18.6662,-24.893 43.01006,-45.8651 61.80188,-70.9202 7.67458,-10.2328 16.00973,-27.2335 28.36809,-34.4471 21.3855,-12.4716 43.23499,-22.9983 65.85437,-32.4206 10.718,-4.4679 26.8483,-2.705 36.4732,-9.1182 10.4952,-7.0009 17.2731,-18.7837 27.3549,-26.3418 24.431,-18.3277 43.2066,-44.3049 67.8807,-62.8151 38.4509,-28.8341 68.9394,-69.4308 107.3933,-98.275 9.8368,-7.3757 16.5204,-17.9632 26.3419,-25.3287 18.8698,-14.1536 35.4458,-32.1572 54.7098,-46.6048 9.7242,-7.2945 22.3064,-16.2305 30.3944,-25.3286 11.5885,-13.0391 25.4695,-27.2028 40.5259,-38.4994 28.5372,-21.4078 53.266,-48.3069 82.0647,-69.907 76.377,-57.2833 145.4067,-125.0152 221.8789,-182.3662 62.1159,-46.5865 125.3262,-91.2064 187.432,-137.7878 20.7898,-15.5913 45.1964,-30.33461 67.8807,-43.56531 7.0413,-4.10934 15.6938,-7.35844 22.2892,-12.15774 7.4163,-5.3971 13.7382,-12.1963 21.2762,-17.22353 v -1.01315 c -6.4438,1.07292 -12.3301,4.63008 -18.2369,7.09203 -13.5051,5.62705 -27.375,9.63495 -40.5256,16.21035 -5.0557,2.5278 -10.1922,4.5916 -15.1972,7.09204 -1.3373,0.6677 -4.5085,3.5622 -6.0789,3.0394 -7.1732,-2.39 -3.0901,-13.13544 1.0131,-16.21034 11.0839,-8.31081 25.2679,-13.91454 38.4995,-17.22348 16.9803,-4.24507 34.7409,-5.89852 51.6705,-10.13145 12.2286,-3.05565 25.3287,-1.01214 37.4863,-4.05259 9.858,-2.46497 19.5235,-6.65333 29.3814,-9.1183 10.5366,-2.63317 22.1675,-1.6494 32.4204,-5.06573 8.4701,-2.82161 21.3876,-8.59552 28.3683,-14.18403 1.6412,-1.309 1.246,-3.98979 3.0394,-5.06573 2.8468,-1.70715 7.9836,-0.18136 11.1446,-2.0263 6.2309,-3.63517 7.1326,-12.24183 10.1315,-18.23662 3.1204,-6.24807 10.2327,-10.27938 14.184,-16.21033 2.7355,-4.10932 2.9988,-10.33915 6.0789,-14.18404 4.5185,-5.64423 16.2812,-7.64823 22.2891,-12.15775 3.1408,-2.35556 10.253,-6.25617 12.1578,-9.11831 1.2056,-1.81556 -0.1925,-4.30385 2.0262,-6.07887 1.9656,-1.57544 5.2887,-0.78822 7.0921,-3.03944 4.853,-6.0657 7.2136,-15.55888 11.1446,-22.2892 1.935,-3.31805 6.7779,-8.39289 7.0921,-12.15776 0.7091,-8.53878 -13.3533,-11.14459 -19.2498,-11.14459 l -2.0264,-8.10515 5.0658,-25.32865 -14.1841,-4.05259 -11.1445,-1.01314 -5.0658,-6.07888 c 2.5532,-5.10624 2.5633,-12.51842 8.1052,-16.21033 7.0008,-4.66553 21.185,-6.05659 29.3811,-8.10516 4.2046,-1.05164 10.1315,0.01 10.1315,-5.06573 l 9.1184,1.01315 8.1051,-5.06574 8.1053,4.05259 59.7755,-14.18405 c -2.1985,-6.58644 -1.9046,-23.78763 0,-31.40751 0.6078,-2.42242 2.5532,-9.33108 1.0132,-12.15775 -2.4822,-4.55813 -9.3514,-2.98168 -13.1709,-2.02628 -11.2662,2.81756 -23.9407,9.85588 -34.447,8.10515 3.6271,-10.88319 11.6409,-14.56091 22.2893,-17.22347 12.6947,-3.17417 22.1775,4.97049 30.3943,-9.11832 6.626,-11.35633 -1.2158,-30.61323 2.0263,-43.56527 0.8612,-3.4305 2.9077,-13.44445 1.0131,-17.22348 -3.617,-7.23791 -13.1505,-5.53176 -16.2103,-11.14459 -0.8712,-1.60583 0,-6.22678 0,-8.10512 0,-7.71918 0.1823,-17.9621 2.0263,-25.32866 2.5531,-10.20243 -2.8571,-22.58406 -5.0658,-31.40754 -2.2087,-8.83362 0.8004,-18.8759 -2.0262,-27.35489 l -25.3286,3.03941 c 0,-13.9287 4.1741,-21.47566 11.1445,-33.43378 3.0395,-5.20963 11.7424,-16.87494 10.1315,-23.30235 -0.8712,-3.50548 -5.0455,-7.06676 -7.092,-10.1315 -2.462,-3.68685 -7.4974,-17.62772 -13.1709,-16.2103 -10.395,2.59869 -19.1485,7.79312 -28.3681,13.1709 -5.9977,3.49938 -9.7465,8.10519 -17.2234,8.10519 v -33.43386 c 0,-3.35095 -1.1753,-9.84847 -5.0659,-11.14459 -1.8033,-0.60255 -6.3727,2.46115 -8.1052,3.03941 -6.1598,2.05264 -13.0796,1.9966 -19.2495,4.05259 3.9715,-5.96136 2.0161,-15.21295 0,-21.27607 -2.2494,-6.76188 -6.1297,-16.04328 -12.1579,-20.26289 -9.2096,-6.44987 -30.8604,-6.97508 -42.5522,-4.05258 -16.6864,4.17187 -30.0498,10.74748 -45.5916,17.22347 -6.1192,2.54922 -17.5779,4.40707 -22.2891,9.1183 -1.8034,1.80427 -1.4082,6.64998 -2.0263,9.11835 -1.7527,7.02251 -2.7861,16.37281 -7.092,22.28919 -2.9685,4.08503 -9.2299,4.79321 -13.1709,7.09201 -12.5021,7.29361 -23.8393,17.74016 -37.4864,22.28917 M 1265.9841,904.8878 c 9.4475,-4.72329 16.7382,-14.88715 22.2892,-22.28921 -8.9977,-2.99891 -20.9154,14.04828 -22.2892,22.28921 m -60.7888,59.77555 2.0264,-5.0657 c 5.3616,2.6808 9.8882,-4.8833 14.1841,-8.10515 12.7087,-9.53167 31.4124,-24.33171 36.4731,-39.51269 -11.1962,-3.73242 -23.2739,3.28564 -34.4469,6.07887 -4.2876,1.07191 -11.021,1.9027 -14.184,5.06574 -1.8582,1.85811 -2.851,6.71512 -4.0527,9.11831 -4.2784,8.55703 -11.9682,26.43702 0,32.42062 m 678.8077,17.22354 -1.0131,11.1446 -8.1053,4.0526 -27.3549,9.11831 -1.0132,-1.0131 c 4.9847,-14.96831 23.8393,-18.75231 37.4865,-23.30241 m -73.9597,35.46011 c 0,6.9178 1.3372,10.9217 -6.0789,12.1578 -1.2562,-7.5145 1.0943,-6.2461 4.0526,-12.1578 z"
       id="path837-3" />
    <path
       style="fill:#0096bc;fill-opacity:1;stroke:none;stroke-width:1.01314;filter:url(#filter2677)"
       d="m 2234.7921,664.00883 -2.0263,-12.15769 c -27.132,0 -52.4809,16.54664 -75.9859,26.34177 -43.5753,18.1556 -81.3151,46.84177 -122.5905,70.92022 -15.3795,8.96834 -30.0499,19.30443 -45.5916,28.36806 -7.0415,4.10832 -15.9672,8.00181 -22.2893,13.1709 -6.4233,5.2521 -11.9956,18.09577 -16.2103,25.32865 -1.3779,2.36973 -2.695,7.46178 -5.0656,9.1183 -3.5766,2.50346 -10.8916,1.9635 -15.1972,3.03942 -6.6057,1.65247 -12.5328,5.31901 -18.2368,9.11827 -14.3967,9.59655 -28.4895,20.38552 -41.5389,33.43386 -5.8155,5.81443 -10.1922,13.97634 -17.2235,19.24976 -20.3541,15.2671 -44.2137,25.87776 -65.8543,38.49953 -32.0348,18.68646 -63.3034,41.39814 -93.2096,63.82815 -14.9944,11.24587 -30.9536,28.10057 -42.552,43.56527 -4.1924,5.5895 -9.1507,15.2185 -15.1973,19.2498 -15.9639,10.642 -33.5968,18.3592 -49.6441,30.3943 -49.1933,36.8947 -88.6289,87.7476 -137.7877,124.6169 -13.9004,10.4253 -24.7249,24.9265 -37.4864,33.4339 -2.999,1.9989 -9.6958,9.1183 -13.1709,9.1183 -4.3292,0 -5.1832,-6.4315 -6.0789,-9.1183 -2.8215,-8.4658 -6.2774,-16.8071 -9.1183,-25.3287 -16.0847,8.0424 -26.6527,26.3215 -41.5389,37.4864 -29.6498,22.2376 -52.4151,54.7616 -82.0648,76.9991 -7.1862,5.3899 -12.0635,13.8598 -19.2497,19.2498 -33.5898,25.1918 -60.2396,63.052 -91.183,91.1829 -21.2072,19.2803 -51.0281,44.7356 -69.907,69.9072 -11.1801,14.9073 -27.506,25.8676 -38.4996,40.5257 -10.7859,14.3766 -26.7825,26.7775 -39.5127,39.5127 -24.71054,24.7106 -48.26515,49.2794 -72.94635,73.9597 -11.3939,11.3978 -27.5617,23.1097 -36.4733,36.4731 -12.0605,18.0949 -18.8293,40.3234 -27.3549,60.7888 -8.4101,20.1819 -19.43196,40.0598 -26.34181,60.7888 -0.89765,2.6949 1.38709,8.5914 2.02629,11.1446 2.1341,8.5408 1.01315,20.7898 1.01315,29.3812 2.65717,0.4458 6.30785,0.5674 8.10517,3.0393 2.39812,3.303 1.03138,9.1895 2.02629,13.1709 2.12355,8.4902 5.43551,19.1689 2.02629,27.355 -2.39305,5.7446 -9.04536,10.871 -12.15775,16.2104 -2.37887,4.083 -2.02326,9.1082 -4.05258,13.171 -9.00241,18.0035 -22.48474,33.8288 -31.40751,51.6703 l -9.11832,18.2367 c -0.9866,1.9756 -4.43221,5.8255 -4.05258,8.1051 0.32907,1.9757 2.92171,3.3737 4.05258,5.0656 3.37469,5.0659 7.18461,12.4313 9.11832,18.2367 l 4.05257,-1.0131 c 0.84931,5.0962 -1.72113,12.1576 6.07887,12.1576 l 1.01315,12.1579 7.09202,-3.0395 c 3.55635,7.1124 10.27006,1.611 12.15774,-4.0526 6.62102,2.2088 8.05006,0.3343 9.11831,-6.0789 5.47404,3.6474 9.2105,-0.547 10.1315,-6.0788 4.7739,2.391 7.6097,-0.5368 9.1183,-5.0657 9.5326,4.7617 27.5758,-5.7243 30.3943,-14.1842 1.2219,-3.6675 -1.1924,-17.2234 6.0789,-17.2234 3.1418,0 2.7325,6.0992 4.0526,7.0921 7.1771,5.3798 19.4281,-11.2053 20.2629,-16.2103 1.6839,0.5572 6.1741,1.2056 7.092,3.0395 1.6059,3.2116 -4.6645,15.8049 -7.092,18.2365 -6.3322,6.3321 -13.41,15.2783 -20.2629,20.2629 -1.7679,1.2868 -5.4852,0.7801 -7.092,2.0263 -4.6017,3.5764 -11.409,11.935 -13.1709,17.2235 -5.4578,-1.8237 -14.0929,-2.857 -18.2366,4.0526 -2.8753,4.7922 -1.1104,11.8333 -9.1183,13.171 -4.72536,0.79 -6.16909,-7.5482 -8.1052,-10.1316 -2.8034,-3.7384 -16.17265,-2.5025 -19.24979,1.0131 -1.11798,1.2766 -0.25642,4.5693 -1.01313,6.0789 -1.69013,3.384 -5.19703,2.158 -7.09202,4.0528 -5.72133,5.7241 -6.6974,14.0116 -9.11832,21.2759 -1.31282,3.9411 -7.53952,9.6148 -1.01314,13.1709 7.94256,4.3362 16.01551,-3.8499 23.30236,-5.0657 -3.7064,5.5622 -9.73026,15.2781 -15.19719,19.2497 -1.49278,1.084 -4.78721,0.7396 -6.07888,2.0263 -2.82839,2.8266 -2.4749,9.716 -5.06572,13.171 -3.40872,4.5489 -8.48196,6.8285 -11.1446,12.1578 -3.91237,7.8213 -2.70712,18.2465 -6.07887,26.3415 -1.9019,4.5694 -5.88102,8.3281 -7.09203,13.1709 -0.97982,3.921 -3.30681,13.3837 -2.02629,17.2236 2.30248,6.9095 7.12667,8.9766 5.06573,17.2235 -3.80446,15.2174 -17.94656,26.4939 -13.17089,45.5916 1.67776,6.7069 1.788,15.4909 4.05258,22.2892 2.33894,7.0211 8.46635,12.4414 9.11831,20.2628 0.147,1.7629 -1.61384,4.4274 -2.0263,6.0789 -1.26116,5.0454 1.48092,15.5923 3.03944,20.2629 2.57269,7.7202 11.93516,13.8599 13.17089,21.2762 0.62816,3.7687 -3.13516,10.5163 -4.05257,14.184 -1.47039,5.8863 1.01313,12.249 1.01313,18.2366 15.06195,-2.5127 28.20843,-15.481 42.55213,-20.263 5.94006,-1.9756 11.5995,-1.9047 16.21037,-7.0921 7.3787,-8.2976 4.7871,-23.2617 10.1314,-32.4206 4.855,-8.3178 15.1121,-10.5062 20.2629,-18.2366 4.1803,-6.2713 4.6919,-15.1871 9.1183,-21.2759 4.4994,-6.1905 13.1993,-8.4802 18.2366,-15.1972 38.8927,-51.8529 97.01575,-86.1277 135.76155,-137.7879 18.6662,-24.893 43.01,-45.8651 61.8018,-70.9202 7.6746,-10.2328 16.0098,-27.2335 28.3681,-34.4471 21.3855,-12.4716 43.235,-22.9983 65.8544,-32.4206 10.718,-4.4679 26.8483,-2.705 36.4732,-9.1182 10.4952,-7.0009 17.2731,-18.7837 27.3549,-26.3418 24.431,-18.3277 43.2066,-44.3049 67.8807,-62.8151 38.4509,-28.8341 68.9394,-69.4308 107.3933,-98.275 9.8368,-7.3757 16.5204,-17.9632 26.3419,-25.3287 18.8698,-14.1536 35.4458,-32.1572 54.7098,-46.6048 9.7242,-7.2945 22.3064,-16.2305 30.3944,-25.3286 11.5885,-13.0391 25.4695,-27.2028 40.5259,-38.4994 28.5372,-21.4078 53.266,-48.3069 82.0647,-69.907 76.377,-57.2833 145.4067,-125.0152 221.8789,-182.3662 62.1159,-46.5865 125.3262,-91.2064 187.432,-137.7878 20.7898,-15.5913 45.1964,-30.3346 67.8807,-43.5653 7.0413,-4.1093 15.6938,-7.3584 22.2892,-12.1577 7.4163,-5.3971 13.7382,-12.1963 21.2762,-17.2236 v -1.0131 c -6.4438,1.0729 -12.3301,4.6301 -18.2369,7.092 -13.5051,5.6271 -27.375,9.635 -40.5256,16.2104 -5.0557,2.5278 -10.1922,4.5916 -15.1972,7.092 -1.3373,0.6677 -4.5085,3.5622 -6.0789,3.0394 -7.1732,-2.39 -3.0901,-13.1354 1.0131,-16.2103 11.0839,-8.3108 25.2679,-13.9146 38.4995,-17.2235 16.9803,-4.2451 34.7409,-5.8985 51.6705,-10.1315 12.2286,-3.0556 25.3287,-1.0121 37.4863,-4.0525 9.858,-2.465 19.5235,-6.6534 29.3814,-9.1183 10.5366,-2.6332 22.1675,-1.6494 32.4204,-5.0658 8.4701,-2.8216 21.3876,-8.5955 28.3683,-14.184 1.6412,-1.309 1.246,-3.9898 3.0394,-5.0657 2.8468,-1.7072 7.9836,-0.1814 11.1446,-2.0263 6.2309,-3.6352 7.1326,-12.2419 10.1315,-18.2367 3.1204,-6.248 10.2327,-10.2793 14.184,-16.2103 2.7355,-4.1093 2.9988,-10.3391 6.0789,-14.184 4.5185,-5.6443 16.2812,-7.6483 22.2891,-12.1578 3.1408,-2.3555 10.253,-6.2561 12.1578,-9.1183 1.2056,-1.8155 -0.1925,-4.3038 2.0262,-6.0789 1.9656,-1.5754 5.2887,-0.7882 7.0921,-3.0394 4.853,-6.0657 7.2136,-15.5589 11.1446,-22.2892 1.935,-3.318 6.7779,-8.3929 7.0921,-12.1578 0.7091,-8.5388 -13.3533,-11.1446 -19.2498,-11.1446 l -2.0264,-8.1051 5.0658,-25.3287 -14.1841,-4.05257 -11.1445,-1.0131 -5.0658,-6.0789 c 2.5532,-5.1062 2.5633,-12.5184 8.1052,-16.2103 7.0008,-4.66553 21.185,-6.05659 29.3811,-8.10516 4.2046,-1.05164 10.1315,0.01 10.1315,-5.06573 l 9.1184,1.01315 8.1051,-5.06574 8.1053,4.05259 59.7755,-14.18405 c -2.1985,-6.58644 -1.9046,-23.78763 0,-31.40751 0.6078,-2.42242 2.5532,-9.33108 1.0132,-12.15775 -2.4822,-4.55813 -9.3514,-2.98168 -13.1709,-2.02628 -11.2662,2.81756 -23.9407,9.85588 -34.447,8.10515 3.6271,-10.88319 11.6409,-14.56091 22.2893,-17.22347 12.6947,-3.17417 22.1775,4.97049 30.3943,-9.11832 6.626,-11.35633 -1.2158,-30.61323 2.0263,-43.56527 0.8612,-3.4305 2.9077,-13.44445 1.0131,-17.22348 -3.617,-7.23791 -13.1505,-5.53176 -16.2103,-11.14459 -0.8712,-1.60583 0,-6.22678 0,-8.10512 0,-7.71918 0.1823,-17.9621 2.0263,-25.32866 2.5531,-10.20243 -2.8571,-22.58406 -5.0658,-31.40754 -2.2087,-8.83362 0.8004,-18.8759 -2.0262,-27.35489 l -25.3286,3.03941 c 0,-13.9287 4.1741,-21.47566 11.1445,-33.43378 3.0395,-5.20963 11.7424,-16.87494 10.1315,-23.30235 -0.8712,-3.50548 -5.0455,-7.06676 -7.092,-10.1315 -2.462,-3.68685 -7.4974,-17.62772 -13.1709,-16.2103 -10.395,2.59869 -19.1485,7.79312 -28.3681,13.1709 -5.9977,3.49938 -9.7465,8.10519 -17.2234,8.10519 v -33.43386 c 0,-3.35095 -1.1753,-9.84847 -5.0659,-11.14459 -1.8033,-0.60255 -6.3727,2.46115 -8.1052,3.03941 -6.1598,2.05264 -13.0796,1.9966 -19.2495,4.05259 3.9715,-5.96136 2.0161,-15.21295 0,-21.27607 -2.2494,-6.76188 -6.1297,-16.04328 -12.1579,-20.26289 -9.2096,-6.44987 -30.8604,-6.97508 -42.5522,-4.05258 -16.6864,4.17187 -30.0498,10.74748 -45.5916,17.22347 -6.1192,2.54922 -17.5779,4.40707 -22.2891,9.1183 -1.8034,1.80427 -1.4082,6.64998 -2.0263,9.11835 -1.7527,7.02251 -2.7861,16.37281 -7.092,22.28919 -2.9685,4.08503 -9.2299,4.79321 -13.1709,7.09201 -12.5021,7.29361 -23.8393,17.74016 -37.4864,22.28917 m -764.9249,505.55967 c 9.4475,-4.7233 16.7382,-14.8871 22.2892,-22.2892 -8.9977,-2.9989 -20.9154,14.0483 -22.2892,22.2892 m -60.7888,59.7756 2.0264,-5.0657 c 5.3616,2.6808 9.8882,-4.8833 14.1841,-8.1052 12.7087,-9.5316 31.4124,-24.3317 36.4731,-39.5127 -11.1962,-3.7324 -23.2739,3.2857 -34.4469,6.0789 -4.2876,1.0719 -11.021,1.9027 -14.184,5.0657 -1.8582,1.8582 -2.851,6.7152 -4.0527,9.1184 -4.2784,8.557 -11.9682,26.437 0,32.4206 m 678.8077,17.2235 -1.0131,11.1446 -8.1053,4.0526 -27.3549,9.1183 -1.0132,-1.0131 c 4.9847,-14.9683 23.8393,-18.7523 37.4865,-23.3024 m -73.9597,35.4601 c 0,6.9178 1.3372,10.9217 -6.0789,12.1578 -1.2562,-7.5145 1.0943,-6.2461 4.0526,-12.1578 z"
       id="path837-3-6" />
    <path
       style="fill:#ffd23c;fill-opacity:1;stroke:none;stroke-width:1.01314;filter:url(#filter2673)"
       d="m 2475.2111,910.4526 -2.0263,-12.15777 c -27.132,0 -52.4809,16.54667 -75.9859,26.34177 -43.5753,18.15561 -81.3151,46.84188 -122.5905,70.92028 -15.3795,8.96842 -30.0499,19.30452 -45.5916,28.36812 -7.0415,4.1083 -15.9672,8.0018 -22.2893,13.1709 -6.4233,5.2521 -11.9956,18.0958 -16.2103,25.3286 -1.3779,2.3698 -2.695,7.4618 -5.0656,9.1183 -3.5766,2.5035 -10.8916,1.9635 -15.1972,3.0395 -6.6057,1.6524 -12.5328,5.319 -18.2368,9.1182 -14.3967,9.5966 -28.4895,20.3856 -41.5389,33.4339 -5.8155,5.8144 -10.1922,13.9763 -17.2235,19.2498 -20.3541,15.2671 -44.2137,25.8777 -65.8543,38.4995 -32.0348,18.6864 -63.3034,41.3981 -93.2096,63.8281 -14.9944,11.2459 -30.9536,28.1006 -42.552,43.5653 -4.1924,5.5895 -9.1507,15.2185 -15.1973,19.2498 -15.9639,10.642 -33.5968,18.3592 -49.6441,30.3943 -49.1933,36.8947 -88.6289,87.7476 -137.7877,124.6169 -13.9004,10.4253 -24.7249,24.9265 -37.4864,33.4339 -2.999,1.9989 -9.6958,9.1183 -13.1709,9.1183 -4.3292,0 -5.1832,-6.4315 -6.0789,-9.1183 -2.8215,-8.4658 -6.2774,-16.8071 -9.1183,-25.3287 -16.0847,8.0424 -26.6527,26.3215 -41.5389,37.4864 -29.6499,22.2376 -52.4152,54.7616 -82.0649,76.9991 -7.1862,5.3899 -12.0635,13.8598 -19.2497,19.2498 -33.5898,25.1918 -60.2396,63.052 -91.183,91.1829 -21.2072,19.2803 -51.0281,44.7356 -69.907,69.9072 -11.1801,14.9073 -27.506,25.8676 -38.4996,40.5257 -10.7859,14.3766 -26.7825,26.7775 -39.5127,39.5127 -24.7105,24.7106 -48.2651,49.2794 -72.9463,73.9597 -11.3939,11.3978 -27.5617,23.1097 -36.4733,36.4731 -12.0605,18.0949 -18.8293,40.3234 -27.3549,60.7888 -8.4101,20.1819 -19.4319,40.0598 -26.3418,60.7888 -0.8976,2.6949 1.3871,8.5914 2.0263,11.1446 2.1341,8.5408 1.0132,20.7898 1.0132,29.3812 2.6571,0.4458 6.3078,0.5674 8.1051,3.0393 2.3981,3.303 1.0314,9.1895 2.0263,13.1709 2.1236,8.4902 5.4355,19.1689 2.0263,27.355 -2.3931,5.7446 -9.0454,10.871 -12.1577,16.2104 -2.3789,4.083 -2.0233,9.1082 -4.0526,13.171 -9.0024,18.0035 -22.4847,33.8288 -31.4075,51.6703 l -9.1183,18.2367 c -0.9866,1.9756 -4.4322,5.8255 -4.0526,8.1051 0.3291,1.9757 2.9217,3.3737 4.0526,5.0656 3.3747,5.0659 7.1846,12.4313 9.1183,18.2367 l 4.0526,-1.0131 c 0.8493,5.0962 -1.7212,12.1576 6.0788,12.1576 l 1.0132,12.1579 7.092,-3.0395 c 3.5564,7.1124 10.2701,1.611 12.1577,-4.0526 6.6211,2.2088 8.0501,0.3343 9.1183,-6.0789 5.4741,3.6474 9.2105,-0.547 10.1315,-6.0788 4.7739,2.391 7.6097,-0.5368 9.1183,-5.0657 9.5326,4.7617 27.5758,-5.7243 30.3943,-14.1842 1.2219,-3.6675 -1.1924,-17.2234 6.0789,-17.2234 3.1418,0 2.7325,6.0992 4.0526,7.0921 7.1771,5.3798 19.4281,-11.2053 20.2629,-16.2103 1.6839,0.5572 6.1741,1.2056 7.092,3.0395 1.6059,3.2116 -4.6645,15.8049 -7.092,18.2365 -6.3322,6.3321 -13.41,15.2783 -20.2629,20.2629 -1.7679,1.2868 -5.4852,0.7801 -7.092,2.0263 -4.6017,3.5764 -11.409,11.935 -13.1709,17.2235 -5.4578,-1.8237 -14.0929,-2.857 -18.2366,4.0526 -2.8753,4.7922 -1.1104,11.8333 -9.1183,13.171 -4.7253,0.79 -6.1691,-7.5482 -8.1052,-10.1316 -2.8034,-3.7384 -16.1726,-2.5025 -19.2497,1.0131 -1.118,1.2766 -0.2565,4.5693 -1.0132,6.0789 -1.6901,3.384 -5.197,2.158 -7.092,4.0528 -5.7213,5.7241 -6.6974,14.0116 -9.1183,21.2759 -1.3128,3.9411 -7.5395,9.6148 -1.0131,13.1709 7.9425,4.3362 16.0155,-3.8499 23.3023,-5.0657 -3.7064,5.5622 -9.7302,15.2781 -15.1972,19.2497 -1.4928,1.084 -4.7872,0.7396 -6.0789,2.0263 -2.8283,2.8266 -2.4749,9.716 -5.0657,13.171 -3.4087,4.5489 -8.4819,6.8285 -11.1446,12.1578 -3.9123,7.8213 -2.7071,18.2465 -6.0788,26.3415 -1.9019,4.5694 -5.8811,8.3281 -7.0921,13.1709 -0.9798,3.921 -3.3068,13.3837 -2.0263,17.2236 2.3025,6.9095 7.1267,8.9766 5.0658,17.2235 -3.8045,15.2174 -17.9466,26.4939 -13.1709,45.5916 1.6777,6.7069 1.788,15.4909 4.0526,22.2892 2.3389,7.0211 8.4663,12.4414 9.1183,20.2628 0.147,1.7629 -1.6139,4.4274 -2.0263,6.0789 -1.2612,5.0454 1.4809,15.5923 3.0394,20.2629 2.5727,7.7202 11.9352,13.8599 13.1709,21.2762 0.6282,3.7687 -3.1352,10.5163 -4.0526,14.184 -1.4704,5.8863 1.0132,12.249 1.0132,18.2366 15.0619,-2.5127 28.2084,-15.481 42.5521,-20.263 5.94,-1.9756 11.5994,-1.9047 16.2103,-7.0921 7.3787,-8.2976 4.7871,-23.2617 10.1314,-32.4206 4.855,-8.3178 15.1121,-10.5062 20.2629,-18.2366 4.1803,-6.2713 4.6919,-15.1871 9.1183,-21.2759 4.4994,-6.1905 13.1993,-8.4802 18.2366,-15.1972 38.8927,-51.8529 97.0157,-86.1277 135.7615,-137.7879 18.6662,-24.893 43.01,-45.8651 61.8018,-70.9202 7.6746,-10.2328 16.0098,-27.2335 28.3681,-34.4471 21.3855,-12.4716 43.235,-22.9983 65.8544,-32.4206 10.718,-4.4679 26.8483,-2.705 36.4732,-9.1182 10.4952,-7.0009 17.2731,-18.7837 27.3549,-26.3418 24.431,-18.3277 43.2066,-44.3049 67.8808,-62.8151 38.4509,-28.8341 68.9394,-69.4308 107.3933,-98.275 9.8368,-7.3757 16.5204,-17.9632 26.3419,-25.3287 18.8698,-14.1536 35.4458,-32.1572 54.7098,-46.6048 9.7242,-7.2945 22.3064,-16.2305 30.3944,-25.3286 11.5885,-13.0391 25.4695,-27.2028 40.5259,-38.4994 28.5372,-21.4078 53.266,-48.3069 82.0647,-69.907 76.377,-57.2833 145.4067,-125.0152 221.8789,-182.3662 62.1159,-46.5865 125.3262,-91.2064 187.432,-137.7878 20.7898,-15.5913 45.1964,-30.3346 67.8807,-43.5653 7.0413,-4.1093 15.6938,-7.3584 22.2892,-12.1577 7.4163,-5.3971 13.7382,-12.1963 21.2762,-17.2236 v -1.0131 c -6.4438,1.0729 -12.3301,4.6301 -18.2369,7.092 -13.5051,5.6271 -27.375,9.635 -40.5256,16.2104 -5.0557,2.5278 -10.1922,4.5916 -15.1972,7.092 -1.3373,0.6677 -4.5085,3.5622 -6.0789,3.0394 -7.1732,-2.39 -3.0901,-13.1354 1.0131,-16.2103 11.0839,-8.3108 25.2679,-13.9146 38.4995,-17.2235 16.9803,-4.2451 34.7409,-5.8985 51.6705,-10.1315 12.2286,-3.0556 25.3287,-1.0121 37.4863,-4.0525 9.858,-2.465 19.5235,-6.6534 29.3814,-9.1183 10.5366,-2.6332 22.1675,-1.6494 32.4204,-5.0658 8.4701,-2.8216 21.3876,-8.5955 28.3683,-14.184 1.6412,-1.309 1.246,-3.9898 3.0394,-5.0657 2.8468,-1.7072 7.9836,-0.1814 11.1446,-2.0263 6.2309,-3.6352 7.1326,-12.2419 10.1315,-18.2367 3.1204,-6.248 10.2327,-10.2793 14.184,-16.2103 2.7355,-4.1093 2.9988,-10.3391 6.0789,-14.184 4.5185,-5.6443 16.2812,-7.6483 22.2891,-12.1578 3.1408,-2.3555 10.253,-6.2561 12.1578,-9.1183 1.2056,-1.8155 -0.1925,-4.3038 2.0262,-6.0789 1.9656,-1.5754 5.2887,-0.7882 7.0921,-3.0394 4.853,-6.0657 7.2136,-15.5589 11.1446,-22.2892 1.935,-3.318 6.7779,-8.3929 7.0921,-12.1578 0.7091,-8.5388 -13.3533,-11.1446 -19.2498,-11.1446 l -2.0264,-8.1051 5.0658,-25.3287 -14.1841,-4.0526 -11.1445,-1.0131 -5.0658,-6.0789 c 2.5532,-5.1062 2.5633,-12.5184 8.1052,-16.2103 7.0008,-4.6655 21.185,-6.0566 29.3811,-8.1051 4.2046,-1.0517 10.1315,0.01 10.1315,-5.0658 l 9.1184,1.0132 8.1051,-5.0657 8.1053,4.0525 59.7755,-14.184 c -2.1985,-6.5864 -1.9046,-23.7876 0,-31.4075 0.6078,-2.4224 2.5532,-9.3311 1.0132,-12.1578 -2.4822,-4.5581 -9.3514,-2.9816 -13.1709,-2.0262 -11.2662,2.8175 -23.9407,9.8558 -34.447,8.1051 3.6271,-10.8832 11.6409,-14.5609 22.2893,-17.2235 12.6947,-3.1741 22.1775,4.9705 30.3943,-9.1183 6.626,-11.3563 -1.2158,-30.6132 2.0263,-43.5653 0.8612,-3.4305 2.9077,-13.4444 1.0131,-17.2234 -3.617,-7.2379 -13.1505,-5.5318 -16.2103,-11.1446 -0.8712,-1.6059 0,-6.2268 0,-8.1051 0,-7.7192 0.1823,-17.9621 2.0263,-25.3287 2.5531,-10.2024 -2.8571,-22.5841 -5.0658,-31.40752 -2.2087,-8.8337 0.8004,-18.8759 -2.0262,-27.3549 l -25.3286,3.0394 c 0,-13.92877 4.1741,-21.47577 11.1445,-33.43388 3.0395,-5.2096 11.7424,-16.8749 10.1315,-23.3023 -0.8712,-3.5056 -5.0455,-7.06683 -7.092,-10.13157 -2.462,-3.68685 -7.4974,-17.62772 -13.1709,-16.2103 -10.395,2.59869 -19.1485,7.79312 -28.3681,13.1709 -5.9977,3.49938 -9.7465,8.10519 -17.2234,8.10519 v -33.43386 c 0,-3.35095 -1.1753,-9.84847 -5.0659,-11.14459 -1.8033,-0.60255 -6.3727,2.46115 -8.1052,3.03941 -6.1598,2.05264 -13.0796,1.9966 -19.2495,4.05259 3.9715,-5.96136 2.0161,-15.21295 0,-21.27607 -2.2494,-6.76188 -6.1297,-16.04328 -12.1579,-20.26289 -9.2096,-6.44987 -30.8604,-6.97508 -42.5522,-4.05258 -16.6864,4.17187 -30.0498,10.74748 -45.5916,17.22347 -6.1192,2.54922 -17.5779,4.40707 -22.2891,9.1183 -1.8034,1.80427 -1.4082,6.64998 -2.0263,9.11835 -1.7527,7.02251 -2.7861,16.37281 -7.092,22.28919 -2.9685,4.08503 -9.2299,4.79321 -13.1709,7.09201 -12.5021,7.29361 -23.8393,17.74016 -37.4864,22.28925 m -764.9249,505.5597 c 9.4475,-4.7233 16.7382,-14.8871 22.2892,-22.2892 -8.9977,-2.9989 -20.9154,14.0483 -22.2892,22.2892 m -60.7888,59.7756 2.0264,-5.0657 c 5.3616,2.6808 9.8882,-4.8833 14.1841,-8.1052 12.7087,-9.5316 31.4124,-24.3317 36.4731,-39.5127 -11.1962,-3.7324 -23.2739,3.2857 -34.4469,6.0789 -4.2876,1.0719 -11.021,1.9027 -14.184,5.0657 -1.8582,1.8582 -2.851,6.7152 -4.0527,9.1184 -4.2784,8.557 -11.9682,26.437 0,32.4206 m 678.8077,17.2235 -1.0131,11.1446 -8.1053,4.0526 -27.3549,9.1183 -1.0132,-1.0131 c 4.9847,-14.9683 23.8393,-18.7523 37.4865,-23.3024 m -73.9597,35.4601 c 0,6.9178 1.3372,10.9217 -6.0789,12.1578 -1.2562,-7.5145 1.0943,-6.2461 4.0526,-12.1578 z"
       id="path837-3-6-7" />
    <path
       style="fill:#8c1464;fill-opacity:1;stroke:none;stroke-width:1.01314;filter:url(#filter2669)"
       d="m 2677.5342,1180.0558 -2.0263,-12.1578 c -27.132,0 -52.4809,16.5467 -75.9859,26.3418 -43.5753,18.1556 -81.3151,46.8419 -122.5905,70.9203 -15.3795,8.9684 -30.0499,19.3045 -45.5916,28.3681 -7.0415,4.1083 -15.9672,8.0018 -22.2893,13.1709 -6.4233,5.2521 -11.9956,18.0958 -16.2103,25.3286 -1.3779,2.3698 -2.695,7.4618 -5.0656,9.1183 -3.5766,2.5035 -10.8916,1.9635 -15.1972,3.0395 -6.6057,1.6524 -12.5328,5.319 -18.2368,9.1182 -14.3967,9.5966 -28.4895,20.3856 -41.5389,33.4339 -5.8155,5.8144 -10.1922,13.9763 -17.2235,19.2498 -20.3541,15.2671 -44.2137,25.8777 -65.8543,38.4995 -32.0348,18.6864 -63.3034,41.3981 -93.2096,63.8281 -14.9944,11.2459 -30.9536,28.1006 -42.552,43.5653 -4.1924,5.5895 -9.1507,15.2185 -15.1973,19.2498 -15.9639,10.642 -33.5968,18.3592 -49.6441,30.3943 -49.1933,36.8947 -88.6289,87.7476 -137.7877,124.6169 -13.9004,10.4253 -24.7249,24.9265 -37.4864,33.4339 -2.999,1.9989 -9.6958,9.1183 -13.1709,9.1183 -4.3292,0 -5.1832,-6.4315 -6.0789,-9.1183 -2.8215,-8.4658 -6.2774,-16.8071 -9.1183,-25.3287 -16.0847,8.0424 -26.6527,26.3215 -41.5389,37.4864 -29.6499,22.2376 -52.4152,54.7616 -82.0649,76.9991 -7.1862,5.3899 -12.0635,13.8598 -19.2497,19.2498 -33.5898,25.1918 -60.2396,63.052 -91.183,91.1829 -21.2072,19.2803 -51.0281,44.7356 -69.907,69.9072 -11.1801,14.9073 -27.506,25.8676 -38.4996,40.5257 -10.7859,14.3766 -26.7825,26.7775 -39.5127,39.5127 -24.7105,24.7106 -48.2651,49.2794 -72.9463,73.9597 -11.3939,11.3978 -27.5617,23.1097 -36.4733,36.4731 -12.0605,18.0949 -18.8293,40.3234 -27.3549,60.7888 -8.4101,20.1819 -19.4319,40.0598 -26.3418,60.7888 -0.8976,2.6949 1.3871,8.5914 2.0263,11.1446 2.1341,8.5408 1.0132,20.7898 1.0132,29.3812 2.6571,0.4458 6.3078,0.5674 8.1051,3.0393 2.3981,3.303 1.0314,9.1895 2.0263,13.1709 2.1236,8.4902 5.4355,19.1689 2.0263,27.355 -2.3931,5.7446 -9.0454,10.871 -12.1577,16.2104 -2.3789,4.083 -2.0233,9.1082 -4.0526,13.171 -9.0024,18.0035 -22.4847,33.8288 -31.4075,51.6703 l -9.1183,18.2367 c -0.9866,1.9756 -4.4322,5.8255 -4.0526,8.1051 0.3291,1.9757 2.9217,3.3737 4.0526,5.0656 3.3747,5.0659 7.1846,12.4313 9.1183,18.2367 l 4.0526,-1.0131 c 0.8493,5.0962 -1.7212,12.1576 6.0788,12.1576 l 1.0132,12.1579 7.092,-3.0395 c 3.5564,7.1124 10.2701,1.611 12.1577,-4.0526 6.6211,2.2088 8.0501,0.3343 9.1183,-6.0789 5.4741,3.6474 9.2105,-0.547 10.1315,-6.0788 4.7739,2.391 7.6097,-0.5368 9.1183,-5.0657 9.5326,4.7617 27.5758,-5.7243 30.3943,-14.1842 1.2219,-3.6675 -1.1924,-17.2234 6.0789,-17.2234 3.1418,0 2.7325,6.0992 4.0526,7.0921 7.1771,5.3798 19.4281,-11.2053 20.2629,-16.2103 1.6839,0.5572 6.1741,1.2056 7.092,3.0395 1.6059,3.2116 -4.6645,15.8049 -7.092,18.2365 -6.3322,6.3321 -13.41,15.2783 -20.2629,20.2629 -1.7679,1.2868 -5.4852,0.7801 -7.092,2.0263 -4.6017,3.5764 -11.409,11.935 -13.1709,17.2235 -5.4578,-1.8237 -14.0929,-2.857 -18.2366,4.0526 -2.8753,4.7922 -1.1104,11.8333 -9.1183,13.171 -4.7253,0.79 -6.1691,-7.5482 -8.1052,-10.1316 -2.8034,-3.7384 -16.1726,-2.5025 -19.2497,1.0131 -1.118,1.2766 -0.2565,4.5693 -1.0132,6.0789 -1.6901,3.384 -5.197,2.158 -7.092,4.0528 -5.7213,5.7241 -6.6974,14.0116 -9.1183,21.2759 -1.3128,3.9411 -7.5395,9.6148 -1.0131,13.1709 7.9425,4.3362 16.0155,-3.8499 23.3023,-5.0657 -3.7064,5.5622 -9.7302,15.2781 -15.1972,19.2497 -1.4928,1.084 -4.7872,0.7396 -6.0789,2.0263 -2.8283,2.8266 -2.4749,9.716 -5.0657,13.171 -3.4087,4.5489 -8.4819,6.8285 -11.1446,12.1578 -3.9123,7.8213 -2.7071,18.2465 -6.0788,26.3415 -1.9019,4.5694 -5.8811,8.3281 -7.0921,13.1709 -0.9798,3.921 -3.3068,13.3837 -2.0263,17.2236 2.3025,6.9095 7.1267,8.9766 5.0658,17.2235 -3.8045,15.2174 -17.9465,26.4939 -13.1709,45.5916 1.6778,6.7069 1.788,15.4909 4.0526,22.2892 2.3389,7.0211 8.4663,12.4414 9.1183,20.2628 0.147,1.7629 -1.6139,4.4274 -2.0263,6.0789 -1.2612,5.0454 1.4809,15.5923 3.0394,20.2629 2.5727,7.7202 11.9352,13.8599 13.1709,21.2762 0.6282,3.7687 -3.1352,10.5163 -4.0526,14.184 -1.4704,5.8863 1.0132,12.249 1.0132,18.2366 15.0619,-2.5127 28.2084,-15.481 42.5521,-20.263 5.94,-1.9756 11.5994,-1.9047 16.2103,-7.0921 7.3787,-8.2976 4.7871,-23.2617 10.1314,-32.4206 4.855,-8.3178 15.1121,-10.5062 20.2629,-18.2366 4.1803,-6.2713 4.6919,-15.1871 9.1183,-21.2759 4.4994,-6.1905 13.1993,-8.4802 18.2366,-15.1972 38.8927,-51.8529 97.0157,-86.1277 135.7615,-137.7879 18.6662,-24.893 43.01,-45.8651 61.8018,-70.9202 7.6746,-10.2328 16.0098,-27.2335 28.3681,-34.4471 21.3855,-12.4716 43.235,-22.9983 65.8544,-32.4206 10.718,-4.4679 26.8483,-2.705 36.4732,-9.1182 10.4952,-7.0009 17.2731,-18.7837 27.3549,-26.3418 24.431,-18.3277 43.2066,-44.3049 67.8808,-62.8151 38.4509,-28.8341 68.9394,-69.4308 107.3933,-98.275 9.8368,-7.3757 16.5204,-17.9632 26.3419,-25.3287 18.8698,-14.1536 35.4458,-32.1572 54.7098,-46.6048 9.7242,-7.2945 22.3064,-16.2305 30.3944,-25.3286 11.5885,-13.0391 25.4695,-27.2028 40.5259,-38.4994 28.5372,-21.4078 53.266,-48.3069 82.0647,-69.907 76.377,-57.2833 145.4067,-125.0152 221.8789,-182.3662 62.1159,-46.5865 125.3262,-91.2064 187.432,-137.7878 20.7898,-15.5913 45.1964,-30.3346 67.8807,-43.5653 7.0413,-4.1093 15.6938,-7.3584 22.2892,-12.1577 7.4163,-5.3971 13.7382,-12.1963 21.2762,-17.2236 v -1.0131 c -6.4438,1.0729 -12.3301,4.6301 -18.2369,7.092 -13.5051,5.6271 -27.375,9.635 -40.5256,16.2104 -5.0557,2.5278 -10.1922,4.5916 -15.1972,7.092 -1.3373,0.6677 -4.5085,3.5622 -6.0789,3.0394 -7.1732,-2.39 -3.0901,-13.1354 1.0131,-16.2103 11.0839,-8.3108 25.2679,-13.9146 38.4995,-17.2235 16.9803,-4.2451 34.7409,-5.8985 51.6705,-10.1315 12.2286,-3.0556 25.3287,-1.0121 37.4863,-4.0525 9.858,-2.465 19.5235,-6.6534 29.3814,-9.1183 10.5366,-2.6332 22.1675,-1.6494 32.4204,-5.0658 8.4701,-2.8216 21.3876,-8.5955 28.3683,-14.184 1.6412,-1.309 1.246,-3.9898 3.0394,-5.0657 2.8468,-1.7072 7.9836,-0.1814 11.1446,-2.0263 6.2309,-3.6352 7.1326,-12.2419 10.1315,-18.2367 3.1204,-6.248 10.2327,-10.2793 14.184,-16.2103 2.7355,-4.1093 2.9988,-10.3391 6.0789,-14.184 4.5185,-5.6443 16.2812,-7.6483 22.2891,-12.1578 3.1408,-2.3555 10.253,-6.2561 12.1578,-9.1183 1.2056,-1.8155 -0.1925,-4.3038 2.0262,-6.0789 1.9656,-1.5754 5.2887,-0.7882 7.0921,-3.0394 4.853,-6.0657 7.2136,-15.5589 11.1446,-22.2892 1.935,-3.318 6.7779,-8.3929 7.0921,-12.1578 0.7091,-8.5388 -13.3533,-11.1446 -19.2498,-11.1446 l -2.0264,-8.1051 5.0658,-25.3287 -14.1841,-4.0526 -11.1445,-1.0131 -5.0658,-6.0789 c 2.5532,-5.1062 2.5633,-12.5184 8.1052,-16.2103 7.0008,-4.6655 21.185,-6.0566 29.3811,-8.1051 4.2046,-1.0517 10.1315,0.01 10.1315,-5.0658 l 9.1184,1.0132 8.1051,-5.0657 8.1053,4.0525 59.7755,-14.184 c -2.1985,-6.5864 -1.9046,-23.7876 0,-31.4075 0.6078,-2.4224 2.5532,-9.3311 1.0132,-12.1578 -2.4822,-4.5581 -9.3514,-2.9816 -13.1709,-2.0262 -11.2662,2.8175 -23.9407,9.8558 -34.447,8.1051 3.6271,-10.8832 11.6409,-14.5609 22.2893,-17.2235 12.6947,-3.1741 22.1775,4.9705 30.3943,-9.1183 6.626,-11.3563 -1.2158,-30.6132 2.0263,-43.5653 0.8612,-3.4305 2.9077,-13.4444 1.0131,-17.2234 -3.617,-7.2379 -13.1505,-5.5318 -16.2103,-11.1446 -0.8712,-1.6059 0,-6.2268 0,-8.1051 0,-7.7192 0.1823,-17.9621 2.0263,-25.3287 2.5531,-10.2024 -2.8571,-22.5841 -5.0658,-31.4075 -2.2087,-8.8337 0.8004,-18.8759 -2.0262,-27.3549 l -25.3286,3.0394 c 0,-13.9288 4.1741,-21.4758 11.1445,-33.4339 3.0395,-5.2096 11.7424,-16.8749 10.1315,-23.3023 -0.8712,-3.5056 -5.0455,-7.0668 -7.092,-10.1316 -2.462,-3.6868 -7.4974,-17.6277 -13.1709,-16.2103 -10.395,2.5987 -19.1485,7.7932 -28.3681,13.1709 -5.9977,3.4994 -9.7465,8.1052 -17.2234,8.1052 v -33.4338 c 0,-3.351 -1.1753,-9.8485 -5.0659,-11.1446 -1.8033,-0.6026 -6.3727,2.4611 -8.1052,3.0394 -6.1598,2.0526 -13.0796,1.9966 -19.2495,4.0526 3.9715,-5.9614 2.0161,-15.213 0,-21.2761 -2.2494,-6.7619 -6.1297,-16.0433 -12.1579,-20.2629 -9.2096,-6.4499 -30.8604,-6.9751 -42.5522,-4.0526 -16.6864,4.1719 -30.0498,10.7475 -45.5916,17.2235 -6.1192,2.5492 -17.5779,4.4071 -22.2891,9.1183 -1.8034,1.8043 -1.4082,6.65 -2.0263,9.1184 -1.7527,7.0225 -2.7861,16.3728 -7.092,22.2891 -2.9685,4.0851 -9.2299,4.7933 -13.1709,7.0921 -12.5021,7.2936 -23.8393,17.7401 -37.4864,22.2892 m -764.9249,505.5597 c 9.4475,-4.7233 16.7382,-14.8871 22.2892,-22.2892 -8.9977,-2.9989 -20.9154,14.0483 -22.2892,22.2892 m -60.7888,59.7756 2.0264,-5.0657 c 5.3616,2.6808 9.8882,-4.8833 14.1841,-8.1052 12.7087,-9.5316 31.4124,-24.3317 36.4731,-39.5127 -11.1962,-3.7324 -23.2739,3.2857 -34.4469,6.0789 -4.2876,1.0719 -11.021,1.9027 -14.184,5.0657 -1.8582,1.8582 -2.851,6.7152 -4.0527,9.1184 -4.2784,8.557 -11.9682,26.437 0,32.4206 m 678.8077,17.2235 -1.0131,11.1446 -8.1053,4.0526 -27.3549,9.1183 -1.0132,-1.0131 c 4.9847,-14.9683 23.8393,-18.7523 37.4865,-23.3024 m -73.9597,35.4601 c 0,6.9178 1.3372,10.9217 -6.0789,12.1578 -1.2562,-7.5145 1.0943,-6.2461 4.0526,-12.1578 z"
       id="path837-3-6-7-5" />
  </g>
  <path
     style="fill:#040404;stroke:none;stroke-width:0.075"
     d="m 17.113901,699.05546 -3.3735,0.2785 c -0.038,0.4764 0.4369,0.8691 0.2969,1.2913 -0.2708,0.8171 -1.3724,1.7309 -1.2644,2.6356 0.5097,1.2518 1.2382,2.4914 1.8827,3.4671 0.2402,0.4306 0.4028,0.8128 0.8077,1.2226 1.331,0.048 3.2411,0.014 4.8831,-0.036 0.058,-0.7504 0.2176,-3.3361 0.1742,-3.9844 -0.9145,-0.264 -2.551,-0.2348 -3.3302,-0.2458 l 0.8949,-1.2047 0.7849,0.163 0.3034,-0.5663 -1.4582,-2.817 0.075,-0.075 c 0.3888,0.212 1.0474,0.451 1.5512,0.6017 0.414,-0.5843 0.8778,-1.289 1.1924,-1.8009 0.171,-0.1948 0.2757,-0.5055 0.5478,-0.5406 1.1267,1.3518 0.042,1.0743 0.1901,1.9311 0.2687,0.1457 3.4294,0.3933 3.6938,0.3988 0.5817,-1.2265 1.8506,-3.1117 1.5494,-3.3306 -0.2086,-0.2855 -0.4722,-0.3144 -1.0303,-0.1177 -0.3603,-0.7758 -1.0835,-2.1919 -1.5686,-2.7753 -1.5394,-0.015 -3.5355,-0.062 -5.2718,-0.023 -0.1989,0.067 -0.3454,0.028 -0.7786,0.5625 -0.3005,0.5072 -1.8003,2.9737 -1.9356,3.8272 -0.08,0.2585 0.5815,0.5241 1.44,1.0946 m 4.9952,0.022 c -0.356,-0.2656 0.482,-0.9615 -0.6223,-1.8339 -0.5254,-1.0393 -1.3837,-2.0659 -2.0559,-3.0797 1.3767,-0.069 2.6866,-0.076 3.8224,-0.014 0.3446,0.4519 1.1495,1.9716 1.3958,2.4693 0.2238,0.4521 1.1726,0.2101 0.7969,0.8653 -0.1415,0.3867 -0.7306,1.3735 -0.9672,1.7638 -0.5521,0.01 -1.8159,-0.081 -2.3697,-0.1705 m -3.225,0.15 c -0.6017,-0.2206 -2.0568,-1.1498 -2.5274,-1.448 0.5247,-1.248 1.2788,-2.3815 2.0445,-3.3978 0.6508,0.4655 1.447,1.3863 2.0241,2.2934 -0.4454,0.9304 -1.0528,1.7949 -1.5412,2.5524 m 5.9408,4.5911 c -0.129,-0.01 -1.119,-0.058 -1.6519,-0.08 0,-0.1912 0.027,-0.2725 0.029,-0.6609 -0.2327,-0.05 -0.3132,-0.074 -0.5782,-0.079 -0.4577,0.4808 -1.5361,2.0499 -2.0283,2.8726 0.2622,0.5139 1.6855,2.8256 1.8835,3.1118 0.265,-0.028 -0.061,0.067 0.4598,-0.025 0.06,-0.3049 0.087,-0.2456 0.099,-0.6445 0.7969,-0.068 2.5371,-0.2524 3.4512,-0.372 0.7571,-1.144 1.9619,-3.0384 2.5834,-4.1089 0.038,-0.4142 0.023,-0.4491 0.04,-0.7052 -0.6355,-1.2164 -1.5319,-2.7354 -2.2941,-3.8382 -0.8634,0.174 -2.7148,1.2975 -3.4232,1.906 0.3785,0.7073 1.0685,1.9371 1.4299,2.6233 m -6.9375,-1.8983 c -0.5319,0.027 -0.8079,0.53 -1.1732,1.0841 -0.655,1.0288 -1.1431,2.0765 -1.7301,3.4231 -0.6228,-0.6877 -1.2043,-1.6662 -1.5913,-2.4 -0.1745,-0.3306 -0.3566,-0.6687 -0.2408,-1.05 1.3482,-2.2028 1.5464,-2.503 1.4571,-3.15 0.5813,-0.093 1.5894,-0.1064 2.368,-0.1309 0.3429,0.6397 0.7349,1.4719 1.0348,1.9667 m 8.4849,-1.7341 c 0.5772,0.7289 1.9531,2.8785 1.9763,3.1134 0.011,0.2179 0,0.2326 0,0.3971 -0.7117,0.1652 -2.2451,0.295 -2.891,0.3576 -0.1639,-0.2815 -1.3741,-2.1219 -1.4853,-2.489 0.4378,-0.3678 1.9309,-1.2082 2.3973,-1.3791 m 1.6708,4.2633 -1.3326,2.31 -0.6022,0.947 c -1.2845,0.204 -3.6576,0.2306 -3.7045,0.4616 -0.3532,-0.4804 -0.9938,-1.419 -1.3089,-2.0276 0.5334,-0.8006 0.9389,-1.4343 1.2966,-1.9205 -0.072,0.7599 3.7654,0.3879 5.6516,0.2295 m -11.4149,0.1581 c 0.6364,0.018 2.1198,0.058 2.959,0.1481 -0.023,0.7169 -0.1232,2.2506 -0.1628,2.8583 -1.2613,0.054 -3.7508,0.039 -3.8948,-0.076 -0.021,-0.5363 0.7067,-2.385 1.0986,-2.9308 z"
     id="path2-4"
     sodipodi:nodetypes="ccccccccccccccccccccccccccccccccccccccccccccccccccccccccccccccccccccccccccccccc" />
  <g
     id="g1830"
     transform="matrix(0.07558656,0,0,0.07601251,-2.9155989,0.03245886)">
    <path
       style="fill:#808080;stroke:none;filter:url(#filter1012)"
       d="M 39,0 V 116 H 7040 V 0 Z"
       id="path2-50" />
    <path
       style="fill:#142878;fill-opacity:1;stroke:none;filter:url(#filter1008)"
       d="m 4141.7675,115.97314 v 112.00001 h 1193 V 115.97314 Z"
       id="path883"
       transform="matrix(1.0404027,0,0,0.9999722,-164.97903,0.00478218)" />
    <path
       style="fill:#8c140a;fill-opacity:1;stroke:none;filter:url(#filter1000)"
       d="m 160,125 v 15 h 6375 v -15 z"
       id="path2-2"
       sodipodi:nodetypes="ccccc"
       transform="matrix(0.35327351,0,0,1.0244289,32.554968,8873.0818)" />
  </g>
  <path
     style="fill:#808080;stroke:none;stroke-width:0.0354942"
     d="m 316.48765,174.06422 c -0.68781,0.0634 -1.41151,0.0832 -2.06728,0.33688 -2.49997,0.96664 -3.98463,3.44279 -3.96152,6.22814 0.024,2.91022 2.18504,5.35578 4.754,6.01092 0.64942,0.16563 2.35151,0.0894 2.63294,-0.10675 v -2.89959 c -0.078,-0.45518 -1.31631,0.18301 -2.42621,-0.25314 -2.46283,-0.87185 -2.40624,-4.664 -0.58575,-5.68297 0.58242,-0.33844 1.35627,-0.64526 2.03284,-0.48024 0.76365,0.15012 0.75148,0.4508 0.97912,0.0957 v -2.83769 c -0.22514,-0.44217 -0.94468,-0.44977 -1.35814,-0.41148 m 64.98182,4.40766 h -0.0344 c -0.80037,-1.23756 -3.09821,-0.96841 -4.06567,-0.12839 -1.24287,1.0791 -1.48673,3.51946 -0.68396,4.95501 1.18814,1.89321 3.7059,2.15009 4.79614,0.6284 v 0.90785 h 2.14353 v -10.25699 l -2.1453,-0.0166 v 3.845 m -44.43965,-1.12113 c 0.40003,0.0686 0.42292,-1.69731 0.0936,-1.86628 -0.44727,-0.33219 -1.1151,-0.35342 -1.59306,-0.38765 -1.55894,-0.11194 -3.183,0.0853 -4.40984,1.19626 -1.6713,1.51305 -1.94398,4.56839 -0.68729,6.45006 1.44429,1.95075 3.80932,2.42319 5.8896,1.95419 0.70404,-0.20778 0.76823,-0.076 0.83596,-0.63954 0.0322,-0.26447 0.17021,-1.40641 -0.0926,-1.37832 -1.60471,0.40264 -3.00165,0.39098 -4.11946,-0.42782 -1.27532,-1.11385 -1.31517,-3.00425 -0.40118,-4.07899 1.09711,-1.72228 2.9151,-1.36521 4.48392,-0.82191 m 3.94488,0 c -4.15244,0.0728 -4.43502,5.48238 -2.37543,6.78444 1.19136,1.02938 3.65461,1.07026 4.92514,0.20652 3.19362,-2.784 1.26304,-7.33513 -2.54971,-6.99096 m 30.59588,0.079 c -0.70737,0.11652 -1.36022,0.35779 -1.96386,0.76167 -1.56435,1.04696 -1.95502,3.75543 -0.77562,5.28575 1.34617,1.92028 4.43678,2.20419 6.06574,0.53175 2.13449,-3.03079 0.51646,-7.01916 -3.32626,-6.57917 m 15.88368,0.0333 c -3.07355,0.38276 -4.4091,3.85874 -2.69401,6.12223 0.85167,1.49901 3.74003,1.93775 5.30573,0.99452 1.7358,-1.07859 2.1865,-3.8682 1.08191,-5.59964 -0.77874,-1.21976 -2.36712,-1.68961 -3.69363,-1.51711 m 11.07246,4.43595 h 4.63227 c 0.11549,-0.91836 -0.15252,-2.74863 -0.66481,-3.38671 -0.94406,-1.13726 -2.84289,-1.38893 -4.11769,-0.75471 -1.71625,0.85387 -2.28337,3.87207 -1.33234,5.53723 1.00752,1.84025 3.57981,2.19492 5.57165,1.22277 v -1.37093 l -0.1081,-0.11298 c -0.48815,0.22711 -0.26342,0.20194 -1.16545,0.39472 -1.2128,0.19175 -2.79545,0.0302 -2.81553,-1.51565 m -51.18529,-3.6464 v -0.62018 h -1.87958 v 7.21632 h 1.98893 v -4.67899 c 0.0104,-1.17847 2.38147,-1.11354 2.38823,0 v 4.67899 h 1.98925 v -4.67899 c -8.3e-4,-1.19001 2.32259,-1.04675 2.35048,0 v 4.67899 h 1.94971 v -4.67899 c 0,-1.17025 -0.1619,-1.74902 -0.80653,-2.14666 -1.10885,-0.68417 -2.88471,-0.64141 -3.82939,0.43468 -0.7081,-0.97725 -1.7974,-1.19001 -2.79993,-0.86135 -0.51489,0.15398 -0.92273,0.38942 -1.34378,0.65618 m 11.47645,0.15534 v -0.77552 h -1.8773 v 7.21632 h 2.05198 v -4.67899 c 0,-1.11354 2.24539,-1.14226 2.25361,0 v 4.67899 h 2.16954 v -4.67899 c 0.0166,-0.75315 2.25809,-1.0429 2.26454,0 v 4.67899 h 1.95876 v -4.67899 c 0,-0.50419 -0.0426,-1.32162 -0.39515,-1.782 -0.88766,-1.16099 -3.00176,-1.22319 -4.22547,0.0697 -1.44023,-1.38696 -2.81408,-1.37011 -4.21456,-0.05 m 35.11069,0.2294 v -1.1125 h -1.72977 v 7.34834 h 1.97499 v -4.3344 c -0.0228,-0.3863 0.79487,-1.02448 1.34961,-1.10979 0.14409,-0.0385 0.5897,-0.103 0.93345,-0.0718 l 0.0645,-1.60056 c -0.82025,-0.68894 -2.26818,0.29028 -2.583,0.88112 m -76.0418,1.53449 h 3.08364 l 2.2224,-2.50238 h -5.28762 v 2.50362 m 23.27302,-1.43971 c 2.36732,-0.0188 2.60443,4.51149 0.24116,4.65289 -2.86859,-0.0604 -2.42985,-4.58058 -0.24116,-4.65289 m 60.19255,1.87574 h -2.80752 c 0.0166,-2.18848 2.78203,-2.19336 2.80752,0 m -29.38995,-1.77638 c 2.6731,0.14639 2.31967,4.45771 0.24117,4.62011 -2.4283,0.17864 -2.47241,-4.43928 -0.24117,-4.62011 m 15.88368,0.0374 c 0.8214,-0.0843 1.41183,0.62643 1.67785,1.38196 0.38319,0.98922 -0.0853,3.18113 -1.53999,3.26478 -2.98169,-0.16095 -1.97322,-4.5197 -0.13786,-4.64674 m -8.2691,0.33032 c 2.47709,-0.0104 2.55606,3.95322 0.65462,4.33109 -2.596,0.27893 -2.57145,-4.38519 -0.65462,-4.33109 m -56.40258,4.03343 -2.2224,-2.43714 h -3.06522 v 2.43714 z"
     id="path2-06"
     sodipodi:nodetypes="ccsccccccccccccccccccccccsccccccccccccccccccccccccccccccccccccccccccccssccccccccccccccccsscccccccccccccccccccccccccccccccccccccc" />
  <path
     id="path2-9"
     style="fill:#020202;stroke:none;stroke-width:0.075"
     d="m 79.967801,657.76536 v 0.6242 h -0.7226 v 1.0257 h -0.7671 v 0.6304 h -1.4451 v 1.7536 h 2.1683 0.044 v 8.9868 h 1.504 v -13.0207 z m -27.7503,0.035 v 0.5943 h -0.5503 v 0.7129 h -0.01 -0.5703 v 1.6709 h -0.6252 v 7.5683 h 0.6252 v 1.1502 h 0.5769 v 0.6398 h 0.7555 v 0.6478 h 1.8999 v -0.6478 h 0.7445 v -0.6398 h 0.8024 v -1.1502 h 0.5761 v -4.5863 h -0.5761 v -0.9299 h -0.4601 l -0.01,-0.4892 h -2.5702 v 0.4892 h -0.6076 v -2.6349 h 0.6267 l 0.061,-0.6945 h 1.8796 v 1.2773 h 1.6611 v -1.6709 h -0.4906 v -0.7112 h -0.5439 v -0.5943 z m 18.468,0.019 0.057,7e-4 v 0.7528 h -0.585 v 0.9065 h -0.5908 v 9.4897 h 0.5908 v 1.3986 h 0.585 v 0.5235 h 2.8431 v -0.5235 h 0.5577 v -1.3986 h 0.593 v -9.4897 h -0.593 v -0.9065 h -0.5577 v -0.7534 z m -24.0392,0.01 v 0.6243 h -0.7226 v 1.0257 h -0.767 v 0.6303 h -1.4452 v 1.7537 h 2.1682 0.044 v 8.9867 h 1.5041 v -13.0207 z m -7.1785,0.012 v 0.6241 h -0.7226 v 1.0257 h -0.7671 v 0.6305 h -1.4451 v 1.7535 h 2.1683 0.044 v 8.9869 h 1.504 v -13.0207 z m -16.2368,0.038 -7e-4,0.8255 h -1.0255 v 1.0734 h -0.6925 v 2.3115 h 1.422 v -1.6636 h 0.7809 v -0.6479 h 1.2704 v 0.6479 h 0.8514 v 2.1287 h -0.8514 v 0.6113 h -1.0327 v 1.7678 h 1.0327 v 0.7033 h 0.8514 v 2.8548 h -0.8514 v 0.6281 h -1.2704 v -0.6281 h -0.7846 v -2.2156 h -1.422 v 2.8437 h 0.6925 v 1.0137 h 1.0255 v 0.7623 h 2.1894 v -0.7623 h 1.209 v -1.0137 h 0.6077 v -4.1862 h -0.6077 v -0.5816 h -0.4152 v -0.6864 h 0.4152 v -0.4998 h 0.6077 v -3.3879 h -0.6077 v -1.0734 h -1.209 l 7e-4,-0.8255 z m 5.3454,0 v 2.0697 h 3.4633 v 1.9258 h -0.5519 v 1.9123 h -0.5479 v 2.1421 h -0.6394 l -0.03,2.9016 -0.5171,0.029 v 1.9795 l 0.01,0.018 h 2.2769 v -4.2189 h 0.4916 v -2.851 h 0.5458 v -1.9123 h 0.5409 v -1.9258 h 0.5623 v -2.0697 z m 29.2858,0.072 v 2.0698 h 3.4631 v 1.9258 h -0.5518 v 1.9122 h -0.5478 v 2.1422 h -0.6394 l -0.03,2.9016 -0.5172,0.029 v 1.9794 l 0.01,0.018 h 2.2769 v -4.2189 h 0.4918 v -2.851 h 0.5458 v -1.9122 h 0.5407 v -1.9258 h 0.5625 v -2.0698 z m 13.86,1.5275 h 1.4095 v 9.4897 h -1.4095 v -0.4179 h -0.5256 v -8.4443 h 0.5256 z m -18.9211,4.2797 h 1.3735 v 0.037 0.5701 h 0.6099 v 3.9787 h -0.6099 v 0.6042 h -1.2755 v -0.6042 h -0.6816 v -3.9787 h 0.5663 z m 12.3022,0.6864 v 2.0671 h 2.4924 v -2.0671 z" />
  <path
     style="fill:#999999;fill-opacity:1;stroke:none;stroke-width:0.0342516"
     d="m 350.17133,31.58456 h -0.53976 l -8.71845,11.131031 c -1.2284,1.471022 -0.92054,1.127482 -2.16892,1.622504 -0.20246,0.0978 -0.51229,0.368406 -0.22608,0.57274 0.42126,0.300884 1.16379,0.119022 1.63197,0.0593 0.79434,-0.02913 1.59983,0.0385 2.3459,0.08219 0.31358,0.01873 0.97651,0.06451 1.07389,-0.360603 0.0645,-0.279659 -0.24698,-0.363204 -0.45933,-0.408357 -0.40732,-0.08739 -1.7641,-0.163343 -1.2826,-0.960185 l 2.40488,-3.187682 h 4.3521 l 0.025,3.896715 c -0.0957,0.273105 -0.93688,0.255522 -1.26961,0.342603 -0.26374,0.06867 -0.39253,0.381619 -0.17707,0.593861 0.55017,0.187272 1.67806,0.06138 2.24675,0.02705 0.63183,-0.03641 1.01449,0.110595 1.91974,0.06242 0.25875,-0.01248 0.32794,-0.09364 0.59448,-0.13005 0.0916,0.01248 0.46974,0.07907 0.56796,0.08635 0.78508,0.05826 1.67078,-0.08427 2.34724,0 1.75246,0.0489 1.88438,0.111427 1.73883,-0.486595 -0.13057,-0.162614 -0.69208,-0.114236 -0.9527,-0.220357 -1.2181,-0.49575 -0.78196,-1.240781 -0.45736,-2.102856 l 3.35279,-8.876693 0.58565,11.441695 h 0.5306 c 0.0562,-0.270504 0.20944,-0.408981 0.31108,-0.592612 l 7.36707,-10.543725 -2.44702,9.690701 c -0.21807,0.758972 -1.01209,0.760012 -1.64206,0.852088 -0.52031,0.06242 -0.51833,0.246679 -0.50959,0.581063 0.0104,0.394104 0.20268,0.270608 1.18356,0.284446 1.02417,0.01456 2.15363,-0.02185 3.2319,-0.03433 0.90806,-0.0104 0.9993,0.146489 1.08441,-0.207976 0.0728,-0.301924 0.0104,-0.485866 -0.38308,-0.55162 -0.54069,-0.09051 -1.14839,-0.177492 -1.03166,-0.923875 l 2.3743,-9.520076 c 0.33501,-1.480905 0.86437,-1.450109 1.92058,-1.462698 0.43238,0 0.34062,-0.252505 0.37954,-0.539032 -0.0354,-0.282156 -0.11903,-0.313576 -0.85365,-0.327726 -2.33736,0.01144 -2.69225,-0.113091 -2.90698,0.255419 l -7.06015,10.114872 -0.43583,-8.975738 c -0.18249,-0.627778 0.27653,-1.380611 -1.08712,-1.385397 h -1.90975 c -0.60521,0.0104 -0.74098,-0.01561 -0.79987,0.279868 -0.0676,0.421362 0.0593,0.461625 0.33751,0.526026 0.37257,0.126304 1.28614,-0.03746 1.06569,0.629442 l -3.86062,10.30485 c -0.15793,0.298282 -0.6027,0.815881 -0.95301,0.874872 -0.28403,0.04786 -0.57524,-0.07179 -0.85957,0 -0.18103,0.04786 -0.31732,0.223894 -0.46423,0.335841 -0.40503,0.07283 -0.82421,-0.183318 -1.00139,-0.532268 -0.16251,-0.353528 -0.18019,-0.847822 -0.18207,-1.230586 m 37.92071,-11.174416 c -0.44529,0.04058 -0.89744,0.0104 -1.34097,0.07699 -4.05808,0.520408 -8.05228,2.641575 -9.63098,6.391177 -0.68115,1.976656 -0.077,3.898691 1.37967,5.357124 1.43825,1.741629 3.58512,1.689713 5.48843,1.691482 0.92283,0 2.37263,0.04682 2.86608,-0.308999 0.4504,-0.241061 1.41995,-3.300253 1.96147,-4.792602 0.33387,-0.671891 1.88437,0.01665 1.51451,-1.055278 -0.27539,-0.262597 -0.26665,-0.23357 -1.2412,-0.08219 -0.96059,0.08427 -1.92983,-0.02289 -2.88804,-0.10508 -0.8164,-0.07803 -0.94041,-0.100919 -1.03635,0.287983 -0.05,0.202461 -0.0458,0.403987 0.34865,0.450597 0.32461,0.140246 1.39444,0 1.42264,0.51146 -0.23596,1.090548 -0.96944,3.814523 -1.49506,4.12862 -0.36549,0.222125 -1.17315,0.187688 -1.57787,0.165944 -1.19406,-0.06451 -2.26713,-0.112468 -3.26623,-0.863012 -0.35758,-0.268632 -0.79227,-0.642343 -1.03592,-1.018448 -0.16199,-0.2498 -0.21016,-0.544129 -0.31056,-0.818795 -0.59376,-1.621775 -0.30734,-3.217957 0.59282,-4.674725 1.62135,-2.623889 4.77252,-4.335243 7.83629,-4.531254 0.52415,-0.0104 1.84671,-0.03537 1.99621,0.542465 0.12787,0.573572 -0.21796,1.364068 -0.28538,1.94149 -0.027,0.235651 0.0489,0.588554 0.35207,0.597814 0.30598,0.0104 0.4659,-0.405756 0.56286,-0.631939 0.2702,-0.631107 0.61717,-1.287391 0.80933,-1.944924 0.0572,-0.196219 0.19903,-0.511877 0.12204,-0.711217 -0.11382,-0.294225 -0.50335,-0.360811 -0.77219,-0.427605 -0.74399,-0.184775 -1.60668,-0.245638 -2.37232,-0.176556 m 3.58012,11.266492 c -0.60895,0.755226 -0.53768,0.836065 -1.37967,1.357514 -0.2112,0.130778 -0.99472,0.244182 -0.98848,0.533725 0.0104,0.425212 0.62985,0.419489 0.91971,0.402635 0.58002,-0.03329 1.08336,-0.104664 1.67067,-0.05306 0.62091,0.0541 1.54947,0.190081 2.17974,0.0104 0.21172,-0.08219 0.49887,-0.347598 0.23066,-0.539448 -0.45143,-0.322524 -1.40412,-0.04994 -1.73664,-0.516975 -0.20184,-0.282988 0.14035,-0.774265 0.29507,-1.008251 l 1.99381,-2.69266 h 4.54666 c 0.0104,1.578183 0.17031,3.391496 0.0374,3.773115 -0.30703,0.521657 -1.48528,-0.02081 -1.62968,0.62809 -0.10904,0.491172 0.58647,0.425627 0.87498,0.425419 0.51156,-3.12e-4 1.06329,-0.08427 1.5684,-0.09676 0.54351,0 1.04248,0.08739 1.57256,0.07803 0.69145,0 0.92076,0.0593 1.01564,-0.189249 0.23388,-0.714547 -1.19636,-0.331159 -1.28468,-0.747007 l -0.54393,-12.634305 h -0.34499 M 368.99506,44.48405 c -0.076,0.452054 -0.17271,0.574509 0.53446,0.545066 1.27303,-0.107161 2.49372,-0.03121 3.63078,0 1.28447,-0.03954 1.39007,-0.05514 1.40974,-0.401491 0.0146,-0.474422 -1.59441,-0.247199 -1.54374,-0.819315 l 3.1108,-10.396821 c 0.31794,-0.875496 0.61456,-0.867069 1.54894,-0.905356 0.20839,-0.0541 0.54569,-0.259372 0.50335,-0.514998 -0.0718,-0.437592 -0.81859,-0.371839 -1.11125,-0.352487 -1.11531,0.07387 -2.21929,0.06242 -3.335,0 -0.30911,-0.01665 -0.99608,-0.08739 -1.15184,0.283092 -0.10996,0.261349 0.10904,0.480249 0.35041,0.537783 0.37819,0.09052 1.32609,-0.04786 1.33952,0.540384 L 371.3037,42.6878 c -0.10518,0.345204 -0.2602,0.755226 -0.48888,1.044561 -0.30244,0.747736 -1.78085,0.458817 -1.81976,0.747424 m -20.58983,-9.961622 0.103,4.666194 h -3.74763 v -0.0104 l 3.64442,-4.657663 m 51.12599,0.1365 0.17187,4.657663 h -3.78195 z"
     id="path2"
     sodipodi:nodetypes="ccccccccscccccccccsccccccccccssscsccccccccccccccccccccccccccccccccccccccccssccccccscccccccccccscscccccccccccccccccccccccccccccc" />
</svg>
