<?xml version="1.0" encoding="UTF-8" standalone="no"?>
<svg
   width="2974"
   height="615"
   version="1.1"
   id="svg4"
   sodipodi:docname="commodore_logo.svg"
   inkscape:version="1.1.1 (3bf5ae0d25, 2021-09-20)"
   xmlns:inkscape="http://www.inkscape.org/namespaces/inkscape"
   xmlns:sodipodi="http://sodipodi.sourceforge.net/DTD/sodipodi-0.dtd"
   xmlns="http://www.w3.org/2000/svg"
   xmlns:svg="http://www.w3.org/2000/svg">
  <defs
     id="defs8" />
  <sodipodi:namedview
     id="namedview6"
     pagecolor="#ffffff"
     bordercolor="#666666"
     borderopacity="1.0"
     inkscape:pageshadow="2"
     inkscape:pageopacity="0.0"
     inkscape:pagecheckerboard="0"
     showgrid="false"
     inkscape:zoom="2.8244789"
     inkscape:cx="501.68547"
     inkscape:cy="274.20988"
     inkscape:window-width="1920"
     inkscape:window-height="1200"
     inkscape:window-x="1200"
     inkscape:window-y="679"
     inkscape:window-maximized="0"
     inkscape:current-layer="svg4" />
  <path
     style="fill:#282878;stroke:none;fill-opacity:1"
     d="m 303,124.457 c -19.961,1.746 -40.966,2.278 -60,9.213 -72.556,26.435 -115.648,94.155 -114.978,170.33 0.7,79.591 63.42,146.473 137.978,164.39 18.85,4.53 68.25098,2.43253 76.41912,-2.91876 V 386.17113 C 340.15775,373.72218 304.21331,391.1776 272,379.249 200.52087,355.4036 202.16227,251.69544 255,223.827 c 16.904,-9.255 39.363,-17.646 59,-13.135 22.16371,4.10735 21.81222,12.32822 28.41912,2.6232 V 135.70766 C 335.88312,123.61466 315,123.407 303,124.457 M 2189,245 h -1 c -23.23,-33.847 -89.92,-26.487 -118,-3.513 -36.07,29.512 -43.15,96.253 -19.85,135.513 34.4831,51.77784 107.5578,58.80295 139.2,17.18595 v 24.82868 h 62.2142 V 138.49988 l -62.2647,-0.47024 V 243.18555 M 899.50606,212.52527 c 11.61,1.87352 12.27283,-46.41983 2.72886,-51.04174 C 889.25485,152.39873 869.872,151.82 856,150.882 c -45.247,-3.06 -92.382,2.337 -127.991,32.716 -48.505,41.381 -56.421,124.94 -19.948,176.402 41.91979,53.35127 110.56005,66.27052 170.939,53.443 20.43416,-5.68077 22.29655,-2.07269 24.26255,-17.48869 0.923,-7.234 4.93781,-38.46393 -2.69044,-37.69738 C 853.9983,369.26977 813.45126,368.95018 781.011,346.557 743.99633,316.09638 742.84016,264.39627 769.366,235.004 801.209,187.9 853.97206,197.66627 899.50606,212.52527 M 1014,212.456 C 893.48061,214.43459 885.28054,362.3899 945.056,398 c 34.57802,28.15213 106.0692,29.27007 142.944,5.648 92.6924,-76.13768 36.6586,-200.60699 -74,-191.192 m 888,2.155 c -20.53,3.186 -39.48,9.787 -57,20.832 -45.4,28.631 -56.74,102.706 -22.51,144.557 39.0716,52.51757 128.7723,60.28332 176.05,14.543 61.9478,-82.88915 14.9877,-191.96502 -96.54,-179.932 m 461,0.897 c -89.2067,10.46696 -127.9698,105.53127 -78.19,167.436 24.7172,40.9944 108.5477,52.99226 153.99,27.198 50.38,-29.498 63.46,-105.792 31.4,-153.142 -22.6,-33.359 -68.7,-46.21 -107.2,-41.492 m 321.3617,121.31691 h 134.4439 c 3.3514,-25.1144 -4.427,-75.17127 -19.2956,-92.62291 -27.4,-31.1 -82.51,-37.985 -119.51,-20.638 -49.81,23.35 -66.27,105.895 -38.67,151.436 29.2428,50.328 103.8998,60.02722 161.7099,33.44044 v -37.4924 l -3.1374,-3.09234 c -14.1661,6.21133 -7.6455,5.52401 -33.8263,10.79644 -35.199,5.24319 -81.1325,0.8242 -81.7145,-41.4505 m -1485.577,-99.72438 v -16.96261 h -54.5528 v 197.3587 h 57.7271 V 289.90848 c 0.2741,-32.22913 69.1173,-30.45443 69.3149,0 v 127.96487 h 57.7353 V 289.90848 c -0.026,-32.54569 67.4079,-28.62795 68.2172,0 v 127.96487 h 56.5871 V 289.90848 c 0,-32.00564 -4.6963,-47.83309 -23.4067,-58.7099 -32.1848,-18.70971 -83.7237,-17.53949 -111.1427,11.89029 C 1298.7138,216.36262 1267.0977,210.5412 1238,219.53 c -14.9433,4.212 -26.7803,10.65213 -39.0004,17.94726 m 333.0857,4.24636 v -21.20897 h -54.4856 v 197.3587 h 59.5553 V 289.90848 c 0.087,-30.45303 65.1681,-31.2399 65.4091,0 v 127.96487 h 62.9675 V 289.90848 c 0.4697,-20.59834 65.536,-28.52107 65.7242,0 v 127.96487 h 56.8492 V 289.90848 c 0,-13.7901 -1.2512,-36.14395 -11.468,-48.73516 -25.7643,-31.75192 -87.1205,-33.45253 -122.637,1.91555 -41.8017,-37.93331 -81.6766,-37.4725 -122.3214,-1.36525 M 2550.7123,248 v -30.42515 h -50.203 v 200.96668 h 57.3224 V 300.00004 c -0.6658,-10.5628 23.0683,-28.017 39.1683,-30.35 4.1815,-1.066 17.1151,-2.8028 27.0914,-1.97501 l 1.8755,-43.77486 C 2602.161,205.06097 2560.1373,231.84024 2551,248 M 433.4985,289.964 498,221.52789 H 344.536 V 290 M 1020,250.624 c 68.7067,-0.50234 75.5899,123.38556 7,127.252 -83.25649,-1.64149 -70.52373,-125.27423 -7,-127.252 m 1747,51.30085 -81.4849,0.0376 c 0.4872,-59.85237 80.7427,-59.98364 81.4849,0 M 1914,253.381 c 77.5814,4.00331 67.3232,121.91168 7,126.355 -70.48,4.884 -71.76,-121.409 -7,-126.355 m 461,1.03 c 23.84,-2.308 40.9765,17.13396 48.6965,37.79602 11.1206,27.0527 -2.4928,86.99811 -44.6965,89.28798 -86.5402,-4.40435 -57.2695,-123.60973 -4,-127.084 m -240,9.033 c 71.8958,-0.20671 74.188,108.11515 19,118.451 -75.345,7.62736 -74.6336,-119.93041 -19,-118.451"
     id="path2"
     sodipodi:nodetypes="ccsccccccccccccccccccccccsccccccccccccccccccccccccccccccccccccccccccccssccccccccccccccccsscccccccccccccccccccccccccccccccc" />
  <path
     style="fill:#dc1e32;stroke:none;fill-opacity:1"
     d="m 498.00312,373.99899 -64.5015,-66.65126 h -88.9625 v 66.65126 z"
     id="path2-3"
     sodipodi:nodetypes="ccccc" />
</svg>
