<?xml version="1.0" encoding="UTF-8" standalone="no"?>
<svg
   width="3134"
   height="3155"
   version="1.1"
   id="svg4"
   sodipodi:docname="img1.svg"
   inkscape:version="1.1.1 (3bf5ae0d25, 2021-09-20)"
   xmlns:inkscape="http://www.inkscape.org/namespaces/inkscape"
   xmlns:sodipodi="http://sodipodi.sourceforge.net/DTD/sodipodi-0.dtd"
   xmlns="http://www.w3.org/2000/svg"
   xmlns:svg="http://www.w3.org/2000/svg">
  <defs
     id="defs8">
    <filter
       inkscape:collect="always"
       style="color-interpolation-filters:sRGB"
       id="filter2669"
       x="-0.00012175115"
       y="-0.00011829851"
       width="1.0002435"
       height="1.0002366">
      <feGaussianBlur
         inkscape:collect="always"
         stdDeviation="0.089724453"
         id="feGaussianBlur2671" />
    </filter>
    <filter
       inkscape:collect="always"
       style="color-interpolation-filters:sRGB"
       id="filter2673"
       x="-0.00012175114"
       y="-0.00011829851"
       width="1.0002435"
       height="1.0002366">
      <feGaussianBlur
         inkscape:collect="always"
         stdDeviation="0.089724452"
         id="feGaussianBlur2675" />
    </filter>
    <filter
       inkscape:collect="always"
       style="color-interpolation-filters:sRGB"
       id="filter2677"
       x="-0.00012175114"
       y="-0.00011829852"
       width="1.0002435"
       height="1.0002366">
      <feGaussianBlur
         inkscape:collect="always"
         stdDeviation="0.089724452"
         id="feGaussianBlur2679" />
    </filter>
    <filter
       inkscape:collect="always"
       style="color-interpolation-filters:sRGB"
       id="filter2681"
       x="-0.00012175114"
       y="-0.00011829852"
       width="1.0002435"
       height="1.0002366">
      <feGaussianBlur
         inkscape:collect="always"
         stdDeviation="0.089724453"
         id="feGaussianBlur2683" />
    </filter>
    <filter
       inkscape:collect="always"
       style="color-interpolation-filters:sRGB"
       id="filter2685"
       x="-0.00012175114"
       y="-0.00011829852"
       width="1.0002435"
       height="1.0002366">
      <feGaussianBlur
         inkscape:collect="always"
         stdDeviation="0.089724457"
         id="feGaussianBlur2687" />
    </filter>
    <filter
       inkscape:collect="always"
       style="color-interpolation-filters:sRGB"
       id="filter2689"
       x="-0.00012093915"
       y="-0.00011907531"
       width="1.0002419"
       height="1.0002382">
      <feGaussianBlur
         inkscape:collect="always"
         stdDeviation="0.13395973"
         id="feGaussianBlur2691" />
    </filter>
  </defs>
  <sodipodi:namedview
     id="namedview6"
     pagecolor="#ffffff"
     bordercolor="#666666"
     borderopacity="1.0"
     inkscape:pageshadow="2"
     inkscape:pageopacity="0.0"
     inkscape:pagecheckerboard="0"
     showgrid="false"
     inkscape:zoom="0.1767767"
     inkscape:cx="1510.3801"
     inkscape:cy="1518.8654"
     inkscape:window-width="1192"
     inkscape:window-height="1360"
     inkscape:window-x="33"
     inkscape:window-y="98"
     inkscape:window-maximized="0"
     inkscape:current-layer="svg4"
     inkscape:snap-nodes="false"
     inkscape:snap-others="false" />
  <path
     style="fill:#142878;fill-opacity:1;stroke:none;stroke-width:0.991347;filter:url(#filter2689)"
     d="M 238.2457,291.01178 V 2991.0118 H 2896.6349 V 291.01178 Z"
     id="path2"
     sodipodi:nodetypes="ccccc" />
  <path
     style="fill:#008228;fill-opacity:1;stroke:none;stroke-width:1.01314;filter:url(#filter2685)"
     d="m 1851.7292,159.60177 -2.0263,-12.15769 c -27.132,0 -52.4809,16.54664 -75.9859,26.34177 -43.5753,18.1556 -81.3151,46.84177 -122.5905,70.92022 -15.3795,8.96834 -30.0499,19.30443 -45.5916,28.36806 -7.0415,4.10832 -15.9672,8.00181 -22.2893,13.1709 -6.4233,5.2521 -11.9956,18.09577 -16.2103,25.32865 -1.3779,2.36973 -2.695,7.46178 -5.0656,9.1183 -3.5766,2.50346 -10.8916,1.9635 -15.1972,3.03942 -6.6057,1.65247 -12.5328,5.31901 -18.2368,9.11827 -14.3967,9.59655 -28.4895,20.38552 -41.5389,33.43386 -5.8155,5.81443 -10.1922,13.97634 -17.2235,19.24976 -20.3541,15.2671 -44.2137,25.87776 -65.8543,38.49953 -32.0348,18.68646 -63.3034,41.39814 -93.2096,63.82817 -14.9944,11.24592 -30.9536,28.10061 -42.552,43.56527 -4.1924,5.58952 -9.1507,15.21845 -15.1973,19.24976 -15.9639,10.64208 -33.5968,18.35922 -49.6441,30.39437 -49.1933,36.89471 -88.6289,87.74752 -137.7877,124.61691 -13.9004,10.42527 -24.7249,24.92643 -37.4864,33.43381 -2.999,1.99893 -9.6958,9.1183 -13.1709,9.1183 -4.3292,0 -5.1832,-6.43144 -6.0789,-9.1183 -2.8215,-8.46584 -6.2774,-16.80709 -9.11826,-25.32864 -16.08478,8.04234 -26.65271,26.32151 -41.53894,37.48639 -29.64976,22.23754 -52.41506,54.76152 -82.0648,76.99907 -7.1862,5.38992 -12.06353,13.85983 -19.24974,19.24975 -33.58981,25.19187 -60.23963,63.05207 -91.1831,91.183 -21.20717,19.28026 -51.0281,44.73557 -69.90704,69.90722 -11.18008,14.9073 -27.50591,25.8676 -38.49955,40.5257 -10.78594,14.3766 -26.78251,26.7775 -39.51267,39.5127 -24.71062,24.7106 -48.26524,49.2794 -72.94648,73.9597 -11.39385,11.3978 -27.56162,23.1097 -36.47325,36.4731 -12.06048,18.0949 -18.82931,40.3234 -27.35494,60.7888 -8.41011,20.1819 -19.43193,40.0598 -26.34178,60.7888 -0.89765,2.6949 1.38709,8.5914 2.02629,11.1446 2.1341,8.5408 1.01315,20.7898 1.01315,29.3812 2.65717,0.4458 6.30785,0.5674 8.10517,3.0393 2.39812,3.303 1.03138,9.1895 2.02629,13.1709 2.12355,8.4902 5.43552,19.1689 2.02629,27.355 -2.39305,5.7446 -9.04536,10.871 -12.15775,16.2104 -2.37887,4.083 -2.02326,9.1082 -4.05258,13.171 -9.00241,18.0035 -22.48474,33.8288 -31.40751,51.6703 l -9.11832,18.2367 c -0.9866,1.9756 -4.43221,5.8255 -4.05258,8.1051 0.32907,1.9757 2.92171,3.3737 4.05258,5.0656 3.37469,5.0659 7.18461,12.4313 9.11832,18.2367 l 4.05257,-1.0131 c 0.84931,5.0962 -1.72113,12.1576 6.07887,12.1576 l 1.01315,12.1579 7.09202,-3.0395 c 3.55635,7.1124 10.27006,1.611 12.15774,-4.0526 6.62102,2.2088 8.05006,0.3343 9.11831,-6.0789 5.47404,3.6474 9.21052,-0.547 10.13146,-6.0788 4.77395,2.391 7.60974,-0.5368 9.11831,-5.0657 9.53268,4.7617 27.5758,-5.7243 30.39437,-14.1842 1.22186,-3.6675 -1.19245,-17.2234 6.07888,-17.2234 3.14177,0 2.73245,6.0992 4.05258,7.0921 7.17712,5.3798 19.42809,-11.2053 20.26291,-16.2103 1.68385,0.5572 6.17411,1.2056 7.09202,3.0395 1.60584,3.2116 -4.66453,15.8049 -7.09202,18.2365 -6.33216,6.3321 -13.40999,15.2783 -20.26291,20.2629 -1.76794,1.2868 -5.48517,0.7801 -7.09202,2.0263 -4.6017,3.5764 -11.40902,11.935 -13.17089,17.2235 -5.45781,-1.8237 -14.09284,-2.857 -18.23661,4.0526 -2.87532,4.7922 -1.11042,11.8333 -9.11831,13.171 -4.72533,0.79 -6.16906,-7.5482 -8.10517,-10.1316 -2.8034,-3.7384 -16.17265,-2.5025 -19.24979,1.0131 -1.11798,1.2766 -0.25642,4.5693 -1.01313,6.0789 -1.69013,3.384 -5.19703,2.158 -7.09202,4.0528 -5.72133,5.7241 -6.6974,14.0116 -9.11832,21.2759 -1.31282,3.9411 -7.53952,9.6148 -1.01314,13.1709 7.94256,4.3362 16.01551,-3.8499 23.30236,-5.0657 -3.7064,5.5622 -9.73026,15.2781 -15.19719,19.2497 -1.49278,1.084 -4.78721,0.7396 -6.07888,2.0263 -2.82839,2.8266 -2.4749,9.716 -5.06572,13.171 -3.40872,4.5489 -8.48196,6.8285 -11.1446,12.1578 -3.91237,7.8213 -2.70712,18.2465 -6.07887,26.3415 -1.9019,4.5694 -5.88102,8.3281 -7.09203,13.1709 -0.97982,3.921 -3.30681,13.3837 -2.02629,17.2236 2.30248,6.9095 7.12667,8.9766 5.06573,17.2235 -3.80446,15.2174 -17.94656,26.4939 -13.17089,45.5916 1.67776,6.7069 1.788,15.4909 4.05258,22.2892 2.33894,7.0211 8.46635,12.4414 9.11831,20.2628 0.147,1.7629 -1.61384,4.4274 -2.0263,6.0789 -1.26116,5.0454 1.48092,15.5923 3.03944,20.2629 2.57269,7.7202 11.93516,13.8599 13.17089,21.2762 0.62816,3.7687 -3.13516,10.5163 -4.05257,14.184 -1.47039,5.8863 1.01313,12.249 1.01313,18.2366 15.06195,-2.5127 28.20843,-15.481 42.55213,-20.263 5.94006,-1.9756 11.5995,-1.9047 16.21034,-7.0921 7.37873,-8.2976 4.78711,-23.2617 10.13143,-32.4206 4.855,-8.3178 15.11209,-10.5062 20.26293,-18.2366 4.18024,-6.2713 4.69187,-15.1871 9.1183,-21.2759 4.49939,-6.1905 13.19926,-8.4802 18.23662,-15.1972 38.89264,-51.8529 97.0158,-86.1277 135.76152,-137.7879 18.6662,-24.893 43.01006,-45.8651 61.80188,-70.9202 7.67458,-10.2328 16.00973,-27.2335 28.36807,-34.4471 21.38549,-12.4716 43.235,-22.9983 65.85452,-32.4206 10.71801,-4.4679 26.84833,-2.705 36.4732,-9.1182 10.49519,-7.0009 17.27311,-18.7837 27.35491,-26.3418 24.43098,-18.3277 43.20657,-44.3049 67.88069,-62.8151 38.45092,-28.8341 68.9394,-69.4308 107.3933,-98.275 9.8368,-7.3757 16.5204,-17.9632 26.3419,-25.3287 18.8698,-14.1536 35.4458,-32.1572 54.7098,-46.6048 9.7242,-7.2945 22.3064,-16.2305 30.3944,-25.3286 11.5885,-13.0391 25.4695,-27.2028 40.5259,-38.4994 28.5372,-21.4078 53.266,-48.3069 82.0647,-69.907 76.377,-57.2833 145.4067,-125.01527 221.8789,-182.36631 62.1159,-46.58646 125.3262,-91.20641 187.432,-137.7878 20.7898,-15.5913 45.1964,-30.33459 67.8807,-43.56528 7.0413,-4.10931 15.6938,-7.35847 22.2892,-12.15772 7.4163,-5.39704 13.7382,-12.19626 21.2762,-17.22349 v -1.01315 c -6.4438,1.07292 -12.3301,4.63008 -18.2369,7.09203 -13.5051,5.62701 -27.375,9.635 -40.5256,16.21033 -5.0557,2.52781 -10.1922,4.59156 -15.1972,7.092 -1.3373,0.66768 -4.5085,3.56224 -6.0789,3.03945 -7.1732,-2.39002 -3.0901,-13.13543 1.0131,-16.21034 11.0839,-8.3108 25.2679,-13.91453 38.4995,-17.22347 16.9803,-4.24507 34.7409,-5.89852 51.6705,-10.13145 12.2286,-3.05565 25.3287,-1.01214 37.4863,-4.05259 9.858,-2.46497 19.5235,-6.65333 29.3814,-9.1183 10.5366,-2.63317 22.1675,-1.6494 32.4204,-5.06573 8.4701,-2.82161 21.3876,-8.59552 28.3683,-14.18403 1.6412,-1.309 1.246,-3.98979 3.0394,-5.06573 2.8468,-1.70715 7.9836,-0.18136 11.1446,-2.0263 6.2309,-3.63517 7.1326,-12.24183 10.1315,-18.23662 3.1204,-6.24807 10.2327,-10.27938 14.184,-16.21033 2.7355,-4.10932 2.9988,-10.33915 6.0789,-14.18404 4.5185,-5.64423 16.2812,-7.64823 22.2891,-12.15775 3.1408,-2.35556 10.253,-6.25617 12.1578,-9.11831 1.2056,-1.81556 -0.1925,-4.30385 2.0262,-6.07887 1.9656,-1.57544 5.2887,-0.78822 7.0921,-3.03944 4.853,-6.0657 7.2136,-15.55888 11.1446,-22.2892 1.935,-3.31805 6.7779,-8.39289 7.0921,-12.15776 0.7091,-8.53878 -13.3533,-11.14459 -19.2498,-11.14459 l -2.0264,-8.10515 5.0658,-25.32865 -14.1841,-4.05259 -11.1445,-1.01314 -5.0658,-6.07888 c 2.5532,-5.10624 2.5633,-12.51842 8.1052,-16.21033 7.0008,-4.66553 21.185,-6.05659 29.3811,-8.10516 4.2046,-1.05164 10.1315,0.01 10.1315,-5.06573 l 9.1184,1.01315 8.1051,-5.06574 8.1053,4.05259 59.7755,-14.18405 c -2.1985,-6.58644 -1.9046,-23.78763 0,-31.40751 0.6078,-2.42242 2.5532,-9.33108 1.0132,-12.15775 -2.4822,-4.55813 -9.3514,-2.98168 -13.1709,-2.02628 -11.2662,2.81756 -23.9407,9.85588 -34.447,8.10515 3.6271,-10.88319 11.6409,-14.56091 22.2893,-17.22347 12.6947,-3.17417 22.1775,4.97049 30.3943,-9.11832 6.626,-11.35633 -1.2158,-30.61323 2.0263,-43.56527 0.8612,-3.4305 2.9077,-13.44445 1.0131,-17.22348 -3.617,-7.23791 -13.1505,-5.53176 -16.2103,-11.14459 -0.8712,-1.60583 0,-6.22678 0,-8.10512 0,-7.71918 0.1823,-17.9621 2.0263,-25.32866 2.5531,-10.20243 -2.8571,-22.58406 -5.0658,-31.40754 -2.2087,-8.83362 0.8004,-18.8759 -2.0262,-27.35489 l -25.3286,3.03941 c 0,-13.9287 4.1741,-21.47566 11.1445,-33.43378 3.0395,-5.20963 11.7424,-16.87494 10.1315,-23.30235 -0.8712,-3.50548 -5.0455,-7.06676 -7.092,-10.1315 -2.462,-3.68685 -7.4974,-17.62772 -13.1709,-16.2103 -10.395,2.59869 -19.1485,7.79312 -28.3681,13.1709 -5.9977,3.49938 -9.7465,8.10519 -17.2234,8.10519 v -33.43386 c 0,-3.35095 -1.1753,-9.84847 -5.0659,-11.14459 -1.8033,-0.60255 -6.3727,2.46115 -8.1052,3.03941 -6.1598,2.05264 -13.0796,1.9966 -19.2495,4.05259 3.9715,-5.96136 2.0161,-15.21295 0,-21.276068 -2.2494,-6.76188 -6.1297,-16.043283 -12.1579,-20.262888 -9.2096,-6.449871 -30.8604,-6.975082 -42.5522,-4.052585 -16.6864,4.17187 -30.0498,10.747479 -45.5916,17.223473 -6.1192,2.54922 -17.5779,4.40707 -22.2891,9.1183 -1.8034,1.804268 -1.4082,6.649978 -2.0263,9.118348 -1.7527,7.02251 -2.7861,16.37281 -7.092,22.28919 -2.9685,4.08503 -9.2299,4.79321 -13.1709,7.09201 -12.5021,7.29361 -23.8393,17.74016 -37.4864,22.28917 m -764.9249,505.55971 c 9.4475,-4.72329 16.7382,-14.88715 22.2892,-22.28921 -8.9977,-2.99891 -20.9154,14.04828 -22.2892,22.28921 m -60.7888,59.77559 2.0264,-5.06574 c 5.3616,2.6808 9.8882,-4.88334 14.1841,-8.10515 12.7087,-9.53167 31.4124,-24.33171 36.4731,-39.51269 -11.1962,-3.73242 -23.2739,3.28564 -34.4469,6.07887 -4.2876,1.07191 -11.021,1.9027 -14.184,5.06574 -1.8582,1.85811 -2.851,6.71512 -4.0527,9.11831 -4.2784,8.55703 -11.9682,26.43702 0,32.42066 m 678.8077,17.22348 -1.0131,11.14459 -8.1053,4.05259 -27.3549,9.1183 -1.0132,-1.01314 c 4.9847,-14.96822 23.8393,-18.7523 37.4865,-23.30234 m -73.9597,35.46009 c 0,6.91776 1.3372,10.92171 -6.0789,12.15774 -1.2562,-7.5145 1.0943,-6.24603 4.0526,-12.15774 z"
     id="path837" />
  <path
     style="fill:#e62828;fill-opacity:1;stroke:none;stroke-width:1.01314;filter:url(#filter2681)"
     d="m 2057.8617,425.2641 -2.0263,-12.15769 c -27.132,0 -52.4809,16.54664 -75.9859,26.34177 -43.5753,18.1556 -81.3151,46.84177 -122.5905,70.92022 -15.3795,8.96834 -30.0499,19.30443 -45.5916,28.36806 -7.0415,4.10832 -15.9672,8.00181 -22.2893,13.1709 -6.4233,5.2521 -11.9956,18.09577 -16.2103,25.32865 -1.3779,2.36973 -2.695,7.46178 -5.0656,9.1183 -3.5766,2.50346 -10.8916,1.9635 -15.1972,3.03942 -6.6057,1.65247 -12.5328,5.31901 -18.2368,9.11827 -14.3967,9.59655 -28.4895,20.38552 -41.5389,33.43386 -5.8155,5.81443 -10.1922,13.97634 -17.2235,19.24976 -20.3541,15.2671 -44.2137,25.87776 -65.8543,38.49953 -32.0348,18.68646 -63.3034,41.39814 -93.2096,63.82817 -14.9944,11.24592 -30.9536,28.10061 -42.552,43.56527 -4.1924,5.58952 -9.1507,15.21845 -15.1973,19.24976 -15.9639,10.64208 -33.5968,18.35922 -49.6441,30.39437 -49.1933,36.89471 -88.6289,87.74752 -137.7877,124.61691 -13.9004,10.42523 -24.7249,24.92643 -37.4864,33.43387 -2.999,1.9989 -9.6958,9.1183 -13.1709,9.1183 -4.3292,0 -5.1832,-6.4315 -6.0789,-9.1183 -2.8215,-8.46584 -6.2774,-16.80714 -9.1183,-25.3287 -16.0847,8.04236 -26.6527,26.3215 -41.5389,37.4864 -29.6498,22.2376 -52.4151,54.7616 -82.0648,76.9991 -7.1862,5.3899 -12.0635,13.8598 -19.2497,19.2498 -33.5898,25.1918 -60.2396,63.052 -91.18299,91.1829 -21.20721,19.2803 -51.02814,44.7356 -69.90708,69.9072 -11.18008,14.9073 -27.50591,25.8676 -38.49955,40.5257 -10.78594,14.3766 -26.78251,26.7775 -39.51267,39.5127 -24.71062,24.7106 -48.26524,49.2794 -72.94648,73.9597 -11.39385,11.3978 -27.56162,23.1097 -36.47325,36.4731 -12.06048,18.0949 -18.82931,40.3234 -27.35494,60.7888 -8.41011,20.1819 -19.43193,40.0598 -26.34178,60.7888 -0.89765,2.6949 1.38709,8.5914 2.02629,11.1446 2.1341,8.5408 1.01315,20.7898 1.01315,29.3812 2.65717,0.4458 6.30785,0.5674 8.10517,3.0393 2.39812,3.303 1.03138,9.1895 2.02629,13.1709 2.12355,8.4902 5.43552,19.1689 2.02629,27.355 -2.39305,5.7446 -9.04536,10.871 -12.15775,16.2104 -2.37887,4.083 -2.02326,9.1082 -4.05258,13.171 -9.00241,18.0035 -22.48474,33.8288 -31.40751,51.6703 l -9.11832,18.2367 c -0.9866,1.9756 -4.43221,5.8255 -4.05258,8.1051 0.32907,1.9757 2.92171,3.3737 4.05258,5.0656 3.37469,5.0659 7.18461,12.4313 9.11832,18.2367 l 4.05257,-1.0131 c 0.84931,5.0962 -1.72113,12.1576 6.07887,12.1576 l 1.01315,12.1579 7.09202,-3.0395 c 3.55635,7.1124 10.27006,1.611 12.15774,-4.0526 6.62102,2.2088 8.05006,0.3343 9.11831,-6.0789 5.47404,3.6474 9.21052,-0.547 10.13146,-6.0788 4.77395,2.391 7.60974,-0.5368 9.11831,-5.0657 9.53268,4.7617 27.5758,-5.7243 30.39437,-14.1842 1.22186,-3.6675 -1.19245,-17.2234 6.07888,-17.2234 3.14177,0 2.73245,6.0992 4.05258,7.0921 7.17712,5.3798 19.42809,-11.2053 20.26291,-16.2103 1.68385,0.5572 6.17411,1.2056 7.09202,3.0395 1.60584,3.2116 -4.66453,15.8049 -7.09202,18.2365 -6.33216,6.3321 -13.40999,15.2783 -20.26291,20.2629 -1.76794,1.2868 -5.48517,0.7801 -7.09202,2.0263 -4.6017,3.5764 -11.40902,11.935 -13.17089,17.2235 -5.45781,-1.8237 -14.09284,-2.857 -18.23661,4.0526 -2.87532,4.7922 -1.11042,11.8333 -9.11831,13.171 -4.72533,0.79 -6.16906,-7.5482 -8.10517,-10.1316 -2.8034,-3.7384 -16.17265,-2.5025 -19.24979,1.0131 -1.11798,1.2766 -0.25642,4.5693 -1.01313,6.0789 -1.69013,3.384 -5.19703,2.158 -7.09202,4.0528 -5.72133,5.7241 -6.6974,14.0116 -9.11832,21.2759 -1.31282,3.9411 -7.53952,9.6148 -1.01314,13.1709 7.94256,4.3362 16.01551,-3.8499 23.30236,-5.0657 -3.7064,5.5622 -9.73026,15.2781 -15.19719,19.2497 -1.49278,1.084 -4.78721,0.7396 -6.07888,2.0263 -2.82839,2.8266 -2.4749,9.716 -5.06572,13.171 -3.40872,4.5489 -8.48196,6.8285 -11.1446,12.1578 -3.91237,7.8213 -2.70712,18.2465 -6.07887,26.3415 -1.9019,4.5694 -5.88102,8.3281 -7.09203,13.1709 -0.97982,3.921 -3.30681,13.3837 -2.02629,17.2236 2.30248,6.9095 7.12667,8.9766 5.06573,17.2235 -3.80446,15.2174 -17.94656,26.4939 -13.17089,45.5916 1.67776,6.7069 1.788,15.4909 4.05258,22.2892 2.33894,7.0211 8.46635,12.4414 9.11831,20.2628 0.147,1.7629 -1.61384,4.4274 -2.0263,6.0789 -1.26116,5.0454 1.48092,15.5923 3.03944,20.2629 2.57269,7.7202 11.93516,13.8599 13.17089,21.2762 0.62816,3.7687 -3.13516,10.5163 -4.05257,14.184 -1.47039,5.8863 1.01313,12.249 1.01313,18.2366 15.06195,-2.5127 28.20843,-15.481 42.55213,-20.263 5.94006,-1.9756 11.5995,-1.9047 16.21034,-7.0921 7.37873,-8.2976 4.78711,-23.2617 10.13143,-32.4206 4.855,-8.3178 15.11209,-10.5062 20.26293,-18.2366 4.18024,-6.2713 4.69187,-15.1871 9.1183,-21.2759 4.49939,-6.1905 13.19926,-8.4802 18.23662,-15.1972 38.89264,-51.8529 97.0158,-86.1277 135.76152,-137.7879 18.6662,-24.893 43.01006,-45.8651 61.80188,-70.9202 7.67458,-10.2328 16.00973,-27.2335 28.36809,-34.4471 21.3855,-12.4716 43.23499,-22.9983 65.85439,-32.4206 10.718,-4.4679 26.8483,-2.705 36.4732,-9.1182 10.4952,-7.0009 17.2731,-18.7837 27.3549,-26.3418 24.431,-18.3277 43.2066,-44.3049 67.8807,-62.8151 38.4509,-28.8341 68.9394,-69.4308 107.3933,-98.275 9.8368,-7.3757 16.5204,-17.9632 26.3419,-25.3287 18.8698,-14.1536 35.4458,-32.1572 54.7098,-46.6048 9.7242,-7.2945 22.3064,-16.2305 30.3944,-25.3286 11.5885,-13.0391 25.4695,-27.2028 40.5259,-38.4994 28.5372,-21.4078 53.266,-48.3069 82.0647,-69.907 76.377,-57.2833 145.4067,-125.0152 221.8789,-182.3662 62.1159,-46.5865 125.3262,-91.2064 187.432,-137.7878 20.7898,-15.5913 45.1964,-30.3346 67.8807,-43.5653 7.0413,-4.10934 15.6938,-7.35844 22.2892,-12.15774 7.4163,-5.3971 13.7382,-12.1963 21.2762,-17.22353 v -1.01315 c -6.4438,1.07292 -12.3301,4.63008 -18.2369,7.09203 -13.5051,5.62705 -27.375,9.63495 -40.5256,16.21035 -5.0557,2.5278 -10.1922,4.5916 -15.1972,7.09204 -1.3373,0.6677 -4.5085,3.5622 -6.0789,3.0394 -7.1732,-2.39 -3.0901,-13.13544 1.0131,-16.21034 11.0839,-8.31081 25.2679,-13.91454 38.4995,-17.22348 16.9803,-4.24507 34.7409,-5.89852 51.6705,-10.13145 12.2286,-3.05565 25.3287,-1.01214 37.4863,-4.05259 9.858,-2.46497 19.5235,-6.65333 29.3814,-9.1183 10.5366,-2.63317 22.1675,-1.6494 32.4204,-5.06573 8.4701,-2.82161 21.3876,-8.59552 28.3683,-14.18403 1.6412,-1.309 1.246,-3.98979 3.0394,-5.06573 2.8468,-1.70715 7.9836,-0.18136 11.1446,-2.0263 6.2309,-3.63517 7.1326,-12.24183 10.1315,-18.23662 3.1204,-6.24807 10.2327,-10.27938 14.184,-16.21033 2.7355,-4.10932 2.9988,-10.33915 6.0789,-14.18404 4.5185,-5.64423 16.2812,-7.64823 22.2891,-12.15775 3.1408,-2.35556 10.253,-6.25617 12.1578,-9.11831 1.2056,-1.81556 -0.1925,-4.30385 2.0262,-6.07887 1.9656,-1.57544 5.2887,-0.78822 7.0921,-3.03944 4.853,-6.0657 7.2136,-15.55888 11.1446,-22.2892 1.935,-3.31805 6.7779,-8.39289 7.0921,-12.15776 0.7091,-8.53878 -13.3533,-11.14459 -19.2498,-11.14459 l -2.0264,-8.10515 5.0658,-25.32865 -14.1841,-4.05259 -11.1445,-1.01314 -5.0658,-6.07888 c 2.5532,-5.10624 2.5633,-12.51842 8.1052,-16.21033 7.0008,-4.66553 21.185,-6.05659 29.3811,-8.10516 4.2046,-1.05164 10.1315,0.01 10.1315,-5.06573 l 9.1184,1.01315 8.1051,-5.06574 8.1053,4.05259 59.7755,-14.18405 c -2.1985,-6.58644 -1.9046,-23.78763 0,-31.40751 0.6078,-2.42242 2.5532,-9.33108 1.0132,-12.15775 -2.4822,-4.55813 -9.3514,-2.98168 -13.1709,-2.02628 -11.2662,2.81756 -23.9407,9.85588 -34.447,8.10515 3.6271,-10.88319 11.6409,-14.56091 22.2893,-17.22347 12.6947,-3.17417 22.1775,4.97049 30.3943,-9.11832 6.626,-11.35633 -1.2158,-30.61323 2.0263,-43.56527 0.8612,-3.4305 2.9077,-13.44445 1.0131,-17.22348 -3.617,-7.23791 -13.1505,-5.53176 -16.2103,-11.14459 -0.8712,-1.60583 0,-6.22678 0,-8.10512 0,-7.71918 0.1823,-17.9621 2.0263,-25.32866 2.5531,-10.20243 -2.8571,-22.58406 -5.0658,-31.40754 -2.2087,-8.83362 0.8004,-18.8759 -2.0262,-27.35489 l -25.3286,3.03941 c 0,-13.9287 4.1741,-21.47566 11.1445,-33.43378 3.0395,-5.20963 11.7424,-16.87494 10.1315,-23.30235 -0.8712,-3.50548 -5.0455,-7.06676 -7.092,-10.1315 -2.462,-3.68685 -7.4974,-17.62772 -13.1709,-16.2103 -10.395,2.59869 -19.1485,7.79312 -28.3681,13.1709 -5.9977,3.49938 -9.7465,8.10519 -17.2234,8.10519 v -33.43386 c 0,-3.35095 -1.1753,-9.84847 -5.0659,-11.14459 -1.8033,-0.60255 -6.3727,2.46115 -8.1052,3.03941 -6.1598,2.05264 -13.0796,1.9966 -19.2495,4.05259 3.9715,-5.96136 2.0161,-15.21295 0,-21.27607 -2.2494,-6.76188 -6.1297,-16.04328 -12.1579,-20.26289 -9.2096,-6.44987 -30.8604,-6.97508 -42.5522,-4.05258 -16.6864,4.17187 -30.0498,10.74748 -45.5916,17.22347 -6.1192,2.54922 -17.5779,4.40707 -22.2891,9.1183 -1.8034,1.80427 -1.4082,6.64998 -2.0263,9.11835 -1.7527,7.02251 -2.7861,16.37281 -7.092,22.28919 -2.9685,4.08503 -9.2299,4.79321 -13.1709,7.09201 -12.5021,7.29361 -23.8393,17.74016 -37.4864,22.28917 m -764.9249,505.55971 c 9.4475,-4.72329 16.7382,-14.88715 22.2892,-22.28921 -8.9977,-2.99891 -20.9154,14.04828 -22.2892,22.28921 m -60.7888,59.77555 2.0264,-5.0657 c 5.3616,2.6808 9.8882,-4.8833 14.1841,-8.10515 12.7087,-9.53167 31.4124,-24.33171 36.4731,-39.51269 -11.1962,-3.73242 -23.2739,3.28564 -34.4469,6.07887 -4.2876,1.07191 -11.021,1.9027 -14.184,5.06574 -1.8582,1.85811 -2.851,6.71512 -4.0527,9.11831 -4.2784,8.55703 -11.9682,26.43702 0,32.42062 m 678.8077,17.22354 -1.0131,11.1446 -8.1053,4.0526 -27.3549,9.1183 -1.0132,-1.0131 c 4.9847,-14.9683 23.8393,-18.7523 37.4865,-23.3024 m -73.9597,35.4601 c 0,6.9178 1.3372,10.9217 -6.0789,12.1578 -1.2562,-7.5145 1.0943,-6.2461 4.0526,-12.1578 z"
     id="path837-3" />
  <path
     style="fill:#0096bc;fill-opacity:1;stroke:none;stroke-width:1.01314;filter:url(#filter2677)"
     d="m 2250.5976,687.2163 -2.0263,-12.15769 c -27.132,0 -52.4809,16.54664 -75.9859,26.34177 -43.5753,18.1556 -81.3151,46.84177 -122.5905,70.92022 -15.3795,8.96834 -30.0499,19.30443 -45.5916,28.36806 -7.0415,4.10832 -15.9672,8.00181 -22.2893,13.1709 -6.4233,5.2521 -11.9956,18.09577 -16.2103,25.32865 -1.3779,2.36973 -2.695,7.46178 -5.0656,9.1183 -3.5766,2.50346 -10.8916,1.9635 -15.1972,3.03942 -6.6057,1.65247 -12.5328,5.31901 -18.2368,9.11827 -14.3967,9.59655 -28.4895,20.38552 -41.5389,33.43386 -5.8155,5.81443 -10.1922,13.97634 -17.2235,19.24976 -20.3541,15.2671 -44.2137,25.87776 -65.8543,38.49953 -32.0348,18.68646 -63.3034,41.39814 -93.2096,63.82815 -14.9944,11.2459 -30.9536,28.1006 -42.552,43.5653 -4.1924,5.5895 -9.1507,15.2185 -15.1973,19.2498 -15.9639,10.642 -33.5968,18.3592 -49.6441,30.3943 -49.1933,36.8947 -88.6289,87.7476 -137.7877,124.6169 -13.9004,10.4253 -24.7249,24.9265 -37.4864,33.4339 -2.999,1.9989 -9.6958,9.1183 -13.1709,9.1183 -4.3292,0 -5.1832,-6.4315 -6.0789,-9.1183 -2.8215,-8.4658 -6.2774,-16.8071 -9.1183,-25.3287 -16.0847,8.0424 -26.6527,26.3215 -41.5389,37.4864 -29.6498,22.2376 -52.4151,54.7616 -82.0648,76.9991 -7.1862,5.3899 -12.0635,13.8598 -19.2497,19.2498 -33.5898,25.1918 -60.2396,63.052 -91.183,91.1829 -21.2072,19.2803 -51.0281,44.7356 -69.907,69.9072 -11.1801,14.9073 -27.506,25.8676 -38.4996,40.5257 -10.7859,14.3766 -26.7825,26.7775 -39.5127,39.5127 -24.71056,24.7106 -48.26517,49.2794 -72.94637,73.9597 -11.3939,11.3978 -27.5617,23.1097 -36.4733,36.4731 -12.0605,18.0949 -18.8293,40.3234 -27.3549,60.7888 -8.4101,20.1819 -19.43196,40.0598 -26.34181,60.7888 -0.89765,2.6949 1.38709,8.5914 2.02629,11.1446 2.1341,8.5408 1.01315,20.7898 1.01315,29.3812 2.65717,0.4458 6.30785,0.5674 8.10517,3.0393 2.39812,3.303 1.03138,9.1895 2.02629,13.1709 2.12355,8.4902 5.43551,19.1689 2.02629,27.355 -2.39305,5.7446 -9.04536,10.871 -12.15775,16.2104 -2.37887,4.083 -2.02326,9.1082 -4.05258,13.171 -9.00241,18.0035 -22.48474,33.8288 -31.40751,51.6703 l -9.11832,18.2367 c -0.9866,1.9756 -4.43221,5.8255 -4.05258,8.1051 0.32907,1.9757 2.92171,3.3737 4.05258,5.0656 3.37469,5.0659 7.18461,12.4313 9.11832,18.2367 l 4.05257,-1.0131 c 0.84931,5.0962 -1.72113,12.1576 6.07887,12.1576 l 1.01315,12.1579 7.09202,-3.0395 c 3.55635,7.1124 10.27006,1.611 12.15774,-4.0526 6.62102,2.2088 8.05006,0.3343 9.11831,-6.0789 5.47404,3.6474 9.2105,-0.547 10.1315,-6.0788 4.7739,2.391 7.6097,-0.5368 9.1183,-5.0657 9.5326,4.7617 27.5758,-5.7243 30.3943,-14.1842 1.2219,-3.6675 -1.1924,-17.2234 6.0789,-17.2234 3.1418,0 2.7325,6.0992 4.0526,7.0921 7.1771,5.3798 19.4281,-11.2053 20.2629,-16.2103 1.6839,0.5572 6.1741,1.2056 7.092,3.0395 1.6059,3.2116 -4.6645,15.8049 -7.092,18.2365 -6.3322,6.3321 -13.41,15.2783 -20.2629,20.2629 -1.7679,1.2868 -5.4852,0.7801 -7.092,2.0263 -4.6017,3.5764 -11.409,11.935 -13.1709,17.2235 -5.4578,-1.8237 -14.0929,-2.857 -18.2366,4.0526 -2.8753,4.7922 -1.1104,11.8333 -9.1183,13.171 -4.72536,0.79 -6.16909,-7.5482 -8.1052,-10.1316 -2.8034,-3.7384 -16.17265,-2.5025 -19.24979,1.0131 -1.11798,1.2766 -0.25642,4.5693 -1.01313,6.0789 -1.69013,3.384 -5.19703,2.158 -7.09202,4.0528 -5.72133,5.7241 -6.6974,14.0116 -9.11832,21.2759 -1.31282,3.9411 -7.53952,9.6148 -1.01314,13.1709 7.94256,4.3362 16.01551,-3.8499 23.30236,-5.0657 -3.7064,5.5622 -9.73026,15.2781 -15.19719,19.2497 -1.49278,1.084 -4.78721,0.7396 -6.07888,2.0263 -2.82839,2.8266 -2.4749,9.716 -5.06572,13.171 -3.40872,4.5489 -8.48196,6.8285 -11.1446,12.1578 -3.91237,7.8213 -2.70712,18.2465 -6.07887,26.3415 -1.9019,4.5694 -5.88102,8.3281 -7.09203,13.1709 -0.97982,3.921 -3.30681,13.3837 -2.02629,17.2236 2.30248,6.9095 7.12667,8.9766 5.06573,17.2235 -3.80446,15.2174 -17.94656,26.4939 -13.17089,45.5916 1.67776,6.7069 1.788,15.4909 4.05258,22.2892 2.33894,7.0211 8.46635,12.4414 9.11831,20.2628 0.147,1.7629 -1.61384,4.4274 -2.0263,6.0789 -1.26116,5.0454 1.48092,15.5923 3.03944,20.2629 2.57269,7.7202 11.93516,13.8599 13.17089,21.2762 0.62816,3.7687 -3.13516,10.5163 -4.05257,14.184 -1.47039,5.8863 1.01313,12.249 1.01313,18.2366 15.06195,-2.5127 28.20843,-15.481 42.55213,-20.263 5.94006,-1.9756 11.5995,-1.9047 16.21037,-7.0921 7.3787,-8.2976 4.7871,-23.2617 10.1314,-32.4206 4.855,-8.3178 15.1121,-10.5062 20.2629,-18.2366 4.1803,-6.2713 4.6919,-15.1871 9.1183,-21.2759 4.4994,-6.1905 13.1993,-8.4802 18.2366,-15.1972 38.8927,-51.8529 97.01577,-86.1277 135.76157,-137.7879 18.6662,-24.893 43.01,-45.8651 61.8018,-70.9202 7.6746,-10.2328 16.0098,-27.2335 28.3681,-34.4471 21.3855,-12.4716 43.235,-22.9983 65.8544,-32.4206 10.718,-4.4679 26.8483,-2.705 36.4732,-9.1182 10.4952,-7.0009 17.2731,-18.7837 27.3549,-26.3418 24.431,-18.3277 43.2066,-44.3049 67.8807,-62.8151 38.4509,-28.8341 68.9394,-69.4308 107.3933,-98.275 9.8368,-7.3757 16.5204,-17.9632 26.3419,-25.3287 18.8698,-14.1536 35.4458,-32.1572 54.7098,-46.6048 9.7242,-7.2945 22.3064,-16.2305 30.3944,-25.3286 11.5885,-13.0391 25.4695,-27.2028 40.5259,-38.4994 28.5372,-21.4078 53.266,-48.3069 82.0647,-69.907 76.377,-57.2833 145.4067,-125.0152 221.8789,-182.3662 62.1159,-46.5865 125.3262,-91.2064 187.432,-137.7878 20.7898,-15.5913 45.1964,-30.3346 67.8807,-43.5653 7.0413,-4.1093 15.6938,-7.3584 22.2892,-12.1577 7.4163,-5.3971 13.7382,-12.1963 21.2762,-17.2236 v -1.0131 c -6.4438,1.0729 -12.3301,4.6301 -18.2369,7.092 -13.5051,5.6271 -27.375,9.635 -40.5256,16.2104 -5.0557,2.5278 -10.1922,4.5916 -15.1972,7.092 -1.3373,0.6677 -4.5085,3.5622 -6.0789,3.0394 -7.1732,-2.39 -3.0901,-13.1354 1.0131,-16.2103 11.0839,-8.3108 25.2679,-13.9146 38.4995,-17.2235 16.9803,-4.2451 34.7409,-5.8985 51.6705,-10.1315 12.2286,-3.0556 25.3287,-1.0121 37.4863,-4.0525 9.858,-2.465 19.5235,-6.6534 29.3814,-9.1183 10.5366,-2.6332 22.1675,-1.6494 32.4204,-5.0658 8.4701,-2.8216 21.3876,-8.5955 28.3683,-14.184 1.6412,-1.309 1.246,-3.9898 3.0394,-5.0657 2.8468,-1.7072 7.9836,-0.1814 11.1446,-2.0263 6.2309,-3.6352 7.1326,-12.2419 10.1315,-18.2367 3.1204,-6.248 10.2327,-10.2793 14.184,-16.2103 2.7355,-4.1093 2.9988,-10.3391 6.0789,-14.184 4.5185,-5.6443 16.2812,-7.6483 22.2891,-12.1578 3.1408,-2.3555 10.253,-6.2561 12.1578,-9.1183 1.2056,-1.8155 -0.1925,-4.3038 2.0262,-6.0789 1.9656,-1.5754 5.2887,-0.7882 7.0921,-3.0394 4.853,-6.0657 7.2136,-15.5589 11.1446,-22.2892 1.935,-3.318 6.7779,-8.3929 7.0921,-12.1578 0.7091,-8.5388 -13.3533,-11.1446 -19.2498,-11.1446 l -2.0264,-8.1051 5.0658,-25.3287 -14.1841,-4.0526 -11.1445,-1.0131 -5.0658,-6.0789 c 2.5532,-5.1062 2.5633,-12.5184 8.1052,-16.2103 7.0008,-4.66553 21.185,-6.05659 29.3811,-8.10516 4.2046,-1.05164 10.1315,0.01 10.1315,-5.06573 l 9.1184,1.01315 8.1051,-5.06574 8.1053,4.05259 59.7755,-14.18405 c -2.1985,-6.58644 -1.9046,-23.78763 0,-31.40751 0.6078,-2.42242 2.5532,-9.33108 1.0132,-12.15775 -2.4822,-4.55813 -9.3514,-2.98168 -13.1709,-2.02628 -11.2662,2.81756 -23.9407,9.85588 -34.447,8.10515 3.6271,-10.88319 11.6409,-14.56091 22.2893,-17.22347 12.6947,-3.17417 22.1775,4.97049 30.3943,-9.11832 6.626,-11.35633 -1.2158,-30.61323 2.0263,-43.56527 0.8612,-3.4305 2.9077,-13.44445 1.0131,-17.22348 -3.617,-7.23791 -13.1505,-5.53176 -16.2103,-11.14459 -0.8712,-1.60583 0,-6.22678 0,-8.10512 0,-7.71918 0.1823,-17.9621 2.0263,-25.32866 2.5531,-10.20243 -2.8571,-22.58406 -5.0658,-31.40754 -2.2087,-8.83362 0.8004,-18.8759 -2.0262,-27.35489 l -25.3286,3.03941 c 0,-13.9287 4.1741,-21.47566 11.1445,-33.43378 3.0395,-5.20963 11.7424,-16.87494 10.1315,-23.30235 -0.8712,-3.50548 -5.0455,-7.06676 -7.092,-10.1315 -2.462,-3.68685 -7.4974,-17.62772 -13.1709,-16.2103 -10.395,2.59869 -19.1485,7.79312 -28.3681,13.1709 -5.9977,3.49938 -9.7465,8.10519 -17.2234,8.10519 v -33.43386 c 0,-3.35095 -1.1753,-9.84847 -5.0659,-11.14459 -1.8033,-0.60255 -6.3727,2.46115 -8.1052,3.03941 -6.1598,2.05264 -13.0796,1.9966 -19.2495,4.05259 3.9715,-5.96136 2.0161,-15.21295 0,-21.27607 -2.2494,-6.76188 -6.1297,-16.04328 -12.1579,-20.26289 -9.2096,-6.44987 -30.8604,-6.97508 -42.5522,-4.05258 -16.6864,4.17187 -30.0498,10.74748 -45.5916,17.22347 -6.1192,2.54922 -17.5779,4.40707 -22.2891,9.1183 -1.8034,1.80427 -1.4082,6.64998 -2.0263,9.11835 -1.7527,7.02251 -2.7861,16.37281 -7.092,22.28919 -2.9685,4.08503 -9.2299,4.79321 -13.1709,7.09201 -12.5021,7.29361 -23.8393,17.74016 -37.4864,22.28917 m -764.9249,505.5597 c 9.4475,-4.7233 16.7382,-14.8871 22.2892,-22.2892 -8.9977,-2.9989 -20.9154,14.0483 -22.2892,22.2892 m -60.7888,59.7756 2.0264,-5.0657 c 5.3616,2.6808 9.8882,-4.8833 14.1841,-8.1052 12.7087,-9.5316 31.4124,-24.3317 36.4731,-39.5127 -11.1962,-3.7324 -23.2739,3.2857 -34.4469,6.0789 -4.2876,1.0719 -11.021,1.9027 -14.184,5.0657 -1.8582,1.8582 -2.851,6.7152 -4.0527,9.1184 -4.2784,8.557 -11.9682,26.437 0,32.4206 m 678.8077,17.2235 -1.0131,11.1446 -8.1053,4.0526 -27.3549,9.1183 -1.0132,-1.0131 c 4.9847,-14.9683 23.8393,-18.7523 37.4865,-23.3024 m -73.9597,35.4601 c 0,6.9178 1.3372,10.9217 -6.0789,12.1578 -1.2562,-7.5145 1.0943,-6.2461 4.0526,-12.1578 z"
     id="path837-3-6" />
  <path
     style="fill:#ffd23c;fill-opacity:1;stroke:none;stroke-width:1.01314;filter:url(#filter2673)"
     d="m 2455.0253,948.93192 -2.0263,-12.15777 c -27.132,0 -52.4809,16.54667 -75.9859,26.34177 -43.5753,18.15561 -81.3151,46.84188 -122.5905,70.92028 -15.3795,8.9684 -30.0499,19.3045 -45.5916,28.3681 -7.0415,4.1083 -15.9672,8.0018 -22.2893,13.1709 -6.4233,5.2521 -11.9956,18.0958 -16.2103,25.3286 -1.3779,2.3698 -2.695,7.4618 -5.0656,9.1183 -3.5766,2.5035 -10.8916,1.9635 -15.1972,3.0395 -6.6057,1.6524 -12.5328,5.319 -18.2368,9.1182 -14.3967,9.5966 -28.4895,20.3856 -41.5389,33.4339 -5.8155,5.8144 -10.1922,13.9763 -17.2235,19.2498 -20.3541,15.2671 -44.2137,25.8777 -65.8543,38.4995 -32.0348,18.6864 -63.3034,41.3981 -93.2096,63.8281 -14.9944,11.2459 -30.9536,28.1006 -42.552,43.5653 -4.1924,5.5895 -9.1507,15.2185 -15.1973,19.2498 -15.9639,10.642 -33.5968,18.3592 -49.6441,30.3943 -49.1933,36.8947 -88.6289,87.7476 -137.7877,124.6169 -13.9004,10.4253 -24.7249,24.9265 -37.4864,33.4339 -2.999,1.9989 -9.6958,9.1183 -13.1709,9.1183 -4.3292,0 -5.1832,-6.4315 -6.0789,-9.1183 -2.8215,-8.4658 -6.2774,-16.8071 -9.1183,-25.3287 -16.0847,8.0424 -26.6527,26.3215 -41.5389,37.4864 -29.6499,22.2376 -52.4152,54.7616 -82.0649,76.9991 -7.1862,5.3899 -12.0635,13.8598 -19.2497,19.2498 -33.5898,25.1918 -60.2396,63.052 -91.183,91.1829 -21.2072,19.2803 -51.0281,44.7356 -69.907,69.9072 -11.1801,14.9073 -27.506,25.8676 -38.4996,40.5257 -10.7859,14.3766 -26.7825,26.7775 -39.5127,39.5127 -24.7105,24.7106 -48.2651,49.2794 -72.9463,73.9597 -11.3939,11.3978 -27.5617,23.1097 -36.4733,36.4731 -12.0605,18.0949 -18.8293,40.3234 -27.3549,60.7888 -8.4101,20.1819 -19.4319,40.0598 -26.3418,60.7888 -0.8976,2.6949 1.3871,8.5914 2.0263,11.1446 2.1341,8.5408 1.0132,20.7898 1.0132,29.3812 2.6571,0.4458 6.3078,0.5674 8.1051,3.0393 2.3981,3.303 1.0314,9.1895 2.0263,13.1709 2.1236,8.4902 5.4355,19.1689 2.0263,27.355 -2.3931,5.7446 -9.0454,10.871 -12.1577,16.2104 -2.3789,4.083 -2.0233,9.1082 -4.0526,13.171 -9.0024,18.0035 -22.4847,33.8288 -31.4075,51.6703 l -9.1183,18.2367 c -0.9866,1.9756 -4.4322,5.8255 -4.0526,8.1051 0.3291,1.9757 2.9217,3.3737 4.0526,5.0656 3.3747,5.0659 7.1846,12.4313 9.1183,18.2367 l 4.0526,-1.0131 c 0.8493,5.0962 -1.7212,12.1576 6.0788,12.1576 l 1.0132,12.1579 7.092,-3.0395 c 3.5564,7.1124 10.2701,1.611 12.1577,-4.0526 6.6211,2.2088 8.0501,0.3343 9.1183,-6.0789 5.4741,3.6474 9.2105,-0.547 10.1315,-6.0788 4.7739,2.391 7.6097,-0.5368 9.1183,-5.0657 9.5326,4.7617 27.5758,-5.7243 30.3943,-14.1842 1.2219,-3.6675 -1.1924,-17.2234 6.0789,-17.2234 3.1418,0 2.7325,6.0992 4.0526,7.0921 7.1771,5.3798 19.4281,-11.2053 20.2629,-16.2103 1.6839,0.5572 6.1741,1.2056 7.092,3.0395 1.6059,3.2116 -4.6645,15.8049 -7.092,18.2365 -6.3322,6.3321 -13.41,15.2783 -20.2629,20.2629 -1.7679,1.2868 -5.4852,0.7801 -7.092,2.0263 -4.6017,3.5764 -11.409,11.935 -13.1709,17.2235 -5.4578,-1.8237 -14.0929,-2.857 -18.2366,4.0526 -2.8753,4.7922 -1.1104,11.8333 -9.1183,13.171 -4.7253,0.79 -6.1691,-7.5482 -8.1052,-10.1316 -2.8034,-3.7384 -16.1726,-2.5025 -19.2497,1.0131 -1.118,1.2766 -0.2565,4.5693 -1.0132,6.0789 -1.6901,3.384 -5.197,2.158 -7.092,4.0528 -5.7213,5.7241 -6.6974,14.0116 -9.1183,21.2759 -1.3128,3.9411 -7.5395,9.6148 -1.0131,13.1709 7.9425,4.3362 16.0155,-3.8499 23.3023,-5.0657 -3.7064,5.5622 -9.7302,15.2781 -15.1972,19.2497 -1.4928,1.084 -4.7872,0.7396 -6.0789,2.0263 -2.8283,2.8266 -2.4749,9.716 -5.0657,13.171 -3.4087,4.5489 -8.4819,6.8285 -11.1446,12.1578 -3.9123,7.8213 -2.7071,18.2465 -6.0788,26.3415 -1.9019,4.5694 -5.8811,8.3281 -7.0921,13.1709 -0.9798,3.921 -3.3068,13.3837 -2.0263,17.2236 2.3025,6.9095 7.1267,8.9766 5.0658,17.2235 -3.8045,15.2174 -17.94658,26.4939 -13.17091,45.5916 1.67776,6.7069 1.788,15.4909 4.05258,22.2892 2.33893,7.0211 8.46633,12.4414 9.11833,20.2628 0.147,1.7629 -1.6139,4.4274 -2.0263,6.0789 -1.2612,5.0454 1.4809,15.5923 3.0394,20.2629 2.5727,7.7202 11.9352,13.8599 13.1709,21.2762 0.6282,3.7687 -3.1352,10.5163 -4.0526,14.184 -1.4704,5.8863 1.0132,12.249 1.0132,18.2366 15.0619,-2.5127 28.2084,-15.481 42.5521,-20.263 5.94,-1.9756 11.5994,-1.9047 16.2103,-7.0921 7.3787,-8.2976 4.7871,-23.2617 10.1314,-32.4206 4.855,-8.3178 15.1121,-10.5062 20.2629,-18.2366 4.1803,-6.2713 4.6919,-15.1871 9.1183,-21.2759 4.4994,-6.1905 13.1993,-8.4802 18.2366,-15.1972 38.8927,-51.8529 97.0157,-86.1277 135.7615,-137.7879 18.6662,-24.893 43.01,-45.8651 61.8018,-70.9202 7.6746,-10.2328 16.0098,-27.2335 28.3681,-34.4471 21.3855,-12.4716 43.235,-22.9983 65.8544,-32.4206 10.718,-4.4679 26.8483,-2.705 36.4732,-9.1182 10.4952,-7.0009 17.2731,-18.7837 27.3549,-26.3418 24.431,-18.3277 43.2066,-44.3049 67.8808,-62.8151 38.4509,-28.8341 68.9394,-69.4308 107.3933,-98.275 9.8368,-7.3757 16.5204,-17.9632 26.3419,-25.3287 18.8698,-14.1536 35.4458,-32.1572 54.7098,-46.6048 9.7242,-7.2945 22.3064,-16.2305 30.3944,-25.3286 11.5885,-13.0391 25.4695,-27.2028 40.5259,-38.4994 28.5372,-21.4078 53.266,-48.3069 82.0647,-69.907 76.377,-57.2833 145.4067,-125.0152 221.8789,-182.3662 62.1159,-46.5865 125.3262,-91.2064 187.432,-137.7878 20.7898,-15.5913 45.1964,-30.3346 67.8807,-43.5653 7.0413,-4.1093 15.6938,-7.3584 22.2892,-12.1577 7.4163,-5.3971 13.7382,-12.1963 21.2762,-17.2236 v -1.0131 c -6.4438,1.0729 -12.3301,4.6301 -18.2369,7.092 -13.5051,5.6271 -27.375,9.635 -40.5256,16.2104 -5.0557,2.5278 -10.1922,4.5916 -15.1972,7.092 -1.3373,0.6677 -4.5085,3.5622 -6.0789,3.0394 -7.1732,-2.39 -3.0901,-13.1354 1.0131,-16.2103 11.0839,-8.3108 25.2679,-13.9146 38.4995,-17.2235 16.9803,-4.2451 34.7409,-5.8985 51.6705,-10.1315 12.2286,-3.0556 25.3287,-1.0121 37.4863,-4.0525 9.858,-2.465 19.5235,-6.6534 29.3814,-9.1183 10.5366,-2.6332 22.1675,-1.6494 32.4204,-5.0658 8.4701,-2.8216 21.3876,-8.5955 28.3683,-14.184 1.6412,-1.309 1.246,-3.9898 3.0394,-5.0657 2.8468,-1.7072 7.9836,-0.1814 11.1446,-2.0263 6.2309,-3.6352 7.1326,-12.2419 10.1315,-18.2367 3.1204,-6.248 10.2327,-10.2793 14.184,-16.2103 2.7355,-4.1093 2.9988,-10.3391 6.0789,-14.184 4.5185,-5.6443 16.2812,-7.6483 22.2891,-12.1578 3.1408,-2.3555 10.253,-6.2561 12.1578,-9.1183 1.2056,-1.8155 -0.1925,-4.3038 2.0262,-6.0789 1.9656,-1.5754 5.2887,-0.7882 7.0921,-3.0394 4.853,-6.0657 7.2136,-15.5589 11.1446,-22.2892 1.935,-3.318 6.7779,-8.3929 7.0921,-12.1578 0.7091,-8.5388 -13.3533,-11.1446 -19.2498,-11.1446 l -2.0264,-8.1051 5.0658,-25.3287 -14.1841,-4.0526 -11.1445,-1.0131 -5.0658,-6.0789 c 2.5532,-5.1062 2.5633,-12.5184 8.1052,-16.2103 7.0008,-4.6655 21.185,-6.0566 29.3811,-8.1051 4.2046,-1.0517 10.1315,0.01 10.1315,-5.0658 l 9.1184,1.0132 8.1051,-5.0657 8.1053,4.0525 59.7755,-14.184 c -2.1985,-6.5864 -1.9046,-23.7876 0,-31.4075 0.6078,-2.4224 2.5532,-9.3311 1.0132,-12.1578 -2.4822,-4.5581 -9.3514,-2.9816 -13.1709,-2.0262 -11.2662,2.8175 -23.9407,9.8558 -34.447,8.1051 3.6271,-10.8832 11.6409,-14.5609 22.2893,-17.2235 12.6947,-3.1741 22.1775,4.9705 30.3943,-9.1183 6.626,-11.3563 -1.2158,-30.6132 2.0263,-43.5653 0.8612,-3.4305 2.9077,-13.4444 1.0131,-17.2234 -3.617,-7.2379 -13.1505,-5.5318 -16.2103,-11.1446 -0.8712,-1.6059 0,-6.2268 0,-8.1051 0,-7.7192 0.1823,-17.9621 2.0263,-25.3287 2.5531,-10.2024 -2.8571,-22.5841 -5.0658,-31.4075 -2.2087,-8.8337 0.8004,-18.8759 -2.0262,-27.3549 l -25.3286,3.0394 c 0,-13.92877 4.1741,-21.47577 11.1445,-33.43388 3.0395,-5.2096 11.7424,-16.8749 10.1315,-23.3023 -0.8712,-3.5056 -5.0455,-7.06683 -7.092,-10.13157 -2.462,-3.68685 -7.4974,-17.62772 -13.1709,-16.2103 -10.395,2.59869 -19.1485,7.79312 -28.3681,13.1709 -5.9977,3.49938 -9.7465,8.10519 -17.2234,8.10519 v -33.43386 c 0,-3.35095 -1.1753,-9.84847 -5.0659,-11.14459 -1.8033,-0.60255 -6.3727,2.46115 -8.1052,3.03941 -6.1598,2.05264 -13.0796,1.9966 -19.2495,4.05259 3.9715,-5.96136 2.0161,-15.21295 0,-21.27607 -2.2494,-6.76188 -6.1297,-16.04328 -12.1579,-20.26289 -9.2096,-6.44987 -30.8604,-6.97508 -42.5522,-4.05258 -16.6864,4.17187 -30.0498,10.74748 -45.5916,17.22347 -6.1192,2.54922 -17.5779,4.40707 -22.2891,9.1183 -1.8034,1.80427 -1.4082,6.64998 -2.0263,9.11835 -1.7527,7.02251 -2.7861,16.37281 -7.092,22.28919 -2.9685,4.08503 -9.2299,4.79321 -13.1709,7.09201 -12.5021,7.29361 -23.8393,17.74016 -37.4864,22.28925 m -764.9249,505.55968 c 9.4475,-4.7233 16.7382,-14.8871 22.2892,-22.2892 -8.9977,-2.9989 -20.9154,14.0483 -22.2892,22.2892 m -60.7888,59.7756 2.0264,-5.0657 c 5.3616,2.6808 9.8882,-4.8833 14.1841,-8.1052 12.7087,-9.5316 31.4124,-24.3317 36.4731,-39.5127 -11.1962,-3.7324 -23.2739,3.2857 -34.4469,6.0789 -4.2876,1.0719 -11.021,1.9027 -14.184,5.0657 -1.8582,1.8582 -2.851,6.7152 -4.0527,9.1184 -4.2784,8.557 -11.9682,26.437 0,32.4206 m 678.8077,17.2235 -1.0131,11.1446 -8.1053,4.0526 -27.3549,9.1183 -1.0132,-1.0131 c 4.9847,-14.9683 23.8393,-18.7523 37.4865,-23.3024 m -73.9597,35.4601 c 0,6.9178 1.3372,10.9217 -6.0789,12.1578 -1.2562,-7.5145 1.0943,-6.2461 4.0526,-12.1578 z"
     id="path837-3-6-7" />
  <path
     style="fill:#8c1464;fill-opacity:1;stroke:none;stroke-width:1.01314;filter:url(#filter2669)"
     d="m 2664.6159,1202.8221 -2.0263,-12.1578 c -27.132,0 -52.4809,16.5467 -75.9859,26.3418 -43.5753,18.1556 -81.3151,46.8419 -122.5905,70.9203 -15.3795,8.9684 -30.0499,19.3045 -45.5916,28.3681 -7.0415,4.1083 -15.9672,8.0018 -22.2893,13.1709 -6.4233,5.2521 -11.9956,18.0958 -16.2103,25.3286 -1.3779,2.3698 -2.695,7.4618 -5.0656,9.1183 -3.5766,2.5035 -10.8916,1.9635 -15.1972,3.0395 -6.6057,1.6524 -12.5328,5.319 -18.2368,9.1182 -14.3967,9.5966 -28.4895,20.3856 -41.5389,33.4339 -5.8155,5.8144 -10.1922,13.9763 -17.2235,19.2498 -20.3541,15.2671 -44.2137,25.8777 -65.8543,38.4995 -32.0348,18.6864 -63.3034,41.3981 -93.2096,63.8281 -14.9944,11.2459 -30.9536,28.1006 -42.552,43.5653 -4.1924,5.5895 -9.1507,15.2185 -15.1973,19.2498 -15.9639,10.642 -33.5968,18.3592 -49.6441,30.3943 -49.1933,36.8947 -88.6289,87.7476 -137.7877,124.6169 -13.9004,10.4253 -24.7249,24.9265 -37.4864,33.4339 -2.999,1.9989 -9.6958,9.1183 -13.1709,9.1183 -4.3292,0 -5.1832,-6.4315 -6.0789,-9.1183 -2.8215,-8.4658 -6.2774,-16.8071 -9.1183,-25.3287 -16.0847,8.0424 -26.6527,26.3215 -41.5389,37.4864 -29.6499,22.2376 -52.4152,54.7616 -82.0649,76.9991 -7.1862,5.3899 -12.0635,13.8598 -19.2497,19.2498 -33.5898,25.1918 -60.2396,63.052 -91.183,91.1829 -21.2072,19.2803 -51.0281,44.7356 -69.907,69.9072 -11.1801,14.9073 -27.506,25.8676 -38.4996,40.5257 -10.7859,14.3766 -26.7825,26.7775 -39.5127,39.5127 -24.7105,24.7106 -48.2651,49.2794 -72.9463,73.9597 -11.3939,11.3978 -27.5617,23.1097 -36.4733,36.4731 -12.0605,18.0949 -18.8293,40.3234 -27.3549,60.7888 -8.4101,20.1819 -19.4319,40.0598 -26.3418,60.7888 -0.8976,2.6949 1.3871,8.5914 2.0263,11.1446 2.1341,8.5408 1.0132,20.7898 1.0132,29.3812 2.6571,0.4458 6.3078,0.5674 8.1051,3.0393 2.3981,3.303 1.0314,9.1895 2.0263,13.1709 2.1236,8.4902 5.4355,19.1689 2.0263,27.355 -2.3931,5.7446 -9.0454,10.871 -12.1577,16.2104 -2.3789,4.083 -2.0233,9.1082 -4.0526,13.171 -9.0024,18.0035 -22.4847,33.8288 -31.4075,51.6703 l -9.1183,18.2367 c -0.9866,1.9756 -4.4322,5.8255 -4.0526,8.1051 0.3291,1.9757 2.9217,3.3737 4.0526,5.0656 3.3747,5.0659 7.1846,12.4313 9.1183,18.2367 l 4.0526,-1.0131 c 0.8493,5.0962 -1.7212,12.1576 6.0788,12.1576 l 1.0132,12.1579 7.092,-3.0395 c 3.5564,7.1124 10.2701,1.611 12.1577,-4.0526 6.6211,2.2088 8.0501,0.3343 9.1183,-6.0789 5.4741,3.6474 9.2105,-0.547 10.1315,-6.0788 4.7739,2.391 7.6097,-0.5368 9.1183,-5.0657 9.5326,4.7617 27.5758,-5.7243 30.3943,-14.1842 1.2219,-3.6675 -1.1924,-17.2234 6.0789,-17.2234 3.1418,0 2.7325,6.0992 4.0526,7.0921 7.1771,5.3798 19.4281,-11.2053 20.2629,-16.2103 1.6839,0.5572 6.1741,1.2056 7.092,3.0395 1.6059,3.2116 -4.6645,15.8049 -7.092,18.2365 -6.3322,6.3321 -13.41,15.2783 -20.2629,20.2629 -1.7679,1.2868 -5.4852,0.7801 -7.092,2.0263 -4.6017,3.5764 -11.409,11.935 -13.1709,17.2235 -5.4578,-1.8237 -14.0929,-2.857 -18.2366,4.0526 -2.8753,4.7922 -1.1104,11.8333 -9.1183,13.171 -4.7253,0.79 -6.1691,-7.5482 -8.1052,-10.1316 -2.8034,-3.7384 -16.1726,-2.5025 -19.2497,1.0131 -1.118,1.2766 -0.2565,4.5693 -1.0132,6.0789 -1.6901,3.384 -5.197,2.158 -7.092,4.0528 -5.7213,5.7241 -6.6974,14.0116 -9.1183,21.2759 -1.3128,3.9411 -7.5395,9.6148 -1.0131,13.1709 7.9425,4.3362 16.0155,-3.8499 23.3023,-5.0657 -3.7064,5.5622 -9.7302,15.2781 -15.1972,19.2497 -1.4928,1.084 -4.7872,0.7396 -6.0789,2.0263 -2.8283,2.8266 -2.4749,9.716 -5.0657,13.171 -3.4087,4.5489 -8.4819,6.8285 -11.1446,12.1578 -3.9123,7.8213 -2.7071,18.2465 -6.0788,26.3415 -1.9019,4.5694 -5.8811,8.3281 -7.0921,13.1709 -0.9798,3.921 -3.3068,13.3837 -2.0263,17.2236 2.3025,6.9095 7.1267,8.9766 5.0658,17.2235 -3.8045,15.2174 -17.9465,26.4939 -13.1709,45.5916 1.6778,6.7069 1.788,15.4909 4.0526,22.2892 2.3389,7.0211 8.4663,12.4414 9.1183,20.2628 0.147,1.7629 -1.6139,4.4274 -2.0263,6.0789 -1.2612,5.0454 1.4809,15.5923 3.0394,20.2629 2.5727,7.7202 11.9352,13.8599 13.1709,21.2762 0.6282,3.7687 -3.1352,10.5163 -4.0526,14.184 -1.4704,5.8863 1.0132,12.249 1.0132,18.2366 15.0619,-2.5127 28.2084,-15.481 42.5521,-20.263 5.94,-1.9756 11.5994,-1.9047 16.2103,-7.0921 7.3787,-8.2976 4.7871,-23.2617 10.1314,-32.4206 4.855,-8.3178 15.1121,-10.5062 20.2629,-18.2366 4.1803,-6.2713 4.6919,-15.1871 9.1183,-21.2759 4.4994,-6.1905 13.1993,-8.4802 18.2366,-15.1972 38.8927,-51.8529 97.0157,-86.1277 135.7615,-137.7879 18.6662,-24.893 43.01,-45.8651 61.8018,-70.9202 7.6746,-10.2328 16.0098,-27.2335 28.3681,-34.4471 21.3855,-12.4716 43.235,-22.9983 65.8544,-32.4206 10.718,-4.4679 26.8483,-2.705 36.4732,-9.1182 10.4952,-7.0009 17.2731,-18.7837 27.3549,-26.3418 24.431,-18.3277 43.2066,-44.3049 67.8808,-62.8151 38.4509,-28.8341 68.9394,-69.4308 107.3933,-98.275 9.8368,-7.3757 16.5204,-17.9632 26.3419,-25.3287 18.8698,-14.1536 35.4458,-32.1572 54.7098,-46.6048 9.7242,-7.2945 22.3064,-16.2305 30.3944,-25.3286 11.5885,-13.0391 25.4695,-27.2028 40.5259,-38.4994 28.5372,-21.4078 53.266,-48.3069 82.0647,-69.907 76.377,-57.2833 145.4067,-125.0152 221.8789,-182.3662 62.1159,-46.5865 125.3262,-91.2064 187.432,-137.7878 20.7898,-15.5913 45.1964,-30.3346 67.8807,-43.5653 7.0413,-4.1093 15.6938,-7.3584 22.2892,-12.1577 7.4163,-5.3971 13.7382,-12.1963 21.2762,-17.2236 v -1.0131 c -6.4438,1.0729 -12.3301,4.6301 -18.2369,7.092 -13.5051,5.6271 -27.375,9.635 -40.5256,16.2104 -5.0557,2.5278 -10.1922,4.5916 -15.1972,7.092 -1.3373,0.6677 -4.5085,3.5622 -6.0789,3.0394 -7.1732,-2.39 -3.0901,-13.1354 1.0131,-16.2103 11.0839,-8.3108 25.2679,-13.9146 38.4995,-17.2235 16.9803,-4.2451 34.7409,-5.8985 51.6705,-10.1315 12.2286,-3.0556 25.3287,-1.0121 37.4863,-4.0525 9.858,-2.465 19.5235,-6.6534 29.3814,-9.1183 10.5366,-2.6332 22.1675,-1.6494 32.4204,-5.0658 8.4701,-2.8216 21.3876,-8.5955 28.3683,-14.184 1.6412,-1.309 1.246,-3.9898 3.0394,-5.0657 2.8468,-1.7072 7.9836,-0.1814 11.1446,-2.0263 6.2309,-3.6352 7.1326,-12.2419 10.1315,-18.2367 3.1204,-6.248 10.2327,-10.2793 14.184,-16.2103 2.7355,-4.1093 2.9988,-10.3391 6.0789,-14.184 4.5185,-5.6443 16.2812,-7.6483 22.2891,-12.1578 3.1408,-2.3555 10.253,-6.2561 12.1578,-9.1183 1.2056,-1.8155 -0.1925,-4.3038 2.0262,-6.0789 1.9656,-1.5754 5.2887,-0.7882 7.0921,-3.0394 4.853,-6.0657 7.2136,-15.5589 11.1446,-22.2892 1.935,-3.318 6.7779,-8.3929 7.0921,-12.1578 0.7091,-8.5388 -13.3533,-11.1446 -19.2498,-11.1446 l -2.0264,-8.1051 5.0658,-25.3287 -14.1841,-4.0526 -11.1445,-1.0131 -5.0658,-6.0789 c 2.5532,-5.1062 2.5633,-12.5184 8.1052,-16.2103 7.0008,-4.6655 21.185,-6.0566 29.3811,-8.1051 4.2046,-1.0517 10.1315,0.01 10.1315,-5.0658 l 9.1184,1.0132 8.1051,-5.0657 8.1053,4.0525 59.7755,-14.184 c -2.1985,-6.5864 -1.9046,-23.7876 0,-31.4075 0.6078,-2.4224 2.5532,-9.3311 1.0132,-12.1578 -2.4822,-4.5581 -9.3514,-2.9816 -13.1709,-2.0262 -11.2662,2.8175 -23.9407,9.8558 -34.447,8.1051 3.6271,-10.8832 11.6409,-14.5609 22.2893,-17.2235 12.6947,-3.1741 22.1775,4.9705 30.3943,-9.1183 6.626,-11.3563 -1.2158,-30.6132 2.0263,-43.5653 0.8612,-3.4305 2.9077,-13.4444 1.0131,-17.2234 -3.617,-7.2379 -13.1505,-5.5318 -16.2103,-11.1446 -0.8712,-1.6059 0,-6.2268 0,-8.1051 0,-7.7192 0.1823,-17.9621 2.0263,-25.3287 2.5531,-10.2024 -2.8571,-22.5841 -5.0658,-31.4075 -2.2087,-8.8337 0.8004,-18.8759 -2.0262,-27.3549 l -25.3286,3.0394 c 0,-13.9288 4.1741,-21.4758 11.1445,-33.4339 3.0395,-5.2096 11.7424,-16.8749 10.1315,-23.3023 -0.8712,-3.5056 -5.0455,-7.0668 -7.092,-10.1316 -2.462,-3.6868 -7.4974,-17.6277 -13.1709,-16.2103 -10.395,2.5987 -19.1485,7.7932 -28.3681,13.1709 -5.9977,3.4994 -9.7465,8.1052 -17.2234,8.1052 v -33.4338 c 0,-3.351 -1.1753,-9.8485 -5.0659,-11.1446 -1.8033,-0.6026 -6.3727,2.4611 -8.1052,3.0394 -6.1598,2.0526 -13.0796,1.9966 -19.2495,4.0526 3.9715,-5.9614 2.0161,-15.213 0,-21.2761 -2.2494,-6.7619 -6.1297,-16.0433 -12.1579,-20.2629 -9.2096,-6.4499 -30.8604,-6.9751 -42.5522,-4.0526 -16.6864,4.1719 -30.0498,10.7475 -45.5916,17.2235 -6.1192,2.5492 -17.5779,4.4071 -22.2891,9.1183 -1.8034,1.8043 -1.4082,6.65 -2.0263,9.1184 -1.7527,7.0225 -2.7861,16.3728 -7.092,22.2891 -2.9685,4.0851 -9.2299,4.7933 -13.1709,7.0921 -12.5021,7.2936 -23.8393,17.7401 -37.4864,22.2892 m -764.9249,505.5597 c 9.4475,-4.7233 16.7382,-14.8871 22.2892,-22.2892 -8.9977,-2.9989 -20.9154,14.0483 -22.2892,22.2892 m -60.7888,59.7756 2.0264,-5.0657 c 5.3616,2.6808 9.8882,-4.8833 14.1841,-8.1052 12.7087,-9.5316 31.4124,-24.3317 36.4731,-39.5127 -11.1962,-3.7324 -23.2739,3.2857 -34.4469,6.0789 -4.2876,1.0719 -11.021,1.9027 -14.184,5.0657 -1.8582,1.8582 -2.851,6.7152 -4.0527,9.1184 -4.2784,8.557 -11.9682,26.437 0,32.4206 m 678.8077,17.2235 -1.0131,11.1446 -8.1053,4.0526 -27.3549,9.1183 -1.0132,-1.0131 c 4.9847,-14.9683 23.8393,-18.7523 37.4865,-23.3024 m -73.9597,35.4601 c 0,6.9178 1.3372,10.9217 -6.0789,12.1578 -1.2562,-7.5145 1.0943,-6.2461 4.0526,-12.1578 z"
     id="path837-3-6-7-5" />
</svg>
