<?xml version="1.0" encoding="UTF-8" standalone="no"?>
<svg
   width="395.24075pt"
   height="557.79999pt"
   version="1.1"
   id="svg4"
   sodipodi:docname="front_cover.svg"
   inkscape:version="1.1.1 (3bf5ae0d25, 2021-09-20)"
   xmlns:inkscape="http://www.inkscape.org/namespaces/inkscape"
   xmlns:sodipodi="http://sodipodi.sourceforge.net/DTD/sodipodi-0.dtd"
   xmlns="http://www.w3.org/2000/svg"
   xmlns:svg="http://www.w3.org/2000/svg">
  <defs
     id="defs8">
    <filter
       inkscape:collect="always"
       style="color-interpolation-filters:sRGB"
       id="filter2669"
       x="-0.00012175115"
       y="-0.00011829851"
       width="1.0002435"
       height="1.0002366">
      <feGaussianBlur
         inkscape:collect="always"
         stdDeviation="0.089724453"
         id="feGaussianBlur2671" />
    </filter>
    <filter
       inkscape:collect="always"
       style="color-interpolation-filters:sRGB"
       id="filter2673"
       x="-0.00012175115"
       y="-0.00011829851"
       width="1.0002435"
       height="1.0002366">
      <feGaussianBlur
         inkscape:collect="always"
         stdDeviation="0.089724452"
         id="feGaussianBlur2675" />
    </filter>
    <filter
       inkscape:collect="always"
       style="color-interpolation-filters:sRGB"
       id="filter2677"
       x="-0.00012175114"
       y="-0.00011829852"
       width="1.0002435"
       height="1.0002366">
      <feGaussianBlur
         inkscape:collect="always"
         stdDeviation="0.089724452"
         id="feGaussianBlur2679" />
    </filter>
    <filter
       inkscape:collect="always"
       style="color-interpolation-filters:sRGB"
       id="filter2681"
       x="-0.00012175114"
       y="-0.00011829852"
       width="1.0002435"
       height="1.0002366">
      <feGaussianBlur
         inkscape:collect="always"
         stdDeviation="0.089724453"
         id="feGaussianBlur2683" />
    </filter>
    <filter
       inkscape:collect="always"
       style="color-interpolation-filters:sRGB"
       id="filter2685"
       x="-0.00012175114"
       y="-0.00011829853"
       width="1.0002435"
       height="1.0002366">
      <feGaussianBlur
         inkscape:collect="always"
         stdDeviation="0.089724457"
         id="feGaussianBlur2687" />
    </filter>
    <filter
       inkscape:collect="always"
       style="color-interpolation-filters:sRGB"
       id="filter2689"
       x="-0.00012093915"
       y="-0.00011907531"
       width="1.0002419"
       height="1.0002382">
      <feGaussianBlur
         inkscape:collect="always"
         stdDeviation="0.13395973"
         id="feGaussianBlur2691" />
    </filter>
    <filter
       inkscape:collect="always"
       style="color-interpolation-filters:sRGB"
       id="filter996"
       x="-6.3482437e-05"
       y="-0.0010937579"
       width="1.000127"
       height="1.0021875">
      <feGaussianBlur
         inkscape:collect="always"
         stdDeviation="0.07155"
         id="feGaussianBlur998" />
    </filter>
    <filter
       inkscape:collect="always"
       style="color-interpolation-filters:sRGB"
       id="filter1000"
       x="-6.0141176e-05"
       y="-0.02556"
       width="1.0001203"
       height="1.05112">
      <feGaussianBlur
         inkscape:collect="always"
         stdDeviation="0.15975"
         id="feGaussianBlur1002" />
    </filter>
    <filter
       inkscape:collect="always"
       style="color-interpolation-filters:sRGB"
       id="filter1012"
       x="-6.0994146e-05"
       y="-0.003681207"
       width="1.000122"
       height="1.0073624">
      <feGaussianBlur
         inkscape:collect="always"
         stdDeviation="0.177925"
         id="feGaussianBlur1014" />
    </filter>
  </defs>
  <sodipodi:namedview
     id="namedview6"
     pagecolor="#ffffff"
     bordercolor="#666666"
     borderopacity="1.0"
     inkscape:pageshadow="2"
     inkscape:pageopacity="0.0"
     inkscape:pagecheckerboard="0"
     showgrid="false"
     inkscape:zoom="1.0132186"
     inkscape:cx="292.63183"
     inkscape:cy="432.28581"
     inkscape:window-width="1875"
     inkscape:window-height="1165"
     inkscape:window-x="1237"
     inkscape:window-y="724"
     inkscape:window-maximized="0"
     inkscape:current-layer="g1263"
     showguides="false"
     viewbox-width="3000"
     inkscape:document-units="pt"
     units="pt"
     fit-margin-top="0"
     fit-margin-left="0"
     fit-margin-right="0"
     fit-margin-bottom="0"
     width="395.24075pt"
     height="557.8pt" />
  <g
     id="g935"
     transform="matrix(1.0165597,0,0,0.99999848,222.1388,1175.8255)">
    <path
       style="fill:#142878;fill-opacity:1;stroke:none;stroke-width:0.991347;filter:url(#filter2689)"
       d="M 238.2457,291.01178 V 2991.0118 H 2896.6349 V 291.01178 Z"
       id="path2-5"
       sodipodi:nodetypes="ccccc"
       transform="matrix(0.0763,0,0,0.0763,37.57738,-766.1202)" />
    <path
       style="fill:#008228;fill-opacity:1;stroke:none;stroke-width:1.01314;filter:url(#filter2685)"
       d="m 1805.3517,161.16742 -2.0263,-12.15769 c -27.132,0 -52.4809,16.54664 -75.9859,26.34177 -43.5753,18.1556 -81.3151,46.84177 -122.5905,70.92022 -15.3795,8.96834 -30.0499,19.30443 -45.5916,28.36806 -7.0415,4.10832 -15.9672,8.00181 -22.2893,13.1709 -6.4233,5.2521 -11.9956,18.09577 -16.2103,25.32865 -1.3779,2.36973 -2.695,7.46178 -5.0656,9.1183 -3.5766,2.50346 -10.8916,1.9635 -15.1972,3.03942 -6.6057,1.65247 -12.5328,5.31901 -18.2368,9.11827 -14.3967,9.59655 -28.4895,20.38552 -41.5389,33.43386 -5.8155,5.81443 -10.1922,13.97634 -17.2235,19.24976 -20.3541,15.2671 -44.2137,25.87776 -65.8543,38.49953 -32.0348,18.68646 -63.3034,41.39814 -93.2096,63.82817 -14.9944,11.24592 -30.9536,28.10061 -42.552,43.56527 -4.1924,5.58952 -9.1507,15.21845 -15.1973,19.24976 -15.9639,10.64208 -33.5968,18.35922 -49.6441,30.39437 -49.1933,36.89471 -88.6289,87.74752 -137.7877,124.61691 -13.9004,10.42527 -24.72493,24.92643 -37.48643,33.43381 -2.999,1.99893 -9.6958,9.1183 -13.1709,9.1183 -4.3292,0 -5.1832,-6.43144 -6.0789,-9.1183 -2.8215,-8.46584 -6.2774,-16.80709 -9.11826,-25.32864 -16.08478,8.04234 -26.65271,26.32151 -41.53894,37.48639 -29.64976,22.23754 -52.41506,54.76152 -82.0648,76.99907 -7.1862,5.38992 -12.06353,13.85983 -19.24974,19.24975 -33.58981,25.19187 -60.23963,63.05207 -91.1831,91.183 -21.20717,19.28026 -51.0281,44.73557 -69.90704,69.90717 -11.18008,14.9073 -27.50591,25.8676 -38.49955,40.5257 -10.78594,14.3766 -26.78251,26.7775 -39.51267,39.5127 -24.71062,24.7106 -48.26524,49.2794 -72.94648,73.9597 -11.39385,11.3978 -27.56162,23.1097 -36.47325,36.4731 -12.06048,18.0949 -18.82931,40.3234 -27.35494,60.7888 -8.41011,20.1819 -19.43193,40.0598 -26.34178,60.7888 -0.89765,2.6949 1.38709,8.5914 2.02629,11.1446 2.1341,8.5408 1.01315,20.7898 1.01315,29.3812 2.65717,0.4458 6.30785,0.5674 8.10517,3.0393 2.39812,3.303 1.03138,9.1895 2.02629,13.1709 2.12355,8.4902 5.43552,19.1689 2.02629,27.355 -2.39305,5.7446 -9.04536,10.871 -12.15775,16.2104 -2.37887,4.083 -2.02326,9.1082 -4.05258,13.171 -9.00241,18.0035 -22.48474,33.8288 -31.40751,51.6703 l -9.11832,18.2367 c -0.9866,1.9756 -4.43221,5.8255 -4.05258,8.1051 0.32907,1.9757 2.92171,3.3737 4.05258,5.0656 3.37469,5.0659 7.18461,12.4313 9.11832,18.2367 l 4.05257,-1.0131 c 0.84931,5.0962 -1.72113,12.1576 6.07887,12.1576 l 1.01315,12.1579 7.09202,-3.0395 c 3.55635,7.1124 10.27006,1.611 12.15774,-4.0526 6.62102,2.2088 8.05006,0.3343 9.11831,-6.0789 5.47404,3.6474 9.21052,-0.547 10.13146,-6.0788 4.77395,2.391 7.60974,-0.5368 9.11831,-5.0657 9.53268,4.7617 27.5758,-5.7243 30.39437,-14.1842 1.22186,-3.6675 -1.19245,-17.2234 6.07888,-17.2234 3.14177,0 2.73245,6.0992 4.05258,7.0921 7.17712,5.3798 19.42809,-11.2053 20.26291,-16.2103 1.68385,0.5572 6.17411,1.2056 7.09202,3.0395 1.60584,3.2116 -4.66453,15.8049 -7.09202,18.2365 -6.33216,6.3321 -13.40999,15.2783 -20.26291,20.2629 -1.76794,1.2868 -5.48517,0.7801 -7.09202,2.0263 -4.6017,3.5764 -11.40902,11.935 -13.17089,17.2235 -5.45781,-1.8237 -14.09284,-2.857 -18.23661,4.0526 -2.87532,4.7922 -1.11042,11.8333 -9.11831,13.171 -4.72533,0.79 -6.16906,-7.5482 -8.10517,-10.1316 -2.8034,-3.7384 -16.17265,-2.5025 -19.24979,1.0131 -1.11798,1.2766 -0.25642,4.5693 -1.01313,6.0789 -1.69013,3.384 -5.19703,2.158 -7.09202,4.0528 -5.72133,5.7241 -6.6974,14.0116 -9.11832,21.2759 -1.31282,3.9411 -7.53952,9.6148 -1.01314,13.1709 7.94256,4.3362 16.01551,-3.8499 23.30236,-5.0657 -3.7064,5.5622 -9.73026,15.2781 -15.19719,19.2497 -1.49278,1.084 -4.78721,0.7396 -6.07888,2.0263 -2.82839,2.8266 -2.4749,9.716 -5.06572,13.171 -3.40872,4.5489 -8.48196,6.8285 -11.1446,12.1578 -3.91237,7.8213 -2.70712,18.2465 -6.07887,26.3415 -1.9019,4.5694 -5.88102,8.3281 -7.09203,13.1709 -0.97982,3.921 -3.30681,13.3837 -2.02629,17.2236 2.30248,6.9095 7.12667,8.9766 5.06573,17.2235 -3.80446,15.2174 -17.94656,26.4939 -13.17089,45.5916 1.67776,6.7069 1.788,15.4909 4.05258,22.2892 2.33894,7.0211 8.46635,12.4414 9.11831,20.2628 0.147,1.7629 -1.61384,4.4274 -2.0263,6.0789 -1.26116,5.0454 1.48092,15.5923 3.03944,20.2629 2.57269,7.7202 11.93516,13.8599 13.17089,21.2762 0.62816,3.7687 -3.13516,10.5163 -4.05257,14.184 -1.47039,5.8863 1.01313,12.249 1.01313,18.2366 15.06195,-2.5127 28.20843,-15.481 42.55213,-20.263 5.94006,-1.9756 11.5995,-1.9047 16.21034,-7.0921 7.37873,-8.2976 4.78711,-23.2617 10.13143,-32.4206 4.855,-8.3178 15.11209,-10.5062 20.26293,-18.2366 4.18024,-6.2713 4.69187,-15.1871 9.1183,-21.2759 4.49939,-6.1905 13.19926,-8.4802 18.23662,-15.1972 38.89264,-51.8529 97.0158,-86.1277 135.76152,-137.7879 18.6662,-24.893 43.01006,-45.8651 61.80188,-70.9202 7.67458,-10.2328 16.00973,-27.2335 28.36807,-34.4471 21.38549,-12.4716 43.235,-22.9983 65.85452,-32.4206 10.71801,-4.4679 26.84833,-2.705 36.4732,-9.1182 10.49519,-7.0009 17.27311,-18.7837 27.35491,-26.3418 24.43098,-18.3277 43.20657,-44.3049 67.88069,-62.8151 38.45092,-28.8341 68.9394,-69.4308 107.39333,-98.275 9.8368,-7.3757 16.5204,-17.9632 26.3419,-25.3287 18.8698,-14.1536 35.4458,-32.1572 54.7098,-46.6048 9.7242,-7.2945 22.3064,-16.2305 30.3944,-25.3286 11.5885,-13.0391 25.4695,-27.2028 40.5259,-38.4994 28.5372,-21.4078 53.266,-48.3069 82.0647,-69.907 76.377,-57.2833 145.4067,-125.01522 221.8789,-182.36626 62.1159,-46.58646 125.3262,-91.20641 187.432,-137.7878 20.7898,-15.5913 45.1964,-30.33459 67.8807,-43.56528 7.0413,-4.10931 15.6938,-7.35847 22.2892,-12.15772 7.4163,-5.39704 13.7382,-12.19626 21.2762,-17.22349 v -1.01315 c -6.4438,1.07292 -12.3301,4.63008 -18.2369,7.09203 -13.5051,5.62701 -27.375,9.635 -40.5256,16.21033 -5.0557,2.52781 -10.1922,4.59156 -15.1972,7.092 -1.3373,0.66768 -4.5085,3.56224 -6.0789,3.03945 -7.1732,-2.39002 -3.0901,-13.13543 1.0131,-16.21034 11.0839,-8.3108 25.2679,-13.91453 38.4995,-17.22347 16.9803,-4.24507 34.7409,-5.89852 51.6705,-10.13145 12.2286,-3.05565 25.3287,-1.01214 37.4863,-4.05259 9.858,-2.46497 19.5235,-6.65333 29.3814,-9.1183 10.5366,-2.63317 22.1675,-1.6494 32.4204,-5.06573 8.4701,-2.82161 21.3876,-8.59552 28.3683,-14.18403 1.6412,-1.309 1.246,-3.98979 3.0394,-5.06573 2.8468,-1.70715 7.9836,-0.18136 11.1446,-2.0263 6.2309,-3.63517 7.1326,-12.24183 10.1315,-18.23662 3.1204,-6.24807 10.2327,-10.27938 14.184,-16.21033 2.7355,-4.10932 2.9988,-10.33915 6.0789,-14.18404 4.5185,-5.64423 16.2812,-7.64823 22.2891,-12.15775 3.1408,-2.35556 10.253,-6.25617 12.1578,-9.11831 1.2056,-1.81556 -0.1925,-4.30385 2.0262,-6.07887 1.9656,-1.57544 5.2887,-0.78822 7.0921,-3.03944 4.853,-6.0657 7.2136,-15.55888 11.1446,-22.2892 1.935,-3.31805 6.7779,-8.39289 7.0921,-12.15776 0.7091,-8.53878 -13.3533,-11.14459 -19.2498,-11.14459 l -2.0264,-8.10515 5.0658,-25.32865 -14.1841,-4.05259 -11.1445,-1.01314 -5.0658,-6.07888 c 2.5532,-5.10624 2.5633,-12.51842 8.1052,-16.21033 7.0008,-4.66553 21.185,-6.05659 29.3811,-8.10516 4.2046,-1.05164 10.1315,0.01 10.1315,-5.06573 l 9.1184,1.01315 8.1051,-5.06574 8.1053,4.05259 59.7755,-14.18405 c -2.1985,-6.58644 -1.9046,-23.78763 0,-31.40751 0.6078,-2.42242 2.5532,-9.33108 1.0132,-12.15775 -2.4822,-4.55813 -9.3514,-2.98168 -13.1709,-2.02628 -11.2662,2.81756 -23.9407,9.85588 -34.447,8.10515 3.6271,-10.88319 11.6409,-14.56091 22.2893,-17.22347 12.6947,-3.17417 22.1775,4.97049 30.3943,-9.11832 6.626,-11.35633 -1.2158,-30.61323 2.0263,-43.56527 0.8612,-3.4305 2.9077,-13.44445 1.0131,-17.22348 -3.617,-7.23791 -13.1505,-5.53176 -16.2103,-11.14459 -0.8712,-1.60583 0,-6.22678 0,-8.10512 0,-7.71918 0.1823,-17.9621 2.0263,-25.32866 2.5531,-10.20243 -2.8571,-22.58406 -5.0658,-31.40754 -2.2087,-8.83362 0.8004,-18.8759 -2.0262,-27.35489 l -25.3286,3.03941 c 0,-13.9287 4.1741,-21.47566 11.1445,-33.43378 3.0395,-5.20963 11.7424,-16.87494 10.1315,-23.30235 -0.8712,-3.50548 -5.0455,-7.06676 -7.092,-10.1315 -2.462,-3.68685 -7.4974,-17.62772 -13.1709,-16.2103 -10.395,2.59869 -19.1485,7.79312 -28.3681,13.1709 -5.9977,3.49938 -9.7465,8.10519 -17.2234,8.10519 v -33.43386 c 0,-3.35095 -1.1753,-9.84847 -5.0659,-11.14459 -1.8033,-0.60255 -6.3727,2.46115 -8.1052,3.03941 -6.1598,2.05264 -13.0796,1.9966 -19.2495,4.05259 3.9715,-5.96136 2.0161,-15.21295 0,-21.276072 -2.2494,-6.76188 -6.1297,-16.043283 -12.1579,-20.262888 -9.2096,-6.449871 -30.8604,-6.975082 -42.5522,-4.052585 -16.6864,4.17187 -30.0498,10.747479 -45.5916,17.223473 -6.1192,2.54922 -17.5779,4.40707 -22.2891,9.118302 -1.8034,1.80427 -1.4082,6.64998 -2.0263,9.11835 -1.7527,7.02251 -2.7861,16.37281 -7.092,22.28919 -2.9685,4.08503 -9.2299,4.79321 -13.1709,7.09201 -12.5021,7.29361 -23.8393,17.74016 -37.4864,22.28917 m -764.9249,505.55971 c 9.4475,-4.72329 16.7382,-14.88715 22.2892,-22.28921 -8.9977,-2.99891 -20.9154,14.04828 -22.2892,22.28921 m -60.78883,59.77559 2.0264,-5.06574 c 5.3616,2.6808 9.8882,-4.88334 14.1841,-8.10515 12.70873,-9.53167 31.41243,-24.33171 36.47313,-39.51269 -11.1962,-3.73242 -23.2739,3.28564 -34.44693,6.07887 -4.2876,1.07191 -11.021,1.9027 -14.184,5.06574 -1.8582,1.85811 -2.851,6.71512 -4.0527,9.11831 -4.2784,8.55703 -11.9682,26.43702 0,32.42066 m 678.80773,17.22348 -1.0131,11.14459 -8.1053,4.05259 -27.3549,9.1183 -1.0132,-1.01314 c 4.9847,-14.96822 23.8393,-18.7523 37.4865,-23.30234 m -73.9597,35.46009 c 0,6.91776 1.3372,10.92171 -6.0789,12.15774 -1.2562,-7.5145 1.0943,-6.24603 4.0526,-12.15774 z"
       id="path837"
       transform="matrix(0.0763,0,0,0.0763,37.57738,-766.1202)" />
    <path
       style="fill:#e62828;fill-opacity:1;stroke:none;stroke-width:1.01314;filter:url(#filter2681)"
       d="m 2026.6303,414.69883 -2.0263,-12.15769 c -27.132,0 -52.4809,16.54664 -75.9859,26.34177 -43.5753,18.1556 -81.3151,46.84177 -122.5905,70.92022 -15.3795,8.96834 -30.0499,19.30443 -45.5916,28.36806 -7.0415,4.10832 -15.9672,8.00181 -22.2893,13.1709 -6.4233,5.2521 -11.9956,18.09577 -16.2103,25.32865 -1.3779,2.36973 -2.695,7.46178 -5.0656,9.1183 -3.5766,2.50346 -10.8916,1.9635 -15.1972,3.03942 -6.6057,1.65247 -12.5328,5.31901 -18.2368,9.11827 -14.3967,9.59655 -28.4895,20.38552 -41.5389,33.43386 -5.8155,5.81443 -10.1922,13.97634 -17.2235,19.24976 -20.3541,15.2671 -44.2137,25.87776 -65.8543,38.49953 -32.0348,18.68646 -63.3034,41.39814 -93.2096,63.82817 -14.9944,11.24592 -30.9536,28.10061 -42.552,43.56527 -4.1924,5.58952 -9.1507,15.21845 -15.1973,19.24976 -15.9639,10.64208 -33.5968,18.35922 -49.6441,30.39437 -49.1933,36.89471 -88.6289,87.74752 -137.7877,124.61691 -13.9004,10.42523 -24.7249,24.92643 -37.4864,33.43387 -2.999,1.9989 -9.6958,9.11827 -13.1709,9.11827 -4.3292,0 -5.1832,-6.43147 -6.0789,-9.11827 -2.8215,-8.46584 -6.2774,-16.80714 -9.1183,-25.3287 -16.0847,8.04236 -26.6527,26.3215 -41.5389,37.48637 -29.6498,22.2376 -52.4151,54.7616 -82.0648,76.9991 -7.1862,5.3899 -12.0635,13.8598 -19.2497,19.2498 -33.58981,25.1918 -60.23956,63.052 -91.18295,91.1829 -21.20721,19.2803 -51.02814,44.7356 -69.90708,69.9072 -11.18008,14.9073 -27.50591,25.8676 -38.49955,40.5257 -10.78594,14.3766 -26.78251,26.7775 -39.51267,39.5127 -24.71062,24.7106 -48.26524,49.2794 -72.94648,73.9597 -11.39385,11.3978 -27.56162,23.1097 -36.47325,36.4731 -12.06048,18.0949 -18.82931,40.3234 -27.35494,60.7888 -8.41011,20.1819 -19.43193,40.0598 -26.34178,60.7888 -0.89765,2.6949 1.38709,8.5914 2.02629,11.1446 2.1341,8.5408 1.01315,20.7898 1.01315,29.3812 2.65717,0.4458 6.30785,0.5674 8.10517,3.0393 2.39812,3.303 1.03138,9.1895 2.02629,13.1709 2.12355,8.4902 5.43552,19.1689 2.02629,27.355 -2.39305,5.7446 -9.04536,10.871 -12.15775,16.2104 -2.37887,4.083 -2.02326,9.1082 -4.05258,13.171 -9.00241,18.0035 -22.48474,33.8288 -31.40751,51.6703 l -9.11832,18.2367 c -0.9866,1.9756 -4.43221,5.8255 -4.05258,8.1051 0.32907,1.9757 2.92171,3.3737 4.05258,5.0656 3.37469,5.0659 7.18461,12.4313 9.11832,18.2367 l 4.05257,-1.0131 c 0.84931,5.0962 -1.72113,12.1576 6.07887,12.1576 l 1.01315,12.1579 7.09202,-3.0395 c 3.55635,7.1124 10.27006,1.611 12.15774,-4.0526 6.62102,2.2088 8.05006,0.3343 9.11831,-6.0789 5.47404,3.6474 9.21052,-0.547 10.13146,-6.0788 4.77395,2.391 7.60974,-0.5368 9.11831,-5.0657 9.53268,4.7617 27.5758,-5.7243 30.39437,-14.1842 1.22186,-3.6675 -1.19245,-17.2234 6.07888,-17.2234 3.14177,0 2.73245,6.0992 4.05258,7.0921 7.17712,5.3798 19.42809,-11.2053 20.26291,-16.2103 1.68385,0.5572 6.17411,1.2056 7.09202,3.0395 1.60584,3.2116 -4.66453,15.8049 -7.09202,18.2365 -6.33216,6.3321 -13.40999,15.2783 -20.26291,20.2629 -1.76794,1.2868 -5.48517,0.7801 -7.09202,2.0263 -4.6017,3.5764 -11.40902,11.935 -13.17089,17.2235 -5.45781,-1.8237 -14.09284,-2.857 -18.23661,4.0526 -2.87532,4.7922 -1.11042,11.8333 -9.11831,13.171 -4.72533,0.79 -6.16906,-7.5482 -8.10517,-10.1316 -2.8034,-3.7384 -16.17265,-2.5025 -19.24979,1.0131 -1.11798,1.2766 -0.25642,4.5693 -1.01313,6.0789 -1.69013,3.384 -5.19703,2.158 -7.09202,4.0528 -5.72133,5.7241 -6.6974,14.0116 -9.11832,21.2759 -1.31282,3.9411 -7.53952,9.6148 -1.01314,13.1709 7.94256,4.3362 16.01551,-3.8499 23.30236,-5.0657 -3.7064,5.5622 -9.73026,15.2781 -15.19719,19.2497 -1.49278,1.084 -4.78721,0.7396 -6.07888,2.0263 -2.82839,2.8266 -2.4749,9.716 -5.06572,13.171 -3.40872,4.5489 -8.48196,6.8285 -11.1446,12.1578 -3.91237,7.8213 -2.70712,18.2465 -6.07887,26.3415 -1.9019,4.5694 -5.88102,8.3281 -7.09203,13.1709 -0.97982,3.921 -3.30681,13.3837 -2.02629,17.2236 2.30248,6.9095 7.12667,8.9766 5.06573,17.2235 -3.80446,15.2174 -17.94656,26.4939 -13.17089,45.5916 1.67776,6.7069 1.788,15.4909 4.05258,22.2892 2.33894,7.0211 8.46635,12.4414 9.11831,20.2628 0.147,1.7629 -1.61384,4.4274 -2.0263,6.0789 -1.26116,5.0454 1.48092,15.5923 3.03944,20.2629 2.57269,7.7202 11.93516,13.8599 13.17089,21.2762 0.62816,3.7687 -3.13516,10.5163 -4.05257,14.184 -1.47039,5.8863 1.01313,12.249 1.01313,18.2366 15.06195,-2.5127 28.20843,-15.481 42.55213,-20.263 5.94006,-1.9756 11.5995,-1.9047 16.21034,-7.0921 7.37873,-8.2976 4.78711,-23.2617 10.13143,-32.4206 4.855,-8.3178 15.11209,-10.5062 20.26293,-18.2366 4.18024,-6.2713 4.69187,-15.1871 9.1183,-21.2759 4.49939,-6.1905 13.19926,-8.4802 18.23662,-15.1972 38.89264,-51.8529 97.0158,-86.1277 135.76152,-137.7879 18.6662,-24.893 43.01006,-45.8651 61.80188,-70.9202 7.67458,-10.2328 16.00973,-27.2335 28.36809,-34.4471 21.3855,-12.4716 43.23499,-22.9983 65.85434,-32.4206 10.71801,-4.4679 26.84831,-2.705 36.47321,-9.1182 10.4952,-7.0009 17.2731,-18.7837 27.3549,-26.3418 24.431,-18.3277 43.2066,-44.3049 67.8807,-62.8151 38.4509,-28.8341 68.9394,-69.4308 107.3933,-98.275 9.8368,-7.3757 16.5204,-17.9632 26.3419,-25.3287 18.8698,-14.1536 35.4458,-32.1572 54.7098,-46.6048 9.7242,-7.2945 22.3064,-16.2305 30.3944,-25.3286 11.5885,-13.0391 25.4695,-27.2028 40.5259,-38.4994 28.5372,-21.4078 53.266,-48.3069 82.0647,-69.907 76.377,-57.2833 145.4067,-125.0152 221.8789,-182.3662 62.1159,-46.5865 125.3262,-91.2064 187.432,-137.7878 20.7898,-15.5913 45.1964,-30.3346 67.8807,-43.56527 7.0413,-4.10934 15.6938,-7.35844 22.2892,-12.15774 7.4163,-5.3971 13.7382,-12.1963 21.2762,-17.22353 v -1.01315 c -6.4438,1.07292 -12.3301,4.63008 -18.2369,7.09203 -13.5051,5.62705 -27.375,9.63495 -40.5256,16.21035 -5.0557,2.5278 -10.1922,4.5916 -15.1972,7.09204 -1.3373,0.6677 -4.5085,3.5622 -6.0789,3.0394 -7.1732,-2.39 -3.0901,-13.13544 1.0131,-16.21034 11.0839,-8.31081 25.2679,-13.91454 38.4995,-17.22348 16.9803,-4.24507 34.7409,-5.89852 51.6705,-10.13145 12.2286,-3.05565 25.3287,-1.01214 37.4863,-4.05259 9.858,-2.46497 19.5235,-6.65333 29.3814,-9.1183 10.5366,-2.63317 22.1675,-1.6494 32.4204,-5.06573 8.4701,-2.82161 21.3876,-8.59552 28.3683,-14.18403 1.6412,-1.309 1.246,-3.98979 3.0394,-5.06573 2.8468,-1.70715 7.9836,-0.18136 11.1446,-2.0263 6.2309,-3.63517 7.1326,-12.24183 10.1315,-18.23662 3.1204,-6.24807 10.2327,-10.27938 14.184,-16.21033 2.7355,-4.10932 2.9988,-10.33915 6.0789,-14.18404 4.5185,-5.64423 16.2812,-7.64823 22.2891,-12.15775 3.1408,-2.35556 10.253,-6.25617 12.1578,-9.11831 1.2056,-1.81556 -0.1925,-4.30385 2.0262,-6.07887 1.9656,-1.57544 5.2887,-0.78822 7.0921,-3.03944 4.853,-6.0657 7.2136,-15.55888 11.1446,-22.2892 1.935,-3.31805 6.7779,-8.39289 7.0921,-12.15776 0.7091,-8.53878 -13.3533,-11.14459 -19.2498,-11.14459 l -2.0264,-8.10515 5.0658,-25.32865 -14.1841,-4.05259 -11.1445,-1.01314 -5.0658,-6.07888 c 2.5532,-5.10624 2.5633,-12.51842 8.1052,-16.21033 7.0008,-4.66553 21.185,-6.05659 29.3811,-8.10516 4.2046,-1.05164 10.1315,0.01 10.1315,-5.06573 l 9.1184,1.01315 8.1051,-5.06574 8.1053,4.05259 59.7755,-14.18405 c -2.1985,-6.58644 -1.9046,-23.78763 0,-31.40751 0.6078,-2.42242 2.5532,-9.33108 1.0132,-12.15775 -2.4822,-4.55813 -9.3514,-2.98168 -13.1709,-2.02628 -11.2662,2.81756 -23.9407,9.85588 -34.447,8.10515 3.6271,-10.88319 11.6409,-14.56091 22.2893,-17.22347 12.6947,-3.17417 22.1775,4.97049 30.3943,-9.11832 6.626,-11.35633 -1.2158,-30.61323 2.0263,-43.56527 0.8612,-3.4305 2.9077,-13.44445 1.0131,-17.22348 -3.617,-7.23791 -13.1505,-5.53176 -16.2103,-11.14459 -0.8712,-1.60583 0,-6.22678 0,-8.10512 0,-7.71918 0.1823,-17.9621 2.0263,-25.32866 2.5531,-10.20243 -2.8571,-22.58406 -5.0658,-31.40754 -2.2087,-8.83362 0.8004,-18.8759 -2.0262,-27.35489 l -25.3286,3.03941 c 0,-13.9287 4.1741,-21.47566 11.1445,-33.43378 3.0395,-5.20963 11.7424,-16.87494 10.1315,-23.30235 -0.8712,-3.50548 -5.0455,-7.06676 -7.092,-10.1315 -2.462,-3.68685 -7.4974,-17.62772 -13.1709,-16.2103 -10.395,2.59869 -19.1485,7.79312 -28.3681,13.1709 -5.9977,3.49938 -9.7465,8.10519 -17.2234,8.10519 v -33.43386 c 0,-3.35095 -1.1753,-9.84847 -5.0659,-11.14459 -1.8033,-0.60255 -6.3727,2.46115 -8.1052,3.03941 -6.1598,2.05264 -13.0796,1.9966 -19.2495,4.05259 3.9715,-5.96136 2.0161,-15.21295 0,-21.27607 -2.2494,-6.76188 -6.1297,-16.04328 -12.1579,-20.26289 -9.2096,-6.44987 -30.8604,-6.97508 -42.5522,-4.05258 -16.6864,4.17187 -30.0498,10.74748 -45.5916,17.22347 -6.1192,2.54922 -17.5779,4.40707 -22.2891,9.1183 -1.8034,1.80427 -1.4082,6.64998 -2.0263,9.11835 -1.7527,7.02251 -2.7861,16.37281 -7.092,22.28919 -2.9685,4.08503 -9.2299,4.79321 -13.1709,7.09201 -12.5021,7.29361 -23.8393,17.74016 -37.4864,22.28917 m -764.9249,505.55971 c 9.4475,-4.72329 16.7382,-14.88715 22.2892,-22.28921 -8.9977,-2.99891 -20.9154,14.04828 -22.2892,22.28921 m -60.7888,59.77555 2.0264,-5.0657 c 5.3616,2.6808 9.8882,-4.8833 14.1841,-8.10515 12.7087,-9.53167 31.4124,-24.33171 36.4731,-39.51269 -11.1962,-3.73242 -23.2739,3.28564 -34.4469,6.07887 -4.2876,1.07191 -11.021,1.9027 -14.184,5.06574 -1.8582,1.85811 -2.851,6.71512 -4.0527,9.11831 -4.2784,8.55703 -11.9682,26.43702 0,32.42062 m 678.8077,17.22354 -1.0131,11.14457 -8.1053,4.0526 -27.3549,9.1183 -1.0132,-1.0131 c 4.9847,-14.9683 23.8393,-18.7523 37.4865,-23.30237 m -73.9597,35.46007 c 0,6.9178 1.3372,10.9217 -6.0789,12.1578 -1.2562,-7.5145 1.0943,-6.2461 4.0526,-12.1578 z"
       id="path837-3"
       transform="matrix(0.0763,0,0,0.0763,37.57738,-766.1202)" />
    <path
       style="fill:#0096bc;fill-opacity:1;stroke:none;stroke-width:1.01314;filter:url(#filter2677)"
       d="m 2237.4756,677.26128 -2.0263,-12.15769 c -27.132,0 -52.4809,16.54664 -75.9859,26.34177 -43.5753,18.1556 -81.3151,46.84177 -122.5905,70.92022 -15.3795,8.96834 -30.0499,19.30443 -45.5916,28.36806 -7.0415,4.10832 -15.9672,8.00181 -22.2893,13.1709 -6.4233,5.2521 -11.9956,18.09577 -16.2103,25.32865 -1.3779,2.36973 -2.695,7.46178 -5.0656,9.1183 -3.5766,2.50346 -10.8916,1.9635 -15.1972,3.03942 -6.6057,1.65247 -12.5328,5.31901 -18.2368,9.11827 -14.3967,9.59655 -28.4895,20.38552 -41.5389,33.43386 -5.8155,5.81443 -10.1922,13.97634 -17.2235,19.24976 -20.3541,15.2671 -44.2137,25.87776 -65.8543,38.49953 -32.0348,18.68646 -63.3034,41.39814 -93.2096,63.82817 -14.9944,11.2459 -30.9536,28.1006 -42.552,43.5653 -4.1924,5.5895 -9.1507,15.2185 -15.1973,19.2498 -15.9639,10.642 -33.5968,18.3592 -49.6441,30.3943 -49.1933,36.8947 -88.6289,87.7476 -137.7877,124.6169 -13.9004,10.4253 -24.7249,24.9265 -37.4864,33.4339 -2.999,1.9989 -9.6958,9.1183 -13.1709,9.1183 -4.3292,0 -5.1832,-6.4315 -6.0789,-9.1183 -2.8215,-8.4658 -6.2774,-16.8071 -9.1183,-25.3287 -16.0847,8.0424 -26.6527,26.3215 -41.5389,37.4864 -29.6498,22.2376 -52.4151,54.7616 -82.0648,76.9991 -7.1862,5.3899 -12.0635,13.8598 -19.2497,19.2498 -33.5898,25.1918 -60.2396,63.052 -91.183,91.1829 -21.2072,19.2803 -51.0281,44.7356 -69.907,69.9072 -11.1801,14.9073 -27.506,25.8676 -38.4996,40.5257 -10.7859,14.3766 -26.7825,26.7775 -39.5127,39.5127 -24.7106,24.7106 -48.26521,49.2794 -72.94641,73.9597 -11.3939,11.3978 -27.5617,23.1097 -36.4733,36.4731 -12.0605,18.0949 -18.8293,40.3234 -27.3549,60.7888 -8.4101,20.1819 -19.43196,40.0598 -26.34181,60.7888 -0.89765,2.6949 1.38709,8.5914 2.02629,11.1446 2.1341,8.5408 1.01315,20.7898 1.01315,29.3812 2.65717,0.4458 6.30785,0.5674 8.10517,3.0393 2.39812,3.303 1.03138,9.1895 2.02629,13.1709 2.12355,8.4902 5.43551,19.1689 2.02629,27.355 -2.39305,5.7446 -9.04536,10.871 -12.15775,16.2104 -2.37887,4.083 -2.02326,9.1082 -4.05258,13.171 -9.00241,18.0035 -22.48474,33.8288 -31.40751,51.6703 l -9.11832,18.2367 c -0.9866,1.9756 -4.43221,5.8255 -4.05258,8.1051 0.32907,1.9757 2.92171,3.3737 4.05258,5.0656 3.37469,5.0659 7.18461,12.4313 9.11832,18.2367 l 4.05257,-1.0131 c 0.84931,5.0962 -1.72113,12.1576 6.07887,12.1576 l 1.01315,12.1579 7.09202,-3.0395 c 3.55635,7.1124 10.27006,1.611 12.15774,-4.0526 6.62102,2.2088 8.05006,0.3343 9.11831,-6.0789 5.47404,3.6474 9.2105,-0.547 10.1315,-6.0788 4.7739,2.391 7.6097,-0.5368 9.1183,-5.0657 9.5326,4.7617 27.5758,-5.7243 30.3943,-14.1842 1.2219,-3.6675 -1.1924,-17.2234 6.0789,-17.2234 3.1418,0 2.7325,6.0992 4.0526,7.0921 7.1771,5.3798 19.4281,-11.2053 20.2629,-16.2103 1.6839,0.5572 6.1741,1.2056 7.092,3.0395 1.6059,3.2116 -4.6645,15.8049 -7.092,18.2365 -6.3322,6.3321 -13.41,15.2783 -20.2629,20.2629 -1.7679,1.2868 -5.4852,0.7801 -7.092,2.0263 -4.6017,3.5764 -11.409,11.935 -13.1709,17.2235 -5.4578,-1.8237 -14.0929,-2.857 -18.2366,4.0526 -2.8753,4.7922 -1.1104,11.8333 -9.1183,13.171 -4.72536,0.79 -6.16909,-7.5482 -8.1052,-10.1316 -2.8034,-3.7384 -16.17265,-2.5025 -19.24979,1.0131 -1.11798,1.2766 -0.25642,4.5693 -1.01313,6.0789 -1.69013,3.384 -5.19703,2.158 -7.09202,4.0528 -5.72133,5.7241 -6.6974,14.0116 -9.11832,21.2759 -1.31282,3.9411 -7.53952,9.6148 -1.01314,13.1709 7.94256,4.3362 16.01551,-3.8499 23.30236,-5.0657 -3.7064,5.5622 -9.73026,15.2781 -15.19719,19.2497 -1.49278,1.084 -4.78721,0.7396 -6.07888,2.0263 -2.82839,2.8266 -2.4749,9.716 -5.06572,13.171 -3.40872,4.5489 -8.48196,6.8285 -11.1446,12.1578 -3.91237,7.8213 -2.70712,18.2465 -6.07887,26.3415 -1.9019,4.5694 -5.88102,8.3281 -7.09203,13.1709 -0.97982,3.921 -3.30681,13.3837 -2.02629,17.2236 2.30248,6.9095 7.12667,8.9766 5.06573,17.2235 -3.80446,15.2174 -17.94656,26.4939 -13.17089,45.5916 1.67776,6.7069 1.788,15.4909 4.05258,22.2892 2.33894,7.0211 8.46635,12.4414 9.11831,20.2628 0.147,1.7629 -1.61384,4.4274 -2.0263,6.0789 -1.26116,5.0454 1.48092,15.5923 3.03944,20.2629 2.57269,7.7202 11.93516,13.8599 13.17089,21.2762 0.62816,3.7687 -3.13516,10.5163 -4.05257,14.184 -1.47039,5.8863 1.01313,12.249 1.01313,18.2366 15.06195,-2.5127 28.20843,-15.481 42.55213,-20.263 5.94006,-1.9756 11.5995,-1.9047 16.21037,-7.0921 7.3787,-8.2976 4.7871,-23.2617 10.1314,-32.4206 4.855,-8.3178 15.1121,-10.5062 20.2629,-18.2366 4.1803,-6.2713 4.6919,-15.1871 9.1183,-21.2759 4.4994,-6.1905 13.1993,-8.4802 18.2366,-15.1972 38.8927,-51.8529 97.01581,-86.1277 135.76161,-137.7879 18.6662,-24.893 43.01,-45.8651 61.8018,-70.9202 7.6746,-10.2328 16.0098,-27.2335 28.3681,-34.4471 21.3855,-12.4716 43.235,-22.9983 65.8544,-32.4206 10.718,-4.4679 26.8483,-2.705 36.4732,-9.1182 10.4952,-7.0009 17.2731,-18.7837 27.3549,-26.3418 24.431,-18.3277 43.2066,-44.3049 67.8807,-62.8151 38.4509,-28.8341 68.9394,-69.4308 107.3933,-98.275 9.8368,-7.3757 16.5204,-17.9632 26.3419,-25.3287 18.8698,-14.1536 35.4458,-32.1572 54.7098,-46.6048 9.7242,-7.2945 22.3064,-16.2305 30.3944,-25.3286 11.5885,-13.0391 25.4695,-27.2028 40.5259,-38.4994 28.5372,-21.4078 53.266,-48.3069 82.0647,-69.907 76.377,-57.2833 145.4067,-125.0152 221.8789,-182.3662 62.1159,-46.5865 125.3262,-91.2064 187.432,-137.7878 20.7898,-15.5913 45.1964,-30.3346 67.8807,-43.5653 7.0413,-4.1093 15.6938,-7.3584 22.2892,-12.1577 7.4163,-5.3971 13.7382,-12.1963 21.2762,-17.2236 v -1.0131 c -6.4438,1.0729 -12.3301,4.6301 -18.2369,7.092 -13.5051,5.6271 -27.375,9.635 -40.5256,16.2104 -5.0557,2.5278 -10.1922,4.5916 -15.1972,7.092 -1.3373,0.6677 -4.5085,3.5622 -6.0789,3.0394 -7.1732,-2.39 -3.0901,-13.1354 1.0131,-16.2103 11.0839,-8.3108 25.2679,-13.9146 38.4995,-17.2235 16.9803,-4.2451 34.7409,-5.8985 51.6705,-10.1315 12.2286,-3.0556 25.3287,-1.0121 37.4863,-4.0525 9.858,-2.465 19.5235,-6.6534 29.3814,-9.1183 10.5366,-2.6332 22.1675,-1.6494 32.4204,-5.0658 8.4701,-2.8216 21.3876,-8.5955 28.3683,-14.184 1.6412,-1.309 1.246,-3.9898 3.0394,-5.0657 2.8468,-1.7072 7.9836,-0.1814 11.1446,-2.0263 6.2309,-3.6352 7.1326,-12.2419 10.1315,-18.2367 3.1204,-6.248 10.2327,-10.2793 14.184,-16.2103 2.7355,-4.1093 2.9988,-10.3391 6.0789,-14.184 4.5185,-5.6443 16.2812,-7.6483 22.2891,-12.1578 3.1408,-2.3555 10.253,-6.2561 12.1578,-9.1183 1.2056,-1.8155 -0.1925,-4.3038 2.0262,-6.0789 1.9656,-1.5754 5.2887,-0.7882 7.0921,-3.0394 4.853,-6.0657 7.2136,-15.5589 11.1446,-22.2892 1.935,-3.318 6.7779,-8.3929 7.0921,-12.1578 0.7091,-8.5388 -13.3533,-11.1446 -19.2498,-11.1446 l -2.0264,-8.1051 5.0658,-25.3287 -14.1841,-4.0526 -11.1445,-1.0131 -5.0658,-6.0789 c 2.5532,-5.10622 2.5633,-12.51842 8.1052,-16.21032 7.0008,-4.66553 21.185,-6.05659 29.3811,-8.10516 4.2046,-1.05164 10.1315,0.01 10.1315,-5.06573 l 9.1184,1.01315 8.1051,-5.06574 8.1053,4.05259 59.7755,-14.18405 c -2.1985,-6.58644 -1.9046,-23.78763 0,-31.40751 0.6078,-2.42242 2.5532,-9.33108 1.0132,-12.15775 -2.4822,-4.55813 -9.3514,-2.98168 -13.1709,-2.02628 -11.2662,2.81756 -23.9407,9.85588 -34.447,8.10515 3.6271,-10.88319 11.6409,-14.56091 22.2893,-17.22347 12.6947,-3.17417 22.1775,4.97049 30.3943,-9.11832 6.626,-11.35633 -1.2158,-30.61323 2.0263,-43.56527 0.8612,-3.4305 2.9077,-13.44445 1.0131,-17.22348 -3.617,-7.23791 -13.1505,-5.53176 -16.2103,-11.14459 -0.8712,-1.60583 0,-6.22678 0,-8.10512 0,-7.71918 0.1823,-17.9621 2.0263,-25.32866 2.5531,-10.20243 -2.8571,-22.58406 -5.0658,-31.40754 -2.2087,-8.83362 0.8004,-18.8759 -2.0262,-27.35489 l -25.3286,3.03941 c 0,-13.9287 4.1741,-21.47566 11.1445,-33.43378 3.0395,-5.20963 11.7424,-16.87494 10.1315,-23.30235 -0.8712,-3.50548 -5.0455,-7.06676 -7.092,-10.1315 -2.462,-3.68685 -7.4974,-17.62772 -13.1709,-16.2103 -10.395,2.59869 -19.1485,7.79312 -28.3681,13.1709 -5.9977,3.49938 -9.7465,8.10519 -17.2234,8.10519 v -33.43386 c 0,-3.35095 -1.1753,-9.84847 -5.0659,-11.14459 -1.8033,-0.60255 -6.3727,2.46115 -8.1052,3.03941 -6.1598,2.05264 -13.0796,1.9966 -19.2495,4.05259 3.9715,-5.96136 2.0161,-15.21295 0,-21.27607 -2.2494,-6.76188 -6.1297,-16.04328 -12.1579,-20.26289 -9.2096,-6.44987 -30.8604,-6.97508 -42.5522,-4.05258 -16.6864,4.17187 -30.0498,10.74748 -45.5916,17.22347 -6.1192,2.54922 -17.5779,4.40707 -22.2891,9.1183 -1.8034,1.80427 -1.4082,6.64998 -2.0263,9.11835 -1.7527,7.02251 -2.7861,16.37281 -7.092,22.28919 -2.9685,4.08503 -9.2299,4.79321 -13.1709,7.09201 -12.5021,7.29361 -23.8393,17.74016 -37.4864,22.28917 M 1472.5507,1182.821 c 9.4475,-4.7233 16.7382,-14.8871 22.2892,-22.2892 -8.9977,-2.9989 -20.9154,14.0483 -22.2892,22.2892 m -60.7888,59.7756 2.0264,-5.0657 c 5.3616,2.6808 9.8882,-4.8833 14.1841,-8.1052 12.7087,-9.5316 31.4124,-24.3317 36.4731,-39.5127 -11.1962,-3.7324 -23.2739,3.2857 -34.4469,6.0789 -4.2876,1.0719 -11.021,1.9027 -14.184,5.0657 -1.8582,1.8582 -2.851,6.7152 -4.0527,9.1184 -4.2784,8.557 -11.9682,26.437 0,32.4206 m 678.8077,17.2235 -1.0131,11.1446 -8.1053,4.0526 -27.3549,9.1183 -1.0132,-1.0131 c 4.9847,-14.9683 23.8393,-18.7523 37.4865,-23.3024 m -73.9597,35.4601 c 0,6.9178 1.3372,10.9217 -6.0789,12.1578 -1.2562,-7.5145 1.0943,-6.2461 4.0526,-12.1578 z"
       id="path837-3-6"
       transform="matrix(0.0763,0,0,0.0763,37.57738,-766.1202)" />
    <path
       style="fill:#ffd23c;fill-opacity:1;stroke:none;stroke-width:1.01314;filter:url(#filter2673)"
       d="m 2465.7248,919.30842 -2.0263,-12.15777 c -27.132,0 -52.4809,16.54667 -75.9859,26.34177 -43.5753,18.15561 -81.3151,46.84188 -122.5905,70.92028 -15.3795,8.9684 -30.0499,19.3045 -45.5916,28.3681 -7.0415,4.1083 -15.9672,8.0018 -22.2893,13.1709 -6.4233,5.2521 -11.9956,18.0958 -16.2103,25.3286 -1.3779,2.3698 -2.695,7.4618 -5.0656,9.1183 -3.5766,2.5035 -10.8916,1.9635 -15.1972,3.0395 -6.6057,1.6524 -12.5328,5.319 -18.2368,9.1182 -14.3967,9.5966 -28.4895,20.3856 -41.5389,33.4339 -5.8155,5.8144 -10.1922,13.9763 -17.2235,19.2498 -20.3541,15.2671 -44.2137,25.8777 -65.8543,38.4995 -32.0348,18.6864 -63.3034,41.3981 -93.2096,63.8281 -14.9944,11.2459 -30.9536,28.1006 -42.552,43.5653 -4.1924,5.5895 -9.1507,15.2185 -15.1973,19.2498 -15.9639,10.642 -33.5968,18.3592 -49.6441,30.3943 -49.1933,36.8947 -88.6289,87.7476 -137.7877,124.6169 -13.9004,10.4253 -24.7249,24.9265 -37.4864,33.4339 -2.999,1.9989 -9.6958,9.1183 -13.1709,9.1183 -4.3292,0 -5.1832,-6.4315 -6.0789,-9.1183 -2.8215,-8.4658 -6.2774,-16.8071 -9.1183,-25.3287 -16.0847,8.0424 -26.6527,26.3215 -41.5389,37.4864 -29.6499,22.2376 -52.4152,54.7616 -82.0649,76.9991 -7.1862,5.3899 -12.0635,13.8598 -19.2497,19.2498 -33.5898,25.1918 -60.2396,63.052 -91.183,91.1829 -21.2072,19.2803 -51.0281,44.7356 -69.907,69.9072 -11.1801,14.9073 -27.506,25.8676 -38.4996,40.5257 -10.7859,14.3766 -26.7825,26.7775 -39.5127,39.5127 -24.7105,24.7106 -48.2651,49.2794 -72.9463,73.9597 -11.3939,11.3978 -27.5617,23.1097 -36.4733,36.4731 -12.0605,18.0949 -18.8293,40.3234 -27.3549,60.7888 -8.4101,20.1819 -19.4319,40.0598 -26.3418,60.7888 -0.8976,2.6949 1.3871,8.5914 2.0263,11.1446 2.1341,8.5408 1.0132,20.7898 1.0132,29.3812 2.6571,0.4458 6.3078,0.5674 8.1051,3.0393 2.3981,3.303 1.0314,9.1895 2.0263,13.1709 2.1236,8.4902 5.4355,19.1689 2.0263,27.355 -2.3931,5.7446 -9.0454,10.871 -12.1577,16.2104 -2.3789,4.083 -2.0233,9.1082 -4.0526,13.171 -9.0024,18.0035 -22.4847,33.8288 -31.4075,51.6703 l -9.1183,18.2367 c -0.9866,1.9756 -4.4322,5.8255 -4.0526,8.1051 0.3291,1.9757 2.9217,3.3737 4.0526,5.0656 3.3747,5.0659 7.1846,12.4313 9.1183,18.2367 l 4.0526,-1.0131 c 0.8493,5.0962 -1.7212,12.1576 6.0788,12.1576 l 1.0132,12.1579 7.092,-3.0395 c 3.5564,7.1124 10.2701,1.611 12.1577,-4.0526 6.6211,2.2088 8.0501,0.3343 9.1183,-6.0789 5.4741,3.6474 9.2105,-0.547 10.1315,-6.0788 4.7739,2.391 7.6097,-0.5368 9.1183,-5.0657 9.5326,4.7617 27.5758,-5.7243 30.3943,-14.1842 1.2219,-3.6675 -1.1924,-17.2234 6.0789,-17.2234 3.1418,0 2.7325,6.0992 4.0526,7.0921 7.1771,5.3798 19.4281,-11.2053 20.2629,-16.2103 1.6839,0.5572 6.1741,1.2056 7.092,3.0395 1.6059,3.2116 -4.6645,15.8049 -7.092,18.2365 -6.3322,6.3321 -13.41,15.2783 -20.2629,20.2629 -1.7679,1.2868 -5.4852,0.7801 -7.092,2.0263 -4.6017,3.5764 -11.409,11.935 -13.1709,17.2235 -5.4578,-1.8237 -14.0929,-2.857 -18.2366,4.0526 -2.8753,4.7922 -1.1104,11.8333 -9.1183,13.171 -4.7253,0.79 -6.1691,-7.5482 -8.1052,-10.1316 -2.8034,-3.7384 -16.1726,-2.5025 -19.2497,1.0131 -1.118,1.2766 -0.2565,4.5693 -1.0132,6.0789 -1.6901,3.384 -5.197,2.158 -7.092,4.0528 -5.7213,5.7241 -6.6974,14.0116 -9.1183,21.2759 -1.3128,3.9411 -7.5395,9.6148 -1.0131,13.1709 7.9425,4.3362 16.0155,-3.8499 23.3023,-5.0657 -3.7064,5.5622 -9.7302,15.2781 -15.1972,19.2497 -1.4928,1.084 -4.7872,0.7396 -6.0789,2.0263 -2.8283,2.8266 -2.4749,9.716 -5.0657,13.171 -3.4087,4.5489 -8.4819,6.8285 -11.1446,12.1578 -3.9123,7.8213 -2.7071,18.2465 -6.0788,26.3415 -1.9019,4.5694 -5.8811,8.3281 -7.0921,13.1709 -0.9798,3.921 -3.3068,13.3837 -2.0263,17.2236 2.3025,6.9095 7.1267,8.9766 5.0658,17.2235 -3.8045,15.2174 -17.94655,26.4939 -13.1709,45.5916 1.6778,6.7069 1.788,15.4909 4.0526,22.2892 2.3389,7.0211 8.4663,12.4414 9.1183,20.2628 0.147,1.7629 -1.6139,4.4274 -2.0263,6.0789 -1.2612,5.0454 1.4809,15.5923 3.0394,20.2629 2.5727,7.7202 11.9352,13.8599 13.1709,21.2762 0.6282,3.7687 -3.1352,10.5163 -4.0526,14.184 -1.4704,5.8863 1.0132,12.249 1.0132,18.2366 15.0619,-2.5127 28.2084,-15.481 42.5521,-20.263 5.94,-1.9756 11.5994,-1.9047 16.2103,-7.0921 7.3787,-8.2976 4.7871,-23.2617 10.1314,-32.4206 4.855,-8.3178 15.1121,-10.5062 20.2629,-18.2366 4.1803,-6.2713 4.6919,-15.1871 9.1183,-21.2759 4.4994,-6.1905 13.1993,-8.4802 18.2366,-15.1972 38.8927,-51.8529 97.0157,-86.1277 135.7615,-137.7879 18.6662,-24.893 43.01,-45.8651 61.8018,-70.9202 7.6746,-10.2328 16.0098,-27.2335 28.3681,-34.4471 21.3855,-12.4716 43.235,-22.9983 65.8544,-32.4206 10.718,-4.4679 26.8483,-2.705 36.4732,-9.1182 10.4952,-7.0009 17.2731,-18.7837 27.3549,-26.3418 24.431,-18.3277 43.2066,-44.3049 67.8808,-62.8151 38.4509,-28.8341 68.9394,-69.4308 107.3933,-98.275 9.8368,-7.3757 16.5204,-17.9632 26.3419,-25.3287 18.8698,-14.1536 35.4458,-32.1572 54.7098,-46.6048 9.7242,-7.2945 22.3064,-16.2305 30.3944,-25.3286 11.5885,-13.0391 25.4695,-27.2028 40.5259,-38.4994 28.5372,-21.4078 53.266,-48.3069 82.0647,-69.907 76.377,-57.2833 145.4067,-125.0152 221.8789,-182.3662 62.1159,-46.5865 125.3262,-91.2064 187.432,-137.7878 20.7898,-15.5913 45.1964,-30.3346 67.8807,-43.5653 7.0413,-4.1093 15.6938,-7.3584 22.2892,-12.1577 7.4163,-5.3971 13.7382,-12.1963 21.2762,-17.2236 v -1.0131 c -6.4438,1.0729 -12.3301,4.6301 -18.2369,7.092 -13.5051,5.6271 -27.375,9.635 -40.5256,16.2104 -5.0557,2.5278 -10.1922,4.5916 -15.1972,7.092 -1.3373,0.6677 -4.5085,3.5622 -6.0789,3.0394 -7.1732,-2.39 -3.0901,-13.1354 1.0131,-16.2103 11.0839,-8.3108 25.2679,-13.9146 38.4995,-17.2235 16.9803,-4.2451 34.7409,-5.8985 51.6705,-10.1315 12.2286,-3.0556 25.3287,-1.0121 37.4863,-4.0525 9.858,-2.465 19.5235,-6.6534 29.3814,-9.1183 10.5366,-2.6332 22.1675,-1.6494 32.4204,-5.0658 8.4701,-2.8216 21.3876,-8.5955 28.3683,-14.184 1.6412,-1.309 1.246,-3.9898 3.0394,-5.0657 2.8468,-1.7072 7.9836,-0.1814 11.1446,-2.0263 6.2309,-3.6352 7.1326,-12.2419 10.1315,-18.2367 3.1204,-6.248 10.2327,-10.2793 14.184,-16.2103 2.7355,-4.1093 2.9988,-10.3391 6.0789,-14.184 4.5185,-5.6443 16.2812,-7.6483 22.2891,-12.1578 3.1408,-2.3555 10.253,-6.2561 12.1578,-9.1183 1.2056,-1.8155 -0.1925,-4.3038 2.0262,-6.0789 1.9656,-1.5754 5.2887,-0.7882 7.0921,-3.0394 4.853,-6.0657 7.2136,-15.5589 11.1446,-22.2892 1.935,-3.318 6.7779,-8.3929 7.0921,-12.1578 0.7091,-8.5388 -13.3533,-11.1446 -19.2498,-11.1446 l -2.0264,-8.1051 5.0658,-25.3287 -14.1841,-4.0526 -11.1445,-1.0131 -5.0658,-6.0789 c 2.5532,-5.1062 2.5633,-12.5184 8.1052,-16.2103 7.0008,-4.6655 21.185,-6.0566 29.3811,-8.1051 4.2046,-1.0517 10.1315,0.01 10.1315,-5.0658 l 9.1184,1.0132 8.1051,-5.0657 8.1053,4.0525 59.7755,-14.184 c -2.1985,-6.5864 -1.9046,-23.7876 0,-31.4075 0.6078,-2.4224 2.5532,-9.3311 1.0132,-12.1578 -2.4822,-4.5581 -9.3514,-2.9816 -13.1709,-2.0262 -11.2662,2.8175 -23.9407,9.8558 -34.447,8.1051 3.6271,-10.8832 11.6409,-14.5609 22.2893,-17.2235 12.6947,-3.1741 22.1775,4.9705 30.3943,-9.1183 6.626,-11.3563 -1.2158,-30.6132 2.0263,-43.5653 0.8612,-3.4305 2.9077,-13.4444 1.0131,-17.2234 -3.617,-7.2379 -13.1505,-5.5318 -16.2103,-11.1446 -0.8712,-1.6059 0,-6.2268 0,-8.1051 0,-7.7192 0.1823,-17.9621 2.0263,-25.3287 2.5531,-10.2024 -2.8571,-22.5841 -5.0658,-31.4075 -2.2087,-8.8337 0.8004,-18.8759 -2.0262,-27.3549 l -25.3286,3.0394 c 0,-13.92877 4.1741,-21.47577 11.1445,-33.43388 3.0395,-5.2096 11.7424,-16.8749 10.1315,-23.3023 -0.8712,-3.5056 -5.0455,-7.06683 -7.092,-10.13157 -2.462,-3.68685 -7.4974,-17.62772 -13.1709,-16.2103 -10.395,2.59869 -19.1485,7.79312 -28.3681,13.1709 -5.9977,3.49938 -9.7465,8.10519 -17.2234,8.10519 v -33.43386 c 0,-3.35095 -1.1753,-9.84847 -5.0659,-11.14459 -1.8033,-0.60255 -6.3727,2.46115 -8.1052,3.03941 -6.1598,2.05264 -13.0796,1.9966 -19.2495,4.05259 3.9715,-5.96136 2.0161,-15.21295 0,-21.27607 -2.2494,-6.76188 -6.1297,-16.04328 -12.1579,-20.26289 -9.2096,-6.44987 -30.8604,-6.97508 -42.5522,-4.05258 -16.6864,4.17187 -30.0498,10.74748 -45.5916,17.22347 -6.1192,2.54922 -17.5779,4.40707 -22.2891,9.1183 -1.8034,1.80427 -1.4082,6.64998 -2.0263,9.11835 -1.7527,7.02251 -2.7861,16.37281 -7.092,22.28919 -2.9685,4.08503 -9.2299,4.79321 -13.1709,7.09201 -12.5021,7.29361 -23.8393,17.74016 -37.4864,22.28925 m -764.9249,505.55968 c 9.4475,-4.7233 16.7382,-14.8871 22.2892,-22.2892 -8.9977,-2.9989 -20.9154,14.0483 -22.2892,22.2892 m -60.7888,59.7756 2.0264,-5.0657 c 5.3616,2.6808 9.8882,-4.8833 14.1841,-8.1052 12.7087,-9.5316 31.4124,-24.3317 36.4731,-39.5127 -11.1962,-3.7324 -23.2739,3.2857 -34.4469,6.0789 -4.2876,1.0719 -11.021,1.9027 -14.184,5.0657 -1.8582,1.8582 -2.851,6.7152 -4.0527,9.1184 -4.2784,8.557 -11.9682,26.437 0,32.4206 m 678.8077,17.2235 -1.0131,11.1446 -8.1053,4.0526 -27.3549,9.1183 -1.0132,-1.0131 c 4.9847,-14.9683 23.8393,-18.7523 37.4865,-23.3024 m -73.9597,35.4601 c 0,6.9178 1.3372,10.9217 -6.0789,12.1578 -1.2562,-7.5145 1.0943,-6.2461 4.0526,-12.1578 z"
       id="path837-3-6-7"
       transform="matrix(0.0763,0,0,0.0763,37.57738,-766.1202)" />
    <path
       style="fill:#8c1464;fill-opacity:1;stroke:none;stroke-width:1.01314;filter:url(#filter2669)"
       d="m 2676.8599,1173.0113 -2.0263,-12.1578 c -27.132,0 -52.4809,16.5467 -75.9859,26.3418 -43.5753,18.1556 -81.3151,46.8419 -122.5905,70.9203 -15.3795,8.9684 -30.0499,19.3045 -45.5916,28.3681 -7.0415,4.1083 -15.9672,8.0018 -22.2893,13.1709 -6.4233,5.2521 -11.9956,18.0958 -16.2103,25.3286 -1.3779,2.3698 -2.695,7.4618 -5.0656,9.1183 -3.5766,2.5035 -10.8916,1.9635 -15.1972,3.0395 -6.6057,1.6524 -12.5328,5.319 -18.2368,9.1182 -14.3967,9.5966 -28.4895,20.3856 -41.5389,33.4339 -5.8155,5.8144 -10.1922,13.9763 -17.2235,19.2498 -20.3541,15.2671 -44.2137,25.8777 -65.8543,38.4995 -32.0348,18.6864 -63.3034,41.3981 -93.2096,63.8281 -14.9944,11.2459 -30.9536,28.1006 -42.552,43.5653 -4.1924,5.5895 -9.1507,15.2185 -15.1973,19.2498 -15.9639,10.642 -33.5968,18.3592 -49.6441,30.3943 -49.1933,36.8947 -88.6289,87.7476 -137.7877,124.6169 -13.9004,10.4253 -24.7249,24.9265 -37.4864,33.4339 -2.999,1.9989 -9.6958,9.1183 -13.1709,9.1183 -4.3292,0 -5.1832,-6.4315 -6.0789,-9.1183 -2.8215,-8.4658 -6.2774,-16.8071 -9.1183,-25.3287 -16.0847,8.0424 -26.6527,26.3215 -41.5389,37.4864 -29.6499,22.2376 -52.4152,54.7616 -82.0649,76.9991 -7.1862,5.3899 -12.0635,13.8598 -19.2497,19.2498 -33.5898,25.1918 -60.2396,63.052 -91.183,91.1829 -21.2072,19.2803 -51.0281,44.7356 -69.907,69.9072 -11.1801,14.9073 -27.506,25.8676 -38.4996,40.5257 -10.7859,14.3766 -26.7825,26.7775 -39.5127,39.5127 -24.7105,24.7106 -48.2651,49.2794 -72.9463,73.9597 -11.3939,11.3978 -27.5617,23.1097 -36.4733,36.4731 -12.0605,18.0949 -18.8293,40.3234 -27.3549,60.7888 -8.4101,20.1819 -19.4319,40.0598 -26.3418,60.7888 -0.8976,2.6949 1.3871,8.5914 2.0263,11.1446 2.1341,8.5408 1.0132,20.7898 1.0132,29.3812 2.6571,0.4458 6.3078,0.5674 8.1051,3.0393 2.3981,3.303 1.0314,9.1895 2.0263,13.1709 2.1236,8.4902 5.4355,19.1689 2.0263,27.355 -2.3931,5.7446 -9.0454,10.871 -12.1577,16.2104 -2.3789,4.083 -2.0233,9.1082 -4.0526,13.171 -9.0024,18.0035 -22.4847,33.8288 -31.4075,51.6703 l -9.1183,18.2367 c -0.9866,1.9756 -4.4322,5.8255 -4.0526,8.1051 0.3291,1.9757 2.9217,3.3737 4.0526,5.0656 3.3747,5.0659 7.1846,12.4313 9.1183,18.2367 l 4.0526,-1.0131 c 0.8493,5.0962 -1.7212,12.1576 6.0788,12.1576 l 1.0132,12.1579 7.092,-3.0395 c 3.5564,7.1124 10.2701,1.611 12.1577,-4.0526 6.6211,2.2088 8.0501,0.3343 9.1183,-6.0789 5.4741,3.6474 9.2105,-0.547 10.1315,-6.0788 4.7739,2.391 7.6097,-0.5368 9.1183,-5.0657 9.5326,4.7617 27.5758,-5.7243 30.3943,-14.1842 1.2219,-3.6675 -1.1924,-17.2234 6.0789,-17.2234 3.1418,0 2.7325,6.0992 4.0526,7.0921 7.1771,5.3798 19.4281,-11.2053 20.2629,-16.2103 1.6839,0.5572 6.1741,1.2056 7.092,3.0395 1.6059,3.2116 -4.6645,15.8049 -7.092,18.2365 -6.3322,6.3321 -13.41,15.2783 -20.2629,20.2629 -1.7679,1.2868 -5.4852,0.7801 -7.092,2.0263 -4.6017,3.5764 -11.409,11.935 -13.1709,17.2235 -5.4578,-1.8237 -14.0929,-2.857 -18.2366,4.0526 -2.8753,4.7922 -1.1104,11.8333 -9.1183,13.171 -4.7253,0.79 -6.1691,-7.5482 -8.1052,-10.1316 -2.8034,-3.7384 -16.1726,-2.5025 -19.2497,1.0131 -1.118,1.2766 -0.2565,4.5693 -1.0132,6.0789 -1.6901,3.384 -5.197,2.158 -7.092,4.0528 -5.7213,5.7241 -6.6974,14.0116 -9.1183,21.2759 -1.3128,3.9411 -7.5395,9.6148 -1.0131,13.1709 7.9425,4.3362 16.0155,-3.8499 23.3023,-5.0657 -3.7064,5.5622 -9.7302,15.2781 -15.1972,19.2497 -1.4928,1.084 -4.7872,0.7396 -6.0789,2.0263 -2.8283,2.8266 -2.4749,9.716 -5.0657,13.171 -3.4087,4.5489 -8.4819,6.8285 -11.1446,12.1578 -3.9123,7.8213 -2.7071,18.2465 -6.0788,26.3415 -1.9019,4.5694 -5.8811,8.3281 -7.0921,13.1709 -0.9798,3.921 -3.3068,13.3837 -2.0263,17.2236 2.3025,6.9095 7.1267,8.9766 5.0658,17.2235 -3.8045,15.2174 -17.9465,26.4939 -13.1709,45.5916 1.6778,6.7069 1.788,15.4909 4.0526,22.2892 2.3389,7.0211 8.4663,12.4414 9.1183,20.2628 0.147,1.7629 -1.6139,4.4274 -2.0263,6.0789 -1.2612,5.0454 1.4809,15.5923 3.0394,20.2629 2.5727,7.7202 11.9352,13.8599 13.1709,21.2762 0.6282,3.7687 -3.1352,10.5163 -4.0526,14.184 -1.4704,5.8863 1.0132,12.249 1.0132,18.2366 15.0619,-2.5127 28.2084,-15.481 42.5521,-20.263 5.94,-1.9756 11.5994,-1.9047 16.2103,-7.0921 7.3787,-8.2976 4.7871,-23.2617 10.1314,-32.4206 4.855,-8.3178 15.1121,-10.5062 20.2629,-18.2366 4.1803,-6.2713 4.6919,-15.1871 9.1183,-21.2759 4.4994,-6.1905 13.1993,-8.4802 18.2366,-15.1972 38.8927,-51.8529 97.0157,-86.1277 135.7615,-137.7879 18.6662,-24.893 43.01,-45.8651 61.8018,-70.9202 7.6746,-10.2328 16.0098,-27.2335 28.3681,-34.4471 21.3855,-12.4716 43.235,-22.9983 65.8544,-32.4206 10.718,-4.4679 26.8483,-2.705 36.4732,-9.1182 10.4952,-7.0009 17.2731,-18.7837 27.3549,-26.3418 24.431,-18.3277 43.2066,-44.3049 67.8808,-62.8151 38.4509,-28.8341 68.9394,-69.4308 107.3933,-98.275 9.8368,-7.3757 16.5204,-17.9632 26.3419,-25.3287 18.8698,-14.1536 35.4458,-32.1572 54.7098,-46.6048 9.7242,-7.2945 22.3064,-16.2305 30.3944,-25.3286 11.5885,-13.0391 25.4695,-27.2028 40.5259,-38.4994 28.5372,-21.4078 53.266,-48.3069 82.0647,-69.907 76.377,-57.2833 145.4067,-125.0152 221.8789,-182.3662 62.1159,-46.5865 125.3262,-91.2064 187.432,-137.7878 20.7898,-15.5913 45.1964,-30.3346 67.8807,-43.5653 7.0413,-4.1093 15.6938,-7.3584 22.2892,-12.1577 7.4163,-5.3971 13.7382,-12.1963 21.2762,-17.2236 v -1.0131 c -6.4438,1.0729 -12.3301,4.6301 -18.2369,7.092 -13.5051,5.6271 -27.375,9.635 -40.5256,16.2104 -5.0557,2.5278 -10.1922,4.5916 -15.1972,7.092 -1.3373,0.6677 -4.5085,3.5622 -6.0789,3.0394 -7.1732,-2.39 -3.0901,-13.1354 1.0131,-16.2103 11.0839,-8.3108 25.2679,-13.9146 38.4995,-17.2235 16.9803,-4.2451 34.7409,-5.8985 51.6705,-10.1315 12.2286,-3.0556 25.3287,-1.0121 37.4863,-4.0525 9.858,-2.465 19.5235,-6.6534 29.3814,-9.1183 10.5366,-2.6332 22.1675,-1.6494 32.4204,-5.0658 8.4701,-2.8216 21.3876,-8.5955 28.3683,-14.184 1.6412,-1.309 1.246,-3.9898 3.0394,-5.0657 2.8468,-1.7072 7.9836,-0.1814 11.1446,-2.0263 6.2309,-3.6352 7.1326,-12.2419 10.1315,-18.2367 3.1204,-6.248 10.2327,-10.2793 14.184,-16.2103 2.7355,-4.1093 2.9988,-10.3391 6.0789,-14.184 4.5185,-5.6443 16.2812,-7.6483 22.2891,-12.1578 3.1408,-2.3555 10.253,-6.2561 12.1578,-9.1183 1.2056,-1.8155 -0.1925,-4.3038 2.0262,-6.0789 1.9656,-1.5754 5.2887,-0.7882 7.0921,-3.0394 4.853,-6.0657 7.2136,-15.5589 11.1446,-22.2892 1.935,-3.318 6.7779,-8.3929 7.0921,-12.1578 0.7091,-8.5388 -13.3533,-11.1446 -19.2498,-11.1446 l -2.0264,-8.1051 5.0658,-25.3287 -14.1841,-4.0526 -11.1445,-1.0131 -5.0658,-6.0789 c 2.5532,-5.1062 2.5633,-12.5184 8.1052,-16.2103 7.0008,-4.6655 21.185,-6.0566 29.3811,-8.1051 4.2046,-1.0517 10.1315,0.01 10.1315,-5.0658 l 9.1184,1.0132 8.1051,-5.0657 8.1053,4.0525 59.7755,-14.184 c -2.1985,-6.5864 -1.9046,-23.7876 0,-31.4075 0.6078,-2.4224 2.5532,-9.3311 1.0132,-12.1578 -2.4822,-4.5581 -9.3514,-2.9816 -13.1709,-2.0262 -11.2662,2.8175 -23.9407,9.8558 -34.447,8.1051 3.6271,-10.8832 11.6409,-14.5609 22.2893,-17.2235 12.6947,-3.1741 22.1775,4.9705 30.3943,-9.1183 6.626,-11.3563 -1.2158,-30.6132 2.0263,-43.5653 0.8612,-3.4305 2.9077,-13.4444 1.0131,-17.2234 -3.617,-7.2379 -13.1505,-5.5318 -16.2103,-11.1446 -0.8712,-1.6059 0,-6.2268 0,-8.1051 0,-7.7192 0.1823,-17.9621 2.0263,-25.3287 2.5531,-10.2024 -2.8571,-22.5841 -5.0658,-31.4075 -2.2087,-8.8337 0.8004,-18.8759 -2.0262,-27.3549 l -25.3286,3.0394 c 0,-13.9288 4.1741,-21.4758 11.1445,-33.4339 3.0395,-5.2096 11.7424,-16.8749 10.1315,-23.3023 -0.8712,-3.5056 -5.0455,-7.0668 -7.092,-10.1316 -2.462,-3.6868 -7.4974,-17.6277 -13.1709,-16.2103 -10.395,2.5987 -19.1485,7.7932 -28.3681,13.1709 -5.9977,3.4994 -9.7465,8.1052 -17.2234,8.1052 v -33.4338 c 0,-3.351 -1.1753,-9.8485 -5.0659,-11.1446 -1.8033,-0.6026 -6.3727,2.4611 -8.1052,3.0394 -6.1598,2.0526 -13.0796,1.9966 -19.2495,4.0526 3.9715,-5.9614 2.0161,-15.213 0,-21.2761 -2.2494,-6.7619 -6.1297,-16.0433 -12.1579,-20.2629 -9.2096,-6.4499 -30.8604,-6.9751 -42.5522,-4.0526 -16.6864,4.1719 -30.0498,10.7475 -45.5916,17.2235 -6.1192,2.5492 -17.5779,4.4071 -22.2891,9.1183 -1.8034,1.8043 -1.4082,6.65 -2.0263,9.1184 -1.7527,7.0225 -2.7861,16.3728 -7.092,22.2891 -2.9685,4.0851 -9.2299,4.7933 -13.1709,7.0921 -12.5021,7.2936 -23.8393,17.7401 -37.4864,22.2892 M 1911.935,1678.571 c 9.4475,-4.7233 16.7382,-14.8871 22.2892,-22.2892 -8.9977,-2.9989 -20.9154,14.0483 -22.2892,22.2892 m -60.7888,59.7756 2.0264,-5.0657 c 5.3616,2.6808 9.8882,-4.8833 14.1841,-8.1052 12.7087,-9.5316 31.4124,-24.3317 36.4731,-39.5127 -11.1962,-3.7324 -23.2739,3.2857 -34.4469,6.0789 -4.2876,1.0719 -11.021,1.9027 -14.184,5.0657 -1.8582,1.8582 -2.851,6.7152 -4.0527,9.1184 -4.2784,8.557 -11.9682,26.437 0,32.4206 m 678.8077,17.2235 -1.0131,11.1446 -8.1053,4.0526 -27.3549,9.1183 -1.0132,-1.0131 c 4.9847,-14.9683 23.8393,-18.7523 37.4865,-23.3024 m -73.9597,35.4601 c 0,6.9178 1.3372,10.9217 -6.0789,12.1578 -1.2562,-7.5145 1.0943,-6.2461 4.0526,-12.1578 z"
       id="path837-3-6-7-5"
       transform="matrix(0.0763,0,0,0.0763,37.57738,-766.1202)" />
    <g
       id="g1133"
       transform="matrix(0.07505708,0,0,0.07630011,-190.64391,-1053.5421)">
      <path
         style="fill:#8c140a;fill-opacity:1;stroke:none;filter:url(#filter1000)"
         d="m 160,125 v 15 h 6375 v -15 z"
         id="path2-2"
         sodipodi:nodetypes="ccccc" />
      <path
         style="fill:#142878;fill-opacity:1;stroke:none;filter:url(#filter996)"
         d="m 3288.8244,125.00168 v 157 h 2705 v -157 z"
         id="path879" />
    </g>
    <g
       id="g1263"
       transform="matrix(0.98371006,0,0,1.0000015,-4715.0883,-4894.5831)">
      <path
         style="fill:#808080;stroke:none;filter:url(#filter1012)"
         d="m 1048.8697,-99.94354 v 116 h 7001 v -116 z"
         id="path2-7"
         transform="matrix(0.03987651,0,0,0.08149563,4529.2217,3726.93)" />
      <path
         style="fill:#020202;stroke:none;stroke-width:0.0763"
         d="m 4687.4046,3801.1304 c -0.2296,1.2978 -1.2025,2.4567 -2.199,3.2721 -0.496,0.3928 -1.0881,0.4968 -0.7469,1.0248 0.24,0.6095 0.7581,-0.063 2.2592,-0.9397 0.3196,-0.2839 1.4528,-1.3575 1.8968,-2.2939 0.6661,-1.403 0.7878,-4.4229 -1.7796,-4.4053 -1.9018,0.071 -2.3558,2.1394 -1.2335,3.1208 0.5525,0.4829 1.1461,0.3081 1.803,0.2212 m 37.0818,17.4727 c 1.526,1.1289 2.9193,1.8123 4.7478,2.134 2.9924,0.5129 5.4398,-0.7265 7.8074,-1.363 0.8339,-0.2173 1.6328,-0.1219 2.4759,-0.1606 0.3388,-1.9479 0.5501,-4.3364 1.5291,-6.0908 0.87,-1.2651 2.5984,-0.1566 2.2859,-1.6918 -2.1356,0.3396 -4.5597,0.2499 -6.7144,0.1013 -1.9599,-0.056 -2.0517,-0.3763 -2.1364,0.8143 1.2152,0 2.457,0.059 2.7171,1.3734 0.8469,4.8802 -5.2808,7.8266 -9.1263,5.5212 -6.4574,-5.8829 1.1259,-19.8608 6.4855,-20.2671 3.9628,-0.5793 5.388,4.9023 5.6462,6.0477 0.8112,0.2651 0.6508,-0.3036 1.6705,-4.337 0.059,-0.288 0.5565,-1.495 0.096,-1.6104 -0.3585,-0.1306 -0.8375,0.6923 -1.3125,0.9209 -1.1374,-0.8424 -1.9991,-1.3805 -3.1785,-1.6744 -1.6969,-0.6439 -3.8165,-0.3404 -5.5157,0.1046 -8.2372,2.8506 -12.1725,15.202 -7.4774,20.1777 m 67.144,-19.2276 c 1.2835,0.1265 1.6172,0.1935 2.2127,0.3815 0.5992,0.4782 -0.222,1.8229 -0.4723,2.7468 -0.4425,1.637 -0.9324,3.263 -1.4352,4.8832 -1.9632,-2.0778 -4.3979,-1.0561 -6.3314,0.5341 -2.3065,1.8971 -3.9531,5.117 -4.1263,8.0878 -0.074,1.2719 -0.01,2.4805 0.7211,3.5847 0.7134,1.0774 2.1471,1.3799 3.3274,1.2134 2.1856,-0.2981 3.0249,-1.9697 4.3491,-3.5773 -0.1457,1.2044 -0.206,2.9773 1.1453,3.5547 2.3225,0.8344 3.9369,-2.243 4.6276,-3.5547 0.939,-1.5021 0.9031,-1.3437 0.3728,-1.6597 -0.7916,-0.3962 -0.5676,0.3848 -2.5756,3.4107 -0.2777,0.3253 -0.9889,1.0874 -1.3345,0.4363 -1.0608,-0.8443 2.0797,-11.8033 3.3839,-15.9976 1.4201,-4.3251 1.6504,-4.8554 1.4457,-4.9542 -4.9061,-0.062 -5.2474,-0.489 -5.3103,0.9103 m -178.4115,-0.2273 c 0.7473,0.063 1.9265,0.025 2.4598,0.639 1.6286,2.2773 -5.5831,14.78 -1.888,18.6583 2.7017,2.4643 7.3398,3.1136 10.3569,1.2989 4.6311,-2.8488 5.1726,-9.3598 6.4135,-12.9678 1.4088,-5.5399 1.2204,-6.4692 3.2046,-7.1722 0.3701,-0.2343 1.4181,-0.2148 1.4847,-0.7545 0.063,-0.5141 -1.3389,-0.3271 -1.6373,-0.3396 -1.7703,-0.074 -3.5797,0.1226 -5.341,-0.05 -0.2494,0.9435 0.7258,0.8034 1.3664,1.128 0.6212,0.3149 0.978,0.9342 0.9949,1.6188 0.047,1.8857 -0.6569,3.7689 -1.1168,5.5699 -0.7649,2.9963 -1.4496,6.1583 -2.883,8.9271 -0.6029,1.1647 -1.4379,2.2436 -2.558,2.956 -2.2526,1.4328 -6.3559,1.4773 -7.9529,-0.9723 -2.1855,-2.3657 1.5356,-11.8454 3.2098,-17.0908 0.3162,-0.621 0.852,-1.0855 1.5385,-1.2471 1.5405,-0.2201 1.7597,0.3247 1.8312,-0.8133 -2.3651,-0.01 -4.7299,-0.1108 -7.0959,-0.058 -2.2075,0.052 -2.3837,-0.3375 -2.3874,0.6696 m 161.3989,-0.4845 c -1.7488,0.3228 -1.2699,3.5225 0.5003,3.1559 1.9258,-0.3988 1.4965,-3.5246 -0.5003,-3.1559 m -105.778,8.8159 c 0.694,0.3113 -0.5326,6.4543 -1.4568,9.216 -0.1739,0.6394 -1.119,3.0782 -0.858,3.4209 1.1196,0.1121 1.6311,0.1029 2.471,0.037 1.001,-2.7812 1.9242,-6.0178 3.0562,-8.7227 0.46,-1.0992 0.913,-2.3878 1.7364,-3.2752 0.2282,-0.2459 0.8132,-0.8835 1.2048,-0.7431 0.3041,0.1089 0.2994,0.6309 0.4684,0.8655 0.4741,0.6577 1.5247,0.5221 1.9793,-0.089 1.149,-1.7707 -1.5386,-2.4933 -3.0075,-1.9665 -1.7895,0.6052 -2.3113,2.6574 -3.2809,4.0637 0.01,-0.6776 0.052,-1.3901 -0.079,-2.0579 -0.079,-0.4029 -0.1759,-0.7821 -0.3691,-1.1473 -1.4642,-2.766 -4.2461,0.3349 -5.1095,1.9081 -0.1688,0.3077 -1.3039,2.0972 -0.2528,1.9915 0.4768,-0.048 0.7714,-0.9425 0.9664,-1.3048 0.5337,-0.9913 1.6639,-2.5809 2.5312,-2.1964 m -27.0803,-1.5524 c -0.6902,0.1294 -2.1522,0.8064 -2.8008,1.6173 -2.7532,3.8105 2.7364,6.5386 3.1248,9.6645 0.2052,1.9371 -2.561,3.5304 -4.1922,2.442 -0.9024,-0.6024 -0.4649,-1.5817 -0.9973,-2.345 -0.3179,-0.6758 -1.2597,-0.5594 -1.4648,0.1613 -0.6984,2.4552 2.3146,3.0773 3.4024,3.3325 1.9194,0.046 4.7057,-1.2468 5.2784,-2.6545 1.6192,-3.8743 -2.7402,-5.8668 -3.4966,-9.156 -0.3232,-1.4056 1.4557,-2.8262 2.7657,-2.2438 1.3216,0.564 0.9366,2.1598 1.679,2.1675 1.2534,-0.076 0.8432,-1.7637 0.2925,-2.1307 -0.623,-0.4809 -2.2991,-1.1081 -3.5911,-0.8551 m 17.4904,10.0817 c -1.268,1.827 -3.3486,4.3385 -5.4119,3.7976 -1.4791,-0.5567 -0.9802,-3.3676 -0.3724,-4.3909 2.4383,-1.0851 4.0831,-2.0979 6.1038,-3.6068 1.9829,-1.3731 2.604,-4.492 0.4435,-5.5774 -5.0155,-1.2888 -8.9517,5.5681 -9.4623,9.2434 -0.5622,2.6053 0.5137,5.103 3.3952,5.2342 1.8882,0.086 3.5836,-1.1133 4.7429,-2.4894 1.0739,-1.4653 1.88,-1.8547 0.5612,-2.2107 m 38.3789,-9.9461 c -1.3646,0.089 -2.3328,0.3071 -3.2794,1.1943 -2.5583,2.4249 0.075,5.6936 1.6161,7.7944 0.6508,0.8874 1.4352,2.0983 0.9858,3.2461 -0.5524,1.4107 -3.3496,2.5106 -4.4079,1.0448 -0.457,-0.6331 -0.1358,-2.7441 -1.3963,-2.4299 -1.0117,0.2521 -0.7401,1.6535 -0.367,2.3006 0.5936,1.0291 1.9968,1.5022 3.1306,1.5421 1.6222,0.058 3.2429,-0.247 4.3957,-1.2716 3.7997,-3.9847 -3.2643,-8.961 -2.6744,-11.0845 0.2946,-1.2363 2.1288,-2.2441 3.1718,-1.2529 0.573,0.5447 0.4174,2.1753 1.6649,1.7077 0.7897,-0.2963 0.5539,-1.3211 0.1129,-1.8069 -0.6996,-0.7704 -1.954,-1.0221 -2.9528,-0.9842 m 50.2047,4.9716 c 0.3772,-0.7659 1.0982,-1.9521 1.8414,-2.9186 0.4048,-0.5264 1.4252,-1.2392 1.631,-0.1915 0.2037,1.0392 -0.2495,2.3746 -0.5608,3.354 -1.63,5.0683 -3.2587,8.6591 0.1068,9.5255 3.2668,0.4603 4.5968,-1.6326 6.3672,-4.2608 0.026,1.3756 -0.4654,2.9527 0.7928,3.9599 1.9739,1.5811 4.2201,-0.9621 5.051,-2.5102 0.7967,-1.5638 1.0419,-1.4677 -0.1621,-2.2124 -0.5051,0.883 -1.6989,4.1005 -2.9128,3.8566 -0.6371,-0.2055 -0.3692,-1.3714 -0.3364,-1.8537 0.4312,-4.1382 2.1222,-8.4822 3.1054,-11.6572 -1.0335,-0.055 -1.6965,-0.093 -2.6884,-0.1082 -0.8949,2.0477 -2.4935,8.8311 -4.9592,11.8877 -0.6378,0.7356 -2.6773,2.6725 -3.6792,1.4237 -0.6668,-0.8313 0.2801,-2.6228 0.5822,-3.4729 1.1709,-3.2831 2.9394,-6.8567 0.969,-9.1438 -1.8121,-2.0104 -4.3773,0.932 -5.2494,2.4296 -0.8382,1.53 -1.1956,1.7402 -0.6669,2.1699 0.3014,0.2454 0.5049,0.092 0.7684,-0.2776 m 20.9832,-0.6717 c 0.998,0.3805 2.0136,-1.9129 2.6904,-2.538 0.2723,-0.2511 0.927,-0.853 1.2642,-0.3735 1.1894,3.7381 -3.7552,8.2377 -3.277,11.686 0.2601,1.6066 1.9395,1.921 3.213,1.3386 1.5687,-0.7176 2.9802,-2.7616 3.4342,-4.3906 -0.766,-0.2392 -0.7796,-0.037 -1.3566,0.9156 -0.4953,0.8684 -1.9126,2.8108 -2.9971,2.4635 -0.829,-0.9838 0.4835,-2.9945 0.8538,-3.8369 1.011,-2.2907 3.1779,-5.6278 2.1525,-8.2396 -0.4418,-1.125 -1.8068,-1.4741 -2.8491,-0.9811 -1.4207,0.6724 -2.7964,2.4122 -3.1283,3.956 m 40.6679,5.7988 c -0.969,1.4068 -2.0631,2.9209 -3.6624,3.6538 -0.6623,0.3034 -1.7564,0.4299 -2.2424,-0.2404 -0.7162,-1.2867 -0.097,-4.2173 2.5476,-5.2105 2.3478,-1.0538 6.5641,-3.5691 5.2632,-6.7485 -0.9469,-2.3133 -3.7769,-1.3181 -5.3395,-0.4288 -3.129,1.7805 -4.9564,5.7331 -5.3295,9.2033 -0.1801,1.6789 0.2342,3.9763 2.1966,4.4137 2.025,0.4512 4.2423,-0.3265 5.6157,-1.8717 1.3312,-1.6956 2.3462,-2.2188 0.9507,-2.7709 m -155.652,-2.289 c 0.5674,-2.063 1.371,-4.3911 2.7872,-6.0316 1.8724,-2.1186 4.0456,-0.7061 2.4663,1.835 -0.9472,1.7753 -3.319,3.7876 -5.2535,4.1966 m 136.065,-6.8231 c 1.8595,-0.091 1.5611,2.4116 1.3383,3.5422 -0.5188,2.6336 -1.4718,5.4892 -3.129,7.63 -0.6188,0.7996 -1.3826,1.8309 -2.5042,1.8635 -1.9891,0.058 -2.0845,-2.2955 -1.7381,-3.6947 0.6501,-2.6206 1.5382,-5.0765 3.1535,-7.2686 0.7431,-1.0088 1.539,-2.007 2.8795,-2.0724 m 14.2405,6.8525 c 0.013,-2.0005 2.4177,-7.0562 4.6865,-6.8546 0.8889,0.1041 0.953,1.026 0.8096,1.7282 -0.6093,2.8144 -3.045,4.007 -5.4961,5.1264"
         id="path2-6"
         sodipodi:nodetypes="cccccccccccccccccccccccccccccccsccccccccccccccccccccccccccccccccccccccccsccccsccccccccccccccccccccccccccccccscccccccccccsccccccccccccccccccccccccccccccccccccccccccccccccccccccc" />
      <path
         style="fill:#999999;stroke:none;stroke-width:0.0763"
         d="m 4863.3245,4385.1652 c -1.523,0.1332 -3.1257,0.1738 -4.578,0.7029 -5.536,2.017 -8.824,7.1841 -8.7728,12.9962 0.053,6.0728 4.8389,11.1759 10.5277,12.543 1.4382,0.3456 5.2075,0.1856 5.8308,-0.2227 v -6.0506 c -0.1726,-0.9499 -2.9151,0.382 -5.373,-0.5282 -5.4539,-1.8194 -5.3286,-9.7323 -1.2971,-11.8587 1.2898,-0.7061 3.0034,-1.3464 4.5017,-1.0022 1.6911,0.3134 1.6643,0.9407 2.1684,0.2002 v -5.9215 c -0.4987,-0.9227 -2.0921,-0.9385 -3.0077,-0.8584 m 143.9018,9.1974 h -0.076 c -1.7725,-2.5825 -6.8609,-2.0209 -9.0034,-0.268 -2.7522,2.2518 -3.2924,7.3441 -1.5146,10.3396 2.6311,3.9507 8.2067,4.4867 10.621,1.3113 v 1.8944 h 4.7469 v -21.4032 l -4.7508,-0.036 v 8.0234 m -98.4112,-2.3394 c 0.8858,0.143 0.9364,-3.5418 0.2082,-3.8945 -0.9904,-0.6931 -2.4693,-0.7373 -3.5277,-0.8089 -3.4524,-0.2335 -7.0488,0.1783 -9.7657,2.4963 -3.701,3.1573 -4.3049,9.5329 -1.5221,13.4594 3.1985,4.0707 8.4358,5.0565 13.0427,4.0777 1.5591,-0.4334 1.7012,-0.1581 1.8512,-1.3344 0.07,-0.5519 0.3768,-2.9348 -0.2053,-2.8763 -3.5535,0.8403 -6.6473,0.8159 -9.1225,-0.8927 -2.8242,-2.3241 -2.9124,-6.2688 -0.8885,-8.5115 2.4296,-3.594 6.4555,-2.8488 9.9297,-1.7151 m 8.7359,-0.01 c -9.1956,0.151 -9.8213,11.44 -5.2604,14.157 2.6383,2.1481 8.093,2.2334 10.9066,0.431 7.0724,-5.8093 2.797,-15.3063 -5.6462,-14.588 m 67.7544,0.1645 c -1.5664,0.2431 -3.0123,0.7467 -4.3491,1.5895 -3.464,2.1845 -4.3293,7.8364 -1.7175,11.0296 2.9811,4.0071 9.8253,4.5997 13.4326,1.1097 4.7266,-6.3245 1.1436,-14.6469 -7.366,-13.7288 m 35.1743,0.068 c -6.8065,0.7986 -9.7641,8.052 -5.9659,12.7754 1.8859,3.1278 8.2822,4.0433 11.7494,2.0752 3.844,-2.2507 4.842,-8.0719 2.3958,-11.6848 -1.7243,-2.5452 -5.2418,-3.5258 -8.1793,-3.1658 m 24.5199,9.2565 h 10.2581 c 0.2557,-1.9162 -0.3378,-5.7356 -1.4723,-7.0671 -2.0906,-2.373 -6.2955,-2.8983 -9.1186,-1.5747 -3.8005,1.7816 -5.0564,8.0798 -2.9505,11.5545 2.2312,3.8401 7.9275,4.5801 12.3384,2.5516 v -2.8607 l -0.2393,-0.236 c -1.0809,0.474 -0.5834,0.4215 -2.581,0.8238 -2.6857,0.4001 -6.1904,0.063 -6.2348,-3.1627 m -113.3495,-7.6089 v -1.2943 h -4.1624 v 15.0585 h 4.4046 v -9.7637 c 0.021,-2.4591 5.2736,-2.3237 5.2887,0 v 9.7637 h 4.4052 v -9.7637 c 0,-2.4833 5.1432,-2.1843 5.205,0 v 9.7637 h 4.3176 v -9.7637 c 0,-2.4421 -0.3584,-3.6497 -1.786,-4.4796 -2.4557,-1.4275 -6.3881,-1.3383 -8.4802,0.9072 -1.5679,-2.0392 -3.9803,-2.4834 -6.2004,-1.7975 -1.1402,0.3214 -2.0433,0.8128 -2.9757,1.3694 m 25.4144,0.324 v -1.6183 h -4.1573 v 15.0585 h 4.5441 v -9.7637 c 0.01,-2.3236 4.9723,-2.3836 4.9907,0 v 9.7637 h 4.8045 v -9.7637 c 0.036,-1.5717 5.0003,-2.1762 5.0147,0 v 9.7637 h 4.3376 v -9.7637 c 0,-1.0522 -0.096,-2.7578 -0.875,-3.7185 -1.9658,-2.4227 -6.6473,-2.5525 -9.3572,0.1461 -3.1895,-2.8943 -6.2319,-2.8591 -9.3331,-0.1041 m 77.7522,0.4788 v -2.3214 h -3.8305 v 15.3338 h 4.3737 v -9.0447 c -0.051,-0.806 1.7602,-2.1377 2.9886,-2.3157 0.319,-0.081 1.3059,-0.2139 2.0671,-0.1507 l 0.1431,-3.3401 c -1.8164,-1.4374 -5.0228,0.6059 -5.72,1.8388 m -168.3941,3.2019 h 6.8287 l 4.9215,-5.2217 h -11.7093 v 5.2244 m 51.5379,-3.0043 c 5.2423,-0.038 5.7675,9.4143 0.5341,9.7093 -6.3525,-0.1253 -5.381,-9.5584 -0.5341,-9.7093 m 133.2961,3.9142 h -6.2173 c 0.037,-4.5667 6.1607,-4.5767 6.2173,0 m -65.0839,-3.7067 c 5.9195,0.3054 5.1367,9.3018 0.5341,9.6408 -5.3776,0.3727 -5.4753,-9.2635 -0.5341,-9.6408 m 35.1743,0.079 c 1.819,-0.1761 3.1265,1.3074 3.7155,2.8839 0.8485,2.0641 -0.1902,6.6379 -3.4103,6.8126 -6.603,-0.336 -4.3697,-9.4314 -0.3052,-9.6965 m -18.312,0.6893 c 5.4856,-0.016 5.6605,8.2491 1.4497,9.0378 -5.7488,0.5819 -5.6946,-9.1507 -1.4497,-9.0378 m -124.9031,8.4165 -4.9215,-5.0855 h -6.7878 v 5.0855 z"
         id="path2-20"
         sodipodi:nodetypes="ccsccccccccccccccccccccccsccccccccccccccccccccccccccccccccccccccccccccssccccccccccccccccsscccccccccccccccccccccccccccccccccccccc" />
      <path
         style="fill:#020202;stroke:none;stroke-width:0.0763"
         d="m 4614.0368,3935.9501 c -0.3007,0.3543 -1.0603,1.4202 -1.5013,1.7788 -0.5153,0.5482 -1.1871,0.9023 -1.8887,1.1688 -0.9132,0.3469 -2.1041,0.3987 -1.8444,1.7594 0.064,0.3344 0.4245,0.3427 0.7005,0.3422 3.0878,0.02 6.4449,-0.051 9.2317,-0.01 0.6565,0.011 2.9518,0.1337 2.9921,-8e-4 0.086,-0.2869 0.1079,-0.6528 0.2095,-1.4641 -0.3811,-0.082 -0.5001,-0.1022 -1.4468,-0.2994 -1.1329,-0.1973 -2.5757,-0.6413 -2.8069,-1.9766 0.3369,-2.845 2.4688,-5.8558 3.8977,-8.0901 4.4106,-0.012 6.2912,0.095 10.1405,0.1422 0.3068,0.01 0.7317,-0.065 0.9957,0.1259 0.7614,1.7649 0.807,4.5494 1.0765,6.3003 0.1295,0.8425 0.2059,1.866 -0.3431,2.5813 -0.6294,0.8202 -1.5969,0.9256 -2.549,0.9889 -0.3768,0.025 -0.8781,-0.073 -1.2108,0.1432 -0.4017,0.2607 -0.5327,1.0376 -0.6549,1.4707 5.7431,0.036 10.4688,0.218 15.6128,0.071 l 0.4102,-1.5202 c -0.8391,-0.3233 -1.9159,-0.1241 -2.6294,-0.7534 -0.673,-0.5933 -0.922,-1.695 -1.1445,-2.5275 -2.7531,-11.0855 -3.8633,-21.5783 -5.3058,-32.2749 -0.6215,-7e-4 -1.633,-0.048 -2.2939,-0.049 -0.3545,0.011 -0.2535,-0.094 -0.5995,0.4164 -3.3397,5.0794 -7.184,11.4512 -10.0758,16.1137 m 25.7546,7.1796 c 4.6613,0.1919 9.4752,-0.089 13.767,0.069 -1.292,4.9172 -2.3479,8.6491 -3.5385,13.4144 1.7489,-0.022 4.8523,-0.013 6.5473,-0.1122 1.2646,-4.266 2.5933,-9.2363 3.6102,-13.1526 0.2714,-0.2382 0.6747,-0.2042 1.011,-0.2079 1.3196,0.01 2.6926,0.1221 4.0485,0.099 0.4421,-1.1382 0.6232,-1.5589 0.9138,-2.7762 -1.735,0.03 -3.528,0.2034 -5.1149,0.2172 1.8582,-7.2118 3.8645,-14.8481 5.5699,-21.1351 -1.0231,-0.073 -2.3475,-0.068 -3.4529,-0.063 -6.0029,5.257 -12.5406,11.5981 -17.8511,16.5919 -2.5621,2.4138 -3.9936,3.7555 -4.8245,4.5653 m 40.6771,-17.8702 c -1.4042,1.3291 -2.7839,3.3557 -3.6652,4.8486 -1.9029,3.2506 -3.2877,6.543 -4.3338,10.1628 -0.3489,0.7092 -0.9949,4.6838 -1.0032,5.7013 -0.1095,3.1172 0.2953,6.9192 1.5694,9.472 0.4419,0.8434 1.001,1.6793 1.6808,2.337 4.0584,3.924 10.1174,1.6783 13.7493,-1.5163 2.334,-2.0527 3.9493,-4.8207 5.2456,-7.601 2.4256,-5.2007 4.0943,-11.0718 3.5739,-16.8623 -0.2747,-3.0466 -1.3787,-6.3918 -3.9073,-8.3146 -2.6438,-2.0099 -6.5923,-1.6589 -9.4513,-0.4929 -1.2727,0.5189 -2.4454,1.1135 -3.4582,2.2654 m 31.0348,19.521 c 1.1307,0.04 2.1148,-0.4684 2.6382,-0.6963 1.7992,-0.7834 3.6853,-1.4881 4.4254,-3.5082 0.1969,-0.5373 0.4097,-1.4439 0.103,-1.9762 -0.3555,-0.6178 -1.2467,-0.3533 -1.5672,0.152 -0.399,0.6291 -0.5997,1.3992 -1.0827,1.9749 -0.8416,1.0036 -2.4919,1.329 -3.4304,0.2151 -1.0842,-1.2868 -0.7455,-3.5069 -0.4685,-5.02 0.6226,-3.4021 1.294,-6.8256 3.5395,-9.5808 0.9881,-1.212 2.5088,-2.4499 4.2034,-2.2011 4.3933,1.1607 2.8957,8.3095 2.2524,11.2478 -2.4729,10.8024 -7.6922,18.257 -16.9783,22.2647 -0.7035,0.3 -1.4291,0.5178 -2.1364,0.8027 -0.2167,0.088 -0.6012,0.1477 -0.6997,0.3919 -0.4806,1.1934 0.8282,1.7398 1.9611,1.3062 3.8567,-1.2407 7.9773,-3.0703 11.0992,-4.905 8.6626,-4.612 14.2031,-14.2319 13.2899,-23.0651 -0.9728,-6.7693 -5.3752,-10.9182 -11.6876,-9.9847 -6.3512,0.8593 -10.8705,6.5215 -11.812,12.7315 -1.1369,4.5916 1.6332,9.9944 6.3507,9.8506 m 28.5802,-17.5569 c 1.8956,-0.3773 5.1216,0.1651 5.1991,1.6786 -0.7614,5.2851 -2.4299,11.0464 -3.6157,15.7678 -0.8389,3.5556 -1.8798,9.3697 -4.7132,12.0313 -0.75,0.4759 -1.7297,0.5732 -2.5927,0.6419 -0.454,0.036 -1.0941,8e-4 -1.4482,0.3405 -0.3334,0.3195 -0.4463,0.9976 -0.5356,1.4333 l 2.289,0.076 c 5.8335,-0.016 10.0707,0.156 14.3626,0.2284 1.0629,0.047 1.0847,0.1051 1.2033,-0.055 0.2909,-0.4184 0.509,-1.3015 0.6097,-1.776 -1.4291,-0.1716 -4.0157,0.3342 -4.8946,-1.1581 -0.5746,-0.9752 -0.2305,-2.1009 0.03,-3.1147 2.8668,-10.4511 6.0204,-21.9279 8.5265,-31.1304 -1.3169,-0.1789 -1.7788,-0.246 -3.5113,0.8335 -3.4739,1.5056 -6.7376,2.1138 -10.743,2.3025 -0.2135,0.4629 -0.2308,0.6034 -0.2676,1.7205 m -51.9346,-2.9617 c 3.5655,-0.5611 3.5227,4.2578 3.2137,6.5745 -0.592,7.4789 -3.4215,15.0323 -5.4882,21.2877 -0.7882,2.4035 -2.3333,5.5457 -5.1793,5.8473 -1.4558,0.1542 -2.3119,-0.8106 -2.7162,-2.1086 -0.6547,-2.0997 -0.2228,-4.0622 0.021,-6.1803 0.5349,-4.6309 1.7267,-9.2349 3.1718,-13.6577 0.6547,-2.0032 1.275,-4.0288 2.1494,-5.9514 1.0987,-2.4153 1.8029,-5.3357 4.8275,-5.8115 m -30.6734,5.7352 c -0.033,1.024 -0.4761,1.9216 -0.7143,2.8991 -0.584,2.3966 -1.8569,7.1594 -2.5157,9.558 -0.2874,0.7348 -0.046,0.8639 -0.6789,0.8748 -0.8228,0.014 -2.0663,-9e-4 -2.875,0 -2.342,0.01 -4.685,-0.06 -7.0264,-0.057 5.2467,-5.2979 9.0639,-8.8262 13.8103,-13.2762 m -36.4714,1.526 c 0.8103,3.3515 1.1046,6.9612 1.5816,10.3768 0.1162,0.8322 0.3025,1.6794 0.3441,2.5179 0.013,0.253 0.113,0.6764 -0.1092,0.8674 -3.1801,0.3126 -6.9591,0.1158 -9.828,0.1245 2.0244,-4.2494 4.777,-8.8113 7.0272,-12.5132 l 0.9843,-1.3734 m 68.8989,8.2404 -0.076,0.076 0.076,-0.076 m -45.3985,3.1283 0.076,0.076 -0.076,-0.076 m -0.2035,0.1272 0.025,0.051 -0.025,-0.051 m -33.8609,38.7757 c -0.6562,0.622 -1.6464,3.6606 -1.6961,3.9694 -0.7332,4.9099 2.2337,9.0789 5.62,12.3132 2.3699,2.2639 5.393,4.6925 6.1413,8.0672 0.7976,3.5968 -1.7777,6.9433 -5.4523,7.289 -1.8124,0.1709 -3.6231,-0.5143 -5.1057,-1.5161 -1.5684,-1.0606 -2.8649,-3.6456 -3.2244,-5.4677 -0.2407,-1.0209 -0.2315,-2.1298 -0.3003,-2.9569 -0.358,-0.2682 -1.5404,-0.4438 -2.0519,-0.5529 l -0.8532,4.578 -1.2832,7.0196 c 0.3334,0.019 1.2385,0.1974 1.5689,0.1523 1.0395,-1.1454 1.3859,-1.6732 2.2461,-2.7465 0.8667,0.7934 1.9857,1.3915 3.0035,2.0495 l 2.6427,1.0025 c 1.4284,0.3404 2.5722,0.3686 3.8218,0.4952 1.1664,0.1183 2.4286,-0.011 3.5793,-0.2113 1.4983,-0.2777 2.5391,-0.7171 3.7387,-1.3879 2.4649,-1.5594 4.0531,-3.9265 4.5961,-6.526 1.9115,-8.4027 -6.8028,-13.6423 -10.6542,-18.4714 -2.1767,-3.1647 -2.1022,-6.8844 1.2068,-8.4945 2.967,-1.3515 6.8508,0.1961 8.2283,2.9314 0.5979,1.188 0.8356,2.4226 0.8938,3.7387 0.018,0.4037 -0.1373,1.1651 0.3325,1.3521 0.4024,0.1594 1.3724,0.3326 1.6902,-0.041 0.5348,-0.6295 0.6204,-2.1891 0.8029,-2.9895 0.5234,-2.2951 1.214,-4.5589 1.6781,-6.867 -0.5527,-0.1054 -1.778,-0.255 -2.2578,0.1016 -0.4511,0.3353 -0.9905,1.6633 -1.6387,1.5465 -0.4735,-0.085 -0.9519,-0.5251 -1.3683,-0.7541 -0.8094,-0.4453 -1.7114,-0.8599 -2.5941,-1.1354 -3.4016,-1.0616 -6.3713,-1.1252 -9.5703,0.4032 -1.3842,0.6614 -2.9513,1.6925 -3.7405,3.109 m 35.5904,-1.3633 c -1.9201,1.3225 -3.535,2.6583 -5.0513,4.3652 -3.8947,4.5861 -6.7217,11.2847 -6.3793,17.4292 0.2727,4.8961 2.4805,9.8099 7.0817,12.0523 3.0595,1.4745 6.9003,1.457 9.8575,0.9301 2.7015,-0.3067 5.1579,-1.333 7.3861,-2.6545 l 0.076,2.2127 c 0.5692,0.027 1.6287,0.08 2.3356,-0.054 0.9232,-3.8151 2.1409,-7.8625 3.0054,-11.2381 -0.6106,-0.028 -1.0998,-0.039 -2.0149,-0.045 -0.267,0.4647 -0.6083,1.115 -0.7792,1.4949 -1.3239,3.2905 -4.125,6.2402 -7.1249,7.6041 -0.9919,0.5005 -2.1034,0.8057 -3.2046,0.9148 -1.74,0.1155 -3.528,-0.079 -4.9595,-0.8904 -6.0014,-4.8933 -3.8336,-13.8992 -1.9948,-19.7602 1.3528,-4.317 3.6538,-9.2017 7.6493,-11.6708 3.1843,-1.9677 7.8821,-2.0587 10.1877,1.294 1.3314,1.9358 1.6206,4.5742 1.6305,6.867 h 2.3653 l 2.0601,-10.7583 c -0.5776,-0.052 -1.1516,-0.079 -1.9523,-0.022 -0.3229,0.4646 -0.7498,1.3447 -1.2919,2.0676 -0.4947,-0.078 -1.6504,-0.9752 -2.0968,-1.2436 -1.1315,-0.6804 -2.4439,-1.16 -3.7385,-1.4105 -2.9384,-0.5686 -6.082,-0.5699 -8.9052,0.4474 m 18.824,36.2512 c 0.6089,0.057 1.4747,0.1049 2.2262,0.1015 0.4874,-0.7323 1.1946,-1.9909 1.5888,-2.6957 3.0411,2.9792 8.0676,3.9156 11.9799,3.4671 1.9494,-0.248 3.8791,-0.8599 5.4585,-2.0601 3.3434,-2.54 4.8359,-7.305 3.6769,-11.326 -1.2895,-4.4765 -5.1587,-7.3492 -8.2366,-10.6102 -1.6862,-1.7862 -3.2916,-3.5282 -3.7746,-6.0232 -0.6218,-3.2114 2.3382,-5.4014 5.4682,-5.633 3.175,0.042 5.6316,2.9921 6.1661,5.7856 0.2114,0.583 0.1448,2.2711 0.2479,2.7099 0.5788,0.2108 1.1009,0.3171 2.0508,0.2352 0.7689,-3.3499 1.6852,-6.9758 2.3708,-9.9647 -0.7161,-0.081 -1.3494,-0.1228 -2.1066,-0.1349 -0.3691,0.4812 -0.98,1.2631 -1.4926,1.883 -0.4971,-0.111 -1.2664,-0.6273 -1.6655,-0.8476 -3.0537,-1.7563 -7.3976,-2.4123 -10.5294,-1.3362 -4.6978,1.6332 -8.1145,6.5642 -6.8174,11.5755 1.4604,5.6401 6.2795,8.4472 9.6832,12.7696 1.5245,1.935 2.7331,4.8718 1.6512,7.2973 -2.0823,4.6658 -8.6814,4.7985 -11.5114,0.8393 -1.7867,-2.5366 -2.0724,-4.3384 -2.2591,-7.273 -0.5426,-0.1098 -1.6251,-0.2271 -2.0992,-0.2346 -0.6813,3.9292 -1.386,7.8043 -2.0761,11.4752 m 231.189,-36.624 c -6.8001,9.7937 -11.7538,19.173 -16.9546,28.6125 -1.4807,3.2236 -3.9038,6.6754 -7.2322,6.9718 -0.2196,0.5386 -0.172,1.0603 -0.2292,1.4975 4.8749,0.053 8.423,0.064 12.6278,0 0.1278,-0.2513 0.412,-0.887 0.5729,-1.4205 -2.0588,-0.1898 -3.9498,-0.8313 -4.2316,-2.3198 -0.6441,-1.4316 1.8477,-5.5625 3.3411,-7.9069 5.7351,0.1164 8.5563,0.2025 11.7048,0.2547 0.3352,2.4866 0.6921,5.0031 0.9336,7.2013 0.085,2.1197 -1.3354,2.5753 -3.0276,2.5843 -0.3517,0.027 -0.9762,0.075 -1.294,0.1302 -0.1732,0.4459 -0.3113,1.0303 -0.4075,1.4751 5.1368,0.1107 10.2749,0.1175 15.4126,0.1526 0.2083,-0.3731 0.4462,-0.9945 0.6727,-1.6654 -3.5028,-0.05 -4.4092,-2.1483 -4.8556,-5.7252 -1.6521,-10.2616 -2.9624,-21.1161 -4.4691,-29.7472 -1.2425,-0.07 -1.5912,-0.068 -2.5641,-0.097 m -203.3395,36.7766 c 6.3321,0.016 11.7494,0.047 17.2506,0.084 l 0.451,-1.5342 c -3.6679,-0.09 -5.2462,-0.4724 -4.5757,-3.7875 2.5217,-9.2592 5.0062,-19.0184 7.3492,-27.1903 1.0489,-2.1484 2.3459,-2.449 4.4505,-2.4892 0.1366,-0.4238 0.1588,-1.3445 0.1771,-1.7836 -6.3013,0.4106 -9.457,0.4929 -16.9159,-0.012 -0.1311,0.3214 -0.1998,0.981 -0.1898,1.5653 1.1863,0.1617 2.3866,0.085 3.2908,0.5346 1.994,1.162 0.7577,4.6138 0.3152,6.2283 -2.4969,8.8921 -4.5903,16.3098 -7.1005,24.7212 -1.1756,2.1157 -2.5202,1.9681 -4.2579,2.0581 -0.1565,0.7642 -0.1233,1.1763 -0.2446,1.6043 m 52.1129,-35.0217 c 1.2941,0.2404 3.7265,-0.3031 4.4544,1.1476 0.3998,0.7966 0.2419,1.7549 0.087,2.5911 -2.554,9.6346 -5.0604,18.2643 -7.5034,27.1628 -0.3723,0.9095 -0.8446,1.568 -1.7579,2.0113 -0.6539,0.3174 -1.7251,0.483 -2.5788,0.6231 -0.1517,0.8307 -0.213,1.1524 -0.255,1.5621 8.9853,0.1475 11.3268,0.2096 16.8837,0.1764 0.1704,-0.2747 0.3598,-1.4373 0.4506,-1.7997 -1.703,0.1237 -4.1685,0.064 -4.6685,-1.5813 -0.2762,-1.1048 0.316,-2.415 0.5579,-3.3825 1.277,-4.2553 2.0862,-7.2534 3.0424,-11.0642 3.3709,0.01 14.4021,0.074 14.8003,0.143 -1.1002,4.6397 -1.8439,9.1588 -3.6184,13.7799 -0.512,0.6394 -1.1579,1.6869 -2.1538,1.9435 -0.4235,0.1411 -1.5568,0.1157 -2.0765,0.1758 -0.1036,0.2894 -0.3765,1.406 -0.4021,1.6068 6.8034,-0.2043 10.7674,-0.1488 17.1381,0.155 0.2514,-1.0748 0.171,-0.7917 0.3842,-1.7183 -1.4131,0.2258 -4.3174,0.1671 -4.705,-1.6397 -0.5869,-1.6913 1.0062,-6.2605 1.8235,-8.6212 2.092,-7.4514 3.9229,-14.1257 5.6401,-20.0669 0.4205,-1.0415 0.9202,-1.9632 1.9228,-2.5461 0.689,-0.4008 1.6104,-0.2124 2.4546,-0.2989 0.2877,-0.6472 0.5379,-1.4076 0.692,-1.8881 -6.2047,0.3326 -12.0175,0.4588 -17.3645,0.4597 -0.077,0.3661 -0.1278,0.7953 -0.2051,1.1451 1.4081,0.089 3.1218,-0.1095 4.1889,0.9332 0.5892,0.7842 0.4456,2.2836 0.2441,3.187 -0.9273,3.5555 -1.9097,7.3465 -3.2076,10.8385 -5.3517,0.2342 -10.4009,0.1332 -14.854,0.046 0.9793,-4.5172 2.3022,-9.7567 4.0667,-13.6011 0.8675,-1.3384 2.3531,-1.1235 3.8215,-1.388 0.1016,-0.5304 0.1141,-1.1394 0.094,-1.7701 -5.7764,0.3881 -12.0346,0.496 -17.1121,0.5755 l -0.2843,1.1031 m 169.9665,34.6765 c 1.2872,1.6536 6.8825,1.4655 8.7281,0.5741 1.9211,-0.8533 2.8349,-2.0771 3.9676,-3.815 0.2485,4.9176 4.1074,5.3727 7.4561,3.1228 2.347,-2.0743 3.01,-2.9598 4.7845,-5.8426 v 0 l -1.2725,-0.4384 c -3.75,5.3323 -6.0562,7.468 -4.816,0.2588 3.2798,-12.0622 5.3162,-20.0167 8.0397,-30.2148 -3.3057,0.1453 -9.0773,0.28 -11.7852,0.4107 -0.032,0.8842 0.217,-0.2609 -0.425,2.066 1.4056,-0.1361 3.4867,-0.09 4.0965,1.0339 0.4501,0.9126 0.093,2.2707 -0.1473,3.2038 -0.8834,3.1904 -1.3858,6.4297 -2.2721,9.0628 -3.5767,-3.962 -10.2049,-2.5336 -13.2656,0.7067 -2.5263,2.5393 -3.9028,5.6714 -4.8321,9.0766 -0.8799,3.4245 -1.1531,8.7192 1.7433,10.7946 m 68.9115,-23.1419 c -0.9981,1.7426 -1.5933,2.2059 -4.0102,3.7472 -2.8719,2.1259 -4.6492,4.4353 -5.1448,6.9811 0.4511,0.1762 0.8335,0.295 1.3096,0.3629 1.1031,-2.8502 3.6575,-4.8323 6.3554,-6.1208 -2.818,10.3583 -5.3454,20.5272 -7.9691,30.1143 -0.2129,0.6959 -0.4052,1.4078 -0.995,1.8877 -0.8286,0.6745 -1.8693,0.7187 -2.8811,0.8591 -0.03,0.3236 -0.2232,0.8719 -0.2313,1.2613 3.5393,0.13 10.0592,0.1064 13.2644,0.136 0.4813,-0.9432 0.2654,-0.4527 0.5623,-1.2334 -1.7969,0.029 -3.3193,-0.7456 -3.6451,-1.8425 -0.3418,-1.2787 0.3765,-2.9499 0.7819,-4.2615 1.0412,-3.6905 1.9193,-6.7289 2.7729,-10.0066 0.4693,0.6438 1.1496,1.2548 1.526,1.526 4.6066,3.1678 9.8969,0.6527 12.5132,-3.2809 2.3256,-3.1008 3.538,-6.7998 3.8913,-10.682 0.2961,-3.258 -0.6501,-7.192 -3.6624,-8.6982 -3.9084,-1.721 -7.7463,-0.029 -9.7664,2.8231 1.1285,-4.0987 2.1014,-7.452 3.0559,-10.7657 -2.0075,-0.5501 -3.5272,-0.8542 -5.1496,-1.1883 m -144.0848,32.7654 c 2.2368,-0.5482 4.4999,-3.1371 5.6339,-5.0173 0.4683,-0.8786 1.1485,-2.0993 1.5346,-2.8654 -0.3427,-0.2972 -0.5126,-0.4327 -0.9242,-0.797 l -2.0517,3.1276 c -1.0127,1.2526 -2.903,3.4499 -3.9615,1.2971 -0.4067,-0.8706 -0.063,-1.7847 0.103,-2.6698 1.3758,-5.2065 2.4235,-9.5852 3.6265,-14.43 1.9787,-0.046 4.1766,0.017 5.1933,0.012 0.1553,-0.5783 0.2551,-1.1816 0.4639,-2.207 -2.822,-0.024 -3.7268,-0.027 -4.9758,-0.01 0.7061,-2.9531 1.3695,-5.4286 2.1541,-8.393 -2.3976,-0.036 -3.7867,-0.042 -5.6411,-0.036 -0.8437,2.5499 -1.9591,6.0004 -2.7637,8.4165 -1.2434,0.015 -3.6656,0 -4.4581,0.05 -0.094,0.3472 -0.3217,2.0609 -0.3217,2.0609 1.608,0.01 2.8639,0 4.234,0.053 -1.1654,4.2194 -2.1502,8.8246 -3.092,12.6513 -0.4005,1.6245 -1.0834,3.5785 -0.7881,5.2647 0.4219,2.4142 3.651,3.9509 6.0346,3.4913 m 165.7771,-21.3421 c 1.9375,-0.015 2.3191,-0.03 4.3002,0.017 -1.574,5.7343 -2.7998,10.6279 -3.8651,15.821 -0.5578,3.0764 1.7601,5.9353 4.5644,5.907 2.6031,0.2041 7.6527,-4.8513 8.6725,-7.8589 -0.3824,-0.2801 -0.6337,-0.4764 -1.2246,-0.9185 -0.8937,1.8055 -3.5278,5.994 -5.2593,5.2228 -1.5047,-0.9133 -0.7022,-3.353 -0.3732,-4.6887 1.1822,-4.5862 2.3633,-9.2468 3.4961,-13.5051 1.3726,-0.01 3.4304,0.011 5.041,-0.025 0.1661,-0.5149 0.4119,-1.3005 0.5989,-1.9176 -1.4932,-0.1231 -3.223,-0.072 -4.9877,-0.1521 0.6346,-2.7581 1.5309,-6.1693 2.1022,-8.2757 -2.2619,-0.097 -3.4213,-0.07 -5.5217,-0.1116 -0.9781,2.7801 -1.9459,6.0693 -2.7993,8.4726 -1.4707,-0.024 -2.2083,-0.062 -4.3659,-0.066 -0.1816,0.727 -0.3121,1.6053 -0.3785,2.0791 m -114.7447,-7.023 c 0.7509,5.0357 1.3981,9.3904 2.0998,14.0964 -3.3565,0.01 -6.4811,-0.1267 -10.0296,-0.1842 2.776,-4.85 5.4706,-9.3779 7.9298,-13.9122 v 0 m -100.5185,5.6383 c -7.2623,5.4679 -8.22,15.9214 -5.1593,20.1443 2.3546,3.081 6.4672,2.9253 9.8519,2.1669 3.7818,-0.5669 6.4167,-3.2025 8.1328,-5.8087 2.978,-4.076 4.0096,-10.9613 0.6524,-15.1418 -2.9696,-3.6982 -9.1135,-4.0252 -13.4778,-1.3607 m 30.0356,18.7777 c 0.045,2.9372 -3.5762,2.8905 -4.6566,2.1784 -1.6641,-1.1941 -0.1388,-4.0729 -2.083,-5.0465 -2.2745,-1.1392 -4.1606,1.0034 -3.4548,3.2496 0.8953,2.0956 3.9901,3.6582 5.8824,3.8289 1.4365,0.3254 3.8745,0.243 5.133,-0.3671 2.7721,-1.0513 3.8113,-2.2652 4.9954,-5.3693 1.6212,-5.4563 -4.1847,-8.9997 -6.0537,-12.5895 -0.9217,-1.8869 -0.8232,-4.5201 2.1265,-4.578 2.3087,-0.092 2.0922,2.3707 2.7682,3.6472 1.0598,1.8231 3.1246,1.1013 3.9012,-0.3663 0.8843,-1.745 -0.6508,-3.6242 -2.1677,-4.2896 -4.1286,-1.809 -10.228,-0.8393 -12.4186,3.4503 -2.0524,4.0187 0.8706,7.7223 3.3458,10.7095 1.1445,1.3818 3.1359,3.5548 2.6819,5.5424 m 136.7113,-1.1445 c -0.1572,0.8416 -0.3334,1.6588 -0.1892,2.5179 0.4868,2.888 3.2427,3.2535 5.6065,2.508 2.6786,-0.865 5.6271,-4.051 6.4634,-7.0013 l -1.3429,-0.4234 c -0.7051,1.3689 -1.4054,2.9799 -2.6934,4.1965 -0.792,0.6912 -1.7724,0.6943 -2.1272,-0.4243 -0.4601,-1.4527 0.3677,-3.1992 0.7302,-4.578 1.5372,-5.6532 2.9097,-10.5374 4.1134,-15.5084 -2.3318,-0.06 -4.0396,0 -5.6013,-0.057 l -1.2971,2.5942 c -0.3059,-1.2849 -1.5794,-2.0509 -2.7468,-2.4622 -2.6094,-0.9202 -5.6218,-0.5135 -8.0115,0.8126 -3.9653,2.2013 -6.3268,6.4962 -7.4957,10.7293 -1.2899,3.3546 -1.332,7.867 1.0415,10.5287 3.226,3.5054 9.1689,2.2217 11.9257,-1.2453 0.5287,-0.6813 0.9453,-1.6618 1.6244,-2.1875 m 78.5881,2.4304 c -1.6432,0.6975 -1.9992,0.7395 -3.5089,0.4545 -3.1931,-1.1567 -2.1606,-6.1957 -1.9102,-7.4442 4.0861,-1.0787 9.2345,-2.345 11.8842,-4.9255 1.8525,-1.8068 3.2839,-4.6337 1.5603,-7.0448 -1.7755,-2.4843 -5.5661,-2.7315 -8.3297,-2.2898 -6.7762,1.0843 -11.6548,8.3755 -12.0554,14.9281 -0.1801,2.9544 0.628,6.8739 3.4335,8.4693 4.2446,2.4149 10.051,-0.052 13.1892,-3.1458 0.5486,-0.5402 1.3056,-1.466 1.7423,-2.2664 -0.2396,-0.2916 -0.7581,-0.7995 -1.1075,-1.1145 -1.3512,1.7626 -2.9809,3.646 -4.8978,4.3791 m 12.3615,-12.9598 c 0.665,-1.2553 1.9845,-4.6103 3.3076,-4.7107 1.788,0.01 1.0171,3.9897 0.8592,5.0922 -0.4754,3.3381 -1.6298,6.7968 -2.6766,9.9953 -0.5181,1.5848 -1.1903,3.2435 -1.4902,4.8832 2.0343,0.028 4.3806,0 6.1531,-0.037 1.7807,-5.2089 3.6631,-10.9312 5.7299,-15.4524 0.6893,-1.416 2.1703,-3.9808 3.7585,-3.6128 0.7783,0.2175 1.0697,0.9774 1.6,1.5008 0.6486,0.6402 1.8144,0.9172 2.6797,0.6234 3.5533,-1.2078 2.7727,-6.0544 -0.6936,-6.6648 -3.4877,-0.6142 -6.1917,2.6339 -7.6872,5.3303 -0.5105,0.9194 -0.8725,1.7816 -1.4688,2.8231 0.3295,-2.0817 0.7779,-4.0158 0.1152,-5.8751 -0.8446,-2.3058 -3.2587,-2.8399 -5.3799,-1.8907 -1.7549,0.7859 -3.2092,2.4546 -4.2491,4.0248 -0.7053,1.1584 -1.3214,2.309 -1.8098,3.3628 0.3442,0.199 0.9246,0.4605 1.252,0.6071 m -254.2913,-5.6932 c 0.8635,-0.8655 2.8576,-1.5446 3.8755,-1.3622 2.6667,0.7639 2.2096,4.4841 1.9243,6.445 -0.602,5.094 -2.2166,12.4504 -6.9609,14.5855 -3.0108,1.2452 -3.7532,-2.939 -3.5579,-4.9717 0.5273,-5.5004 1.1879,-10.4642 4.7473,-14.7125 m 236.9429,9.6004 c 0.4497,-3.2756 1.6727,-7.0448 3.6815,-9.2346 0.956,-1.0949 2.5988,-2.0776 4.0164,-1.1506 1.3299,0.8699 0.8622,3.1611 0.3235,4.3575 -1.394,3.097 -4.9879,4.9888 -8.0214,6.0277 m -111.6269,9.0034 c -2.5141,-0.1685 -3.1374,-2.5148 -3.036,-4.1217 0.2717,-4.3224 1.7237,-8.6448 4.1805,-12.2042 1.0957,-1.587 3.4762,-3.2458 5.4936,-2.4088 1.7221,0.7142 1.7412,2.817 1.6717,4.3903 -0.1732,3.8982 -1.6946,8.3343 -3.8104,11.5976 -0.8233,1.2689 -2.7293,3.051 -4.4994,2.7468 m 37.4633,-18.8652 c 2.9322,-0.3921 3.0749,3.2809 2.759,5.2838 -0.5753,3.6449 -1.8029,7.3057 -3.7501,10.4485 -0.9652,1.5581 -2.4241,3.0978 -4.3499,3.2718 -2.8818,0.2609 -3.1146,-3.4076 -2.6903,-5.4799 0.7088,-3.4602 1.5435,-7.2164 3.5121,-10.2196 1.0651,-1.6244 2.5141,-3.036 4.5192,-3.3046 m 35.9228,1.0812 c 1.6073,1.8521 0.9958,4.7083 0.5669,6.7205 -1.067,3.9357 -3.1964,12.046 -7.7246,11.7792 -1.9838,-0.1923 -2.5927,-2.8277 -2.3958,-4.4544 0.438,-3.612 1.2147,-7.498 2.9047,-10.7575 0.9582,-2.3267 4.1965,-5.1098 6.6488,-3.2878 z"
         id="path2-1"
         sodipodi:nodetypes="ccccccsccccccccsccccccccccccccccccccccccccccccccccccssccccccccccccccccccccccccccccccccccccccccccccccsccccsccccccccccccccccccccccccccccccccccccccccsccccccccccccccccccccccccccccccccccccccccccccccccccccccccccccccccccccccccccccccccccccccccccccccccccccccccccccccccccccccccccccccccccccccccccccccccccccccccccccccccccccccccccccccccccccccccccccccccccccccccccccccccccccccccccccccccccccccccccccccccccccccccccccccccccccccscsccccccccscccccccccccccccccccccccccccc" />
      <path
         style="fill:#999999;fill-opacity:1;stroke:none;stroke-width:0.0763"
         d="m 4937.7024,4088.8112 h -1.1979 l -19.3479,24.8902 c -2.7259,3.2893 -2.0428,2.5212 -4.8133,3.628 -0.4493,0.219 -1.1369,0.8238 -0.5016,1.2808 0.9348,0.6727 2.5826,0.2661 3.6216,0.1328 1.7628,-0.064 3.5503,0.086 5.2059,0.1833 0.6961,0.041 2.1672,0.144 2.3833,-0.8062 0.1423,-0.6255 -0.548,-0.8122 -1.0193,-0.9133 -0.9039,-0.1941 -3.9149,-0.3651 -2.8465,-2.1469 l 5.337,-7.1281 h 9.6581 l 0.056,8.7134 c -0.2132,0.6107 -2.079,0.5715 -2.8175,0.7663 -0.5851,0.1543 -0.871,0.8533 -0.3928,1.3279 1.2209,0.4187 3.7239,0.1366 4.9859,0.06 1.4021,-0.082 2.2512,0.2473 4.2603,0.1399 0.574,-0.028 0.7276,-0.2095 1.3192,-0.2907 0.2031,0.027 1.0424,0.1766 1.2605,0.193 1.7421,0.131 3.7077,-0.1876 5.2088,0.011 3.8891,0.1084 4.1819,0.2491 3.8588,-1.088 -0.2898,-0.3637 -1.5357,-0.2556 -2.1141,-0.4928 -2.7033,-1.1085 -1.7355,-2.7744 -1.0152,-4.7023 l 7.4406,-19.8492 1.2997,25.585 h 1.1775 c 0.1243,-0.605 0.4648,-0.9145 0.6904,-1.3253 l 16.3489,-23.5767 -5.4305,21.6692 c -0.4839,1.6971 -2.246,1.6995 -3.6439,1.9055 -1.1546,0.1389 -1.1504,0.5516 -1.1309,1.2994 0.023,0.8811 0.4497,0.6049 2.6265,0.6358 2.2728,0.032 4.7793,-0.048 7.1722,-0.076 2.0152,-0.024 2.2176,0.3277 2.4065,-0.4649 0.161,-0.6752 0.024,-1.0865 -0.8501,-1.2336 -1.1999,-0.202 -2.5485,-0.3969 -2.2894,-2.0659 l 5.2689,-21.2877 c 0.7435,-3.3114 1.9182,-3.2426 4.2621,-3.2707 0.9597,0.01 0.7561,-0.5647 0.8424,-1.2054 -0.079,-0.6309 -0.2641,-0.7012 -1.8944,-0.7328 -5.1872,0.027 -5.9748,-0.253 -6.4513,0.5712 l -15.6678,22.6177 -0.967,-20.0706 c -0.405,-1.4038 0.6136,-3.0872 -2.4127,-3.0978 l -4.238,-0.01 c -1.343,0.015 -1.6444,-0.035 -1.7751,0.6259 -0.1511,0.9422 0.1325,1.0323 0.7491,1.1762 0.8267,0.2825 2.8541,-0.084 2.3649,1.4075 l -8.5675,23.0426 c -0.3505,0.6671 -1.3375,1.8245 -2.1148,1.9565 -0.6303,0.107 -1.2767,-0.1604 -1.9075,0.01 -0.4018,0.1077 -0.7043,0.5005 -1.0302,0.751 -0.8989,0.1618 -1.8291,-0.4101 -2.2224,-1.1904 -0.3607,-0.7904 -0.3999,-1.8957 -0.404,-2.7515 m 84.1531,-24.9871 c -0.9881,0.09 -1.9915,0.02 -2.9757,0.171 -9.0057,1.1639 -17.8697,5.9069 -21.3732,14.2915 -1.5115,4.4199 -0.1717,8.7179 3.0619,11.9791 3.1916,3.8944 7.9561,3.7784 12.1799,3.7823 2.0479,0 5.2652,0.1049 6.3603,-0.691 0.9994,-0.5391 3.1511,-7.3798 4.3529,-10.7167 0.7409,-1.5025 4.1819,0.037 3.361,-2.3598 -0.6112,-0.5872 -0.5918,-0.5223 -2.7544,-0.184 -2.1319,0.189 -4.2828,-0.051 -6.4092,-0.2349 -1.8117,-0.1737 -2.0868,-0.226 -2.2997,0.6438 -0.1107,0.4529 -0.1014,0.9034 0.7737,1.0076 0.7202,0.3137 3.0944,0 3.157,1.1437 -0.5237,2.4386 -2.1515,8.5298 -3.3179,9.2321 -0.811,0.4967 -2.6035,0.4196 -3.5015,0.371 -2.6499,-0.1433 -5.0313,-0.2516 -7.2485,-1.9297 -0.7936,-0.6007 -1.758,-1.4365 -2.299,-2.2774 -0.3593,-0.5586 -0.4661,-1.2169 -0.6889,-1.8309 -1.3177,-3.6266 -0.6822,-7.1957 1.3154,-10.4531 3.5983,-5.8674 10.5912,-9.694 17.3903,-10.1324 1.1633,-0.017 4.0982,-0.08 4.4299,1.2129 0.2839,1.2827 -0.4837,3.0502 -0.6332,4.3415 -0.061,0.527 0.1075,1.3159 0.7813,1.3368 0.679,0.021 1.0338,-0.9075 1.249,-1.4131 0.5997,-1.4114 1.3696,-2.8788 1.7961,-4.3491 0.1274,-0.4388 0.4418,-1.1447 0.2709,-1.5904 -0.2526,-0.6578 -1.1171,-0.8068 -1.7137,-0.9561 -1.6512,-0.4132 -3.5655,-0.5493 -5.2647,-0.3947 m 7.9449,25.193 c -1.3512,1.6886 -1.1931,1.8693 -3.0617,3.0354 -0.4685,0.2924 -2.2074,0.546 -2.1937,1.1935 0.02,0.9507 1.3979,0.9381 2.0411,0.9002 1.2871,-0.076 2.4044,-0.2339 3.7076,-0.1197 1.3779,0.1207 3.4386,0.425 4.8372,0.017 0.47,-0.183 1.1071,-0.7773 0.512,-1.2062 -1.0018,-0.7212 -3.1161,-0.1126 -3.8539,-1.1561 -0.4479,-0.6328 0.3113,-1.7314 0.6546,-2.2546 l 4.4247,-6.0211 h 10.0899 c 0.014,3.529 0.3781,7.5837 0.083,8.4372 -0.6813,1.1664 -3.2961,-0.047 -3.6166,1.4044 -0.2419,1.0983 1.3016,0.9518 1.9417,0.9514 1.1354,-8e-4 2.3598,-0.1894 3.4806,-0.2154 1.2063,-0.01 2.3135,0.195 3.4899,0.1733 1.5344,0.012 2.0434,0.1333 2.2538,-0.4231 0.5192,-1.5977 -2.6549,-0.7405 -2.8508,-1.6703 l -1.2072,-28.2516 h -0.7656 m -71.0321,29.0441 c -0.1676,1.011 -0.3833,1.2848 1.1859,1.2189 2.8252,-0.2396 5.5341,-0.07 8.0574,0 2.8505,-0.088 3.0848,-0.1223 3.1285,-0.8978 0.032,-1.0606 -3.5382,-0.5527 -3.4259,-1.8319 l 6.9037,-23.2485 c 0.7054,-1.9576 1.3636,-1.9387 3.4372,-2.0243 0.4624,-0.1222 1.2109,-0.5801 1.1171,-1.1517 -0.1595,-0.9786 -1.8168,-0.8315 -2.4661,-0.7881 -2.4751,0.1656 -4.9251,0.1386 -7.4011,0 -0.6859,-0.037 -2.2104,-0.1965 -2.556,0.6329 -0.2442,0.5843 0.2419,1.0739 0.7775,1.2026 0.8393,0.2019 2.9429,-0.1078 2.9727,1.2084 l -6.6077,21.6629 c -0.2335,0.772 -0.5775,1.6889 -1.0849,2.336 -0.6711,1.6719 -3.952,1.0257 -4.0383,1.6711 m -45.6927,-22.275 0.2289,10.434 h -8.3167 v -0.019 l 8.0878,-10.4149 m 113.4581,0.3052 0.3815,10.4149 h -8.393 z"
         id="path2"
         sodipodi:nodetypes="ccccccccscccccccccsccccccccccssscsccccccccccccccccccccccccccccccccccccccccssccccccscccccccccccscscccccccccccccccccccccccccccccc" />
    </g>
  </g>
</svg>
